<?xml version="1.0" encoding="UTF-8"?>
<svg version="1.1" xmlns="http://www.w3.org/2000/svg" width="3840" height="2160">
<path d="M0 0 C1.03133057 0.24943359 1.03133057 0.24943359 2.08349609 0.50390625 C22.46481396 5.66010754 41.87293367 17.23047927 53.1953125 35.39453125 C57.5273234 42.70568569 61.3026898 50.35329026 65 58 C65.46148438 57.28457031 65.92296875 56.56914063 66.3984375 55.83203125 C83.7410666 29.33825201 104.78777598 5.90285843 137 -1 C147.06732932 -2.86617455 156.98479255 -3.36628455 167.1875 -3.3125 C168.2690889 -3.30976578 168.2690889 -3.30976578 169.37252808 -3.30697632 C180.78305556 -3.2585444 191.87907574 -2.73051209 203 0 C203.68223633 0.16628906 204.36447266 0.33257813 205.06738281 0.50390625 C227.49041032 6.22893455 247.54591472 18.53558554 259.64526367 38.76538086 C275.20770338 66.05905518 276.31522888 95.27925997 276.23213124 125.87230217 C276.22340538 129.90953216 276.22642329 133.94675675 276.22793579 137.98399353 C276.22897893 144.96003326 276.2227625 151.93603526 276.21146011 158.91206551 C276.19512998 168.99793529 276.18998946 179.08378704 276.18748413 189.16966861 C276.18311875 205.53768326 276.16984121 221.90567786 276.15087891 238.27368164 C276.13249004 254.16332907 276.11834829 270.05297102 276.10986328 285.94262695 C276.10907511 287.41449032 276.10907511 287.41449032 276.10827102 288.91608829 C276.10566074 293.83923099 276.10313337 298.76237372 276.10064721 303.68551648 C276.07995078 344.45702881 276.04310059 385.22850399 276 426 C234.75 426 193.5 426 151 426 C150.97812622 412.75862915 150.97812622 412.75862915 150.95581055 399.24975586 C150.90699805 370.96793444 150.84357371 342.68616254 150.77101372 314.40439248 C150.75974627 310.00746962 150.7486077 305.61054644 150.73754883 301.21362305 C150.7342433 299.90066392 150.7342433 299.90066392 150.730871 298.56118036 C150.69554981 284.40963011 150.67065649 270.25807991 150.64965298 256.10650199 C150.6278496 241.57330494 150.59475629 227.04016482 150.55129844 212.50701624 C150.52485971 203.54756202 150.50710714 194.58817866 150.50065396 185.62868739 C150.49537618 179.47528002 150.47907958 173.32196164 150.45433434 167.16860204 C150.44040071 163.62450913 150.43111774 160.08057522 150.43499184 156.53645325 C150.88911804 130.75692311 150.88911804 130.75692311 142 107 C141.1646875 105.63875 141.1646875 105.63875 140.3125 104.25 C133.41173289 97.53574011 125.58140463 94.36134251 116 94 C103.96884421 94.54687072 93.33926291 98.04453539 85 107 C73.7227415 120.4438254 71.69075974 138.39827552 71.7215271 155.30708313 C71.7128385 157.05721239 71.7128385 157.05721239 71.70397437 158.8426978 C71.6900389 162.04000607 71.68475403 165.2371855 71.68332577 168.43451917 C71.67959904 171.89787889 71.66442772 175.36119197 71.65071106 178.82452393 C71.62853624 184.81132317 71.61346447 190.7981056 71.60334396 196.7849369 C71.58870132 205.44067244 71.56314918 214.09634936 71.53501268 222.7520503 C71.48964567 236.79847042 71.45298936 250.84489903 71.421875 264.89135742 C71.39164798 278.52874237 71.35725633 292.1661065 71.31738281 305.8034668 C71.31366055 307.07917088 71.31366055 307.07917088 71.30986309 308.38064677 C71.2904211 315.03278453 71.2707391 321.68492159 71.25098133 328.33705842 C71.1543519 360.89134692 71.07863869 393.44565347 71 426 C29.75 426 -11.5 426 -54 426 C-54.01981934 417.18700195 -54.03963867 408.37400391 -54.06005859 399.29394531 C-54.12490968 371.07373188 -54.19944516 342.85355142 -54.28005161 314.63337876 C-54.29257001 310.24761079 -54.30500285 305.86184258 -54.31738281 301.47607422 C-54.31984881 300.60297182 -54.3223148 299.72986941 -54.32485552 298.83030936 C-54.36454489 284.70583294 -54.39730912 270.58134856 -54.42749982 256.45684901 C-54.45864867 241.95644807 -54.49727271 227.45608083 -54.54279006 212.9557178 C-54.57062697 204.01315869 -54.59268074 195.07062414 -54.60726251 186.12803343 C-54.61783042 179.99008365 -54.63568003 173.85218152 -54.65916704 167.7142677 C-54.67249162 164.17665222 -54.68269069 160.63910332 -54.68421364 157.10146141 C-54.68595338 153.25639878 -54.70307075 149.41148781 -54.7215271 145.56646729 C-54.718625 143.90882666 -54.718625 143.90882666 -54.71566427 142.21769834 C-54.81192265 128.74979536 -56.86360721 114.45668894 -65.44140625 103.52734375 C-72.49996144 96.61031348 -81.06792619 94.0688291 -90.75390625 93.97265625 C-100.886515 94.53477821 -110.67857274 97.78738376 -118 105 C-134.55965734 124.35993342 -133.44842196 149.77165872 -133.43237305 173.76831055 C-133.43976417 176.51985938 -133.45160916 179.27138503 -133.46325684 182.0229187 C-133.48587605 187.90812958 -133.49789878 193.79328195 -133.50238609 199.67853355 C-133.50888954 208.18723492 -133.53189962 216.69583125 -133.55872939 225.20448992 C-133.60183714 239.01464834 -133.63189488 252.82480228 -133.65356445 266.63500977 C-133.67462244 280.0373758 -133.70193924 293.4397054 -133.73754883 306.84204102 C-133.73974765 307.67042104 -133.74194648 308.49880106 -133.74421193 309.3522835 C-133.75528279 313.5086976 -133.76647537 317.66511137 -133.77772844 321.82152498 C-133.87068642 356.21431921 -133.94238912 390.60712879 -134 425 C-138.48221261 425.60177355 -142.83090811 426.12496741 -147.3591156 426.12698364 C-148.83750664 426.13121338 -148.83750664 426.13121338 -150.34576416 426.13552856 C-151.40011658 426.13350433 -152.45446899 426.1314801 -153.54077148 426.12939453 C-154.67174759 426.13114685 -155.80272369 426.13289917 -156.9679718 426.13470459 C-160.68569497 426.13908673 -164.40337015 426.13619933 -168.12109375 426.1328125 C-170.70801299 426.13348625 -173.29493217 426.13445688 -175.8818512 426.13571167 C-181.29095118 426.13718343 -186.70003321 426.13514545 -192.10913086 426.13037109 C-198.3679232 426.12491067 -204.62668305 426.12670708 -210.88547462 426.1321975 C-216.91149372 426.13727233 -222.93749686 426.13674866 -228.96351814 426.13381577 C-231.52770047 426.13314671 -234.09188362 426.13397416 -236.65606499 426.13629532 C-240.22572955 426.13881917 -243.79533045 426.13498596 -247.36499023 426.12939453 C-248.43351227 426.13141876 -249.5020343 426.13344299 -250.60293579 426.13552856 C-252.05171867 426.13129883 -252.05171867 426.13129883 -253.5297699 426.12698364 C-254.37388144 426.12660662 -255.21799299 426.12622959 -256.08768368 426.12584114 C-258 426 -258 426 -259 425 C-259.09809919 422.78996542 -259.12371116 420.57671925 -259.12304783 418.36450863 C-259.12420167 417.65930296 -259.12535552 416.95409729 -259.12654433 416.22752175 C-259.12921776 413.83459581 -259.12468291 411.44173547 -259.12025452 409.04881287 C-259.12069007 407.3279079 -259.12156468 405.60700299 -259.12284368 403.88609844 C-259.12509176 399.13389313 -259.12106312 394.38171013 -259.11606562 389.62950766 C-259.11176576 384.51359469 -259.11320721 379.39768307 -259.1139679 374.2817688 C-259.11449343 365.41036618 -259.11134359 356.53897089 -259.10573006 347.66757011 C-259.09761899 334.84085522 -259.09500024 322.01414388 -259.09374207 309.18742669 C-259.09155093 288.37926227 -259.08488916 267.57110175 -259.07543945 246.76293945 C-259.06626694 226.54418965 -259.05918532 206.32544091 -259.05493164 186.10668945 C-259.05466892 184.86137502 -259.05440619 183.61606059 -259.05413551 182.33300935 C-259.05283052 176.08592228 -259.0515668 169.8388352 -259.05032361 163.59174812 C-259.03994906 111.72782861 -259.02150972 59.86391632 -259 8 C-219.4 8 -179.8 8 -139 8 C-138.67 23.84 -138.34 39.68 -138 56 C-135.36 51.38 -132.72 46.76 -130 42 C-111.87196241 18.17457917 -87.45429515 1.84483912 -57.375 -2.49609375 C-38.74583442 -4.58524266 -18.22570122 -4.46523087 0 0 Z " fill="#000000" transform="translate(3301,864)"/>
<path d="M0 0 C41.25 0 82.5 0 125 0 C127.24998872 11.24994362 127.24998872 11.24994362 127.83676243 15.7667532 C127.97249686 16.7984817 128.10823129 17.8302102 128.24807888 18.8932032 C128.46010123 20.54483997 128.46010123 20.54483997 128.67640686 22.22984314 C128.83258513 23.42458443 128.98876341 24.61932572 129.14967436 25.85027128 C129.57895583 29.13943283 130.00518752 32.42896282 130.43010581 35.71868908 C130.89043243 39.27653152 131.35476344 42.83385158 131.81861877 46.39123535 C132.62068232 52.54641746 133.42031589 58.70191125 134.21833992 64.85761833 C135.37262207 73.76094907 136.53127577 82.66370679 137.69109481 91.56631774 C139.57359724 106.01663321 141.45348672 120.46728721 143.33129883 134.91821289 C143.4996739 136.21395332 143.4996739 136.21395332 143.67145049 137.53587032 C144.24032935 141.9137826 144.80917804 146.2916988 145.37801361 150.6696167 C146.51817816 159.44456387 147.65853973 168.21948542 148.79907227 176.99438477 C148.91148725 177.85927703 149.02390223 178.7241693 149.13972373 179.61527043 C151.01237881 194.02240364 152.88738211 208.42923035 154.76399988 222.83584791 C155.92119217 231.72044304 157.07620247 240.60531677 158.22841727 249.49055881 C159.01699543 255.57063818 159.80765675 261.65044424 160.59997708 267.73003709 C161.05734049 271.24006748 161.51369483 274.75022178 161.96744537 278.26072121 C162.45861448 282.06058193 162.95436454 285.85983672 163.45057678 289.65904236 C163.59415574 290.77574859 163.73773469 291.89245482 163.88566452 293.04300064 C164.01879121 294.05647491 164.15191789 295.06994918 164.28907871 296.11413479 C164.40304983 296.99156383 164.51702094 297.86899287 164.63444573 298.77301067 C164.96642734 301.16325597 164.96642734 301.16325597 166 304 C166.08735184 303.42374913 166.17470369 302.84749827 166.26470256 302.25378525 C171.45860497 267.99021033 176.6528081 233.726681 181.84739403 199.4632097 C182.47313464 195.33582502 183.09887277 191.20843997 183.72460938 187.08105469 C183.84916595 186.25947447 183.97372253 185.43789425 184.10205355 184.59141766 C186.11059957 171.34292736 188.11894565 158.09440677 190.12721595 144.84587468 C192.19268595 131.22002746 194.2583752 117.59421349 196.3242619 103.96842945 C197.5958055 95.58177775 198.86718438 87.19510113 200.13834265 78.80839102 C201.0137403 73.03289873 201.88935366 67.25743917 202.76512572 61.48200364 C203.26803043 58.16546789 203.77081824 54.84891454 204.2734108 51.53233147 C205.16820328 45.62780773 206.06430384 39.72349205 206.96395111 33.81970596 C207.69097912 29.046734 208.40822593 24.27239004 209.12107086 19.49728012 C209.48292594 17.09443872 209.84484921 14.69160758 210.20684814 12.28878784 C210.37268677 11.16613183 210.5385254 10.04347582 210.70938945 8.88679993 C210.86431212 7.8640122 211.01923479 6.84122446 211.17885208 5.78744316 C211.31376407 4.88404981 211.44867606 3.98065645 211.58767629 3.04988754 C212 1 212 1 213 0 C214.73359598 -0.09627113 216.47114646 -0.12187568 218.20741272 -0.12025452 C219.33628403 -0.12162918 220.46515533 -0.12300385 221.62823486 -0.12442017 C223.50234039 -0.11902725 223.50234039 -0.11902725 225.41430664 -0.11352539 C226.72143112 -0.11367142 228.0285556 -0.11381744 229.37528992 -0.1139679 C232.97017099 -0.11425586 236.56501897 -0.10835928 240.15989232 -0.10139394 C243.91286252 -0.09516026 247.6658334 -0.09455659 251.41880798 -0.09336853 C258.53030826 -0.09025526 265.64179325 -0.08204192 272.75328678 -0.07201904 C280.84747066 -0.06085778 288.94165526 -0.05534742 297.03584492 -0.05032361 C313.69057225 -0.03985931 330.34528418 -0.02225994 347 0 C348.59468029 6.76117181 349.73910155 13.49681211 350.70091248 20.37431335 C350.93918852 22.04702977 350.93918852 22.04702977 351.18227822 23.75353843 C351.71139468 27.47413881 352.23545348 31.19543347 352.75952148 34.91674805 C353.13887756 37.59174883 353.51851417 40.26670841 353.89849854 42.94161987 C354.8218986 49.44650081 355.74155214 55.95190613 356.65997391 62.4574916 C357.73247843 70.05331763 358.8089269 77.64858317 359.88557673 85.24382255 C361.80943529 98.81652771 363.73004404 112.38969067 365.64868164 125.96313477 C367.50415927 139.08971259 369.36142321 152.21603578 371.22094727 165.34204102 C371.33521844 166.14866142 371.44948961 166.95528182 371.56722354 167.78634527 C372.0267641 171.03012488 372.48631167 174.27390351 372.94586989 177.51768063 C374.94006485 191.59390851 376.93294137 205.67032311 378.92548576 219.74678472 C379.24579345 222.00959728 379.56611999 224.27240718 379.88644671 226.53521705 C381.10761592 235.16199233 382.32807258 243.788868 383.54760742 252.41587448 C383.91538404 255.01740568 384.28344736 257.61889581 384.65165901 260.22036552 C386.81054033 275.47456861 388.93561869 290.73270639 391 306 C391.14170687 305.01228387 391.28341373 304.02456774 391.42941475 303.00692081 C394.95552485 278.42958965 398.48212349 253.85232863 402.00917244 229.27513218 C403.71514831 217.38747201 405.42098965 205.49979256 407.12646484 193.61206055 C419.13691466 109.89608271 419.13691466 109.89608271 425.11621094 68.44482422 C425.26838089 67.38991106 425.42055085 66.33499791 425.57733202 65.24811769 C428.71505646 43.49828813 431.85823788 21.74924662 435 0 C474.93 0 514.86 0 556 0 C544.34741256 55.93241972 544.34741256 55.93241972 538.94969177 80.94235229 C538.54661399 82.8120974 538.1435584 84.6818473 537.74052238 86.55160141 C537.53716105 87.49476699 537.33379972 88.43793258 537.12427592 89.40967894 C536.03143791 94.48005509 534.94057885 99.55085706 533.84950256 104.62161255 C531.99838013 113.22365228 530.14628829 121.82548272 528.29345703 130.42715454 C523.71149226 151.69911678 519.1349533 172.97224685 514.55850458 194.24539638 C513.84041442 197.58328486 513.12226732 200.92116109 512.40410995 204.25903511 C503.22756687 246.91121422 494.08960088 289.57151965 484.99712467 332.24170208 C483.9283755 337.25612776 482.85748532 342.27007228 481.78089905 347.28282166 C479.75418003 356.72691387 477.75118091 366.17477515 475.80399323 375.63563633 C474.81735164 380.41810594 473.81756134 385.19777827 472.81602478 389.97714806 C472.33803865 392.27489082 471.86615142 394.57391153 471.40065002 396.87421608 C470.75839545 400.04546362 470.09547332 403.21172182 469.42773438 406.37768555 C469.24114761 407.32655577 469.05456085 408.27542599 468.86231995 409.25304985 C468.58260597 410.54936679 468.58260597 410.54936679 468.29724121 411.87187195 C468.06494938 413.00168503 468.06494938 413.00168503 467.82796478 414.15432262 C467 416 467 416 465.27083778 417.24255562 C462.52382433 418.15882974 460.26752338 418.24882233 457.36935425 418.24723816 C456.22242096 418.25143265 455.07548767 418.25562714 453.89379883 418.25994873 C452.63962158 418.25432922 451.38544434 418.24870972 450.09326172 418.24291992 C448.75603136 418.24399312 447.41880146 418.24593237 446.08157349 418.24867249 C442.45364659 418.25351698 438.82584282 418.24587077 435.19793081 418.23571944 C431.40320571 418.22693514 427.60848442 418.22869644 423.81375122 418.2290802 C417.44335876 418.22814391 411.07301395 418.21946348 404.70263672 418.20581055 C397.33172974 418.19007192 389.96087491 418.18481293 382.58995235 418.1855461 C375.5035453 418.18615583 368.41715527 418.18105626 361.33075333 418.17275429 C358.31244906 418.16921887 355.29415081 418.16739068 352.27584457 418.16686058 C348.7250896 418.16585811 345.17437862 418.15976937 341.62363815 418.14969444 C339.6941447 418.14536727 337.76464222 418.145942 335.83514404 418.14663696 C334.12320358 418.14023949 334.12320358 418.14023949 332.37667847 418.13371277 C331.38080656 418.13203692 330.38493465 418.13036108 329.35888481 418.12863445 C327 418 327 418 325 417 C324.28081417 414.29021931 324.28081417 414.29021931 323.6103363 410.51594543 C323.48474915 409.81067241 323.359162 409.10539938 323.22976917 408.37875444 C321.3424077 397.53690257 319.81442015 386.63463847 318.23461914 375.74487305 C317.86656674 373.22473639 317.49822678 370.70464171 317.12962341 368.18458557 C316.34037023 362.78421542 315.55308158 357.38356488 314.76762581 351.98264122 C313.62774739 344.1447178 312.48415088 336.30734024 311.33969503 328.47008405 C309.47663148 315.71113541 307.61641328 302.95177367 305.75805664 290.19213867 C303.96416984 277.87520824 302.16910537 265.55845049 300.37231445 253.24194336 C300.2618584 252.48479397 300.15140236 251.72764458 300.03759915 250.94755127 C299.26275077 245.63625019 298.48782663 240.32496017 297.71289062 235.01367188 C296.8468465 229.0778702 295.98083125 223.14206432 295.11485291 217.20625305 C295.00948548 216.48402911 294.90411805 215.76180516 294.79555767 215.01769564 C293.35166891 205.12060538 291.90874818 195.22337446 290.46665241 185.32602279 C289.79149342 180.69252675 289.11612626 176.05906106 288.44080544 171.42558861 C288.08599144 168.99068367 287.73128769 166.55576267 287.3767128 164.12082291 C286.41786586 157.5362498 285.45598672 150.95213119 284.49153066 144.36837745 C283.95872197 140.71712855 283.43151283 137.06509015 282.90426445 133.41303444 C282.54265753 130.92787042 282.18093152 128.44272373 281.81907654 125.95759583 C281.65167939 124.78932619 281.48428225 123.62105655 281.31181246 122.4173848 C281.15470543 121.34365154 280.9975984 120.26991828 280.83573055 119.16364765 C280.62940247 117.73733209 280.62940247 117.73733209 280.41890615 116.28220206 C280.10566484 113.97934009 280.10566484 113.97934009 279 112 C278.9134076 112.54841856 278.82681519 113.09683711 278.73759878 113.66187441 C267.85486102 182.5858802 256.97212327 251.50988599 246.08938551 320.43389177 C245.9774051 321.1431084 245.86542468 321.85232502 245.75005092 322.58303306 C245.52575238 324.00357571 245.30144475 325.42411692 245.07712785 326.84465667 C244.52869178 330.31782891 243.98040733 333.79102493 243.43246257 337.26427472 C242.39816947 343.81930151 241.36149044 350.37393531 240.31911278 356.92768288 C238.55782237 368.01563088 236.82293465 379.10479507 235.20098877 390.21405029 C234.80287572 392.89641684 234.40340432 395.57857677 234.00332952 398.26065135 C233.6512026 400.66154383 233.31848025 403.06457429 232.98670006 405.46834755 C232.7786457 406.86848261 232.56965743 408.26847936 232.35952759 409.66830444 C232.19131311 410.85585516 232.02309864 412.04340588 231.84978676 413.26694298 C231 416 231 416 229.26610374 417.38027859 C226.55028603 418.12298527 224.2019819 418.24878318 221.3828125 418.24723816 C220.23876953 418.25143265 219.09472656 418.25562714 217.91601562 418.25994873 C216.03946289 418.25151947 216.03946289 418.25151947 214.125 418.24291992 C212.79101468 418.24399315 211.45702981 418.24593243 210.12304688 418.24867249 C206.5032498 418.25351753 202.88357611 418.24586933 199.26379395 418.23571944 C195.47534324 418.22693243 191.68689632 418.22869652 187.8984375 418.2290802 C181.53643735 418.2281438 175.1744849 418.21946319 168.8125 418.20581055 C161.45753783 418.1900853 154.10262791 418.18481247 146.74765015 418.1855461 C139.67192866 418.18615656 132.59622419 418.18104947 125.52050781 418.17275429 C122.50943875 418.1692243 119.49837571 418.16739144 116.48730469 418.16686058 C112.9414682 418.16585567 109.39567554 418.15974687 105.84985352 418.14969444 C103.9279017 418.14538236 102.0059409 418.14594074 100.08398438 418.14663696 C98.36791992 418.14023949 98.36791992 418.14023949 96.6171875 418.13371277 C95.62315918 418.13203692 94.62913086 418.13036108 93.60498047 418.12863445 C91.24847675 418.01226983 89.25320928 417.67181584 87 417 C82.49353035 396.56224774 78.09963251 376.1049325 73.84375 355.61328125 C73.26658291 352.83952235 72.68892069 350.06586661 72.11128235 347.29220581 C70.8806392 341.38173957 69.6511566 335.47103295 68.42251587 329.56015015 C66.62682089 320.92125445 64.82918181 312.28276409 63.03114331 303.64435589 C59.73903343 287.8276195 56.4489428 272.01046357 53.15962315 256.19314671 C50.73135265 244.51637125 48.30264921 232.83968594 45.87353516 221.16308594 C45.7046496 220.35126063 45.53576404 219.53943532 45.36176074 218.70300925 C43.66956503 210.56872814 41.9773106 202.43445925 40.28504854 194.30019194 C39.61522861 191.08053817 38.94541146 187.86088383 38.27559531 184.64122927 C37.94268998 183.04103205 37.60978318 181.44083513 37.2768749 179.84063852 C35.30459569 170.3604267 33.33255419 160.88016549 31.36087388 151.39982909 C25.19335932 121.74491554 19.02379682 92.0904527 12.828125 62.44140625 C12.47894044 60.77022515 12.47894044 60.77022515 12.12270164 59.06528282 C10.00099836 48.91124267 7.87844937 38.757381 5.75234032 28.60426235 C5.02371387 25.12403198 4.29580883 21.64365098 3.56806183 18.16323662 C3.08132882 15.83694591 2.59351032 13.51088461 2.10565186 11.18482971 C1.82110395 9.82407934 1.53661489 8.46331667 1.25219727 7.10253906 C1.00816666 5.93756897 0.76413605 4.77259888 0.51271057 3.57232666 C0 1 0 1 0 0 Z " fill="#000000" transform="translate(2269,872)"/>
<path d="M0 0 C41.25 0 82.5 0 125 0 C125 181.83 125 363.66 125 551 C85.4 551 45.8 551 5 551 C3.41523948 549.41523948 3.83572683 547.77107999 3.79467773 545.57202148 C3.77473251 544.63112167 3.75478729 543.69022186 3.73423767 542.72080994 C3.70916893 541.18645042 3.70916893 541.18645042 3.68359375 539.62109375 C3.66281265 538.57929459 3.64203156 537.53749542 3.62062073 536.46412659 C3.55500943 533.12198753 3.49618669 529.77976715 3.4375 526.4375 C3.39432578 524.17772582 3.35071186 521.91795999 3.30664062 519.65820312 C3.19931633 514.10555579 3.09757188 508.55282679 3 503 C2.68764404 503.78431396 2.37528809 504.56862793 2.0534668 505.37670898 C-7.3889176 528.63556287 -23.05439256 544.88345234 -46.00097656 555.16308594 C-51.19586163 557.33798408 -56.51450338 558.77527103 -62 560 C-62.96292969 560.22429688 -63.92585937 560.44859375 -64.91796875 560.6796875 C-93.88404535 566.26627559 -127.08738558 561.0546326 -152 545 C-155.90111447 542.22587415 -159.4722515 539.23245117 -163 536 C-163.91394531 535.17886719 -164.82789063 534.35773437 -165.76953125 533.51171875 C-173.21861442 526.4793675 -178.74930194 518.75041897 -184 510 C-184.53536377 509.11103027 -184.53536377 509.11103027 -185.08154297 508.20410156 C-205.50700966 473.6467831 -211.65758188 430.5211088 -214 391 C-214.04130035 390.3475531 -214.08260071 389.6951062 -214.12515259 389.02288818 C-215.06808201 373.89237705 -215.19995738 358.78148348 -215.1875 343.625 C-215.18722809 342.37765076 -215.18695618 341.13030151 -215.18667603 339.84515381 C-215.04341179 196.29897728 -215.04341179 196.29897728 -167.7578125 147.6953125 C-144.39054002 125.69755049 -114.10385121 122.25348758 -83.57080078 122.86376953 C-57.69268737 123.85105158 -34.32717343 134.82701265 -16.6640625 153.46484375 C-10.49865103 160.78779294 -5.28069307 169.43861386 -1 178 C-0.505 89.89 -0.505 89.89 0 0 Z M-74 228 C-95.22462328 255.18241227 -90.34334423 301.20332839 -90.26074219 333.53295898 C-90.24935727 338.03132246 -90.256124 342.529449 -90.26761913 347.02780437 C-92.55761654 406.65998154 -92.55761654 406.65998154 -69.8671875 459.37890625 C-60.46579878 468.27255446 -50.64117835 470.50811231 -38.05859375 470.27734375 C-30.55487651 469.92829326 -24.09090422 467.02964486 -18.6484375 461.85546875 C3.78275952 436.60708348 2.15235799 392.65379926 2.16796875 360.8828125 C2.17120074 359.29027276 2.17456607 357.69773329 2.17805481 356.10519409 C2.18398369 352.78919795 2.18590141 349.47322761 2.18530273 346.15722656 C2.18522184 342.82025692 2.19211607 339.48342565 2.20581055 336.14648438 C4.56643579 275.83168829 4.56643579 275.83168829 -19 222.72265625 C-35.30460297 208.67904314 -60.40270523 212.87061568 -74 228 Z " fill="#000000" transform="translate(829,738)"/>
<path d="M0 0 C41.25 0 82.5 0 125 0 C125.01981934 8.68135254 125.03963867 17.36270508 125.06005859 26.30712891 C125.12493153 54.11669798 125.19946845 81.92623369 125.28005161 109.7357615 C125.29256977 114.05886683 125.30500265 118.3819724 125.31738281 122.70507812 C125.31984881 123.56569345 125.3223148 124.42630877 125.32485552 125.31300335 C125.36452765 139.22919966 125.39729948 153.14540404 125.42749982 167.06162377 C125.45866622 181.35185234 125.49729763 195.64204682 125.54279006 209.93223703 C125.57060484 218.74273958 125.59266809 227.55321734 125.60726251 236.36375187 C125.61784343 242.41387954 125.63570652 248.46395907 125.65916704 254.51405038 C125.67247064 257.99925682 125.68268738 261.4843961 125.68421364 264.96962929 C124.61428354 295.48299208 124.61428354 295.48299208 137.78515625 321.80859375 C145.11975213 328.60616719 152.5454291 331.40419028 162.671875 331.2109375 C173.51207175 330.22877202 183.19444023 326.32735065 190.75 318.375 C201.96583224 304.46101943 204.14249755 287.59335635 204.15821838 270.33215332 C204.16315636 269.17375616 204.16809434 268.01535899 204.17318195 266.82185888 C204.18583829 263.62468793 204.19415746 260.42754031 204.20060861 257.23035192 C204.20864884 253.77577838 204.22233402 250.32122655 204.23532104 246.8666687 C204.25703263 240.88742252 204.27519643 234.90817409 204.29092598 228.9289093 C204.31367321 220.28397908 204.3418092 211.63907294 204.37124526 202.99416322 C204.41886181 188.96714811 204.462142 174.94012314 204.50268555 160.91308594 C204.54207073 147.29003125 204.58351532 133.66698536 204.62768555 120.04394531 C204.63043505 119.19515344 204.63318456 118.34636157 204.63601738 117.47184873 C204.65753751 110.8333839 204.67917679 104.19491946 204.70085371 97.55645514 C204.80700851 65.03765454 204.90277449 32.51883089 205 0 C246.25 0 287.5 0 330 0 C330 137.94 330 275.88 330 418 C290.4 418 250.8 418 210 418 C208.42926468 416.42926468 208.83630693 414.84637782 208.79467773 412.66381836 C208.77473251 411.7429393 208.75478729 410.82206024 208.73423767 409.87327576 C208.71752518 408.87224319 208.70081268 407.87121063 208.68359375 406.83984375 C208.66281265 405.82024063 208.64203156 404.80063751 208.62062073 403.75013733 C208.55501148 400.47932952 208.49618766 397.20843863 208.4375 393.9375 C208.39432558 391.72590272 208.35071166 389.51431397 208.30664062 387.30273438 C208.1993186 381.86857849 208.09757377 376.43433918 208 371 C207.34628418 372.07523926 206.69256836 373.15047852 206.01904297 374.25830078 C205.13540279 375.69582963 204.25143329 377.13315609 203.3671875 378.5703125 C202.93946045 379.27583252 202.5117334 379.98135254 202.07104492 380.70825195 C188.93251635 401.97723996 167.71466306 416.81210076 144 424 C143.30326172 424.21172852 142.60652344 424.42345703 141.88867188 424.64160156 C111.86379897 433.2298585 74.75115662 429.87471466 47 415.625 C41.17638222 412.29198605 36.01228998 408.45056783 31 404 C29.97132812 403.11248047 29.97132812 403.11248047 28.921875 402.20703125 C8.12785227 383.00940003 1.73290722 352.02347291 0 325 C-0.13048374 320.40555068 -0.13114226 315.81475504 -0.12025452 311.21868896 C-0.12069162 309.86777198 -0.12156909 308.51685507 -0.12284368 307.16593862 C-0.12506127 303.48752826 -0.12110521 299.80914747 -0.11606562 296.13074088 C-0.11172166 292.15136456 -0.11321033 288.17198972 -0.1139679 284.19261169 C-0.11449064 277.30925862 -0.11136996 270.42591507 -0.10573006 263.54256439 C-0.09758118 253.59056162 -0.09499637 243.63856343 -0.09374207 233.68655768 C-0.09155686 217.53761788 -0.0849112 201.38868315 -0.07543945 185.23974609 C-0.06625157 169.55843125 -0.05917747 153.87711778 -0.05493164 138.19580078 C-0.05466892 137.2281799 -0.05440619 136.26055902 -0.05413551 135.26361629 C-0.05283041 130.40904076 -0.05156672 125.55446521 -0.05032361 120.69988966 C-0.03996755 80.4665886 -0.02153817 40.23329693 0 0 Z " fill="#000000" transform="translate(1008,872)"/>
<path d="M0 0 C0.84361084 -0.00067474 1.68722168 -0.00134949 2.55639648 -0.00204468 C45.56305221 0.05201171 91.54668535 4.80101788 123.40600586 36.72119141 C149.23608584 63.80718365 150.63461891 102.512479 150.67358398 137.73730469 C150.67989863 140.21094375 150.68666542 142.68458169 150.69384766 145.15821838 C150.70845918 150.46725014 150.7202873 155.77627701 150.72979546 161.08531952 C150.74376746 168.78829629 150.76497073 176.49124131 150.78822399 184.19419506 C150.82605562 196.73118113 150.86103158 209.26817295 150.89282227 221.80517578 C150.89472276 222.55387327 150.89662325 223.30257075 150.89858133 224.07395604 C150.92535235 234.67350472 150.94924837 245.27305792 150.97196633 255.87261596 C150.97356363 256.61767516 150.97516094 257.36273435 150.97680664 258.13037109 C150.97919684 259.24657118 150.97919684 259.24657118 150.98163532 260.38532075 C151.00855332 272.86460346 151.0430135 285.34385229 151.08346039 297.82309842 C151.10801436 305.48974041 151.12646281 313.15634631 151.136616 320.82302114 C151.14499234 326.72462959 151.16359267 332.62617998 151.18567657 338.52775383 C151.19305694 340.9231913 151.19722727 343.31864155 151.19767189 345.71409035 C150.39060816 386.78254078 150.39060816 386.78254078 163.15625 424.98828125 C164.5 427.25 164.5 427.25 164.5 429.25 C124.9 429.25 85.3 429.25 44.5 429.25 C40.93927652 415.89728696 38.58023546 403.64487432 37.74609375 389.9921875 C37.53382325 387.62688764 37.15844486 385.52462769 36.5 383.25 C35.73429687 384.64798828 35.73429687 384.64798828 34.953125 386.07421875 C21.40604706 410.11417051 -0.32792665 427.29517495 -26.8203125 435.25390625 C-28.03460938 435.58261719 -29.24890625 435.91132812 -30.5 436.25 C-31.61117187 436.56839844 -32.72234375 436.88679688 -33.8671875 437.21484375 C-63.09253581 444.15346583 -98.50368381 440.04876907 -124.609375 425.09375 C-129.22782576 422.14792735 -133.41278799 418.89220567 -137.5 415.25 C-138.25925781 414.58484375 -139.01851563 413.9196875 -139.80078125 413.234375 C-158.93789509 395.38628955 -167.07123741 368.43479514 -170.5 343.25 C-170.59571289 342.56397705 -170.69142578 341.8779541 -170.79003906 341.17114258 C-171.83861391 332.42456258 -171.74277613 323.60873037 -171.75 314.8125 C-171.75100708 313.96340057 -171.75201416 313.11430115 -171.75305176 312.23947144 C-171.743207 299.98347332 -171.334659 288.2239906 -168.5 276.25 C-168.2215625 274.96609375 -167.943125 273.6821875 -167.65625 272.359375 C-161.89901706 248.23855424 -148.30513287 222.45518298 -127.25 208.5625 C-125.34930072 207.43106844 -123.43178854 206.32749162 -121.5 205.25 C-120.49839844 204.68796875 -119.49679687 204.1259375 -118.46484375 203.546875 C-97.1704952 192.27787529 -73.60268009 186.72208708 -50.37060547 180.99430847 C-46.96228008 180.15385121 -43.55461794 179.31073936 -40.14697266 178.4675293 C-35.60637643 177.34430328 -31.06287308 176.23410466 -26.51708984 175.13208008 C3.79534835 169.35049378 3.79534835 169.35049378 28.0625 152.75 C35.31069124 140.29477482 35.18019829 123.06498098 32.375 109.1875 C30.04159457 100.65700387 26.1454817 93.43678941 18.69140625 88.4296875 C6.53331869 81.88469206 -7.36606141 82.7026459 -20.5 85.25 C-23.75911954 86.24927997 -26.57093471 87.5180838 -29.5 89.25 C-30.12132812 89.58644531 -30.74265625 89.92289063 -31.3828125 90.26953125 C-39.18452553 95.04850265 -42.96502102 103.967368 -45.62109375 112.40234375 C-47.63493549 121.21849536 -48.50935835 130.27031274 -49.5 139.25 C-55.93135108 140.06866995 -62.19059329 140.39397383 -68.66967773 140.37939453 C-69.64313644 140.38114685 -70.61659515 140.38289917 -71.61955261 140.38470459 C-74.80758494 140.38907348 -77.99556095 140.38620432 -81.18359375 140.3828125 C-83.40796418 140.38348658 -85.63233453 140.38445748 -87.85670471 140.38571167 C-92.50237738 140.38718158 -97.14803075 140.3850554 -101.79370117 140.38037109 C-107.75811756 140.37465091 -113.72248917 140.37797169 -119.68690395 140.38394356 C-124.27210328 140.38754843 -128.85729189 140.38641133 -133.44249153 140.38381577 C-135.64300606 140.38314749 -137.84352155 140.38397145 -140.04403496 140.38629532 C-143.10807777 140.38882312 -146.1720467 140.38498048 -149.23608398 140.37939453 C-150.14982788 140.38141876 -151.06357178 140.38344299 -152.00500488 140.38552856 C-158.27146259 140.3642687 -158.27146259 140.3642687 -160.5 139.25 C-162.22760629 107.06533458 -154.00286335 69.08233896 -132.5 44.25 C-131.86964844 43.46496094 -131.23929687 42.67992187 -130.58984375 41.87109375 C-107.36678675 14.1336481 -67.9124263 4.48789393 -33.5 1.25 C-22.3305674 0.29331032 -11.20460255 0.00815977 0 0 Z M25.875 226.625 C18.94630094 230.17496346 11.88299404 233.28159398 4.6875 236.25 C3.6663208 236.67168457 2.6451416 237.09336914 1.59301758 237.52783203 C-2.36242507 239.15483139 -6.32120767 240.77319441 -10.28613281 242.37695312 C-26.07178046 248.76541574 -40.02319641 255.02029105 -47.46875 271.49609375 C-54.52317727 290.33462113 -53.82480974 314.55316805 -45.71484375 332.9765625 C-41.31324691 341.2136344 -35.24968722 347.52112255 -26.5 351.05859375 C-14.86589617 354.45969265 -1.31127199 351.98152369 9.3125 346.625 C20.53711357 339.86715629 27.92277563 329.97896065 31.2855072 317.284729 C33.22427817 308.78620522 33.96606862 300.76035732 34.01171875 292.05859375 C34.02966995 290.75205338 34.04762115 289.445513 34.06611633 288.09938049 C34.11307693 284.65694088 34.14316748 281.21456194 34.16955566 277.77191162 C34.19917333 274.33152772 34.24609541 270.89138359 34.29101562 267.45117188 C34.47546667 252.71764715 34.54640329 237.98459097 34.5 223.25 C31.27135684 223.25 28.68259916 225.15252409 25.875 226.625 Z " fill="#000000" transform="translate(421.5,860.75)"/>
<path d="M0 0 C0.70511719 0.62261719 1.41023438 1.24523437 2.13671875 1.88671875 C21.67818387 20.19964383 31.17198653 48.04113875 32.12011719 74.33056641 C32.2430416 81.55590241 32.17390915 88.77608131 32 96 C28.73465363 96.7273617 25.71781174 97.12422042 22.3745575 97.12025452 C21.47578384 97.12162918 20.57701019 97.12300385 19.65100098 97.12442017 C18.67779907 97.12082489 17.70459717 97.11722961 16.7019043 97.11352539 C15.14999138 97.11374443 15.14999138 97.11374443 13.56672668 97.1139679 C10.15253593 97.11327214 6.73839996 97.10549544 3.32421875 97.09765625 C0.95481903 97.09579088 -1.41458108 97.09436754 -3.78398132 97.09336853 C-10.01629707 97.08955276 -16.24858947 97.07973047 -22.480896 97.06866455 C-28.84207849 97.05843024 -35.20326477 97.05386658 -41.56445312 97.04882812 C-54.042979 97.03810739 -66.52148756 97.02104222 -79 97 C-79.04487549 96.33057373 -79.08975098 95.66114746 -79.13598633 94.97143555 C-79.35007037 91.87588154 -79.58120052 88.78181346 -79.8125 85.6875 C-79.88275391 84.63498047 -79.95300781 83.58246094 -80.02539062 82.49804688 C-80.91781555 70.89652282 -83.00022102 58.25368332 -92 50 C-104.23251527 41.96748998 -122.22764099 41.91695479 -136.17578125 44.6875 C-143.93590765 46.87601978 -150.45280816 49.88315705 -154.78125 56.87890625 C-160.35610945 67.59473278 -161.72706491 79.08461088 -159.421875 90.984375 C-155.38082959 102.51972281 -145.8096265 109.73123154 -135.21582031 114.95043945 C-134.48459961 115.29679443 -133.75337891 115.64314941 -133 116 C-131.70594238 116.62297974 -131.70594238 116.62297974 -130.38574219 117.25854492 C-117.8956407 122.94179425 -104.69645064 126.71359162 -91.625 130.8125 C-77.62714946 135.20469699 -63.65845873 139.61460617 -49.90625 144.734375 C-48.96520416 145.08252762 -48.02415833 145.43068024 -47.05459595 145.78938293 C-15.22065301 157.86925123 12.35497385 178.38821063 26.86376953 209.87451172 C34.66779434 227.81686256 37.233499 246.89557215 37.25 266.3125 C37.25067474 267.02553284 37.25134949 267.73856567 37.25204468 268.47320557 C37.23492475 279.88019813 36.62648701 290.86664164 34 302 C33.82307617 302.75909668 33.64615234 303.51819336 33.46386719 304.30029297 C27.90857775 327.40895378 17.64269956 346.16627949 1 363 C0.42121094 363.65097656 -0.15757812 364.30195312 -0.75390625 364.97265625 C-25.43118476 392.22719623 -70.01345582 402.05037762 -105 404 C-110.93597162 404.19116481 -116.87401611 404.19562399 -122.8125 404.1875 C-123.62914124 404.18689575 -124.44578247 404.1862915 -125.28717041 404.18566895 C-169.8681795 404.09636535 -218.90665387 397.90400086 -252 365 C-279.40266403 335.90800885 -280 298.16240447 -280 260 C-243.37 260 -206.74 260 -169 260 C-168.01 268.91 -167.02 277.82 -166 287 C-163.16240678 299.95834235 -160.27340796 311.14214129 -149 319 C-137.00699015 326.56081056 -121.13778882 326.80851409 -107.5625 323.9375 C-97.98586845 321.09506012 -89.99364536 315.73082511 -85 307 C-79.32444438 295.90520417 -78.20386868 283.87802051 -80.68359375 271.62109375 C-85.77037028 256.78290328 -96.25222338 247.94519452 -109.90966797 240.99853516 C-119.83374472 236.25788181 -130.41473314 232.89298051 -140.78515625 229.28515625 C-192.70973555 211.20844873 -192.70973555 211.20844873 -215 199 C-215.58797363 198.68788574 -216.17594727 198.37577148 -216.78173828 198.05419922 C-224.9013031 193.74224963 -232.18666415 188.83798017 -239.35546875 183.1015625 C-242.00203319 180.93841804 -242.00203319 180.93841804 -245 179 C-245 178.34 -245 177.68 -245 177 C-245.56203125 176.77828125 -246.1240625 176.5565625 -246.703125 176.328125 C-259.3045006 169.0416153 -267.98162795 149.10276314 -272 136 C-274.9604986 124.77560962 -277.12868464 113.61826924 -277.203125 101.9765625 C-277.21022995 101.23736069 -277.2173349 100.49815887 -277.22465515 99.73655701 C-277.45722226 68.44427296 -277.45722226 68.44427296 -274 56 C-273.77425293 55.17580566 -273.54850586 54.35161133 -273.31591797 53.50244141 C-268.06366666 34.98241406 -260.02259286 20.12281192 -247 6 C-246.41863281 5.33742188 -245.83726563 4.67484375 -245.23828125 3.9921875 C-235.64122668 -6.40260712 -222.74855773 -13.28252229 -210 -19 C-209.38012207 -19.27827637 -208.76024414 -19.55655273 -208.12158203 -19.84326172 C-190.14692245 -27.76243506 -171.40765675 -31.46563288 -152 -34 C-151.18845459 -34.10602539 -150.37690918 -34.21205078 -149.54077148 -34.32128906 C-99.28550476 -39.84634843 -39.16026896 -35.11138816 0 0 Z " fill="#000000" transform="translate(2218,896)"/>
<path d="M0 0 C64.35 0 128.7 0 195 0 C195 228.69 195 457.38 195 693 C130.65 693 66.3 693 0 693 C0 664.29 0 635.58 0 606 C25.80134496 602.77483188 51.99786334 605 78 605 C78.33 434.06 78.66 263.12 79 87 C52.93 87 26.86 87 0 87 C0 58.29 0 29.58 0 0 Z " fill="#000000" transform="translate(3604,737)"/>
<path d="M0 0 C64.35 0 128.7 0 195 0 C195 28.71 195 57.42 195 87 C168.93 87 142.86 87 116 87 C116 258.27 116 429.54 116 606 C118.31 605.67 120.62 605.34 123 605 C125.32323983 604.91313957 127.64852618 604.87217243 129.97338867 604.87060547 C130.63122849 604.86885315 131.2890683 604.86710083 131.96684265 604.86529541 C134.11724573 604.8609336 136.267565 604.86379368 138.41796875 604.8671875 C139.92295853 604.86651307 141.42794821 604.86554189 142.93293762 604.86428833 C146.0756637 604.86281926 149.21836124 604.86494134 152.36108398 604.86962891 C156.38603313 604.87534051 160.4109158 604.87203316 164.43586254 604.86605644 C167.53880819 604.86244205 170.64173809 604.86359321 173.74468422 604.86618423 C175.22902751 604.86685031 176.71337224 604.86603627 178.19771385 604.86370468 C180.2701128 604.86116214 182.34240399 604.86504067 184.41479492 604.87060547 C185.59281174 604.87140106 186.77082855 604.87219666 187.98454285 604.87301636 C191 605 191 605 195 606 C195 634.71 195 663.42 195 693 C130.65 693 66.3 693 0 693 C0 464.31 0 235.62 0 0 Z " fill="#000000" transform="translate(41,737)"/>
<path d="M0 0 C41.25 0 82.5 0 125 0 C125 40.59 125 81.18 125 123 C144.14 123 163.28 123 183 123 C183.04010881 144.42256072 183.04010881 144.42256072 183.04882812 153.52148438 C183.05481674 159.7414637 183.06191752 165.96142838 183.07543945 172.18139648 C183.08626776 177.19342268 183.09227671 182.20543318 183.09487724 187.21747017 C183.09673159 189.13412282 183.1003524 191.05077457 183.10573006 192.96742058 C183.11293975 195.64228072 183.11399097 198.31707514 183.11352539 200.99194336 C183.11712067 201.7925116 183.12071594 202.59307983 183.12442017 203.41790771 C183.11405216 208.88594784 183.11405216 208.88594784 182 210 C180.22008076 210.09370624 178.43643261 210.11744271 176.65405273 210.11352539 C175.5129454 210.11344986 174.37183807 210.11337433 173.19615173 210.11329651 C171.9545076 210.10813522 170.71286346 210.10297394 169.43359375 210.09765625 C167.53795433 210.09553383 167.53795433 210.09553383 165.60401917 210.09336853 C162.23875111 210.08870582 158.8735501 210.0797148 155.50830078 210.06866455 C152.0765033 210.05844846 148.64469891 210.05387049 145.21289062 210.04882812 C138.47524176 210.0377738 131.73762475 210.0210171 125 210 C125.08398075 237.80804678 125.1791439 265.61603598 125.28752708 293.42399883 C125.33759495 306.33644622 125.38403849 319.24888745 125.421875 332.16137695 C125.45487226 343.41920686 125.49474605 354.6769881 125.54279006 365.93476421 C125.56797821 371.89263582 125.58978204 377.85047548 125.60334396 383.80838585 C125.61623421 389.42341082 125.63836297 395.03832575 125.66738319 400.65328979 C125.67640476 402.70705279 125.68213643 404.76083349 125.68421364 406.81461525 C124.93851445 429.04973232 124.93851445 429.04973232 133.5 448.77734375 C140.9417195 455.82286059 151.04286508 457.14140325 160.9296875 457.09765625 C162.86328125 457.09282227 162.86328125 457.09282227 164.8359375 457.08789062 C166.18229236 457.07953733 167.52864652 457.07107241 168.875 457.0625 C170.24479004 457.0574783 171.61458185 457.05291657 172.984375 457.04882812 C176.3229619 457.03707254 179.66145815 457.02063964 183 457 C183.02312312 467.80458085 183.04091493 478.60915586 183.05181217 489.41375637 C183.05704107 494.4302247 183.06413883 499.44667615 183.07543945 504.46313477 C183.0862681 509.30009694 183.09227679 514.13704284 183.09487724 518.97401619 C183.09673153 520.82368285 183.10035222 522.67334857 183.10573006 524.52300835 C183.1129402 527.10447014 183.11399095 529.68586382 183.11352539 532.26733398 C183.11712067 533.03985001 183.12071594 533.81236603 183.12442017 534.60829163 C183.11405216 539.88594784 183.11405216 539.88594784 182 541 C179.99744742 541.28935228 177.98589736 541.51675543 175.97265625 541.71875 C174.70357422 541.84636719 173.43449219 541.97398437 172.12695312 542.10546875 C171.12160522 542.20287354 171.12160522 542.20287354 170.09594727 542.30224609 C168.129112 542.49352195 166.16316538 542.69386841 164.19726562 542.89453125 C147.53297911 544.54182467 130.94185354 545.18669164 114.19726562 545.18530273 C111.26677871 545.18748749 108.33667086 545.20573032 105.40625 545.22460938 C76.65422791 545.31105472 43.36993097 544.48921436 21.25 523.625 C-1.94988621 498.90380978 -0.33427659 457.67070023 -0.22705078 426.15234375 C-0.22648476 423.77444972 -0.22680693 421.39655533 -0.22793579 419.0186615 C-0.22850288 412.64628736 -0.21685452 406.27399058 -0.20278788 399.90163422 C-0.19145469 393.89173187 -0.18953233 387.88183186 -0.18748413 381.87192106 C-0.18313536 369.98898123 -0.16990391 358.10606928 -0.15087891 346.22314453 C-0.13244635 334.69808082 -0.11832623 323.17302475 -0.10986328 311.64794922 C-0.10907511 310.57760836 -0.10907511 310.57760836 -0.10827102 309.48564446 C-0.10566044 305.90497856 -0.10313315 302.32431261 -0.10064721 298.74364662 C-0.08000273 269.16240919 -0.04318135 239.58121496 0 210 C-16.83 210 -33.66 210 -51 210 C-51 181.29 -51 152.58 -51 123 C-34.17 123 -17.34 123 0 123 C0 82.41 0 41.82 0 0 Z " fill="#000000" transform="translate(1608,749)"/>
<path d="M0 0 C41.25 0 82.5 0 125 0 C125 181.83 125 363.66 125 551 C83.75 551 42.5 551 0 551 C-1.86687691 549.13312309 -1.12505147 546.45056209 -1.13293558 543.96602958 C-1.13059442 543.0881568 -1.12825325 542.21028401 -1.12584114 541.30580902 C-1.1280213 539.91415192 -1.1280213 539.91415192 -1.13024551 538.49438053 C-1.13393329 535.3443416 -1.13040632 532.19435021 -1.12698364 529.04431152 C-1.12813437 526.77964551 -1.12972156 524.51497967 -1.13171089 522.25031424 C-1.13591092 515.99503516 -1.1338105 509.73977121 -1.13072467 503.48449206 C-1.12870436 497.44146305 -1.131354 491.3984373 -1.13387203 485.35540892 C-1.13914901 472.22553257 -1.13867692 459.09566108 -1.13579312 445.96578427 C-1.13328178 434.47590216 -1.13261889 422.98602185 -1.13381577 411.49613953 C-1.13389215 410.73524901 -1.13396854 409.97435849 -1.13404724 409.19041068 C-1.13435855 406.10203917 -1.13467695 403.01366765 -1.135007 399.92529613 C-1.13806893 370.92878474 -1.13528789 341.93227644 -1.1299101 312.93576553 C-1.12516417 287.15004645 -1.12558879 261.36433231 -1.13037109 235.57861328 C-1.13572078 206.63657827 -1.13785182 177.69454599 -1.13475883 148.75251055 C-1.13443809 145.66962719 -1.13412525 142.58674383 -1.13381577 139.50386047 C-1.13373669 138.74472478 -1.13365761 137.98558909 -1.13357614 137.20344929 C-1.13243662 125.71820759 -1.13377274 114.23296787 -1.13629532 102.74772644 C-1.13914801 89.69407311 -1.13845382 76.64042542 -1.13301457 63.5867728 C-1.13032838 56.91946224 -1.12937463 50.25215952 -1.13266373 43.5848484 C-1.13562409 37.49200314 -1.13403826 31.39917732 -1.12868617 25.30633384 C-1.12756087 23.09169052 -1.12815564 20.87704558 -1.13056196 18.66240329 C-1.13356318 15.67297516 -1.13052435 12.68361541 -1.12584114 9.69419098 C-1.12818231 8.81631819 -1.13052347 7.93844541 -1.13293558 7.03397042 C-1.11415034 1.11415034 -1.11415034 1.11415034 0 0 Z " fill="#000000" transform="translate(1396,738)"/>
<path d="M0 0 C41.25 0 82.5 0 125 0 C125 137.61 125 275.22 125 417 C121.33436544 417.73312691 118.61141568 418.12537973 114.97714233 418.12698364 C113.99014847 418.12980347 113.0031546 418.13262329 111.98625183 418.13552856 C110.37923149 418.13249222 110.37923149 418.13249222 108.73974609 418.12939453 C107.60266708 418.13114685 106.46558807 418.13289917 105.29405212 418.13470459 C101.53716504 418.1391044 97.78032506 418.13619205 94.0234375 418.1328125 C91.41460155 418.13348598 88.80576566 418.13445638 86.19692993 418.13571167 C80.73121632 418.13752918 75.26551624 418.13513749 69.79980469 418.13037109 C63.48033484 418.12492383 57.16089723 418.12669618 50.84142816 418.1321975 C44.75935906 418.13728018 38.67730426 418.13674509 32.59523392 418.13381577 C30.00758484 418.13314741 27.41993495 418.13397175 24.83228683 418.13629532 C21.22199043 418.13882607 17.61175657 418.13497545 14.00146484 418.12939453 C12.38837181 418.13243088 12.38837181 418.13243088 10.74269104 418.13552856 C9.76133682 418.13270874 8.7799826 418.12988892 7.76889038 418.12698364 C6.48858224 418.1264181 6.48858224 418.1264181 5.18240929 418.12584114 C3 418 3 418 0 417 C0 279.39 0 141.78 0 0 Z " fill="#000000" transform="translate(2861,872)"/>
<path d="M0 0 C41.25 0 82.5 0 125 0 C125 31.68 125 63.36 125 96 C83.75 96 42.5 96 0 96 C0 64.32 0 32.64 0 0 Z " fill="#000000" transform="translate(2861,732)"/>
</svg>
