<?xml version="1.0" encoding="UTF-8"?>
<svg version="1.1" viewBox="0 0 2048 412" width="625" height="126" xmlns="http://www.w3.org/2000/svg">
<path transform="translate(462,36)" d="m0 0h20l24 1 6 3 12 13 8 10 8 8 8 10 12 14 9 11 14 15 7 8 12 14 9 10 9 11 11 12 7 8 9 10 8 10 11 12 7 8 14 15 7 8 10 11 7 8 10 11 9 11 11 12 7 8 13 15 3 1-1-221-1-20-3-29v-14l3-1h18l7 1 1 1v9l-4 37-2 37-1 40-1 123-1 74-1 10-2 2-5 1h-14l-11-2-5-5-10-11-9-11-13-15-24-28-11-12-9-11-13-15-11-13-7-8-13-15-12-13-9-10-9-11-7-7-9-11-10-11-7-8-15-16-9-11-14-15-9-11-11-12-7-8-5-4 1 2v64l-1 27-1 85-1 20-8 6-5 1v-90l1-46v-86l-6-9-8-8-8-7v-2z" fill="#1B1717"/>
<path transform="translate(214,1)" d="m0 0h2l3 12 5 19 14 35 16 33 21 42 8 21 15 35 8 20 12 27 10 23 11 23 11 25 12 22 10 18 11 20 2 7h-41l-8-1-4-5-9-21-10-23-7-14-11-27-6-14-2-2-47-1h-107l-4 8-6 17-15 32-15 35-8 19-5 10-5 5h-30l-7-1h-13l-17 2-3-1 1-4 3-3 15-4 12-2 14-1 9-3 6-7 9-17 8-16 15-31 9-20 9-17 13-29 12-29 9-21 7-15 8-16 14-30 8-21 9-20 5-10v-8l-5-14-10-21-12-22 1-3 20-7zm-7 95-3 5-6 16-15 35-8 20-17 37-12 27-10 28 1 2h147l-6-16-18-42-11-25-7-16-12-27-16-37-4-6z" fill="#1B1717"/>
<path transform="translate(1099,15)" d="m0 0h26l21 2 26 5 40 9 27 8 12 5 2 2v11l-1 13v40l2 31-4 5h-5l-5-6-2-12-3-33-4-6-8-8-14-11-19-13-25-13-22-8-21-5-16-2h-19l-18 2-30 7-18 7-16 8-13 9-10 8-17 17-10 13-8 14-6 13-5 15-5 24-1 12v18l2 20 7 30 7 19 12 25 10 16 14 19 12 13 10 9 15 10 16 9 26 11v2l-2 1h-12l-54-2-12-2-10-5-14-11-15-15-13-17-9-15-8-16-6-17-5-18-3-19-1-12v-19l3-24 4-18 6-19 9-21 11-18 16-21 12-13 7-8 14-12 10-7 15-9 23-11 20-7 23-6 15-2z" fill="#1C1818"/>
<path transform="translate(1631,20)" d="m0 0h15l5 2 1 51 1 17v16l-1 1h-7l-2-1-5-25-3-26-10-3-27-6-33-4-20-2-20-1h-59l-22 1-1 22-2 39v101h104l32-2 20-2 21-4 4-16 6-23 1-2h7l1 1-1 13-4 27v41l2 24v14l-1 1h-6l-3-8-4-26-1-12-16-4-24-4-44-4-133-2-4-2-1-6-1-135-1-20-1-9-7-2-29-4-12-3-4-3v-6l1-1h13l37 2h158l43-2z" fill="#1D1919"/>
<path transform="translate(1806,29)" d="m0 0h36l28 1 8 1 1 2-21 6-21 5-2 1-2 9-1 13-1 27-1 102-1 210h-40l-2-1v-264l1-104 2-6 2-1z" fill="#1C1818"/>
<path transform="translate(1156,221)" d="m0 0h21l30 2h42l33-2 5 2v5l-4 3-28 7h-2v59l-1 67-4 4-25 7-7 1-1-6v-131l-17-1-32-5-9-3-2-7z" fill="#1E1A1A"/>
<path transform="translate(1648,319)" d="m0 0 6 1 1 3-3 37-1 35-2 6h-10l-30-3-48-3-19-2-47-3-21-2-2-1v-2l8-2 50-5 75-9 27-3 4-2 5-25 2-11 3-8z" fill="#1C1818"/>
<path transform="translate(2036,316)" d="m0 0h7l1 1v25l-2 64-2 2h-25l-19-1-85-1-36-1v-3l5-5 16-1 33-1 28-3 37-9 17-5 8-5 7-45 3-6 5-5z" fill="#1C1818"/>
</svg>
