<?xml version="1.0" encoding="UTF-8"?>
<svg version="1.1" xmlns="http://www.w3.org/2000/svg" width="1280" height="1280">
<path d="M0 0 C1.34904717 1.12420598 2.66166991 2.29334142 3.9375 3.5 C15.09536585 13.05561176 26.90608727 18.54425242 40.83349609 22.84008789 C47.08452847 24.861009 53.55732383 27.66133087 57.14990234 33.45532227 C58.31196588 36.47214872 58.06037714 39.30519445 57.9375 42.5 C58.54920044 42.54386337 59.16090088 42.58772675 59.7911377 42.63291931 C68.14955422 43.3059149 76.38834216 44.57969647 84.65625 45.94140625 C85.39472672 46.06289473 86.13320343 46.1843832 86.89405823 46.30955315 C90.80728117 46.9550451 94.71939306 47.60689309 98.63085938 48.26293945 C101.81901262 48.79632209 105.00889021 49.31638375 108.20117188 49.82446289 C135.87895479 54.23761666 159.27024476 60.63223083 180.9375 79.5 C181.89076172 80.32757813 181.89076172 80.32757813 182.86328125 81.171875 C191.81737142 89.51049556 200.75591223 103.44856948 201.8125 115.8125 C200.93305744 129.2191132 191.26838065 140.68602893 181.9375 149.5 C180.8546875 150.55380859 180.8546875 150.55380859 179.75 151.62890625 C156.21165218 172.43512442 122.4291004 178.47255921 92.41558838 183.21716309 C88.73072868 183.80477156 85.05018958 184.41835175 81.36914062 185.02929688 C74.22909331 186.21063703 67.0850432 187.36478627 59.9375 188.5 C60.88873749 188.676735 60.88873749 188.676735 61.85919189 188.85704041 C204.00388501 215.31499336 204.00388501 215.31499336 233.1015625 257.6484375 C241.24938883 270.60284098 246.23346693 285.79690428 243.4609375 301.13671875 C238.71856264 319.33486805 225.02870905 332.11053023 209.5078125 341.66015625 C190.48227244 352.76608757 168.22153214 356.93587638 146.9375 361.5 C146.26316988 361.6446979 145.58883976 361.78939579 144.89407539 361.93847847 C119.642786 367.32316802 94.45513662 370.44372134 68.74914551 372.68914795 C64.92771662 373.02669395 61.10779284 373.37981302 57.28782654 373.73347378 C49.40293456 374.46336489 41.51716435 375.18407762 33.62890625 375.87670898 C32.91954926 375.94051758 32.21019226 376.00432617 31.4793396 376.07006836 C27.95406644 376.37548807 24.47615255 376.56826699 20.9375 376.5 C20.56699548 380.82255278 21.55817916 382.93101874 23.9375 386.5 C27.97828738 393.45253123 27.06554048 402.68953053 26.9375 410.5 C22.85535551 409.13928517 22.13214574 407.04471422 19.875 403.4375 C18.61402842 401.42511146 17.31285789 399.43601333 15.9375 397.5 C15.2775 397.5 14.6175 397.5 13.9375 397.5 C10.28877475 412.48457069 9.77408892 427.33257367 12.9375 442.5 C16.2375 442.83 19.5375 443.16 22.9375 443.5 C29.92593931 458.82947977 29.92593931 458.82947977 27.9375 465.5 C20.09535052 472.80184391 10.46201891 473.72089926 0.2421875 473.765625 C-6.02668193 473.26174424 -9.52134225 470.59133942 -14 466.375 C-14.52489014 465.88362549 -15.04978027 465.39225098 -15.59057617 464.88598633 C-25.85838273 455.10249524 -25.85838273 455.10249524 -26.3125 449.3125 C-24.67145917 445.62015812 -22.33706003 443.69036566 -19.0625 441.5 C-18.18271484 440.90638672 -18.18271484 440.90638672 -17.28515625 440.30078125 C-13.66908078 438.04567948 -11.26179641 437.30618632 -7.0625 437.5 C-8.03422152 425.01265329 -9.49589804 412.60822656 -11.22866821 400.20596313 C-11.45138339 398.60916921 -11.67124895 397.01197527 -11.88827515 395.41439819 C-12.19788595 393.14600599 -12.51902313 390.87955291 -12.84375 388.61328125 C-12.93646683 387.9245694 -13.02918365 387.23585754 -13.12471008 386.52627563 C-13.66730336 382.5907576 -13.66730336 382.5907576 -16.0625 379.5 C-17.91608124 379.10026811 -17.91608124 379.10026811 -20.07096863 379.00961304 C-21.33142061 378.92188944 -21.33142061 378.92188944 -22.61733627 378.83239365 C-24.00594549 378.74979483 -24.00594549 378.74979483 -25.42260742 378.66552734 C-26.39865559 378.59988712 -27.37470375 378.5342469 -28.38032913 378.46661758 C-30.51498012 378.3239514 -32.64991081 378.18542582 -34.78506279 378.05046463 C-38.20699054 377.83346293 -41.62793265 377.60461826 -45.04884338 377.37216187 C-49.92191128 377.04109127 -54.79516326 376.71299312 -59.6685791 376.38708496 C-129.42986964 371.69680835 -129.42986964 371.69680835 -158.8125 367.25 C-159.89655121 367.08973328 -160.98060242 366.92946655 -162.09750366 366.76434326 C-165.06375682 366.31751593 -168.02457289 365.8469556 -170.984375 365.359375 C-171.79491837 365.2304184 -172.60546173 365.10146179 -173.44056702 364.96859741 C-178.33996088 364.09428035 -182.53846663 362.58365498 -187.01960754 360.4160614 C-190.2341148 358.97463162 -193.56498541 358.28257828 -197 357.5625 C-202.68682756 356.33860818 -207.23442875 354.52962648 -212.38793945 351.84399414 C-217.03453889 349.50903021 -221.86402189 347.62268715 -226.6875 345.6875 C-227.69167969 345.28080078 -228.69585937 344.87410156 -229.73046875 344.45507812 C-232.1730394 343.46641858 -234.61702997 342.48146062 -237.0625 341.5 C-237.0625 340.51 -237.0625 339.52 -237.0625 338.5 C-233.4325 337.84 -229.8025 337.18 -226.0625 336.5 C-227.10148437 335.81035156 -228.14046875 335.12070312 -229.2109375 334.41015625 C-251.40707518 319.52217813 -251.40707518 319.52217813 -254.0625 311.5 C-251.09491101 312.13790073 -248.64800134 313.10869171 -245.95703125 314.50390625 C-224.75590332 325.2222189 -197.22769104 336.5 -173.0625 336.5 C-175.19534414 335.85595206 -177.32845939 335.2128241 -179.46191406 334.57080078 C-181.29509547 334.01874454 -183.12777052 333.4650043 -184.95996094 332.90966797 C-188.94074493 331.70872594 -192.91363574 330.5114681 -196.9453125 329.4921875 C-209.94337733 326.14465804 -227.99426697 319.16482213 -236.72265625 308.46484375 C-238.59283425 305.17459839 -239.05176923 302.80046153 -239.1875 299 C-235.83954571 288.5841422 -226.94042762 282.34336389 -217.58276367 277.51855469 C-192.94059708 265.46755023 -165.14669929 261.48758271 -138.0625 259.5 C-136.92917236 259.41322998 -136.92917236 259.41322998 -135.77294922 259.32470703 C-113.53714771 257.67234427 -91.21807819 258.56466065 -68.96020508 259.29956055 C-65.41850505 259.41647723 -61.87663616 259.52692076 -58.33467388 259.63556576 C-55.55741722 259.72143929 -52.78027379 259.81061174 -50.00315285 259.90075874 C-48.07244584 259.96288953 -46.14165422 260.02237369 -44.21086121 260.08177185 C-37.45761272 260.30928319 -30.77431795 260.70927747 -24.0625 261.5 C-26.15064511 243.4623625 -28.5261184 225.47943842 -31.0625 207.5 C-47.78465266 206.64173673 -64.44585477 206.395768 -81.1875 206.5 C-119.96645007 206.73756066 -119.96645007 206.73756066 -127.0625 201.5 C-126.48665568 199.11435923 -125.84022405 196.83317216 -125.0625 194.5 C-126.41794922 194.42652344 -126.41794922 194.42652344 -127.80078125 194.3515625 C-128.98027344 194.27679688 -130.15976563 194.20203125 -131.375 194.125 C-132.54675781 194.05539062 -133.71851563 193.98578125 -134.92578125 193.9140625 C-138.0625 193.5 -138.0625 193.5 -141.0625 191.5 C-141.6015625 188.12890625 -141.6015625 188.12890625 -141.0625 184.5 C-138.7109375 182.27734375 -138.7109375 182.27734375 -135.4375 180.4375 C-134.55288086 179.93790771 -134.55288086 179.93790771 -133.65039062 179.42822266 C-113.2256077 168.16217176 -90.9441704 163.75820448 -68.125 160.1875 C-65.95879666 159.83905559 -63.79277968 159.48945065 -61.62695312 159.13867188 C-57.69127849 158.50288672 -53.75472377 157.87343681 -49.81665039 157.25268555 C-46.22869991 156.68701117 -42.64402603 156.10528124 -39.0625 155.5 C-39.78636952 147.52728084 -40.52068242 139.55561445 -41.27734375 131.5859375 C-41.3415451 130.90466797 -41.40574646 130.22339844 -41.47189331 129.52148438 C-42.90431096 114.50353398 -45.21700601 99.63437724 -47.55908203 84.7355957 C-47.91043821 82.47733988 -48.25459867 80.21795788 -48.59326172 77.95776367 C-48.76615723 76.80638916 -48.93905273 75.65501465 -49.1171875 74.46875 C-49.27171387 73.42783203 -49.42624023 72.38691406 -49.58544922 71.31445312 C-50.15945151 67.92801585 -51.00021216 64.76274122 -52.0625 61.5 C-52.80971313 61.73178955 -52.80971313 61.73178955 -53.57202148 61.96826172 C-56.99628877 62.69937182 -60.42327791 62.8276458 -63.91015625 63.0078125 C-88.00512986 64.41567031 -111.49914662 67.39979886 -135.25097656 71.66235352 C-138.46571194 72.23404027 -141.68257696 72.75198465 -144.91308594 73.22631836 C-153.65825353 74.52789723 -161.37990936 76.23951001 -169.4375 80.0625 C-170.324375 80.46146484 -171.21125 80.86042969 -172.125 81.27148438 C-175.81045709 82.93884752 -179.45066725 84.67877492 -183.0625 86.5 C-181.9075 86.933125 -180.7525 87.36625 -179.5625 87.8125 C-178.47001953 88.22822266 -178.47001953 88.22822266 -177.35546875 88.65234375 C-175.88929884 89.19435205 -174.41300506 89.71016564 -172.92578125 90.19140625 C-168.24996108 91.75001297 -165.0566025 93.38310907 -162.0625 97.5 C-161.3125 101 -161.3125 101 -162.0625 104.5 C-163.74096931 106.11897926 -165.42875562 107.27032908 -167.43359375 108.45703125 C-169.23218845 109.4126244 -169.23218845 109.4126244 -170.0625 111.5 C-167.4225 112.16 -164.7825 112.82 -162.0625 113.5 C-162.0625 112.51 -162.0625 111.52 -162.0625 110.5 C-158.35956315 110.16336938 -156.66715619 110.02263985 -153.6875 112.375 C-152.0625 114.5 -152.0625 114.5 -152.0625 116.5 C-154.45537704 117.3427743 -156.85121019 118.17437002 -159.25 119 C-160.26030273 119.35771484 -160.26030273 119.35771484 -161.29101562 119.72265625 C-164.22706905 120.72521108 -166.67885918 121.51313464 -169.80078125 121.40625 C-173.04188584 121.5405963 -173.89966924 123.17850598 -176.0625 125.5 C-178.6484375 126.984375 -178.6484375 126.984375 -181.4375 128.25 C-182.35273438 128.67796875 -183.26796875 129.1059375 -184.2109375 129.546875 C-187.3650706 130.60113319 -189.75855242 130.80930573 -193.0625 130.5 C-193.619375 129.88125 -194.17625 129.2625 -194.75 128.625 C-198.47525019 125.20179712 -203.16759699 125.14140108 -208.0625 124.5 C-208.0625 123.18 -208.0625 121.86 -208.0625 120.5 C-209.7125 120.5 -211.3625 120.5 -213.0625 120.5 C-218.50688719 107.49666453 -218.50688719 107.49666453 -217.0625 100.5 C-213.64015418 93.68860267 -208.70570229 88.95829152 -202.6875 84.4375 C-201.89150391 83.83317139 -201.09550781 83.22884277 -200.27539062 82.60620117 C-192.92473062 77.16557245 -185.42391419 73.1340185 -177.0625 69.5 C-176.07620605 69.06026855 -175.08991211 68.62053711 -174.07373047 68.16748047 C-158.24655152 61.12607814 -143.2830575 55.70826586 -126.20751953 52.64477539 C-121.04185083 51.71434864 -115.92536533 50.62372869 -110.8125 49.4375 C-110.09723145 49.27507812 -109.38196289 49.11265625 -108.64501953 48.9453125 C-104.77114521 48.03419009 -104.77114521 48.03419009 -101.12164307 46.48831177 C-98.87518469 45.41009565 -97.03449701 45.04802259 -94.56933594 44.72216797 C-93.68872498 44.60219452 -92.80811401 44.48222107 -91.90081787 44.35861206 C-90.48811615 44.1772319 -90.48811615 44.1772319 -89.046875 43.9921875 C-87.59042572 43.79666794 -87.59042572 43.79666794 -86.10455322 43.59719849 C-83.00805285 43.18307979 -79.91034548 42.77892063 -76.8125 42.375 C-74.71085026 42.09570777 -72.60928653 41.81576754 -70.5078125 41.53515625 C-65.36034876 40.84925284 -60.21185901 40.17151833 -55.0625 39.5 C-55.0625 36.89057782 -56.0050382 35.85275295 -57.4375 33.6875 C-62.17106011 26.25096949 -62.17106011 26.25096949 -61.94140625 22.546875 C-60.61860386 19.4662152 -58.61426049 18.90133486 -55.625 17.5 C-54.54605469 16.98953125 -53.46710938 16.4790625 -52.35546875 15.953125 C-48.61857147 14.30410271 -44.85532949 12.77308272 -41.0234375 11.359375 C-38.88305489 10.56309859 -38.88305489 10.56309859 -37.0625 8.5 C-36.66202556 6.17724823 -36.3227896 3.84260643 -36.0625 1.5 C-25.88557585 -3.05016169 -10.02675513 -6.52987968 0 0 Z M51.80200195 64.47998047 C48.15857631 66.47320193 44.04694817 66.99908338 40 67.75 C39.12537109 67.92273438 38.25074219 68.09546875 37.34960938 68.2734375 C35.21440954 68.69347681 33.07622975 69.09832049 30.9375 69.5 C31.91290386 71.46684804 32.88896121 73.41446183 33.97265625 75.32421875 C34.31167969 75.93910156 34.65070313 76.55398438 35 77.1875 C35.34160156 77.78949219 35.68320312 78.39148438 36.03515625 79.01171875 C37.39712183 82.76744202 37.62896284 86.5342849 37.9375 90.5 C37.99945557 91.25627686 38.06141113 92.01255371 38.12524414 92.79174805 C39.10799913 107.29315143 36.27984156 119.68797942 31.69360352 133.40307617 C30.63788791 137.72718095 30.29750692 142.07055084 29.9375 146.5 C36.71239787 145.32120596 43.48493151 144.12945212 50.25610352 142.92944336 C52.55084836 142.52424315 54.84608412 142.1218115 57.1418457 141.72241211 C68.35702112 139.76949649 79.53241147 137.79003686 90.55078125 134.90234375 C91.2859346 134.70977493 92.02108795 134.51720612 92.77851868 134.31880188 C107.42277939 130.30663931 124.00337866 123.29309222 132.88671875 110.421875 C135.15046125 106.28149838 136.22963769 102.86263169 136.25 98.125 C136.27513672 96.78308594 136.27513672 96.78308594 136.30078125 95.4140625 C135.65778649 90.25627656 134.03439569 86.60355363 130.36328125 82.91015625 C111.02260058 68.32577848 90.32048652 61.58498411 66 61.125 C65.20698486 61.09889648 64.41396973 61.07279297 63.59692383 61.04589844 C58.75486638 61.03158039 55.9647912 61.77774518 51.80200195 64.47998047 Z M-36.0625 67.5 C-35.95137951 71.79214174 -35.82105283 76.08350231 -35.6875 80.375 C-35.6565625 81.57898438 -35.625625 82.78296875 -35.59375 84.0234375 C-35.82698868 96.10564253 -35.82698868 96.10564253 -31.0625 106.5 C-30.88004223 98.78701247 -31.58073745 91.28643435 -32.4375 83.625 C-32.56382812 82.40296875 -32.69015625 81.1809375 -32.8203125 79.921875 C-32.94921875 78.75398438 -33.078125 77.58609375 -33.2109375 76.3828125 C-33.32614746 75.32465332 -33.44135742 74.26649414 -33.56005859 73.17626953 C-33.92163649 70.2870086 -33.92163649 70.2870086 -36.0625 67.5 Z M-31.0625 106.5 C-30.0625 109.5 -30.0625 109.5 -30.0625 109.5 Z M-29.0625 122.5 C-29.12084395 126.37493616 -29.15621201 130.24975836 -29.1875 134.125 C-29.20425781 135.21941406 -29.22101563 136.31382812 -29.23828125 137.44140625 C-29.287829 145.15484273 -29.287829 145.15484273 -27.0625 152.5 C-26.4025 152.5 -25.7425 152.5 -25.0625 152.5 C-26.0525 142.6 -27.0425 132.7 -28.0625 122.5 C-28.3925 122.5 -28.7225 122.5 -29.0625 122.5 Z M-18.0625 208.5 C-19.28179855 213.02459226 -18.94664301 217.26358937 -18.5390625 221.87109375 C-18.47343109 222.67104263 -18.40779968 223.47099152 -18.34017944 224.29518127 C-18.20044223 225.98229989 -18.05735686 227.66914412 -17.91113281 229.35571289 C-17.68860596 231.92473194 -17.47620601 234.49443004 -17.265625 237.06445312 C-17.12819769 238.70838306 -16.99019579 240.35226508 -16.8515625 241.99609375 C-16.78796539 242.7587706 -16.72436829 243.52144745 -16.65884399 244.30723572 C-16.3004569 248.41287185 -15.80353187 252.44118461 -15.0625 256.5 C-14.7325 256.5 -14.4025 256.5 -14.0625 256.5 C-13.72192982 252.39640104 -13.39139732 248.2920497 -13.0625 244.1875 C-12.96710938 243.03958984 -12.87171875 241.89167969 -12.7734375 240.70898438 C-12.0620683 231.74065124 -11.52314788 222.77691205 -12.5625 213.8125 C-12.6553125 212.98363281 -12.748125 212.15476562 -12.84375 211.30078125 C-12.9159375 210.70652344 -12.988125 210.11226562 -13.0625 209.5 C-14.7125 209.17 -16.3625 208.84 -18.0625 208.5 Z M23.9375 209.5 C19.51228369 226.27715505 16.65279504 243.40233366 18.44921875 260.77734375 C18.54033936 261.66542725 18.63145996 262.55351074 18.7253418 263.46850586 C18.795354 264.13889893 18.86536621 264.80929199 18.9375 265.5 C22.99908918 266.81532895 27.06185626 268.12698137 31.125 269.4375 C32.99103882 270.04005615 32.99103882 270.04005615 34.89477539 270.65478516 C41.60817922 272.81700615 48.33123592 274.94057453 55.078125 276.99609375 C55.7352095 277.19696091 56.39229401 277.39782806 57.06929016 277.6047821 C60.24527282 278.57535483 63.42287277 279.53909282 66.60424805 280.49194336 C67.75449463 280.84264893 68.90474121 281.19335449 70.08984375 281.5546875 C71.10038818 281.85874512 72.11093262 282.16280273 73.15209961 282.47607422 C76.0681173 283.54801551 78.43863094 284.64785458 80.9375 286.5 C81.57481384 288.60177612 81.57481384 288.60177612 81.9375 290.5 C80.71119873 290.16154053 79.48489746 289.82308105 78.22143555 289.47436523 C73.67833045 288.22285601 69.13226126 286.98243087 64.58520508 285.74536133 C62.61627675 285.20802658 60.64816926 284.66767471 58.6809082 284.12426758 C55.85577536 283.344454 53.02788433 282.57547922 50.19921875 281.80859375 C49.31787766 281.56282089 48.43653656 281.31704803 47.52848816 281.06382751 C46.70786392 280.84352371 45.88723969 280.62321991 45.04174805 280.39624023 C44.32004929 280.1986058 43.59835052 280.00097137 42.8547821 279.79734802 C40.72345297 279.31696925 40.72345297 279.31696925 37.9375 280.5 C52.39911147 287.68931951 66.93502597 294.70477155 81.78292847 301.06558228 C83.12878716 301.64377232 84.47220252 302.22768538 85.8130188 302.81747437 C87.69915691 303.64445413 89.59359463 304.44819836 91.4921875 305.24609375 C92.56968262 305.70685303 93.64717773 306.1676123 94.75732422 306.64233398 C105.32480779 309.49229328 119.81925006 301.84248814 128.93164062 296.86425781 C147.30136435 286.59565251 147.30136435 286.59565251 159.9375 270.5 C161.26001934 265.20992263 161.05675947 261.53324125 158.9375 256.5 C139.49500123 228.46662968 97.11473655 219.1887482 65.9375 213.5 C51.98304562 211.08365387 38.08366788 209.94494454 23.9375 209.5 Z M-124.92578125 274.890625 C-125.75780563 275.03651062 -126.58983002 275.18239624 -127.44706726 275.33270264 C-129.19988915 275.64232182 -130.9521481 275.95514318 -132.70385742 276.27099609 C-135.35460688 276.74634299 -138.00804391 277.20373872 -140.66210938 277.66015625 C-154.94877415 280.17596124 -166.7741557 283.17046365 -176.6875 294.5 C-178.48590694 298.42379696 -178.33193768 300.39299573 -177.0625 304.5 C-171.66751471 311.74951148 -161.89212462 314.04804236 -153.6015625 316.6640625 C-152.29474014 317.08128067 -152.29474014 317.08128067 -150.96151733 317.50692749 C-149.13207323 318.08925505 -147.30178798 318.66894615 -145.47070312 319.24609375 C-142.69893054 320.12139036 -139.9314466 321.00937729 -137.1640625 321.8984375 C-111.24530508 330.16483652 -85.65601554 329.67066551 -58.6796875 329.63037109 C-54.79100751 329.62459297 -50.90239534 329.62802106 -47.01371765 329.63394356 C-43.98363737 329.63755846 -40.9535732 329.63640769 -37.92349243 329.63381577 C-36.48825065 329.63315327 -35.05300736 329.63395098 -33.61776733 329.63629532 C-31.62408478 329.63884618 -29.63039699 329.63426635 -27.63671875 329.62939453 C-26.50838623 329.62859894 -25.38005371 329.62780334 -24.2175293 329.62698364 C-21.08732923 329.50099933 -18.1373329 329.08419651 -15.0625 328.5 C-11.8194628 318.77088839 -14.66639492 307.99439874 -16.99829102 298.32958984 C-17.50874657 296.21374534 -17.99909396 294.09395777 -18.48632812 291.97265625 C-19.38835081 285.75336236 -19.38835081 285.75336236 -22.0625 280.5 C-24.03171207 280.24378139 -26.00944825 280.05304399 -27.98828125 279.88671875 C-29.29829102 279.77497314 -30.60830078 279.66322754 -31.95800781 279.5480957 C-33.43031744 279.4276389 -34.90264892 279.30744905 -36.375 279.1875 C-37.90072957 279.06030085 -39.42644536 278.9329364 -40.95214844 278.80541992 C-46.32144407 278.35996227 -51.69184978 277.92878007 -57.0625 277.5 C-58.67109894 277.37147644 -58.67109894 277.37147644 -60.31219482 277.24035645 C-67.309149 276.68249237 -74.30658388 276.13106297 -81.30453491 275.58584595 C-83.63745419 275.40406135 -85.97032006 275.22158995 -88.3031311 275.03842163 C-91.61332875 274.77922571 -94.92379636 274.52380922 -98.234375 274.26953125 C-99.22473251 274.19155304 -100.21509003 274.11357483 -101.23545837 274.03323364 C-109.38214406 273.41477087 -116.88018226 273.45097689 -124.92578125 274.890625 Z M13.9375 292.5 C13.12145001 294.4151579 12.30979368 296.33218834 11.5 298.25 C11.04753906 299.31734375 10.59507812 300.3846875 10.12890625 301.484375 C8.37381558 305.92676845 7.7612539 309.52464271 7.6875 314.3125 C7.66171875 315.30894531 7.6359375 316.30539062 7.609375 317.33203125 C8.01543573 321.2524509 9.2460899 323.95248986 10.9375 327.5 C30.98511933 323.72417955 50.96538795 319.65320556 70.9375 315.5 C69.42294802 312.47089604 67.16722536 312.21561116 64.05078125 310.99609375 C63.44528946 310.75663528 62.83979767 310.51717682 62.21595764 310.27046204 C60.22976237 309.48639479 58.2399932 308.71187144 56.25 307.9375 C54.19763691 307.13133065 52.1461464 306.32297273 50.0947876 305.51425171 C48.7127199 304.96940947 47.33035296 304.42532569 45.94769287 303.88198853 C41.67693774 302.20027814 37.42742957 300.47497155 33.19140625 298.70703125 C32.19004639 298.28945557 31.18868652 297.87187988 30.15698242 297.44165039 C28.2994898 296.66348358 26.44407496 295.88033311 24.59106445 295.09155273 C23.76437256 294.74680908 22.93768066 294.40206543 22.0859375 294.046875 C21.37614746 293.74620117 20.66635742 293.44552734 19.93505859 293.13574219 C17.65161116 292.29781936 17.65161116 292.29781936 13.9375 292.5 Z " fill="#D35A43" transform="translate(272.0625,256.5)"/>
<path d="M0 0 C1.14984375 0.12761719 2.2996875 0.25523437 3.484375 0.38671875 C10.7667385 1.28465724 14.89513754 2.09166797 19.6340332 8.05688477 C24.98263173 15.41555574 29.0882752 23.37996702 33.28125 31.4296875 C36.60768841 37.78961637 36.60768841 37.78961637 40.890625 43.51171875 C43 46 43 46 43.125 49.5625 C41.79174369 53.63633872 40.37855579 55.3892978 37 58 C34.625 59.0625 34.625 59.0625 32 59 C27.17359005 56.79847967 23.80054389 54.63166874 21 50 C20.855625 48.88625 20.71125 47.7725 20.5625 46.625 C19.86013479 42.09864643 18.37019937 39.12359942 15 36 C11.59064754 34.99269132 9.87785514 35.54883752 6.7578125 37.15234375 C2.0157062 40.08312092 -1.64997627 42.82994779 -4 48 C-4.67846432 51.35095181 -5.18671887 54.68117069 -5.60546875 58.07421875 C-6 61 -6 61 -7 64 C-6.71253906 64.55429687 -6.42507813 65.10859375 -6.12890625 65.6796875 C-4.50439793 69.01864231 -4.31265068 72.47788293 -3.9375 76.125 C-3.56020646 81.21655717 -3.56020646 81.21655717 -2 86 C-1.91456105 88.10528933 -1.89285275 90.21331157 -1.90234375 92.3203125 C-1.90556641 93.57714844 -1.90878906 94.83398438 -1.91210938 96.12890625 C-1.92048828 97.44761719 -1.92886719 98.76632812 -1.9375 100.125 C-1.94251511 101.46484211 -1.94707799 102.804686 -1.95117188 104.14453125 C-1.96298914 107.42973206 -1.97946383 110.71484397 -2 114 C-0.67778442 114.03758423 -0.67778442 114.03758423 0.67114258 114.07592773 C3.99431204 114.17202096 7.31736229 114.27118401 10.64038086 114.37231445 C12.06873082 114.4151794 13.49711629 114.45687966 14.92553711 114.49731445 C21.72802718 114.69058057 28.53307409 114.90117961 35.32421875 115.34765625 C36.16428467 115.40058838 37.00435059 115.45352051 37.86987305 115.50805664 C40.48249421 116.11142989 41.43763584 116.83407284 43 119 C43.39956422 123.95459631 43.39956422 123.95459631 42 127 C36.61354513 131.7685573 28.22071179 133.25974728 21.5 135.4375 C11.32290832 138.73793872 2.73895597 141.8389603 -3.84375 150.6796875 C-7.72035782 158.45909643 -7.36103053 166.85463241 -7.47851562 175.3359375 C-7.90288043 190.90288043 -7.90288043 190.90288043 -12 195 C-12.23025237 196.58509198 -12.39823186 198.17928514 -12.54077148 199.7746582 C-12.63439972 200.80089798 -12.72802795 201.82713776 -12.82449341 202.88447571 C-12.97131058 204.57554695 -12.97131058 204.57554695 -13.12109375 206.30078125 C-13.22541718 207.4671965 -13.3297406 208.63361176 -13.43722534 209.83537292 C-13.7767172 213.66057694 -14.10808374 217.48641575 -14.4375 221.3125 C-14.60649307 223.2625293 -14.60649307 223.2625293 -14.77890015 225.25195312 C-16.10832357 240.65722557 -17.41077747 256.06301435 -18.3125 271.5 C-18.38847412 272.71727783 -18.46444824 273.93455566 -18.54272461 275.1887207 C-18.88027982 281.60564112 -19.01832565 287.97859786 -18.91967773 294.4050293 C-18.56322409 320.6388187 -20.40170383 346.68632756 -22.17095947 372.84961319 C-22.57760863 378.89561528 -22.97407043 384.94227601 -23.37021518 390.98897398 C-23.59890838 394.47954327 -23.82803868 397.97008383 -24.05728149 401.46061707 C-24.10339589 402.16278746 -24.14951028 402.86495786 -24.19702208 403.58840615 C-24.52908394 408.64067122 -24.86342071 413.69278287 -25.19882202 418.74482727 C-26.67220593 440.94269613 -28.11199027 463.14260724 -29.53515625 485.34375 C-29.5871086 486.15402138 -29.63906095 486.96429275 -29.69258761 487.7991178 C-30.15809546 495.05947869 -30.62336762 502.31985466 -31.08823681 509.58025646 C-32.07085558 524.92638323 -33.05771141 540.27223642 -34.04533195 555.61804199 C-34.38807588 560.94368152 -34.73065343 566.26933174 -35.07324314 571.59498119 C-35.38213019 576.39665618 -35.69106039 581.19832839 -36 586 C-27.69556214 587.11907057 -19.40032244 587.27763879 -11.03491211 587.44897461 C-9.42268619 587.48494205 -7.81046812 587.52126291 -6.19825745 587.5579071 C-1.8129292 587.65658677 2.57249231 587.75033726 6.95794606 587.84324718 C11.64670653 587.94347095 16.33536276 588.04836215 21.02403259 588.15272522 C29.99948386 588.35181879 38.97501784 588.54688834 47.9505896 588.7404657 C58.77767786 588.97413851 69.60466044 589.21255264 80.43164062 589.45117188 C84.32302767 589.53687536 88.21441574 589.62253231 92.10580444 589.7081604 C93.55109561 589.73996586 93.55109561 589.73996586 95.02558458 589.77241385 C101.83781168 589.92223739 108.65005714 590.07120731 115.46231079 590.21981812 C143.93224999 590.84118695 172.40177033 591.47995365 200.87109375 592.12890625 C201.84857803 592.15118562 202.8260623 592.17346498 203.83316731 592.19641948 C215.55545938 592.46364663 227.27773612 592.73153919 239 593 C239 584.75 239 576.5 239 568 C232.55076574 570.62710653 232.55076574 570.62710653 226.10620117 573.265625 C225.30158447 573.59046875 224.49696777 573.9153125 223.66796875 574.25 C222.84578857 574.58515625 222.0236084 574.9203125 221.17651367 575.265625 C219 576 219 576 216 576 C215.98969254 575.00299072 215.97938507 574.00598145 215.96876526 572.97875977 C215.87082378 563.56286169 215.76807107 554.14702665 215.66066074 544.73123169 C215.60559911 539.89099297 215.55220686 535.05074805 215.50268555 530.21044922 C215.45479361 525.53550237 215.4024436 520.86062438 215.34705925 516.1857605 C215.32674765 514.40609461 215.30801692 512.62640993 215.29092598 510.84671021 C215.26663218 508.34565474 215.23661451 505.8447264 215.20532227 503.34375 C215.1995668 502.61510239 215.19381134 501.88645477 215.18788147 501.13572693 C215.12030906 496.35508288 214.66325655 491.73584331 214 487 C218.95 487 223.9 487 229 487 C229 511.42 229 535.84 229 561 C232.63 561 236.26 561 240 561 C239.97779388 560.09068726 239.95558777 559.18137451 239.93270874 558.24450684 C239.73190306 549.65310787 239.57987605 541.06250243 239.48187828 532.46929169 C239.42979917 528.05174754 239.35923558 523.63615016 239.24560547 519.21972656 C239.13652363 514.9531205 239.07707406 510.68837976 239.05122757 506.42048645 C239.03282338 504.79680515 238.99687893 503.17322021 238.94269943 501.55033875 C238.53709289 488.89132494 238.53709289 488.89132494 242.18731689 484.17211914 C248.41011994 479 248.41011994 479 253 479 C253 516.95 253 554.9 253 594 C266.86 594 280.72 594 295 594 C310.25745829 594.20279993 310.25745829 594.20279993 317.27246094 594.37231445 C320.12163353 594.44040692 322.97091545 594.49876671 325.8203125 594.55664062 C327.6927206 594.59841197 329.56511713 594.64070611 331.4375 594.68359375 C332.26032471 594.70030624 333.08314941 594.71701874 333.9309082 594.73423767 C349.25688981 595.12381959 349.25688981 595.12381959 355.90234375 598.2421875 C374.81933622 605.07625927 403.21059619 604.89390139 423.03442383 602.22045898 C426.02688716 601.88482436 428.99179446 601.90616453 432 601.9375 C433.134375 601.94652344 434.26875 601.95554687 435.4375 601.96484375 C436.283125 601.97644531 437.12875 601.98804688 438 602 C438.33773438 601.28972656 438.67546875 600.57945312 439.0234375 599.84765625 C439.46945312 598.92855469 439.91546875 598.00945313 440.375 597.0625 C440.81585937 596.14597656 441.25671875 595.22945312 441.7109375 594.28515625 C443 592 443 592 445 591 C452.35600944 590.08049882 457.92382015 593.20442696 463.90234375 597.3046875 C466.73062 599.53134998 469.00194249 601.50679871 470 605 C470.57754247 610.11537615 470.74077753 611.78861087 468.0078125 616.2578125 C465.55344801 619.00569487 465.03383693 618.99624407 461.05859375 619.4375 C459.51547289 619.32450259 457.97464611 619.17655662 456.4375 619 C455.20785522 618.89558594 455.20785522 618.89558594 453.95336914 618.7890625 C451.29857422 618.55578443 448.6504924 618.2775982 446 618 C444.12525251 617.83051657 442.25024766 617.66385659 440.375 617.5 C426.47851499 616.2392575 426.47851499 616.2392575 424 615 C425.37405423 612.04049858 427.01776932 609.58504604 429 607 C428.33057373 607.08564209 427.66114746 607.17128418 426.97143555 607.25952148 C423.87704604 607.65421538 420.78227886 608.04587113 417.6875 608.4375 C416.63498047 608.57220703 415.58246094 608.70691406 414.49804688 608.84570312 C413.45068359 608.97783203 412.40332031 609.10996094 411.32421875 609.24609375 C410.37635498 609.36654053 409.42849121 609.4869873 408.4519043 609.61108398 C406.74321167 609.80359741 406.74321167 609.80359741 405 610 C404.22796234 610.08854752 403.45592468 610.17709503 402.66049194 610.26832581 C394.97305428 611.06820516 387.36348159 611.09436565 379.640625 611.03515625 C376.69206472 611.02237135 373.74350191 611.01489277 370.79492188 611.00830078 C370.01521908 611.00630771 369.23551628 611.00431463 368.43218613 611.00226116 C352.83418471 610.97391486 337.23590776 611.19671309 321.63916016 611.37231445 C316.7019539 611.42769994 311.76470875 611.47782136 306.82743454 611.52671719 C302.93547519 611.56611075 299.04356061 611.60906253 295.15164948 611.65294075 C293.3324846 611.67291116 291.51330604 611.69168229 289.69411469 611.70907402 C276.77606356 611.83449079 263.90012211 612.30933172 251 613 C250.76301392 614.16595703 250.76301392 614.16595703 250.52124023 615.35546875 C247.04262181 631.85962909 237.90922287 646.26056557 224 656 C222.68 656.33 221.36 656.66 220 657 C220 648.75 220 640.5 220 632 C223.49107379 633.16369126 223.85222763 633.88973538 225.6875 636.9375 C226.12449219 637.64777344 226.56148437 638.35804688 227.01171875 639.08984375 C228 641 228 641 228 643 C236.29486237 635.64051573 237.84736556 623.51133795 239 613 C238.48768798 613.15354478 237.97537596 613.30708956 237.44753933 613.46528721 C223.15390519 616.58801088 207.1048823 615.13648821 192.57006836 615.11352539 C190.04542543 615.11324279 187.52078241 615.11340267 184.99613953 615.1139679 C179.59489767 615.11419423 174.19367143 615.11139286 168.79243279 615.10573006 C160.98347707 615.09754834 153.17452717 615.09499306 145.36556763 615.09374207 C132.69121818 615.09156194 120.01687523 615.08493025 107.3425293 615.07543945 C95.04207389 615.0662383 82.74162027 615.05917074 70.44116211 615.05493164 C69.68095754 615.05466892 68.92075297 615.05440619 68.1375119 615.05413551 C64.32319046 615.05283032 60.508869 615.05156665 56.69454753 615.05032361 C25.12969364 615.03998342 -6.43515219 615.02231847 -38 615 C-38.03440186 615.93682617 -38.06880371 616.87365234 -38.10424805 617.83886719 C-38.24488501 621.3737609 -38.40583469 624.90659078 -38.57983398 628.43994141 C-38.65059373 629.95814707 -38.71365234 631.47673488 -38.76831055 632.99560547 C-39.09633903 641.9498965 -39.87021694 649.35000901 -43.8611021 657.55512905 C-45.51250582 661.10019571 -46.00520033 664.51863846 -46.36328125 668.37890625 C-46.44521729 669.11039383 -46.52715332 669.84188141 -46.61157227 670.59553528 C-46.86497751 672.91628545 -47.09038791 675.23856445 -47.3125 677.5625 C-47.47841205 679.17077159 -47.64467386 680.77900713 -47.8112793 682.38720703 C-49.10298319 695.26744527 -50.25187996 708.17329176 -48 721 C-47.75348486 725.0747503 -47.69561824 729.08685471 -49 733 C-48.154375 733.268125 -47.30875 733.53625 -46.4375 733.8125 C-36.50393701 737.24409449 -36.50393701 737.24409449 -34 741 C-33.44973631 744.50793101 -33.3793972 746.93812443 -35.203125 750.05859375 C-36.73489435 752.10482098 -38.34430069 754.05332383 -40 756 C-40.66 756.928125 -41.32 757.85625 -42 758.8125 C-46.05560117 763.24831378 -50.01802643 764.2379322 -55.875 764.5625 C-62.13053413 764.44550123 -65.62400609 762.32451163 -70 758 C-69.31541607 753.82167742 -67.93976063 750.13788906 -66.4375 746.1875 C-63.52264978 738.0791391 -63.49629899 730.51814382 -64 722 C-62.4375 721.25 -62.4375 721.25 -60 721 C-57.49713591 722.13084437 -55.32992278 723.52139516 -53 725 C-53.27714844 723.865625 -53.55429687 722.73125 -53.83984375 721.5625 C-54.20595709 720.04172152 -54.57182963 718.52088505 -54.9375 717 C-55.11990234 716.25621094 -55.30230469 715.51242187 -55.49023438 714.74609375 C-55.66748047 714.00488281 -55.84472656 713.26367188 -56.02734375 712.5 C-56.18968506 711.8296875 -56.35202637 711.159375 -56.51928711 710.46875 C-57.76904976 704.05046666 -58.14411069 697.8059158 -58.11352539 691.2890625 C-58.11367142 690.45884079 -58.11381744 689.62861908 -58.1139679 688.77323914 C-58.11327695 686.05713188 -58.10552322 683.34109512 -58.09765625 680.625 C-58.09578916 678.73071327 -58.09436663 676.83642606 -58.09336853 674.94213867 C-58.08956626 669.97738288 -58.07975571 665.01265674 -58.06866455 660.0479126 C-58.05840101 654.97335206 -58.05386035 649.89878669 -58.04882812 644.82421875 C-58.03813123 634.88279953 -58.02108255 624.94140224 -58 615 C-59.32394524 615.00276538 -59.32394524 615.00276538 -60.67463684 615.00558662 C-82.64503024 615.0507126 -104.61541519 615.08329839 -126.58584595 615.10362434 C-137.21268433 615.11372716 -147.83949064 615.1274131 -158.46630859 615.15087891 C-216.67454323 615.27686926 -274.81366578 614.63349789 -333 613 C-332.95777817 613.91642525 -332.95777817 613.91642525 -332.91470337 614.85136414 C-332.80261033 617.63367707 -332.73295416 620.41551491 -332.6640625 623.19921875 C-332.59650757 624.64113586 -332.59650757 624.64113586 -332.52758789 626.11218262 C-332.39435779 633.2802717 -332.39435779 633.2802717 -335.51953125 636.99414062 C-338.84691973 639.11301797 -341.97257682 641 -346 641 C-346 631.76 -346 622.52 -346 613 C-349.23901123 612.9498877 -352.47802246 612.89977539 -355.81518555 612.84814453 C-389.4661293 612.32563387 -423.11658894 611.77736873 -456.76674366 611.20644474 C-464.5903379 611.07380663 -472.41396915 610.94367699 -480.23764515 610.81593704 C-491.36550825 610.63408228 -502.49312519 610.44321177 -513.62046528 610.2315712 C-518.63485871 610.13631461 -523.64922471 610.04566861 -528.66390991 609.96710205 C-533.32076032 609.89393003 -537.97716579 609.80741144 -542.63357544 609.7102375 C-544.31401787 609.67743534 -545.99456185 609.64940657 -547.6751709 609.62669182 C-555.67412658 609.51594914 -562.59747539 609.3661542 -570 606 C-573.2658286 605.28900698 -573.2658286 605.28900698 -576.515625 604.9140625 C-578.32836914 604.68058105 -578.32836914 604.68058105 -580.17773438 604.44238281 C-586.03098648 603.76493693 -591.88585684 603.12875389 -597.75146484 602.56738281 C-599.76331944 602.37371785 -601.77419458 602.17145416 -603.78515625 601.96875 C-612.24732133 601.14848078 -620.60235189 600.34893746 -629.0625 601.49609375 C-633.4179952 602.05349343 -637.61821024 602.11186158 -642 602.0625 C-642.77472656 602.05798828 -643.54945313 602.05347656 -644.34765625 602.04882812 C-646.23180524 602.03719758 -648.11591365 602.01926906 -650 602 C-650.29648437 602.75667969 -650.59296875 603.51335938 -650.8984375 604.29296875 C-652.28629707 607.70355983 -653.54610957 610.22322925 -656 613 C-663.18562594 613.94237717 -669.31070693 612.40353103 -675.25 608.1875 C-678.99356384 605.16943303 -681.55131177 602.78900523 -682.34375 597.86328125 C-682.62349797 593.63209317 -682.56464228 591.80197201 -680.0390625 588.21484375 C-675.81340764 585.13522125 -672.92508371 585.5690619 -667.875 586.0625 C-667.00713867 586.12687256 -666.13927734 586.19124512 -665.24511719 586.25756836 C-662.49277174 586.47236255 -659.74744558 586.72998078 -657 587 C-655.61893066 587.13148438 -655.61893066 587.13148438 -654.20996094 587.265625 C-648.79975368 587.78838748 -643.39883417 588.37095032 -638 589 C-637.37890625 590.828125 -637.37890625 590.828125 -637 593 C-638.9375 595.75 -638.9375 595.75 -641 598 C-640.18168701 597.8438623 -639.36337402 597.68772461 -638.52026367 597.52685547 C-634.57033508 596.93569478 -630.66050285 596.71990168 -626.67578125 596.5703125 C-625.8236908 596.53567398 -624.97160034 596.50103546 -624.09368896 596.46534729 C-622.1912887 596.38907823 -620.28880669 596.31482949 -618.38626099 596.24227905 C-615.21037762 596.12110353 -612.03477056 595.99384523 -608.85913086 595.86645508 C-594.69517423 595.31040923 -580.53001775 594.86068167 -566.36091423 594.45977592 C-557.59453278 594.21061517 -548.82846304 593.95092958 -540.0625 593.6875 C-539.07578686 593.65799381 -538.08907372 593.62848763 -537.07246017 593.59808731 C-509.205353 592.75874765 -481.55769225 591.29224919 -453.80371094 588.63671875 C-436.47648966 586.99384748 -419.39458367 586.38560156 -402 587 C-399.60451493 577.11341707 -399.65282852 567.31023649 -399.5859375 557.20703125 C-399.56719474 555.40670414 -399.5476191 553.60638552 -399.5272522 551.80607605 C-399.47625296 547.10282435 -399.43645635 542.39954426 -399.39910889 537.69616699 C-399.35886559 532.8826616 -399.30786671 528.06927097 -399.2578125 523.25585938 C-399.16143536 513.83732058 -399.07691016 504.41871649 -399 495 C-399.7425 495.33 -400.485 495.66 -401.25 496 C-404 497 -404 497 -408 497 C-407.97557327 497.85697983 -407.95114655 498.71395966 -407.92597961 499.59690857 C-407.70489908 507.70226656 -407.53777083 515.8066023 -407.43006611 523.91429043 C-407.37282678 528.08211547 -407.29530817 532.24743537 -407.17016602 536.41381836 C-407.04998472 540.44058058 -406.98474569 544.4649463 -406.95635033 548.49336433 C-406.936138 550.02419834 -406.89666071 551.55491155 -406.83696938 553.08471489 C-406.39085003 565.0000794 -406.39085003 565.0000794 -410.41659546 570.00344849 C-417.49968864 576 -417.49968864 576 -422 576 C-422 549.27 -422 522.54 -422 495 C-423.98 495.66 -425.96 496.32 -428 497 C-429.32 497 -430.64 497 -432 497 C-431.97779388 497.87172852 -431.95558777 498.74345703 -431.93270874 499.64160156 C-431.7318638 507.8797983 -431.57985736 516.11716668 -431.48187828 524.35725403 C-431.42980875 528.59324033 -431.35926571 532.8271949 -431.24560547 537.06201172 C-431.1364849 541.15356191 -431.07706687 545.24316607 -431.05122757 549.33605957 C-431.0328299 550.89276772 -430.99689779 552.44937587 -430.94269943 554.00524902 C-430.53716625 566.13571049 -430.53716625 566.13571049 -434.18731689 570.78759766 C-440.46064438 576 -440.46064438 576 -445 576 C-445.0154612 574.52660912 -445.0154612 574.52660912 -445.03123474 573.02345276 C-445.1292375 563.74031153 -445.23199533 554.45723333 -445.33933926 545.17419529 C-445.39436709 540.40236654 -445.44775341 535.63053148 -445.49731445 530.85864258 C-445.54525691 526.24852972 -445.59760776 521.6384856 -445.65294075 517.02845573 C-445.67322977 515.27473615 -445.6919638 513.52099782 -445.70907402 511.76724434 C-445.73341885 509.29992064 -445.76342808 506.83272315 -445.79467773 504.36547852 C-445.8004332 503.64977692 -445.80618866 502.93407532 -445.81211853 502.19668579 C-445.88512169 497.08432427 -446.35942039 492.07133296 -447 487 C-446.36630493 487.0030162 -445.73260986 487.00603241 -445.07971191 487.00914001 C-438.46015704 487.03377846 -431.8420416 487.0094829 -425.22265625 486.95727539 C-422.75524306 486.94416807 -420.28773156 486.94337152 -417.8203125 486.95532227 C-414.26464789 486.97037649 -410.71169303 486.9405819 -407.15625 486.90234375 C-406.06010376 486.91659897 -404.96395752 486.93085419 -403.83459473 486.94554138 C-398.08355194 486.83780257 -394.73881969 486.34494827 -390.36523438 482.44360352 C-389.75562866 481.80205826 -389.14602295 481.160513 -388.51794434 480.49952698 C-387 479 -387 479 -385 479 C-384.90699259 490.52722433 -384.83607959 502.05435821 -384.79275131 513.58188248 C-384.77194751 518.9355833 -384.74376245 524.28902588 -384.69824219 529.64257812 C-384.65452627 534.81677511 -384.6308088 539.99072494 -384.62049103 545.16509247 C-384.61314564 547.13130326 -384.59880273 549.09750175 -384.57707977 551.06360626 C-384.43824242 564.15984971 -385.08831388 574.48052313 -392 586 C-369.23 586.495 -369.23 586.495 -346 587 C-346.12003127 571.24795461 -346.12003127 571.24795461 -346.2578125 555.49609375 C-346.3179884 549.06627431 -346.37613953 542.63648345 -346.421875 536.20654297 C-346.45890231 531.01931433 -346.50530855 525.83224473 -346.55806351 520.64515305 C-346.57651512 518.67177511 -346.59165668 516.69836321 -346.60334396 514.72493362 C-346.62036547 511.94878296 -346.64943689 509.17298925 -346.68115234 506.39697266 C-346.68331253 505.59135895 -346.68547272 504.78574524 -346.68769836 503.95571899 C-346.7720844 498.1274872 -347.69714522 492.67589622 -349 487 C-348.16339844 487.00636475 -347.32679688 487.01272949 -346.46484375 487.01928711 C-343.3254944 487.02645755 -340.18832061 487.00213985 -337.04931641 486.95727539 C-335.03687257 486.93785581 -333.02418654 486.95394899 -331.01171875 486.97070312 C-322.35338295 486.85008582 -322.35338295 486.85008582 -315.1875 482.44140625 C-314.60355469 481.80017822 -314.01960938 481.1589502 -313.41796875 480.49829102 C-312.95003906 480.00385498 -312.48210937 479.50941895 -312 479 C-311.34 479 -310.68 479 -310 479 C-310 511.01 -310 543.02 -310 576 C-313.5088444 575.29823112 -316.18810331 574.65218934 -319.42578125 573.37109375 C-320.14419189 573.08935303 -320.86260254 572.8076123 -321.6027832 572.51733398 C-322.49698975 572.16098877 -323.39119629 571.80464355 -324.3125 571.4375 C-327.179375 570.303125 -330.04625 569.16875 -333 568 C-333 574.27 -333 580.54 -333 587 C-330.57873779 586.95939453 -328.15747559 586.91878906 -325.6628418 586.87695312 C-311.03752405 586.80059023 -296.43557801 587.91143899 -281.84567475 588.81736183 C-277.68975821 589.07404064 -273.53342154 589.32372726 -269.37712097 589.57409668 C-261.52821156 590.0478513 -253.67964032 590.52696526 -245.83120126 591.00844336 C-231.75585256 591.87181196 -217.68002281 592.72726323 -203.60394782 593.5787034 C-198.67439989 593.87711651 -193.7450335 594.17832929 -188.81580031 594.48189545 C-185.75192283 594.67017439 -182.68792907 594.8565076 -179.62390518 595.04238701 C-178.20975885 595.12860531 -176.79566289 595.21565487 -175.38162422 595.30362129 C-173.44346279 595.42409294 -171.50509785 595.54127669 -169.56672668 595.6583252 C-168.48525266 595.72469429 -167.40377863 595.79106339 -166.28953266 595.85944366 C-162.52949427 596.02010394 -158.7634692 596 -155 596 C-160.94 594.68 -166.88 593.36 -173 592 C-173 591.01 -173 590.02 -173 589 C-167.17353821 588.82344055 -161.34707642 588.6468811 -155.52061462 588.47032166 C-154.44931258 588.43785796 -154.44931258 588.43785796 -153.35636806 588.40473843 C-152.62839551 588.38267865 -151.90042295 588.36061888 -151.15039062 588.33789062 C-149.63842773 588.29207357 -148.12646484 588.24625651 -146.61450195 588.20043945 C-144.36334229 588.13222249 -142.11218262 588.06400553 -139.86102295 587.99578857 C-138.78524994 587.96318939 -138.78524994 587.96318939 -137.68774414 587.92993164 C-136.97324411 587.9082876 -136.25874409 587.88664356 -135.52259254 587.86434364 C-134.07887403 587.82057946 -132.63515735 587.77675471 -131.19144249 587.7328701 C-127.54878105 587.62222065 -123.9060931 587.51264493 -120.26333618 587.40518188 C-113.59011102 587.20727967 -106.91756213 587.00183452 -100.24586964 586.75703907 C-97.30241087 586.64955129 -94.35876808 586.54768489 -91.41509819 586.44616508 C-89.39542895 586.37418837 -87.3760539 586.2940954 -85.35670471 586.21363831 C-76.16723135 585.90017795 -67.15505657 586.28350911 -58 587 C-58.37985347 562.91068191 -58.37985347 562.91068191 -59.875 538.875 C-59.94122559 538.11751465 -60.00745117 537.3600293 -60.07568359 536.57958984 C-60.4549272 532.81222101 -60.97400263 529.13070063 -61.71329403 525.41394615 C-64.29800865 512.34140387 -64.39268459 499.55520028 -64.30883789 486.26806641 C-64.30470812 483.82811671 -64.30194487 481.38816439 -64.3004303 478.94821167 C-64.29437372 473.72652477 -64.27932429 468.50494882 -64.25605965 463.28331375 C-64.22249183 455.70359259 -64.20800006 448.12392101 -64.19820493 440.54413609 C-64.18193908 428.20077523 -64.15375513 415.85747448 -64.11645508 403.51416016 C-64.11312339 402.40999335 -64.11312339 402.40999335 -64.10972439 401.28352015 C-64.10071225 398.30246657 -64.09167642 395.32141307 -64.08260826 392.34035967 C-64.05782519 384.15676173 -64.03532655 375.97315819 -64.01391602 367.78955078 C-64.01199704 367.05738821 -64.01007806 366.32522563 -64.00810093 365.57087632 C-63.97618264 353.28016726 -63.95255701 340.98945244 -63.93383402 328.69871652 C-63.92295051 321.82565365 -63.90741177 314.9526588 -63.88023567 308.07963943 C-63.85464574 301.60339293 -63.8383578 295.12718717 -63.82866478 288.65089798 C-63.82340341 286.29862389 -63.81470793 283.94635403 -63.80196381 281.59410858 C-63.6821362 258.8471046 -64.7902175 236.21292891 -68.5 213.75 C-68.95277892 210.85827286 -69.39271583 207.9647021 -69.828125 205.0703125 C-69.93316345 204.37283905 -70.0382019 203.6753656 -70.14642334 202.95675659 C-72.98899463 183.76669618 -73.46880789 164.36475949 -74 145 C-74.65081543 144.94013916 -75.30163086 144.88027832 -75.97216797 144.81860352 C-80.73363225 144.36460752 -85.42373481 143.84158946 -90.125 142.9375 C-91.05570313 142.76089844 -91.98640625 142.58429688 -92.9453125 142.40234375 C-93.96238281 142.20318359 -93.96238281 142.20318359 -95 142 C-95.33 141.01 -95.66 140.02 -96 139 C-96.99 138.34 -97.98 137.68 -99 137 C-98.67 136.01 -98.34 135.02 -98 134 C-97.34 134 -96.68 134 -96 134 C-96 133.34 -96 132.68 -96 132 C-96.99 131.67 -97.98 131.34 -99 131 C-99 129.35 -99 127.7 -99 126 C-97.43979133 125.34865075 -95.87671421 124.70417036 -94.3125 124.0625 C-93.00732422 123.52302734 -93.00732422 123.52302734 -91.67578125 122.97265625 C-86.69858129 121.1634259 -82.2843166 120.89638595 -77 121 C-76.82090209 115.98525845 -77.05717584 111.32321807 -77.81860352 106.35522461 C-81.73690288 80.23218816 -68.79024752 57.75159355 -53.8293457 37.41674805 C-52.22896777 35.27054507 -50.61760267 33.13324212 -49 31 C-48.52997559 30.37689941 -48.05995117 29.75379883 -47.57568359 29.11181641 C-44.75398777 25.37857456 -41.89016644 21.68063931 -39 18 C-37.88431641 16.57494141 -37.88431641 16.57494141 -36.74609375 15.12109375 C-28.00978279 4.06797104 -28.00978279 4.06797104 -20 3 C-18.75169378 2.32596856 -17.52295177 1.61486033 -16.3125 0.875 C-10.9097681 -1.99260386 -5.85079075 -0.86913921 0 0 Z M-333 497 C-333 518.12 -333 539.24 -333 561 C-329.7 561 -326.4 561 -323 561 C-323 539.22 -323 517.44 -323 495 C-326.39934634 495 -329.70214964 496.17553741 -333 497 Z " fill="#D25A43" transform="translate(792,262)"/>
<path d="M0 0 C2.5625 1.9375 2.5625 1.9375 4 4 C3.53970155 8.45762708 1.7093229 12.46254391 0 16.5625 C-3.79879751 25.4817007 -3.79879751 25.4817007 -4 35 C-2.1323348 36.70795987 -0.12240802 38.023832 1.97265625 39.44140625 C5.3744504 42.0566584 6.55939084 45.03222053 8 49 C8.38671875 50.06476563 8.7734375 51.12953125 9.171875 52.2265625 C14.4720388 68.02890273 17.39486344 84.58158751 20.10009766 100.99975586 C20.68610703 104.6096267 20.68610703 104.6096267 22 108 C24.97842241 103.83226422 27.93662348 99.65232303 30.859375 95.4453125 C32.63585937 92.89574819 34.42977687 90.47050366 36.390625 88.0546875 C40.53774808 82.67691408 41.31915544 78.63006712 40.6953125 71.96484375 C40.57629259 70.35301744 40.46062328 68.74094103 40.34790039 67.12866211 C40.25691574 65.86891068 40.25691574 65.86891068 40.16409302 64.58370972 C39.7220403 57.62341408 39.65837859 50.6466219 39.5949707 43.67431641 C39.57314733 41.87692338 39.53876752 40.07964304 39.49243164 38.28271484 C39.03510705 20.2273449 39.03510705 20.2273449 44.31225586 12.6796875 C49.44379137 7.57264796 56.40879753 8.39052673 63.20458984 8.1472168 C65.33521431 8.06405294 67.46123865 7.9419542 69.58984375 7.81835938 C81.92160804 7.26138421 91.6819586 9.80181525 102 17 C102.72445313 17.44601562 103.44890625 17.89203125 104.1953125 18.3515625 C108.82206978 21.40484767 111.69195413 24.47878975 113.51171875 29.76171875 C114.85579977 38.67566405 113.23593925 48.43716536 110.42578125 56.93359375 C108.76491986 62.21204611 108.62071402 67.06380559 108.75 72.5625 C108.75773437 73.88411133 108.75773437 73.88411133 108.765625 75.23242188 C108.823412 80.12625819 109.17912547 84.89593148 109.76855469 89.7512207 C110.8279903 100.04495643 110.85185389 110.60562812 107.84375 120.53515625 C106.66538842 125.37407627 106.22579809 130.24223011 105.6875 135.1875 C101.72713395 169.41981387 90.04096892 205.36460787 69 233 C67.35739251 235.27417885 65.72870654 237.55802891 64.09912109 239.84155273 C61.88756101 242.93090989 59.65133969 246.00178516 57.40966797 249.06933594 C56.2791818 250.617636 55.15596629 252.17124359 54.03515625 253.7265625 C42.66697225 269.0138515 28.24461201 279.35961763 11.19140625 287.4765625 C9.25747949 288.39973439 7.34126452 289.36337027 5.46484375 290.3984375 C-6.43852463 296.95621975 -20.81714515 298.69493963 -34.09350586 300.86523438 C-36.46197004 301.25401675 -38.82758537 301.6577033 -41.19335938 302.0625 C-56.55048663 304.64171061 -70.61170973 305.27806112 -84 296 C-92.31859385 289.98997715 -92.31859385 289.98997715 -93.78515625 285.70703125 C-94.0625 283.5 -94.0625 283.5 -94 280 C-95.04800781 279.85304688 -96.09601562 279.70609375 -97.17578125 279.5546875 C-98.5549164 279.32952258 -99.93381127 279.10288243 -101.3125 278.875 C-102.00279297 278.7821875 -102.69308594 278.689375 -103.40429688 278.59375 C-105.42578125 278.2421875 -105.42578125 278.2421875 -109 277 C-111.72636442 272.97353826 -112.72146712 269.47878556 -112.53515625 264.69140625 C-110.76990588 255.81361427 -105.71649143 247.39065404 -98.6796875 241.75390625 C-85.30512249 233 -85.30512249 233 -80 233 C-79.505 229.04 -79.505 229.04 -79 225 C-77.25 224.375 -77.25 224.375 -75 224 C-73.66666667 224.66666667 -72.33333333 225.33333333 -71 226 C-64.60849181 225.06295175 -58.07851323 220.70899977 -53.1875 216.6875 C-50.20822325 214.3892008 -48.79821805 213.70210055 -45 214 C-41.25537719 216.61572917 -37.80258392 219.69954555 -36.26953125 224.09375 C-36 226 -36 226 -36 229 C-34.35 228.34 -32.7 227.68 -31 227 C-31.66 225.68 -32.32 224.36 -33 223 C-28.77050005 220.58314288 -25.87664009 219.65166856 -21 220 C-20.6169524 226.25644413 -21.41412609 230.20764245 -24 236 C-24.84109234 240.28453875 -25.39310027 243.82069918 -24 248 C-24.33 249.32 -24.66 250.64 -25 252 C-30.28 252.66 -35.56 253.32 -41 254 C-41 255.32 -41 256.64 -41 258 C-41.721875 257.938125 -42.44375 257.87625 -43.1875 257.8125 C-46.08597584 257.77856882 -46.08597584 257.77856882 -48.4375 259.5625 C-51 261 -51 261 -54 260.9375 C-58.66870881 259.4785285 -61.30047314 257.3334191 -63.58203125 252.984375 C-63.98808594 251.91703125 -64.39414062 250.8496875 -64.8125 249.75 C-65.23144531 248.67234375 -65.65039062 247.5946875 -66.08203125 246.484375 C-66.38496094 245.66453125 -66.68789063 244.8446875 -67 244 C-73.78292809 243.45494328 -77.38911231 244.78543618 -83 248.5 C-84.01900391 249.14388672 -84.01900391 249.14388672 -85.05859375 249.80078125 C-86.71595637 250.85122235 -88.35949645 251.92341955 -90 253 C-80.83177677 262.84429724 -68.82675107 264.17087738 -56 265 C-54.90236328 265.07766602 -53.80472656 265.15533203 -52.67382812 265.23535156 C-35.54553656 266.37447058 -19.70960218 266.065201 -3 262 C-2.21850586 261.81663086 -1.43701172 261.63326172 -0.63183594 261.44433594 C15.0752264 257.65811436 28.44804929 251.44806626 40 240 C41.41027562 238.82561581 42.82663775 237.65848844 44.25 236.5 C56.14897177 226.06146541 60.89286325 210.28885012 62.16845703 194.97802734 C63.41778627 173.59306535 56.11724343 151.93553664 51.3894043 131.27856445 C50.50010448 127.39140044 49.61928176 123.50233473 48.73828125 119.61328125 C48.46333328 118.42060135 48.18838531 117.22792145 47.90510559 115.99909973 C47.65451889 114.88991684 47.40393219 113.78073395 47.14575195 112.63793945 C46.92385696 111.66693802 46.70196198 110.69593658 46.4733429 109.69551086 C46.01191531 107.06785325 45.91126355 104.66128039 46 102 C41.85381997 105.92555761 38.45076886 110.16194363 35.0625 114.75 C34.53108398 115.46736328 33.99966797 116.18472656 33.45214844 116.92382812 C31.96172893 118.94464278 30.47966144 120.97130205 29 123 C28.39542969 123.81984375 27.79085938 124.6396875 27.16796875 125.484375 C23.95802216 130.04727428 21.55367167 134.87067487 19.125 139.875 C13.32073721 151.76787234 6.13963377 161.57357749 -5 169 C-7.9375 169.4375 -7.9375 169.4375 -11 169 C-36.74812876 140.99765763 -33.9893974 76.01913387 -36 40 C-35.39115967 39.73453369 -34.78231934 39.46906738 -34.1550293 39.19555664 C-32.60484768 38.51538746 -31.06029969 37.82232537 -29.51953125 37.12109375 C-27.95231869 36.4237449 -26.36774262 35.76276555 -24.76171875 35.16015625 C-20.48029595 33.41049759 -18.49960068 31.8002502 -16.5 27.5625 C-15.27073889 24.29525338 -14.54542146 21.52298368 -15 18 C-16.216875 17.608125 -17.43375 17.21625 -18.6875 16.8125 C-22.78962 15.23139869 -25.42772768 13.69764147 -28 10 C-28.79140181 5.2682502 -28.68525004 2.02787506 -26 -2 C-16.84633275 -5.10570853 -8.23010334 -5.50565534 0 0 Z " fill="#D25B43" transform="translate(1030,399)"/>
<path d="M0 0 C1.03543945 -0.05607422 1.03543945 -0.05607422 2.09179688 -0.11328125 C5.98517288 -0.17970852 8.47046999 0.30277307 11.46484375 2.70703125 C14.15571134 5.47073435 15.43977291 7.90826485 17.0625 11.375 C17.743125 12.014375 18.42375 12.65375 19.125 13.3125 C21.0625 15.375 21.0625 15.375 21.875 18.5625 C25.12113235 28.98429335 35.17032012 36.95491479 43.36328125 43.69921875 C45.18756341 45.4983384 46.16571117 46.98033145 47.0625 49.375 C46.13701225 52.07433926 45.63876463 53.08686768 43.0625 54.375 C32.06903088 55.31989321 19.32677862 53.84785843 10.0625 47.375 C7.57919112 45.16761433 5.28295566 42.84525692 3.0625 40.375 C1.51137659 41.21187093 -0.02793942 42.07063171 -1.5625 42.9375 C-2.42101562 43.41316406 -3.27953125 43.88882813 -4.1640625 44.37890625 C-8.34574511 47.38853979 -12.16432642 50.57358278 -13.57943726 55.70091248 C-13.91418767 58.36932038 -14.0791514 60.99618869 -14.1796875 63.68359375 C-14.26683517 65.13367577 -14.26683517 65.13367577 -14.35574341 66.61305237 C-14.53403495 69.67874608 -14.67381358 72.74478531 -14.8125 75.8125 C-14.92714339 77.90053186 -15.04430471 79.9884271 -15.1640625 82.07617188 C-15.45103714 87.17466165 -15.70350942 92.27381515 -15.9375 97.375 C-15.15528076 97.36557373 -14.37306152 97.35614746 -13.56713867 97.34643555 C-3.96328948 97.28366529 5.59831793 97.59083354 15.18920898 98.06469727 C16.91580634 98.14749624 18.64272306 98.22385448 20.36987305 98.29418945 C22.89716853 98.39723318 25.42296792 98.51869771 27.94921875 98.64453125 C28.72101974 98.67279495 29.49282074 98.70105865 30.28800964 98.73017883 C35.55577059 99.02336162 35.55577059 99.02336162 38.06787109 100.76660156 C39.0625 102.375 39.0625 102.375 39.08984375 104.83984375 C37.08858394 109.77831378 31.80757021 111.54729105 27.13964844 113.59667969 C22.73635096 115.24662237 18.1296819 116.14347075 13.50805664 116.95727539 C6.67100266 118.20391989 0.29728515 120.5167343 -4.625 125.625 C-5.14449219 126.14578125 -5.66398438 126.6665625 -6.19921875 127.203125 C-11.65802478 134.0235658 -13.55198354 138.26933004 -12.875 147.0625 C-12.59736098 154.72464289 -13.34963929 159.61556882 -17.07421875 166.43359375 C-19.91609868 171.98320084 -21.48370528 178.04475497 -23.25 184 C-23.77400391 185.7171521 -23.77400391 185.7171521 -24.30859375 187.46899414 C-26.98800532 196.60365144 -28.21633382 205.17176925 -27.75 214.6875 C-27.67969784 230.92729853 -32.50475836 246.96674487 -36.43530273 262.59350586 C-38.52949251 271.11326902 -39.88085415 279.51791462 -40.87304688 288.2253418 C-41.58535207 293.98769415 -42.81860324 298.76993616 -45.75390625 303.86328125 C-49.89787704 312.65725227 -49.74136359 323.13589681 -50.5 332.6875 C-50.68776482 335.01130061 -50.87735934 337.33491246 -51.07078552 339.6582489 C-51.190088 341.09481933 -51.30603051 342.53167399 -51.41810608 343.96882629 C-51.68453788 347.21069306 -52.15010141 350.22761001 -52.9375 353.375 C-52.68895671 355.8604329 -52.37879801 358.28516197 -52 360.75 C-50.92722182 368.34899177 -50.72147153 375.69398758 -50.9375 383.375 C-50.09445312 383.70113281 -49.25140625 384.02726562 -48.3828125 384.36328125 C-47.28710938 384.80027344 -46.19140625 385.23726562 -45.0625 385.6875 C-43.97195313 386.11675781 -42.88140625 386.54601562 -41.7578125 386.98828125 C-38.9375 388.375 -38.9375 388.375 -36.9375 391.375 C-36.27289995 395.06722251 -36.35252904 397.41538472 -38.328125 400.65625 C-48.26766304 413.62086484 -48.26766304 413.62086484 -55.453125 414.78125 C-61.77125209 414.9978715 -65.62990065 414.22948673 -70.46875 410.03515625 C-72.40523657 407.8463084 -73.10054107 406.30973923 -72.9375 403.375 C-72.2775 402.715 -71.6175 402.055 -70.9375 401.375 C-68.12861323 392.51827091 -66.77290276 383.78012491 -67 374.51171875 C-66.9375 372.375 -66.9375 372.375 -65.9375 370.375 C-62.44262285 371.02219947 -59.94040786 372.51747988 -56.9375 374.375 C-57.14246094 373.32570313 -57.34742188 372.27640625 -57.55859375 371.1953125 C-59.36581183 361.1280754 -60.15033917 351.24952742 -60.32134438 341.02337456 C-60.65065967 322.65691624 -61.98853399 304.4200101 -63.55438232 286.12390137 C-63.815274 283.0412281 -64.06470512 279.95766969 -64.3143568 276.87406921 C-65.59805578 261.06964519 -67.0751781 245.30153182 -68.9765625 229.55859375 C-69.13345047 228.25409775 -69.29033844 226.94960175 -69.45198059 225.60557556 C-71.23687783 211.27848131 -73.81492896 197.0975907 -76.38671875 182.89404297 C-78.54377843 170.8086356 -79.8392459 158.64049325 -81.125 146.4375 C-81.21580841 145.57673859 -81.30661682 144.71597717 -81.400177 143.82913208 C-81.65933233 141.35646036 -81.91462863 138.88342999 -82.16796875 136.41015625 C-82.24592682 135.65992188 -82.32388489 134.9096875 -82.40420532 134.13671875 C-82.73490904 130.85489875 -82.9375 127.67845167 -82.9375 124.375 C-83.86030762 124.26224731 -83.86030762 124.26224731 -84.80175781 124.1472168 C-87.59874572 123.79825273 -90.39296718 123.43058722 -93.1875 123.0625 C-94.15558594 122.94455078 -95.12367188 122.82660156 -96.12109375 122.70507812 C-97.05566406 122.57939453 -97.99023438 122.45371094 -98.953125 122.32421875 C-100.24138184 122.15925903 -100.24138184 122.15925903 -101.55566406 121.9909668 C-104.25876072 121.29191874 -105.8293865 120.17372437 -107.9375 118.375 C-107.6075 116.725 -107.2775 115.075 -106.9375 113.375 C-107.5975 113.045 -108.2575 112.715 -108.9375 112.375 C-108.6075 111.055 -108.2775 109.735 -107.9375 108.375 C-100.28208305 106.4671453 -92.8197202 104.89099184 -84.9375 104.375 C-85.1540625 103.27542969 -85.370625 102.17585938 -85.59375 101.04296875 C-88.96506259 83.39856644 -88.51641416 70.48558144 -78.23828125 55.2265625 C-77.25017056 53.8120979 -76.25382061 52.40335919 -75.25 51 C-74.71890625 50.25540527 -74.1878125 49.51081055 -73.640625 48.74365234 C-63.42771267 34.60861254 -50.65799411 23.04649542 -36.9375 12.375 C-36.22464844 11.80910156 -35.51179687 11.24320312 -34.77734375 10.66015625 C-24.92122357 3.42005301 -12.07960257 0.2467514 0 0 Z " fill="#D35A43" transform="translate(936.9375,296.625)"/>
<path d="M0 0 C2 2 2 2 2 5 C2.64066406 5.14695312 3.28132812 5.29390625 3.94140625 5.4453125 C10.29202632 7.09212009 14.41364265 9.30733636 19 14 C19.0546875 16.234375 19.0546875 16.234375 18 19 C15.22886162 20.84532981 12.20693373 22.01532701 9.125 23.25 C8.29613281 23.600625 7.46726562 23.95125 6.61328125 24.3125 C3.43275954 25.64842188 0.27360048 26.90879984 -3 28 C-2.4643094 33.99127649 -1.80136338 39.96803333 -1.0625 45.9375 C-0.90910156 47.20464844 -0.75570312 48.47179687 -0.59765625 49.77734375 C-0.19343896 53.13632815 -0.19343896 53.13632815 2 56 C2.268125 57.11375 2.53625 58.2275 2.8125 59.375 C3.67785872 63.09103548 3.67785872 63.09103548 6.41748047 65.03710938 C10.13621473 69.30356419 10.54984212 73.55685834 11.5078125 79.03125 C11.94105141 81.2255882 12.37600009 83.4195894 12.8125 85.61328125 C13.47693909 89.05981333 14.12631965 92.50736822 14.74511719 95.96240234 C15.35281689 99.30761272 16.01955524 102.63671816 16.6953125 105.96875 C16.86346466 106.99907349 17.03161682 108.02939697 17.2048645 109.09094238 C18.12542826 113.45918459 18.73968886 116.11939054 22.49781799 118.74528503 C25.30536292 120.05064371 28.0415179 121.09296 31 122 C32.24037773 122.38065361 32.24037773 122.38065361 33.5058136 122.76899719 C35.55556172 123.3579208 37.60575523 123.85055664 39.6875 124.3125 C40.40099609 124.48072266 41.11449219 124.64894531 41.84960938 124.82226562 C43.56405505 125.22498776 45.28169379 125.61408179 47 126 C54.40044347 111.93038218 57.48099962 96.28568295 52.80859375 80.79296875 C51.95300071 78.14931026 51.0209813 75.55829774 50.05859375 72.94921875 C49 70 49 70 49 68 C48.2575 67.7525 47.515 67.505 46.75 67.25 C43.76976913 65.89534961 42.10080748 64.4898459 40 62 C40 61.34 40 60.68 40 60 C38.02 59.505 38.02 59.505 36 59 C35.76652305 55.32273807 35.71061829 53.37889357 37 50 C42.77392548 44.1342792 50.59121612 38.52893556 59.05883789 37.83007812 C61.30420038 37.8570588 63.51234185 37.99996603 65.75 38.1875 C67.00647339 38.27269897 67.00647339 38.27269897 68.28833008 38.35961914 C70.15254597 38.48816842 72.01623171 38.62457429 73.87939453 38.76757812 C77.32311184 39.02406528 80.76816437 39.24023785 84.21484375 39.453125 C86.70579566 39.61355424 89.19668195 39.77500564 91.6875 39.9375 C92.86860352 40.01186279 94.04970703 40.08622559 95.26660156 40.1628418 C111.43659128 41.29106085 111.43659128 41.29106085 117 45 C117.29149474 48.10229413 117.36225229 50.97792122 117.30078125 54.08203125 C117.29033279 55.07765579 117.27988434 56.07328033 117.26911926 57.09907532 C117.02779372 72.48956409 116.22136436 87.87194338 115.45581055 103.2434082 C115.2750748 106.87786948 115.10173396 110.51256086 114.93530273 114.14770508 C113.18182756 152.40480984 113.18182756 152.40480984 110 169 C109.78239014 170.23661377 109.56478027 171.47322754 109.34057617 172.74731445 C108.74752908 176.10651758 108.12648368 179.45939705 107.5 182.8125 C103.92627415 202.44991602 101.63446502 222.11351981 100 242 C100.84304688 242.25394531 101.68609375 242.50789062 102.5546875 242.76953125 C104.19824219 243.28580078 104.19824219 243.28580078 105.875 243.8125 C106.96554687 244.14894531 108.05609375 244.48539063 109.1796875 244.83203125 C112 246 112 246 114 249 C114.67735185 252.58028833 114.07603998 253.87833604 112.125 257 C107.78662701 261.75742038 101.88249734 264.4662042 95.625 265.625 C89.55373693 264.5782305 82.43222555 262.43222555 78 258 C77.9921875 255.078125 77.9921875 255.078125 79 252 C81.7578125 250.359375 81.7578125 250.359375 85.125 248.75 C88.48804385 246.60957183 90.62360652 244.5869298 91.5625 240.62841797 C93.06695812 221.87978025 87.77052052 201.59378623 84.40148926 183.19915771 C83.51705095 178.35464619 82.65699745 173.50572549 81.79199219 168.65771484 C81.35744389 166.23397878 80.91822255 163.81107442 80.47363281 161.38916016 C80.27866211 160.32101074 80.08369141 159.25286133 79.8828125 158.15234375 C79.71152832 157.22413818 79.54024414 156.29593262 79.36376953 155.33959961 C79 153 79 153 79 150 C78.21625 150.04125 77.4325 150.0825 76.625 150.125 C74 150 74 150 72 148 C69.25785 151.59316206 67.69597298 154.62577838 66.5 159 C64.41738599 166.3497542 61.43584229 169.99659068 54.9453125 173.8046875 C49.50538357 177.14729443 46.34198072 182.25574057 42.94140625 187.5 C38.35756447 193.40273388 33.52796696 196.0232975 26.5625 198.25 C25.77842773 198.50305908 24.99435547 198.75611816 24.18652344 199.0168457 C15.98381859 201.5182564 6.50955521 204.25477761 -1.5 200.25 C-2.7421875 198.8359375 -2.7421875 198.8359375 -4 197 C-4.58007812 196.20851563 -5.16015625 195.41703125 -5.7578125 194.6015625 C-20.33631707 173.31328595 -18.07660795 145.87733897 -18.23016357 121.16174316 C-18.24328729 119.27669367 -18.26115732 117.39167068 -18.28399658 115.50671387 C-18.49062193 97.09301262 -18.49062193 97.09301262 -15.71459961 89.86401367 C-9.27375298 73.06324017 -14.69236866 48.57999051 -16 31 C-16.56412598 30.82331787 -17.12825195 30.64663574 -17.70947266 30.46459961 C-22.81404059 28.82174401 -27.56985987 26.94385532 -32.375 24.5625 C-34.15003906 23.69818359 -34.15003906 23.69818359 -35.9609375 22.81640625 C-38.86066715 21.08327734 -40.40943682 19.95137835 -42 17 C-41.1134499 11.90233691 -38.61294182 8.61294182 -35 5 C-28.48371694 1.62549627 -22.35845617 0.8498746 -15.125 0.4375 C-14.44308594 0.39431641 -13.76117187 0.35113281 -13.05859375 0.30664062 C-8.70381764 0.04535406 -4.36043525 -0.21310398 0 0 Z " fill="#D35A43" transform="translate(562,431)"/>
<path d="M0 0 C0.66 0 1.32 0 2 0 C2 32.01 2 64.02 2 97 C-2 95 -2 95 -3.97485352 93.36474609 C-6.2688234 91.48233588 -8.24666072 90.12495233 -11 89 C-15.01358989 89.39584076 -18.31289381 90.91840397 -21.9375 92.625 C-23.80017143 93.43109808 -25.66342372 94.23585573 -27.52734375 95.0390625 C-28.33937256 95.41240723 -29.15140137 95.78575195 -29.98803711 96.17041016 C-32 97 -32 97 -34 97 C-34 79.51 -34 62.02 -34 44 C-13 34 -13 34 -11 34 C-11 28.06 -11 22.12 -11 16 C-12.381875 16.495 -13.76375 16.99 -15.1875 17.5 C-18.88615708 18.82489209 -20.8534187 19 -25 19 C-25.99 23.62 -26.98 28.24 -28 33 C-28.99 32.67 -29.98 32.34 -31 32 C-31.89135742 30.11401367 -31.89135742 30.11401367 -32.60546875 27.66796875 C-32.99702148 26.34635742 -32.99702148 26.34635742 -33.39648438 24.99804688 C-33.65751953 24.07056641 -33.91855469 23.14308594 -34.1875 22.1875 C-34.46013672 21.27162109 -34.73277344 20.35574219 -35.01367188 19.41210938 C-36.1826373 15.38957922 -37 12.23071105 -37 8 C-35.74509766 8.00954712 -35.74509766 8.00954712 -34.46484375 8.01928711 C-31.3254944 8.02645755 -28.18832061 8.00213985 -25.04931641 7.95727539 C-23.03687257 7.93785581 -21.02418654 7.95394899 -19.01171875 7.97070312 C-10.35338295 7.85008582 -10.35338295 7.85008582 -3.1875 3.44140625 C-2.60355469 2.80017822 -2.01960937 2.1589502 -1.41796875 1.49829102 C-0.95003906 1.00385498 -0.48210938 0.50941895 0 0 Z M-18.99169922 47.63769531 C-23.26544472 52.66477548 -21.88539892 60.13499528 -21.5625 66.375 C-21.51731679 67.8892043 -21.47625881 69.40353766 -21.43945312 70.91796875 C-21.34065144 74.61467578 -21.18559423 78.30651617 -21 82 C-17.7 82 -14.4 82 -11 82 C-11 69.46 -11 56.92 -11 44 C-13.9547999 44 -16.64820522 46.05803084 -18.99169922 47.63769531 Z " fill="#D35A43" transform="translate(967,741)"/>
<path d="M0 0 C0.66 0 1.32 0 2 0 C2 32.01 2 64.02 2 97 C-2 95 -2 95 -3.97485352 93.36474609 C-6.2688234 91.48233588 -8.24666072 90.12495233 -11 89 C-15.01358989 89.39584076 -18.31289381 90.91840397 -21.9375 92.625 C-23.80017143 93.43109808 -25.66342372 94.23585573 -27.52734375 95.0390625 C-28.33937256 95.41240723 -29.15140137 95.78575195 -29.98803711 96.17041016 C-32 97 -32 97 -34 97 C-34 79.51 -34 62.02 -34 44 C-26.74 40.7 -19.48 37.4 -12 34 C-11.67 28.06 -11.34 22.12 -11 16 C-12.381875 16.495 -13.76375 16.99 -15.1875 17.5 C-18.6050514 18.72419752 -21.36730285 19.15485743 -25 19 C-25.13277344 19.84304688 -25.26554687 20.68609375 -25.40234375 21.5546875 C-25.57894531 22.65039062 -25.75554687 23.74609375 -25.9375 24.875 C-26.11152344 25.96554687 -26.28554688 27.05609375 -26.46484375 28.1796875 C-27 31 -27 31 -28 33 C-28.66 33 -29.32 33 -30 33 C-31.17372973 29.39809458 -32.33776256 25.79312849 -33.5 22.1875 C-33.83386719 21.16333984 -34.16773438 20.13917969 -34.51171875 19.08398438 C-34.82753906 18.10107422 -35.14335937 17.11816406 -35.46875 16.10546875 C-35.76201172 15.19949951 -36.05527344 14.29353027 -36.35742188 13.36010742 C-37 11 -37 11 -37 8 C-36.12786865 8.00636475 -35.2557373 8.01272949 -34.35717773 8.01928711 C-31.09259121 8.02644677 -27.83126696 8.00220671 -24.56713867 7.95727539 C-23.15997262 7.94420873 -21.75263464 7.94333442 -20.34545898 7.95532227 C-12.06464722 8.23766792 -12.06464722 8.23766792 -4.54345703 5.37939453 C-2.64917594 3.50834747 -2.64917594 3.50834747 -1.18383789 1.49829102 C-0.79317139 1.00385498 -0.40250488 0.50941895 0 0 Z M-18.99169922 48.44189453 C-23.10190052 53.67732964 -21.9027788 60.61202389 -21.5625 66.9375 C-21.51730005 68.39896512 -21.47624502 69.86056466 -21.43945312 71.32226562 C-21.34081999 74.88432703 -21.18586193 78.44130013 -21 82 C-17.7 82 -14.4 82 -11 82 C-11 69.46 -11 56.92 -11 44 C-13.96946992 44 -16.79639027 46.71548652 -18.99169922 48.44189453 Z " fill="#D25A43" transform="translate(306,741)"/>
<path d="M0 0 C10.34695744 3.70312161 15.1832069 11.27353856 19.6875 20.73046875 C21.43857814 25.09252947 22.12066512 29.01999652 22.16113281 33.70410156 C22.17074036 34.60984924 22.1803479 35.51559692 22.19024658 36.4487915 C22.19449646 37.41959656 22.19874634 38.39040161 22.203125 39.390625 C22.20882507 40.40864197 22.21452515 41.42665894 22.22039795 42.4755249 C22.22983684 44.63406338 22.23637752 46.7926162 22.24023438 48.95117188 C22.24984276 52.1968851 22.28083598 55.44193789 22.3125 58.6875 C22.4211358 79.74374544 20.84787317 100.51852325 6.734375 117.33984375 C5 119 5 119 3 119 C-13.99171142 99.94527726 -13.98538744 75.04891473 -14.55224609 50.96801758 C-14.60436886 48.80540111 -14.66139545 46.64295184 -14.71875 44.48046875 C-14.74904297 43.21098389 -14.77933594 41.94149902 -14.81054688 40.63354492 C-14.99625833 37.07176201 -15.4956036 33.53077478 -16 30 C-11.05 30 -6.1 30 -1 30 C-0.98018066 31.41514893 -0.96036133 32.83029785 -0.93994141 34.28833008 C-0.86280323 39.63190983 -0.77427111 44.9752547 -0.68261719 50.31860352 C-0.64476748 52.61380311 -0.60984573 54.90905322 -0.578125 57.2043457 C-1.33837929 80.46574228 -1.33837929 80.46574228 3 103 C4.485 103.495 4.485 103.495 6 104 C8.25560679 88.9983427 8.34324742 74.00498243 8.31567383 58.86694336 C8.30984709 55.37325096 8.32694122 51.88008321 8.3500185 48.38647747 C8.36844924 44.99070452 8.36456851 41.59504112 8.36328125 38.19921875 C8.372491 36.96660812 8.38170074 35.7339975 8.39118958 34.46403503 C8.33302622 23.4247999 6.94648115 13.18039333 0.98828125 3.70703125 C0 2 0 2 0 0 Z " fill="#D25B42" transform="translate(212,719)"/>
<path d="M0 0 C0.66 0 1.32 0 2 0 C2 16.17 2 32.34 2 49 C-5.33333333 52.66666667 -12.66666667 56.33333333 -20 60 C-20.28454579 67.28753375 -19.46555517 73.85541856 -18 81 C-14.37 81.33 -10.74 81.66 -7 82 C-6.38125 79.89625 -6.38125 79.89625 -5.75 77.75 C-3.96505098 71.78878269 -1.99494695 65.89370114 0 60 C0.66 60 1.32 60 2 60 C2 70.89 2 81.78 2 93 C-1.856875 93.12375 -5.71375 93.2475 -9.6875 93.375 C-10.89494873 93.42962402 -12.10239746 93.48424805 -13.34643555 93.54052734 C-20.98955168 93.65958099 -20.98955168 93.65958099 -23.79077148 91.83105469 C-36.58252104 77.0880213 -34.33866447 53.82945962 -34.53173828 35.70874023 C-34.56568579 32.80957495 -34.61070139 29.91072138 -34.65625 27.01171875 C-34.6615271 26.13964279 -34.6668042 25.26756683 -34.67224121 24.36906433 C-34.76406693 18.65287875 -35.59921368 13.54617719 -37 8 C-35.74509766 8.00954712 -35.74509766 8.00954712 -34.46484375 8.01928711 C-31.3254944 8.02645755 -28.18832061 8.00213985 -25.04931641 7.95727539 C-23.03687257 7.93785581 -21.02418654 7.95394899 -19.01171875 7.97070312 C-10.35338295 7.85008582 -10.35338295 7.85008582 -3.1875 3.44140625 C-2.60355469 2.80017822 -2.01960937 2.1589502 -1.41796875 1.49829102 C-0.95003906 1.00385498 -0.48210938 0.50941895 0 0 Z M-21 19 C-21 29.23 -21 39.46 -21 50 C-15.74581168 46.81005991 -15.74581168 46.81005991 -11 43 C-10.91241997 41.00035018 -10.89303424 38.9976389 -10.90234375 36.99609375 C-10.90717773 35.17368164 -10.90717773 35.17368164 -10.91210938 33.31445312 C-10.92467773 31.39536133 -10.92467773 31.39536133 -10.9375 29.4375 C-10.94201172 28.15423828 -10.94652344 26.87097656 -10.95117188 25.54882812 C-10.96300455 22.36583978 -10.97948932 19.18294238 -11 16 C-14.1118909 15.88295885 -14.1118909 15.88295885 -21 19 Z " fill="#D35B43" transform="translate(678,741)"/>
<path d="M0 0 C0.66 0 1.32 0 2 0 C2 16.17 2 32.34 2 49 C-5.33333333 52.66666667 -12.66666667 56.33333333 -20 60 C-19.85811015 62.54194161 -19.71160845 65.08347993 -19.5625 67.625 C-19.52318359 68.33785156 -19.48386719 69.05070313 -19.44335938 69.78515625 C-19.19690319 73.91803682 -18.76529947 77.92269024 -18 82 C-14.37 82 -10.74 82 -7 82 C-6.608125 80.411875 -6.21625 78.82375 -5.8125 77.1875 C-4.17686575 71.13250783 -1.75123928 65.62209767 1 60 C1.33 60 1.66 60 2 60 C2 70.89 2 81.78 2 93 C-1.83625 93.185625 -5.6725 93.37125 -9.625 93.5625 C-11.42251709 93.68540405 -11.42251709 93.68540405 -13.25634766 93.81079102 C-20.93357213 93.99063532 -20.93357213 93.99063532 -24.05078125 91.0949707 C-25.61524987 88.78307057 -26.85701289 86.54417113 -28 84 C-28.31114746 83.33693848 -28.62229492 82.67387695 -28.94287109 81.99072266 C-32.54301296 73.39002076 -33.28764516 64.34949054 -33.30859375 55.12890625 C-33.333747 53.06965855 -33.35914512 51.01041382 -33.38476562 48.95117188 C-33.41346297 45.75448339 -33.43752733 42.55784634 -33.45629883 39.36108398 C-33.4781223 36.24176712 -33.51755832 33.12302132 -33.55859375 30.00390625 C-33.55876747 28.59402184 -33.55876747 28.59402184 -33.5589447 27.15565491 C-33.65826496 20.39569063 -34.95800706 14.43574745 -37 8 C-35.74509766 8.00954712 -35.74509766 8.00954712 -34.46484375 8.01928711 C-31.3254944 8.02645755 -28.18832061 8.00213985 -25.04931641 7.95727539 C-23.03687257 7.93785581 -21.02418654 7.95394899 -19.01171875 7.97070312 C-10.35338295 7.85008582 -10.35338295 7.85008582 -3.1875 3.44140625 C-2.60355469 2.80017822 -2.01960938 2.1589502 -1.41796875 1.49829102 C-0.95003906 1.00385498 -0.48210937 0.50941895 0 0 Z M-21 19 C-21 29.23 -21 39.46 -21 50 C-10.2820005 44.71684885 -10.2820005 44.71684885 -8.7512207 39.72680664 C-8.80882568 38.63231201 -8.86643066 37.53781738 -8.92578125 36.41015625 C-8.96123047 35.21455078 -8.99667969 34.01894531 -9.03320312 32.78710938 C-9.12537109 31.55798828 -9.21753906 30.32886719 -9.3125 29.0625 C-9.36212891 27.80630859 -9.41175781 26.55011719 -9.46289062 25.25585938 C-9.59218225 22.16461424 -9.77250699 19.08531428 -10 16 C-13.80058475 16 -17.39444872 17.79814957 -21 19 Z " fill="#D25A43" transform="translate(1117,741)"/>
<path d="M0 0 C0.66 0 1.32 0 2 0 C2.09895826 5.19606986 2.17150993 10.39158998 2.21972656 15.58837891 C2.2398285 17.35572872 2.26711472 19.12301213 2.30175781 20.89013672 C2.35034009 23.43213285 2.37298226 25.97324896 2.390625 28.515625 C2.41127014 29.30430969 2.43191528 30.09299438 2.45318604 30.90557861 C2.45465169 34.49770931 2.30233305 36.58354868 0.16308594 39.53027344 C-2 41 -2 41 -5 41 C-6.98 33.08 -8.96 25.16 -11 17 C-14.96 17.495 -14.96 17.495 -19 18 C-19.69887014 28.61549868 -19.69887014 28.61549868 -15.765625 38.109375 C-12.95377373 40.61052447 -10.06630684 42.82087794 -7 45 C-5.50536467 46.29485734 -4.0241239 47.6054918 -2.5625 48.9375 C-0.65533367 50.61399395 0.99455052 51.99698315 3.22265625 53.23046875 C5 55 5 55 5.3125 58.3359375 C5.23530317 59.68410696 5.12940408 61.03083676 5 62.375 C4.94094482 63.08527344 4.88188965 63.79554688 4.82104492 64.52734375 C3.74452563 75.43152109 0.89220969 85.10779031 -7 93 C-8.78071246 93.08726223 -10.5648314 93.10699041 -12.34765625 93.09765625 C-13.31968994 93.09515869 -14.29172363 93.09266113 -15.29321289 93.09008789 C-16.53707764 93.08098389 -17.78094238 93.07187988 -19.0625 93.0625 C-23.001875 93.041875 -26.94125 93.02125 -31 93 C-31 82.11 -31 71.22 -31 60 C-29.68 60.66 -28.36 61.32 -27 62 C-25.94039062 62.37705078 -25.94039062 62.37705078 -24.859375 62.76171875 C-22.2432224 63.90991906 -20.80736272 64.75370634 -19 67 C-18.28459681 72.08369842 -18.5382469 76.90147623 -19 82 C-16.36 82 -13.72 82 -11 82 C-10.72147168 79.94585361 -10.46071244 77.88832755 -10.26953125 75.82421875 C-10.08022259 73.84059318 -9.82122423 71.86298611 -9.51171875 69.89453125 C-8.97962109 64.52867897 -8.96531263 61.32933344 -12.359375 56.96875 C-16.026742 53.39897986 -20.03150474 50.21441914 -24.38549805 47.52832031 C-30.56841004 43.4418813 -30.56841004 43.4418813 -31.77856445 39.39892578 C-32.03895717 36.39738228 -32.0473548 33.51040704 -31.9375 30.5 C-31.91819438 28.48964187 -31.90629614 26.47919694 -31.90234375 24.46875 C-31.89436768 23.05142578 -31.89436768 23.05142578 -31.88623047 21.60546875 C-32.0383965 18.12067079 -32.91447436 15.30340352 -34 12 C-34 10.68 -34 9.36 -34 8 C-33.25427734 8.00636475 -32.50855469 8.01272949 -31.74023438 8.01928711 C-28.32583017 8.02802976 -24.91409229 7.98319181 -21.5 7.9375 C-19.74042969 7.95393555 -19.74042969 7.95393555 -17.9453125 7.97070312 C-11.86388592 7.85112451 -7.92021398 7.60326159 -3.28125 3.44140625 C-2.68376953 2.80017822 -2.08628906 2.1589502 -1.47070312 1.49829102 C-0.98537109 1.00385498 -0.50003906 0.50941895 0 0 Z " fill="#D25A43" transform="translate(839,741)"/>
<path d="M0 0 C0.66 0 1.32 0 2 0 C2.12696594 7.01070785 2.21442112 14.02111832 2.2746582 21.03271484 C2.29977409 23.41694214 2.33387324 25.80109265 2.37719727 28.18505859 C2.43797447 31.61575279 2.46623993 35.04542744 2.48828125 38.4765625 C2.51408768 39.53928375 2.5398941 40.602005 2.56648254 41.69692993 C2.56960731 49.97588601 2.56960731 49.97588601 -0.40551758 53.72021484 C-3 56 -3 56 -5 56 C-7.42132917 43.05189931 -9.29968989 30.06122459 -11 17 C-13.64 17.66 -16.28 18.32 -19 19 C-18.97335266 19.84445175 -18.94670532 20.6889035 -18.91925049 21.5589447 C-18.67805496 29.54648286 -18.49574628 37.53278642 -18.37825394 45.523139 C-18.31581182 49.63070331 -18.2312593 53.735242 -18.09472656 57.84106445 C-17.96359901 61.80952289 -17.89244923 65.77508784 -17.86147308 69.74554634 C-17.83942537 71.2541314 -17.79636097 72.76257073 -17.73123932 74.26991081 C-17.25560105 85.74359005 -17.25560105 85.74359005 -20.2028656 89.55592728 C-23.55674473 92.80981114 -28.18773323 97 -33 97 C-33.01030746 96.00299072 -33.02061493 95.00598145 -33.03123474 93.97875977 C-33.12917622 84.56286169 -33.23192893 75.14702665 -33.33933926 65.73123169 C-33.39440089 60.89099297 -33.44779314 56.05074805 -33.49731445 51.21044922 C-33.54520639 46.53550237 -33.5975564 41.86062438 -33.65294075 37.1857605 C-33.67325235 35.40609461 -33.69198308 33.62640993 -33.70907402 31.84671021 C-33.73336782 29.34565474 -33.76338549 26.8447264 -33.79467773 24.34375 C-33.8004332 23.61510239 -33.80618866 22.88645477 -33.81211853 22.13572693 C-33.87969094 17.35508288 -34.33674345 12.73584331 -35 8 C-33.83597656 8.00954712 -33.83597656 8.00954712 -32.6484375 8.01928711 C-29.09800243 8.0280255 -25.5501349 7.98320205 -22 7.9375 C-20.77925781 7.94845703 -19.55851562 7.95941406 -18.30078125 7.97070312 C-12.11144943 7.85360766 -7.97927274 7.68428227 -3.25 3.44140625 C-2.65703125 2.80017822 -2.0640625 2.1589502 -1.453125 1.49829102 C-0.73382812 0.75663696 -0.73382812 0.75663696 0 0 Z " fill="#D25B42" transform="translate(1190,741)"/>
<path d="M0 0 C0.99 0 1.98 0 3 0 C3.12711297 6.84997675 3.21448245 13.6996477 3.2746582 20.55053711 C3.29975227 22.87942878 3.33383523 25.20824207 3.37719727 27.53686523 C3.43807117 30.89065928 3.46626178 34.2434092 3.48828125 37.59765625 C3.51408768 38.63334244 3.5398941 39.66902863 3.56648254 40.73609924 C3.56907457 47.46566341 2.63601541 51.01934808 -2 56 C-2.66 56 -3.32 56 -4 56 C-6.05976392 48.65689544 -7.04284294 41.23606389 -8.0625 33.6875 C-8.40501224 31.17022603 -8.74994713 28.65328014 -9.09765625 26.13671875 C-9.24726807 25.03030029 -9.39687988 23.92388184 -9.55102539 22.78393555 C-9.93529211 19.9255433 -9.93529211 19.9255433 -11 17 C-11.763125 17.33 -12.52625 17.66 -13.3125 18 C-16 19 -16 19 -19 19 C-18.97557327 19.84445175 -18.95114655 20.6889035 -18.92597961 21.5589447 C-18.70488139 29.54656702 -18.5377625 37.53315161 -18.43006611 45.523139 C-18.37283103 49.63044968 -18.29532177 53.73521753 -18.17016602 57.84106445 C-18.04996719 61.80947559 -17.9847425 65.77545454 -17.95635033 69.74554634 C-17.93614091 71.25405738 -17.89666916 72.76244609 -17.83696938 74.26991081 C-17.38984302 86.03634162 -17.38984302 86.03634162 -21.45175171 90.99002075 C-28.61691403 97 -28.61691403 97 -32 97 C-32.00808685 96.01773941 -32.01617371 95.03547882 -32.02450562 94.02345276 C-32.102186 84.7402571 -32.18997957 75.45720405 -32.28752708 66.17419529 C-32.33734919 61.40237363 -32.3836799 56.6305726 -32.421875 51.85864258 C-32.45890645 47.24846936 -32.50531361 42.63847495 -32.55806351 38.02845573 C-32.57651297 36.2747507 -32.59165531 34.52100747 -32.60334396 32.76724434 C-32.64166679 20.25128965 -32.64166679 20.25128965 -35 8 C-33.78268188 8.00954712 -33.78268188 8.00954712 -32.54077148 8.01928711 C-28.83875967 8.02800892 -25.13922311 7.98324547 -21.4375 7.9375 C-20.16068359 7.94845703 -18.88386719 7.95941406 -17.56835938 7.97070312 C-10.73544909 8.01187023 -10.73544909 8.01187023 -4.64111328 5.37939453 C-2.77403443 3.50502222 -2.77403443 3.50502222 -1.31665039 1.49829102 C-0.66490845 0.75663696 -0.66490845 0.75663696 0 0 Z " fill="#D25A42" transform="translate(607,741)"/>
<path d="M0 0 C0 4.62 0 9.24 0 14 C-0.66 14 -1.32 14 -2 14 C-2.639375 13.175 -3.27875 12.35 -3.9375 11.5 C-4.618125 10.675 -5.29875 9.85 -6 9 C-6.99 9 -7.98 9 -9 9 C-12.08900201 14.66507011 -14.57664615 19.50857435 -15 26 C-7.0287901 26.45373277 -7.0287901 26.45373277 0 23 C0.99 23 1.98 23 3 23 C3.07630533 29.4228552 3.12870679 35.84559269 3.16479492 42.26879883 C3.17984555 44.4521115 3.20029074 46.63539411 3.22631836 48.81860352 C3.26286518 51.96378006 3.27976398 55.10855549 3.29296875 58.25390625 C3.30845261 59.2239711 3.32393646 60.19403595 3.33988953 61.1934967 C3.34185271 69.16797216 1.73617082 75.10879754 -4 81 C-10.80440771 86 -10.80440771 86 -15 86 C-13.83622134 83.67244268 -12.65982633 81.3604735 -11.4375 79.0625 C-8.88842302 73.63185774 -8.80995252 68.3419832 -8.68359375 62.41796875 C-8.66281265 61.60378983 -8.64203156 60.7896109 -8.62062073 59.95075989 C-8.55550537 57.36308821 -8.49641792 54.77531947 -8.4375 52.1875 C-8.39427858 50.42772455 -8.35066315 48.66795872 -8.30664062 46.90820312 C-8.1998632 42.60556691 -8.09848982 38.30283357 -8 34 C-10.64 33.67 -13.28 33.34 -16 33 C-16 45.54 -16 58.08 -16 71 C-23 74 -23 74 -27 74 C-27.04971295 68.04094639 -27.0858671 62.08201551 -27.10986328 56.12280273 C-27.11987483 54.09869278 -27.1334881 52.07459711 -27.15087891 50.05053711 C-27.17534141 47.12870744 -27.18653184 44.20707022 -27.1953125 41.28515625 C-27.20563507 40.39103531 -27.21595764 39.49691437 -27.22659302 38.57569885 C-27.22860229 27.13401017 -24.80170597 17.73317877 -16.8125 9.3125 C-12.17579364 4.88272103 -6.6857438 0 0 0 Z " fill="#D25A43" transform="translate(101,722)"/>
<path d="M0 0 C0.99 0.33 1.98 0.66 3 1 C2.401875 2.0725 1.80375 3.145 1.1875 4.25 C-5.49285325 17.63439569 -5.16133705 32.6088057 -5.16796875 47.1875 C-5.17118802 48.85701526 -5.17455258 50.52653024 -5.17805481 52.19604492 C-5.18401688 55.68246108 -5.18589761 59.16885255 -5.18530273 62.65527344 C-5.18520101 67.10345412 -5.19887744 71.55147558 -5.21607494 75.99961853 C-5.22723633 79.44332597 -5.22922071 82.88699532 -5.22869301 86.33071899 C-5.22986595 87.97002717 -5.23424882 89.60933656 -5.24202538 91.24862671 C-5.27705852 99.39227338 -5.27237284 107.10157648 -3 115 C-8.28 115 -13.56 115 -19 115 C-19.06817759 105.34989933 -19.12304553 95.69996249 -19.15543652 86.04967403 C-19.17099411 81.56712222 -19.19204776 77.08474582 -19.22631836 72.60229492 C-19.25926977 68.26450984 -19.27692717 63.92689189 -19.28463173 59.58899117 C-19.29011183 57.94624773 -19.30080986 56.3035119 -19.31719017 54.66084099 C-19.49563532 35.99832082 -17.50629952 18.00150101 -3.98828125 3.9609375 C-3.33214844 3.31382812 -2.67601562 2.66671875 -2 2 C-1.34 1.34 -0.68 0.68 0 0 Z " fill="#D25A42" transform="translate(899,719)"/>
<path d="M0 0 C4.95 0 9.9 0 15 0 C15 29.37 15 58.74 15 89 C11.92222651 87.46111325 9.52475584 86.03546404 6.8125 84 C6.11769531 83.484375 5.42289063 82.96875 4.70703125 82.4375 C3 81 3 81 2 79 C1.88416649 76.79624642 1.83297298 74.58900596 1.81054688 72.38232422 C1.79810692 71.36240639 1.79810692 71.36240639 1.78541565 70.32188416 C1.76800081 68.84266373 1.75283792 67.36341551 1.73963928 65.88415146 C1.71859836 63.53777688 1.6915709 61.1915391 1.66296387 58.84524536 C1.60322726 53.85521668 1.55118013 48.86512274 1.5 43.875 C1.44061876 38.11196008 1.37804936 32.34898569 1.30812073 26.58606339 C1.28173063 24.28411214 1.26079681 21.9821538 1.2401123 19.68014526 C1.22348734 18.25144143 1.20661362 16.82274047 1.18945312 15.39404297 C1.17692505 14.1565329 1.16439697 12.91902283 1.15148926 11.64401245 C0.98768702 7.7038162 0.53880398 3.90491414 0 0 Z " fill="#D35A42" transform="translate(520,749)"/>
<path d="M0 0 C0.66 0.33 1.32 0.66 2 1 C2.02892857 4.95831809 2.04677427 8.91660917 2.0625 12.875 C2.07087891 14.00292969 2.07925781 15.13085938 2.08789062 16.29296875 C2.09111328 17.36933594 2.09433594 18.44570313 2.09765625 19.5546875 C2.10289307 20.54968262 2.10812988 21.54467773 2.11352539 22.56982422 C2 25 2 25 1 27 C-1.6426532 27.96575366 -4.24533545 28.82456387 -6.9375 29.625 C-8.0502832 29.96917969 -8.0502832 29.96917969 -9.18554688 30.3203125 C-14.69952102 32 -14.69952102 32 -17 32 C-16.67 35.63 -16.34 39.26 -16 43 C-11.35814349 43.15754325 -11.35814349 43.15754325 -7 42 C-5.00976395 39.50369965 -3.66813758 37.02743303 -2.2890625 34.15234375 C-1.86367187 33.44207031 -1.43828125 32.73179687 -1 32 C-0.01 32 0.98 32 2 32 C2.02684679 34.64590014 2.04676357 37.29153096 2.0625 39.9375 C2.07087891 40.69224609 2.07925781 41.44699219 2.08789062 42.22460938 C2.09652441 44.14994313 2.05224333 46.07535581 2 48 C-0.3800253 50.3800253 -5.99915959 49.42342878 -9.1875 49.5 C-10.13431641 49.55414062 -11.08113281 49.60828125 -12.05664062 49.6640625 C-18.87912097 49.79736986 -18.87912097 49.79736986 -21.94384766 47.6171875 C-26.63213089 42.44312348 -28.20880148 36.85983413 -28.37890625 29.9375 C-28.41306641 28.81085937 -28.44722656 27.68421875 -28.48242188 26.5234375 C-28.50884766 25.36070312 -28.53527344 24.19796875 -28.5625 23 C-28.62275054 20.68740474 -28.68643932 18.37489598 -28.75390625 16.0625 C-28.78979858 14.53302734 -28.78979858 14.53302734 -28.82641602 12.97265625 C-29.00451499 9.92268004 -29.44489513 7.00232035 -30 4 C-29.30438965 3.98541748 -28.6087793 3.97083496 -27.89208984 3.95581055 C-24.71918662 3.88102031 -21.54729992 3.78446188 -18.375 3.6875 C-17.28058594 3.66494141 -16.18617188 3.64238281 -15.05859375 3.61914062 C-9.23044038 3.42486885 -5.12547278 3.03952455 0 0 Z M-17 11 C-17 15.95 -17 20.9 -17 26 C-14.36 24.68 -11.72 23.36 -9 22 C-9 17.71 -9 13.42 -9 9 C-11.74873708 9 -14.35702347 10.24486385 -17 11 Z " fill="#D25A43" transform="translate(147,745)"/>
<path d="M0 0 C0.99 0 1.98 0 3 0 C3 4.62 3 9.24 3 14 C6.3 14 9.6 14 13 14 C12 17 12 17 9.125 18.6875 C6 20 6 20 3 20 C3 32.21 3 44.42 3 57 C-6 62 -6 62 -8 62 C-8.00410889 60.78940918 -8.00821777 59.57881836 -8.01245117 58.33154297 C-8.03428144 53.82476675 -8.08861153 49.31885875 -8.15258789 44.8125 C-8.17573395 42.86499373 -8.19015563 40.91736289 -8.19555664 38.96972656 C-8.20487109 36.16392698 -8.24591506 33.36007746 -8.29296875 30.5546875 C-8.2890361 29.68883026 -8.28510345 28.82297302 -8.28105164 27.93087769 C-8.42594904 21.87921039 -9.72869273 19.28786766 -14 15 C-14 14.67 -14 14.34 -14 14 C-12.989375 13.9175 -11.97875 13.835 -10.9375 13.75 C-7.74749919 12.90882331 -6.98863588 11.98338201 -5.08203125 9.1953125 C-3.87292582 7.00397004 -2.70371038 4.79007902 -1.578125 2.5546875 C-1.05734375 1.71164062 -0.5365625 0.86859375 0 0 Z " fill="#D35B43" transform="translate(54,735)"/>
<path d="M0 0 C0 7.92 0 15.84 0 24 C-3.88701415 22.70432862 -4.44755274 21.1362801 -6.5625 17.6875 C-7.16191406 16.72199219 -7.76132812 15.75648438 -8.37890625 14.76171875 C-9.6840822 12.53820213 -10.88998636 10.32495394 -12 8 C-10.57084149 6.65772954 -9.13137328 5.32642904 -7.6875 4 C-6.48673828 2.88625 -6.48673828 2.88625 -5.26171875 1.75 C-3 0 -3 0 0 0 Z " fill="#D35B42" transform="translate(535,714)"/>
</svg>
