<?xml version="1.0" encoding="UTF-8"?>
<svg version="1.1" xmlns="http://www.w3.org/2000/svg" width="400" height="175">
<path d="M0 0 C1.28293945 -0.01063477 1.28293945 -0.01063477 2.59179688 -0.02148438 C7.98260456 0.03197138 14.99576699 0.37076699 19.0625 4.4375 C19.29903523 6.96346259 19.48423692 9.46857207 19.625 12 C19.66818359 12.71091797 19.71136719 13.42183594 19.75585938 14.15429688 C19.86221777 15.91511912 19.96288846 17.6762832 20.0625 19.4375 C20.97 18.7775 21.8775 18.1175 22.8125 17.4375 C28.51117933 14.17780919 35.27228287 14.62573696 41.54296875 15.96875 C42.25066406 16.1646875 42.95835938 16.360625 43.6875 16.5625 C44.80125 16.85125 45.915 17.14 47.0625 17.4375 C47.7225 16.7775 48.3825 16.1175 49.0625 15.4375 C51.58447266 15.21044922 51.58447266 15.21044922 54.7265625 15.2421875 C55.84804687 15.24863281 56.96953125 15.25507812 58.125 15.26171875 C59.300625 15.27847656 60.47625 15.29523437 61.6875 15.3125 C62.87085937 15.32152344 64.05421875 15.33054687 65.2734375 15.33984375 C68.20332523 15.36347188 71.1328134 15.39641486 74.0625 15.4375 C74.0625 16.0975 74.0625 16.7575 74.0625 17.4375 C75.0525 16.7775 76.0425 16.1175 77.0625 15.4375 C80.38163361 15.00928609 83.71867578 15.11322597 87.0625 15.125 C88.43535156 15.10083008 88.43535156 15.10083008 89.8359375 15.07617188 C90.71507812 15.07552734 91.59421875 15.07488281 92.5 15.07421875 C93.30308594 15.07123779 94.10617188 15.06825684 94.93359375 15.06518555 C97.54991058 15.52274096 98.31148225 16.51656441 100.0625 18.4375 C102.35914932 18.21524361 103.87164677 17.54591123 105.87109375 16.41015625 C111.68136361 13.83126642 118.63126391 14.97642715 124.4375 17.0625 C130.10669303 19.61813622 132.8579433 22.68422754 135.375 28.4375 C137.2832448 36.76438639 135.1195067 45.46534913 131.25 52.9375 C129.0625 55.4375 129.0625 55.4375 123.0625 59.4375 C136.2625 59.4375 149.4625 59.4375 163.0625 59.4375 C160.7525 58.7775 158.4425 58.1175 156.0625 57.4375 C154.0625 55.4375 154.0625 55.4375 153.8671875 52.97900391 C153.89039063 51.96757324 153.91359375 50.95614258 153.9375 49.9140625 C153.95296875 48.810625 153.9684375 47.7071875 153.984375 46.5703125 C154.03628442 44.23957945 154.08836659 41.90885025 154.140625 39.578125 C154.15609375 38.47210938 154.1715625 37.36609375 154.1875 36.2265625 C154.21070313 35.21287598 154.23390625 34.19918945 154.2578125 33.15478516 C154.05633905 30.35178572 153.41937868 28.85307827 152.0625 26.4375 C151.34123059 20.23645654 151.42731716 14.70224756 155.0625 9.4375 C159.01997641 5.07412857 162.99055213 0.71954994 169.15966797 0.29223633 C171.75241138 0.2676568 174.34463117 0.25184415 176.9375 0.25 C178.28521484 0.23163086 178.28521484 0.23163086 179.66015625 0.21289062 C188.17381395 0.19402728 188.17381395 0.19402728 192.0625 2.4375 C193.59516582 5.50283164 193.16526471 8.70504272 193.125 12.0625 C193.12048828 12.76890625 193.11597656 13.4753125 193.11132812 14.203125 C193.09953875 15.94795275 193.08160324 17.692737 193.0625 19.4375 C193.7225 19.4375 194.3825 19.4375 195.0625 19.4375 C195.32804688 18.86515625 195.59359375 18.2928125 195.8671875 17.703125 C197.97228753 13.71306612 200.56413828 10.30411873 204.0625 7.4375 C207.14084718 6.60551428 208.82446598 6.88868067 212.0625 7.4375 C214.6279594 10.0029594 214.60296087 11.91436668 215.0625 15.4375 C216.0525 14.7775 217.0425 14.1175 218.0625 13.4375 C221.5625 13.4375 221.5625 13.4375 225.0625 14.4375 C227 17.5 227 17.5 228.0625 20.4375 C228.7225 19.7775 229.3825 19.1175 230.0625 18.4375 C238.48917922 14.66416105 245.82548384 13.14518166 254.61328125 16.375 C256.80759845 17.3269207 258.93856459 18.33891272 261.0625 19.4375 C261.7225 19.7675 262.3825 20.0975 263.0625 20.4375 C263.371875 19.798125 263.68125 19.15875 264 18.5 C265.0625 16.4375 265.0625 16.4375 266.0625 15.4375 C268.0768172 15.36197255 270.09374745 15.35441487 272.109375 15.375 C273.346875 15.38273437 274.584375 15.39046875 275.859375 15.3984375 C278.4791682 15.42432478 281.09895989 15.4503646 283.71875 15.4765625 C284.96140625 15.48429687 286.2040625 15.49203125 287.484375 15.5 C289.19512207 15.51740234 289.19512207 15.51740234 290.94042969 15.53515625 C293.7876973 15.44609564 296.28837752 15.0343196 299.0625 14.4375 C301.08683676 14.52173415 303.1090409 14.67265466 305.125 14.875 C310.67921488 15.37475282 316.12602532 15.49310741 321.69921875 15.375 C324.0625 15.4375 324.0625 15.4375 326.0625 16.4375 C326.7225 16.1075 327.3825 15.7775 328.0625 15.4375 C331.3904587 15.19950295 334.72696087 15.25231635 338.0625 15.25 C338.990625 15.23775391 339.91875 15.22550781 340.875 15.21289062 C342.2053125 15.20999023 342.2053125 15.20999023 343.5625 15.20703125 C344.78453125 15.20086792 344.78453125 15.20086792 346.03125 15.19458008 C348.0625 15.4375 348.0625 15.4375 350.0625 17.4375 C350.43359375 19.4609375 350.43359375 19.4609375 350.5 21.8125 C350.53996094 22.58335938 350.57992188 23.35421875 350.62109375 24.1484375 C349.81646192 27.44573997 347.68622447 28.34229557 345.0625 30.4375 C343.61751487 32.8769749 342.3758519 35.19462897 341.1875 37.75 C340.85306885 38.44770508 340.5186377 39.14541016 340.17407227 39.86425781 C339.47848345 41.3199358 338.78818665 42.77815359 338.10302734 44.23876953 C337.07995366 46.40061881 336.02362431 48.54293501 334.95703125 50.68359375 C334.30388341 52.01783585 333.65150793 53.35245637 333 54.6875 C332.53327881 55.61622925 332.53327881 55.61622925 332.05712891 56.5637207 C330.83261779 59.12880529 330.00793691 60.93048302 330.31640625 63.796875 C330.947669 65.43965416 330.947669 65.43965416 332.0625 66.4375 C332.64625635 73.67607868 332.64625635 73.67607868 330.625 76.3125 C324.421916 79.03580517 317.79293486 80.13375188 311.0625 79.4375 C309 77.875 309 77.875 308.0625 75.4375 C308.55575063 68.94694801 310.94231609 64.22827154 313.8828125 58.5234375 C315.2156068 55.03698884 315.0415426 53.94870877 314.0625 50.4375 C312.48435402 47.06916482 310.56439022 43.89746352 308.6875 40.6875 C308.1925 39.81222656 307.6975 38.93695313 307.1875 38.03515625 C306.46433594 36.78798828 306.46433594 36.78798828 305.7265625 35.515625 C305.28779785 34.75668945 304.8490332 33.99775391 304.39697266 33.21582031 C303.09770204 31.13312663 303.09770204 31.13312663 300.0625 30.4375 C299.98 31.035625 299.8975 31.63375 299.8125 32.25 C298.80115789 35.19974781 297.81837853 35.98703762 295.0625 37.4375 C291.3125 37.625 291.3125 37.625 288.0625 37.4375 C289.16032512 44.54033631 289.16032512 44.54033631 294.0625 49.4375 C294.5 52.9375 294.5 52.9375 294.0625 56.4375 C292.5775 57.9225 292.5775 57.9225 291.0625 59.4375 C296.6725 59.7675 302.2825 60.0975 308.0625 60.4375 C308.0625 62.0875 308.0625 63.7375 308.0625 65.4375 C262.1925 65.7675 216.3225 66.0975 169.0625 66.4375 C169.0625 67.0975 169.0625 67.7575 169.0625 68.4375 C171.47895782 68.60437448 171.47895782 68.60437448 174.0625 68.4375 C174.7225 67.7775 175.3825 67.1175 176.0625 66.4375 C184.31171968 65.63303064 192.83699256 66.69455094 201.0625 67.4375 C203.74368714 75.64863562 203.6132285 80.15246683 200.0625 88.4375 C184.8825 88.4375 169.7025 88.4375 154.0625 88.4375 C153.7325 87.4475 153.4025 86.4575 153.0625 85.4375 C151.74602881 84.73812468 150.41227849 84.07020867 149.0625 83.4375 C147.52652546 80.36555092 147.8359962 77.83505707 148.0625 74.4375 C149.63974302 70.45683905 150.47250911 68.83082726 154.0625 66.4375 C93.6725 66.1075 33.2825 65.7775 -28.9375 65.4375 C-28.9375 63.7875 -28.9375 62.1375 -28.9375 60.4375 C-22.9975 60.1075 -17.0575 59.7775 -10.9375 59.4375 C-13.144375 58.57125 -15.35125 57.705 -17.625 56.8125 C-25.4043981 53.57315437 -28.98604449 50.41923959 -32.30249023 42.5090332 C-33.5122887 38.56242036 -33.40879928 34.59585868 -33.375 30.5 C-33.39498047 29.64470703 -33.41496094 28.78941406 -33.43554688 27.90820312 C-33.42986187 20.45516423 -31.33649883 15.35520128 -26.625 9.625 C-23.54512822 7.11812762 -20.62149296 5.89839376 -16.9375 4.4375 C-15.91269531 3.756875 -14.88789063 3.07625 -13.83203125 2.375 C-9.32886803 -0.23156069 -5.09351114 -0.11845375 0 0 Z M-8.9375 18.4375 C-11.76693477 23.3411021 -12.92994722 28.84959065 -11.9375 34.4375 C-10.3331056 38.88890799 -8.92257 41.78078667 -4.9375 44.4375 C-0.55757531 44.93334053 1.59535941 44.69230396 5.5 42.5625 C6.345625 41.86125 7.19125 41.16 8.0625 40.4375 C8.0625 39.7775 8.0625 39.1175 8.0625 38.4375 C11.08984375 38.19335938 11.08984375 38.19335938 14.1171875 37.94921875 C16.45769216 37.56356964 16.45769216 37.56356964 18.0625 34.4375 C17.71644389 32.15352968 17.09545481 30.50340963 16.0625 28.4375 C13.93673218 27.97098793 13.93673218 27.97098793 11.5 27.8125 C10.67371094 27.73773438 9.84742187 27.66296875 8.99609375 27.5859375 C8.35800781 27.53695312 7.71992187 27.48796875 7.0625 27.4375 C6.96453125 26.82261719 6.8665625 26.20773438 6.765625 25.57421875 C5.910469 20.566577 5.910469 20.566577 3.25 16.375 C-1.51382981 14.33335865 -5.00693291 15.12754877 -8.9375 18.4375 Z M173.0625 15.4375 C175.23674117 17.93787734 176.79295798 18.87378586 180.0625 19.4375 C179.7325 18.4475 179.4025 17.4575 179.0625 16.4375 C176.0925 15.9425 176.0925 15.9425 173.0625 15.4375 Z M191.0625 24.4375 C192.0625 26.4375 192.0625 26.4375 192.0625 26.4375 Z M325.0625 26.4375 C325.3925 27.4275 325.7225 28.4175 326.0625 29.4375 C326.7225 29.4375 327.3825 29.4375 328.0625 29.4375 C327.7325 28.4475 327.4025 27.4575 327.0625 26.4375 C326.4025 26.4375 325.7425 26.4375 325.0625 26.4375 Z M76.0625 27.4375 C77.0625 29.4375 77.0625 29.4375 77.0625 29.4375 Z M52.0625 30.4375 C51.98175797 33.06311109 51.9221377 35.68625676 51.875 38.3125 C51.84986328 39.05886719 51.82472656 39.80523437 51.79882812 40.57421875 C51.7326236 42.99971828 51.7326236 42.99971828 52.0625 46.4375 C53.5475 47.4275 53.5475 47.4275 55.0625 48.4375 C55.49609375 50.49609375 55.49609375 50.49609375 55.5 52.875 C55.52900391 54.04869141 55.52900391 54.04869141 55.55859375 55.24609375 C55.0625 57.4375 55.0625 57.4375 51.0625 60.4375 C57.9925 60.4375 64.9225 60.4375 72.0625 60.4375 C70.0825 57.7975 68.1025 55.1575 66.0625 52.4375 C64.89354446 50.59616087 63.75672046 48.73361945 62.66796875 46.84375 C62.10529297 45.87695312 61.54261719 44.91015625 60.96289062 43.9140625 C60.39763672 42.93179688 59.83238281 41.94953125 59.25 40.9375 C58.10096314 38.94600502 56.9488051 36.95630636 55.79296875 34.96875 C55.29176514 34.09798828 54.79056152 33.22722656 54.27416992 32.33007812 C53.87431885 31.70552734 53.47446777 31.08097656 53.0625 30.4375 C52.7325 30.4375 52.4025 30.4375 52.0625 30.4375 Z M244.0625 30.4375 C242.74987429 31.52302366 242.74987429 31.52302366 242.96484375 34.16015625 C242.97644531 35.26230469 242.98804688 36.36445312 243 37.5 C243.00902344 38.60472656 243.01804687 39.70945312 243.02734375 40.84765625 C243.03894531 41.70230469 243.05054688 42.55695313 243.0625 43.4375 C244.3825 43.4375 245.7025 43.4375 247.0625 43.4375 C248.0695238 38.40238101 248.03637813 35.19802962 246.0625 30.4375 C245.4025 30.4375 244.7425 30.4375 244.0625 30.4375 Z M214.0625 31.4375 C214.0625 35.7275 214.0625 40.0175 214.0625 44.4375 C215.7125 43.1175 217.3625 41.7975 219.0625 40.4375 C220.0525 40.1075 221.0425 39.7775 222.0625 39.4375 C222.0625 36.1375 222.0625 32.8375 222.0625 29.4375 C219.42673317 29.4375 216.57736589 30.70590265 214.0625 31.4375 Z M89.0625 38.4375 C87.78960095 40.64466463 86.5191395 42.85317485 85.25 45.0625 C84.89357422 45.67996094 84.53714844 46.29742187 84.16992188 46.93359375 C82.49682076 49.85000853 80.92519076 52.72847294 79.48828125 55.7734375 C78.0625 58.4375 78.0625 58.4375 75.0625 60.4375 C86.9425 60.4375 98.8225 60.4375 111.0625 60.4375 C108.93054364 59.37152182 106.79316077 58.31448449 104.625 57.32421875 C95.60808988 53.10441477 95.60808988 53.10441477 93.0625 48.4375 C92.43939533 46.0745576 91.94606937 43.74031529 91.5546875 41.328125 C91.31105469 40.39226562 91.31105469 40.39226562 91.0625 39.4375 C90.4025 39.1075 89.7425 38.7775 89.0625 38.4375 Z M167.0625 39.4375 C167.70229849 41.46991727 167.70229849 41.46991727 169.0625 43.4375 C171.61769921 44.24921228 171.61769921 44.24921228 174.0625 44.4375 C174.0625 43.4475 174.0625 42.4575 174.0625 41.4375 C171.41511084 39.9768715 170.16801666 39.4375 167.0625 39.4375 Z M112.0625 41.4375 C113.0525 42.9225 113.0525 42.9225 114.0625 44.4375 C116.53516765 44.09305119 116.53516765 44.09305119 119.0625 43.4375 C119.3925 42.7775 119.7225 42.1175 120.0625 41.4375 C117.4225 41.4375 114.7825 41.4375 112.0625 41.4375 Z M193.0625 48.4375 C192.65 49.035625 192.2375 49.63375 191.8125 50.25 C189.80549331 52.75875837 187.85007072 53.87374081 185.0625 55.4375 C184.381875 55.953125 183.70125 56.46875 183 57 C181.0625 58.4375 181.0625 58.4375 177.0625 60.4375 C188.2825 60.4375 199.5025 60.4375 211.0625 60.4375 C207.62820657 58.72035328 206.13986655 58.24129394 202.5625 57.8125 C199.62942146 57.23264922 198.4391676 56.92506973 196.58984375 54.53125 C195.60452337 52.5252931 194.76737876 50.55706549 194.0625 48.4375 C193.7325 48.4375 193.4025 48.4375 193.0625 48.4375 Z M226.0625 52.4375 C225.61519531 52.85902344 225.16789062 53.28054687 224.70703125 53.71484375 C218.7022188 59.15630492 218.7022188 59.15630492 214.0625 59.4375 C214.0625 59.7675 214.0625 60.0975 214.0625 60.4375 C223.3025 60.4375 232.5425 60.4375 242.0625 60.4375 C240.7425 59.7775 239.4225 59.1175 238.0625 58.4375 C237.0725 57.7775 236.0825 57.1175 235.0625 56.4375 C234.0725 56.1075 233.0825 55.7775 232.0625 55.4375 C229.0625 54.4375 229.0625 54.4375 226.0625 52.4375 Z M262.0625 53.4375 C261.04929687 53.94410156 261.04929687 53.94410156 260.015625 54.4609375 C254.0390625 57.44921875 254.0390625 57.44921875 248.0625 60.4375 C260.9325 60.4375 273.8025 60.4375 287.0625 60.4375 C287.0625 60.1075 287.0625 59.7775 287.0625 59.4375 C286.44729492 59.43339111 285.83208984 59.42928223 285.19824219 59.42504883 C282.40202769 59.39208704 279.60798496 59.32144424 276.8125 59.25 C275.84441406 59.24419922 274.87632812 59.23839844 273.87890625 59.23242188 C266.6605051 59.00840253 266.6605051 59.00840253 263.390625 55.88671875 C262.95234375 55.07847656 262.5140625 54.27023438 262.0625 53.4375 Z M17.0625 54.4375 C17.0625 55.0975 17.0625 55.7575 17.0625 56.4375 C13.1025 57.4275 9.1425 58.4175 5.0625 59.4375 C5.0625 59.7675 5.0625 60.0975 5.0625 60.4375 C13.6425 60.4375 22.2225 60.4375 31.0625 60.4375 C28.36741252 58.64077502 27.08805412 58.07928421 24.0625 57.4375 C21.03694588 56.79571579 19.75758748 56.23422498 17.0625 54.4375 Z M34.0625 59.4375 C34.0625 59.7675 34.0625 60.0975 34.0625 60.4375 C39.3425 60.4375 44.6225 60.4375 50.0625 60.4375 C50.0625 60.1075 50.0625 59.7775 50.0625 59.4375 C44.7825 59.4375 39.5025 59.4375 34.0625 59.4375 Z " fill="#060606" transform="translate(41.9375,42.5625)"/>
<path d="M0 0 C1.28293945 -0.01063477 1.28293945 -0.01063477 2.59179688 -0.02148438 C7.98260456 0.03197138 14.99576699 0.37076699 19.0625 4.4375 C19.29903523 6.96346259 19.48423692 9.46857207 19.625 12 C19.66818359 12.71091797 19.71136719 13.42183594 19.75585938 14.15429688 C19.86221777 15.91511912 19.96288846 17.6762832 20.0625 19.4375 C20.97 18.7775 21.8775 18.1175 22.8125 17.4375 C28.51117933 14.17780919 35.27228287 14.62573696 41.54296875 15.96875 C42.25066406 16.1646875 42.95835938 16.360625 43.6875 16.5625 C44.80125 16.85125 45.915 17.14 47.0625 17.4375 C47.7225 16.7775 48.3825 16.1175 49.0625 15.4375 C51.58447266 15.21044922 51.58447266 15.21044922 54.7265625 15.2421875 C55.84804687 15.24863281 56.96953125 15.25507812 58.125 15.26171875 C59.300625 15.27847656 60.47625 15.29523437 61.6875 15.3125 C62.87085937 15.32152344 64.05421875 15.33054687 65.2734375 15.33984375 C68.20332523 15.36347188 71.1328134 15.39641486 74.0625 15.4375 C74.0625 16.0975 74.0625 16.7575 74.0625 17.4375 C75.0525 16.7775 76.0425 16.1175 77.0625 15.4375 C80.38163361 15.00928609 83.71867578 15.11322597 87.0625 15.125 C88.43535156 15.10083008 88.43535156 15.10083008 89.8359375 15.07617188 C90.71507812 15.07552734 91.59421875 15.07488281 92.5 15.07421875 C93.30308594 15.07123779 94.10617188 15.06825684 94.93359375 15.06518555 C97.54991058 15.52274096 98.31148225 16.51656441 100.0625 18.4375 C102.35914932 18.21524361 103.87164677 17.54591123 105.87109375 16.41015625 C111.68136361 13.83126642 118.63126391 14.97642715 124.4375 17.0625 C130.10669303 19.61813622 132.8579433 22.68422754 135.375 28.4375 C137.28108346 36.7549551 135.07421508 45.33956187 131.375 52.875 C129.0625 55.4375 129.0625 55.4375 121.0625 60.4375 C182.1125 60.7675 243.1625 61.0975 306.0625 61.4375 C306.0625 62.4275 306.0625 63.4175 306.0625 64.4375 C286.22929303 64.62002703 266.3959517 64.7841859 246.5625 64.9375 C245.41161778 64.94642281 245.41161778 64.94642281 244.23748541 64.95552588 C182.19993329 65.43516233 120.16422625 65.52494767 58.125 65.5 C57.03871181 65.49957577 55.95242363 65.49915154 54.83321762 65.49871445 C26.90963659 65.48762451 -1.01393297 65.46751019 -28.9375 65.4375 C-28.9375 63.7875 -28.9375 62.1375 -28.9375 60.4375 C-22.9975 60.1075 -17.0575 59.7775 -10.9375 59.4375 C-13.144375 58.57125 -15.35125 57.705 -17.625 56.8125 C-25.4043981 53.57315437 -28.98604449 50.41923959 -32.30249023 42.5090332 C-33.5122887 38.56242036 -33.40879928 34.59585868 -33.375 30.5 C-33.39498047 29.64470703 -33.41496094 28.78941406 -33.43554688 27.90820312 C-33.42986187 20.45516423 -31.33649883 15.35520128 -26.625 9.625 C-23.54512822 7.11812762 -20.62149296 5.89839376 -16.9375 4.4375 C-15.91269531 3.756875 -14.88789063 3.07625 -13.83203125 2.375 C-9.32886803 -0.23156069 -5.09351114 -0.11845375 0 0 Z M-8.9375 18.4375 C-11.76693477 23.3411021 -12.92994722 28.84959065 -11.9375 34.4375 C-10.3331056 38.88890799 -8.92257 41.78078667 -4.9375 44.4375 C-0.55757531 44.93334053 1.59535941 44.69230396 5.5 42.5625 C6.345625 41.86125 7.19125 41.16 8.0625 40.4375 C8.0625 39.7775 8.0625 39.1175 8.0625 38.4375 C11.08984375 38.19335938 11.08984375 38.19335938 14.1171875 37.94921875 C16.45769216 37.56356964 16.45769216 37.56356964 18.0625 34.4375 C17.71644389 32.15352968 17.09545481 30.50340963 16.0625 28.4375 C13.93673218 27.97098793 13.93673218 27.97098793 11.5 27.8125 C10.67371094 27.73773438 9.84742187 27.66296875 8.99609375 27.5859375 C8.35800781 27.53695312 7.71992187 27.48796875 7.0625 27.4375 C6.96453125 26.82261719 6.8665625 26.20773438 6.765625 25.57421875 C5.910469 20.566577 5.910469 20.566577 3.25 16.375 C-1.51382981 14.33335865 -5.00693291 15.12754877 -8.9375 18.4375 Z M76.0625 27.4375 C77.0625 29.4375 77.0625 29.4375 77.0625 29.4375 Z M52.0625 30.4375 C51.98175797 33.06311109 51.9221377 35.68625676 51.875 38.3125 C51.84986328 39.05886719 51.82472656 39.80523437 51.79882812 40.57421875 C51.7326236 42.99971828 51.7326236 42.99971828 52.0625 46.4375 C53.5475 47.4275 53.5475 47.4275 55.0625 48.4375 C55.49609375 50.49609375 55.49609375 50.49609375 55.5 52.875 C55.52900391 54.04869141 55.52900391 54.04869141 55.55859375 55.24609375 C55.0625 57.4375 55.0625 57.4375 51.0625 60.4375 C57.9925 60.4375 64.9225 60.4375 72.0625 60.4375 C70.0825 57.7975 68.1025 55.1575 66.0625 52.4375 C64.89354446 50.59616087 63.75672046 48.73361945 62.66796875 46.84375 C62.10529297 45.87695312 61.54261719 44.91015625 60.96289062 43.9140625 C60.39763672 42.93179688 59.83238281 41.94953125 59.25 40.9375 C58.10096314 38.94600502 56.9488051 36.95630636 55.79296875 34.96875 C55.29176514 34.09798828 54.79056152 33.22722656 54.27416992 32.33007812 C53.87431885 31.70552734 53.47446777 31.08097656 53.0625 30.4375 C52.7325 30.4375 52.4025 30.4375 52.0625 30.4375 Z M89.0625 38.4375 C87.78960095 40.64466463 86.5191395 42.85317485 85.25 45.0625 C84.89357422 45.67996094 84.53714844 46.29742187 84.16992188 46.93359375 C82.49682076 49.85000853 80.92519076 52.72847294 79.48828125 55.7734375 C78.0625 58.4375 78.0625 58.4375 75.0625 60.4375 C86.9425 60.4375 98.8225 60.4375 111.0625 60.4375 C108.93054364 59.37152182 106.79316077 58.31448449 104.625 57.32421875 C95.60808988 53.10441477 95.60808988 53.10441477 93.0625 48.4375 C92.43939533 46.0745576 91.94606937 43.74031529 91.5546875 41.328125 C91.31105469 40.39226562 91.31105469 40.39226562 91.0625 39.4375 C90.4025 39.1075 89.7425 38.7775 89.0625 38.4375 Z M112.0625 41.4375 C113.0525 42.9225 113.0525 42.9225 114.0625 44.4375 C116.53516765 44.09305119 116.53516765 44.09305119 119.0625 43.4375 C119.3925 42.7775 119.7225 42.1175 120.0625 41.4375 C117.4225 41.4375 114.7825 41.4375 112.0625 41.4375 Z M17.0625 54.4375 C17.0625 55.0975 17.0625 55.7575 17.0625 56.4375 C13.1025 57.4275 9.1425 58.4175 5.0625 59.4375 C5.0625 59.7675 5.0625 60.0975 5.0625 60.4375 C13.6425 60.4375 22.2225 60.4375 31.0625 60.4375 C28.36741252 58.64077502 27.08805412 58.07928421 24.0625 57.4375 C21.03694588 56.79571579 19.75758748 56.23422498 17.0625 54.4375 Z M34.0625 59.4375 C34.0625 59.7675 34.0625 60.0975 34.0625 60.4375 C39.3425 60.4375 44.6225 60.4375 50.0625 60.4375 C50.0625 60.1075 50.0625 59.7775 50.0625 59.4375 C44.7825 59.4375 39.5025 59.4375 34.0625 59.4375 Z " fill="#070707" transform="translate(41.9375,42.5625)"/>
<path d="M0 0 C2.44910935 0.39715287 4.76391007 0.92361796 7.125 1.6875 C9.32914667 2.27452637 9.32914667 2.27452637 12 0 C14.41015625 0.0234375 14.41015625 0.0234375 17.0625 0.375 C18.37927734 0.54128906 18.37927734 0.54128906 19.72265625 0.7109375 C20.84994141 0.85402344 20.84994141 0.85402344 22 1 C22.66 1 23.32 1 24 1 C27.66666667 1 31.33333333 1 35 1 C35 1.99 35 2.98 35 4 C34.34 4.33 33.68 4.66 33 5 C33.68761019 8.65564909 35.25449545 11.51867272 37.0625 14.75 C37.61035156 15.73484375 38.15820312 16.7196875 38.72265625 17.734375 C39.14417969 18.48203125 39.56570313 19.2296875 40 20 C41.03290841 18.06891037 42.05098672 16.129882 43.0625 14.1875 C43.63097656 13.10855469 44.19945312 12.02960938 44.78515625 10.91796875 C46.36915789 8.01319757 46.36915789 8.01319757 45 5 C44.34 4.67 43.68 4.34 43 4 C43 3.01 43 2.02 43 1 C48.28 1 53.56 1 59 1 C59 1.99 59 2.98 59 4 C58.12085938 4.65355469 57.24171875 5.30710937 56.3359375 5.98046875 C51.65002377 9.65399371 49.89166403 14.9608446 47.625 20.3125 C47.17511719 21.33923828 46.72523438 22.36597656 46.26171875 23.42382812 C45.16013546 25.94340694 44.07355602 28.46838288 43 31 C42.34 31 41.68 31 41 31 C40.896875 31.845625 40.79375 32.69125 40.6875 33.5625 C39.93170011 37.34149944 38.53805981 40.47527959 37 44 C36.30859478 46.77888613 36.30859478 46.77888613 36 49 C37.65 49.33 39.3 49.66 41 50 C41 50.99 41 51.98 41 53 C39.43883181 53.33951619 37.87598662 53.67132544 36.3125 54 C35.44238281 54.185625 34.57226562 54.37125 33.67578125 54.5625 C31.06287036 54.98972047 28.64186962 55.07616201 26 55 C26.70796018 49.66464792 29.24532558 45.21246959 31.73632812 40.52734375 C33.65025192 36.72397453 33.65025192 36.72397453 33.50390625 32.5859375 C33.00761719 31.73257813 32.51132812 30.87921875 32 30 C31.27527625 28.60716883 30.55140821 27.21389227 29.828125 25.8203125 C28.97201508 24.25341996 28.11254355 22.68836018 27.25 21.125 C26.83234375 20.34769531 26.4146875 19.57039063 25.984375 18.76953125 C23.1414534 13.61240213 19.96949135 9.35251245 16 5 C13.08014819 5.68088981 10.64877696 6.58101234 8 8 C8.33 8.99 8.66 9.98 9 11 C7.375 12.625 7.375 12.625 5 14 C2.08663251 13.3007918 -0.32983461 12.33508269 -3 11 C-2.85953745 13.95867918 -2.71287776 16.91682264 -2.5625 19.875 C-2.52318359 20.71675781 -2.48386719 21.55851562 -2.44335938 22.42578125 C-2.40146484 23.23144531 -2.35957031 24.03710938 -2.31640625 24.8671875 C-2.27974854 25.61081543 -2.24309082 26.35444336 -2.20532227 27.12060547 C-2.10044135 29.08864312 -2.10044135 29.08864312 -1 31 C-0.01 31.33 0.98 31.66 2 32 C1.67 33.32 1.34 34.64 1 36 C-5.6 35.67 -12.2 35.34 -19 35 C-19 34.01 -19 33.02 -19 32 C-18.02643555 31.319375 -18.02643555 31.319375 -17.03320312 30.625 C-14.78622615 29.17674543 -14.78622615 29.17674543 -14.48242188 26.6875 C-14.47791016 25.800625 -14.47339844 24.91375 -14.46875 24 C-14.46359375 23.030625 -14.4584375 22.06125 -14.453125 21.0625 C-14.46859375 20.051875 -14.4840625 19.04125 -14.5 18 C-14.48453125 16.989375 -14.4690625 15.97875 -14.453125 14.9375 C-14.46085937 13.4834375 -14.46085937 13.4834375 -14.46875 12 C-14.47326172 11.113125 -14.47777344 10.22625 -14.48242188 9.3125 C-15.16105291 6.28042776 -16.52212422 5.73229846 -19 4 C-19 3.01 -19 2.02 -19 1 C-17.71222656 1.01160156 -16.42445313 1.02320313 -15.09765625 1.03515625 C-13.41927228 1.0445327 -11.74088674 1.05363305 -10.0625 1.0625 C-9.21236328 1.07087891 -8.36222656 1.07925781 -7.48632812 1.08789062 C-6.67744141 1.09111328 -5.86855469 1.09433594 -5.03515625 1.09765625 C-4.2862915 1.10289307 -3.53742676 1.10812988 -2.76586914 1.11352539 C-0.97332261 1.19341752 -0.97332261 1.19341752 0 0 Z " fill="#F8F8F8" transform="translate(329,62)"/>
<path d="M0 0 C0.33 0.66 0.66 1.32 1 2 C2.65 2 4.3 2 6 2 C6 2.66 6 3.32 6 4 C8.41645782 4.16687448 8.41645782 4.16687448 11 4 C11.66 3.34 12.32 2.68 13 2 C21.24921968 1.19553064 29.77449256 2.25705094 38 3 C40.68118714 11.21113562 40.5507285 15.71496683 37 24 C21.82 24 6.64 24 -9 24 C-9.33 23.01 -9.66 22.02 -10 21 C-11.31647119 20.30062468 -12.65022151 19.63270867 -14 19 C-15.53597454 15.92805092 -15.2265038 13.39755707 -15 10 C-13.42275698 6.01933905 -12.58999089 4.39332726 -9 2 C-6.73828125 1.8046875 -6.73828125 1.8046875 -4.3125 1.875 C-3.10013672 1.90207031 -3.10013672 1.90207031 -1.86328125 1.9296875 C-0.94095703 1.96449219 -0.94095703 1.96449219 0 2 C0 1.34 0 0.68 0 0 Z " fill="#0A0A0A" transform="translate(205,107)"/>
<path d="M0 0 C1.4837915 0.05329468 1.4837915 0.05329468 2.99755859 0.10766602 C6.66128574 0.2378588 10.32521967 0.36108074 13.98925781 0.48217773 C15.57623729 0.53560756 17.16315395 0.59093771 18.75 0.64819336 C21.02850804 0.73007724 23.30715322 0.80516524 25.5859375 0.87890625 C26.65320572 0.91945885 26.65320572 0.91945885 27.74203491 0.96083069 C31.4938918 1.14458154 31.4938918 1.14458154 35 0 C36.91796875 0.0859375 36.91796875 0.0859375 39.1875 0.375 C39.98542969 0.47554688 40.78335938 0.57609375 41.60546875 0.6796875 C42.39566406 0.78539063 43.18585938 0.89109375 44 1 C44.69738281 1.08507812 45.39476562 1.17015625 46.11328125 1.2578125 C50.86817102 1.86817102 50.86817102 1.86817102 52 3 C52.03759766 4.75 52.03759766 4.75 51.9140625 7 C51.87023437 7.804375 51.82640625 8.60875 51.78125 9.4375 C51.7296875 10.283125 51.678125 11.12875 51.625 12 C51.58117187 12.845625 51.53734375 13.69125 51.4921875 14.5625 C51.12818878 20.87181122 51.12818878 20.87181122 50 22 C48.41484422 22.10374958 46.82510534 22.13851889 45.23657227 22.14526367 C43.71478111 22.15483345 43.71478111 22.15483345 42.1622467 22.16459656 C41.05811935 22.16570938 39.953992 22.1668222 38.81640625 22.16796875 C37.69056625 22.17129715 36.56472626 22.17462555 35.4047699 22.17805481 C33.01814179 22.18312894 30.63150655 22.18546299 28.24487305 22.18530273 C24.58175026 22.18748851 20.91892878 22.2056374 17.25585938 22.22460938 C14.94270937 22.22754326 12.62955792 22.22952809 10.31640625 22.23046875 C8.66325157 22.24124702 8.66325157 22.24124702 6.97669983 22.25224304 C5.45018044 22.2476281 5.45018044 22.2476281 3.89282227 22.24291992 C2.54499413 22.24505745 2.54499413 22.24505745 1.16993713 22.24723816 C-1 22 -1 22 -3 20 C-2.625 17.5625 -2.625 17.5625 -2 15 C-1.85329846 12.14293558 -1.85329846 12.14293558 -2.58984375 10.078125 C-3.10287215 7.47878111 -2.57254448 6.17410676 -1.5625 3.75 C-1.27503906 3.04359375 -0.98757812 2.3371875 -0.69140625 1.609375 C-0.46324219 1.07828125 -0.23507813 0.5471875 0 0 Z " fill="#090909" transform="translate(132,109)"/>
<path d="M0 0 C2.75 1.4375 2.75 1.4375 5 3 C5.680625 3.144375 6.36125 3.28875 7.0625 3.4375 C10.42967537 4.41506704 12.32343872 6.87724776 14.08984375 9.80859375 C16.12799261 14.71589636 16.00133465 20.57368913 13.984375 25.4609375 C10.83092105 30.72302632 10.83092105 30.72302632 7 32 C6.34 31.67 5.68 31.34 5 31 C5 31.66 5 32.32 5 33 C0.46139393 35.65674502 -2.7417577 36.65728029 -8 36 C-11.25 34 -11.25 34 -14 32 C-14.99 32 -15.98 32 -17 32 C-21.88979068 26.81385837 -23.42076333 22.21008995 -23.2578125 15.21484375 C-22.79935198 11.27625114 -21.06751231 8.44114162 -18.75 5.3125 C-16.07582017 3.30686512 -13.08911182 2.23564473 -10 1 C-6.81459576 -0.59270212 -3.46748443 -0.39418416 0 0 Z M-5 11 C-6.31262571 12.08552366 -6.31262571 12.08552366 -6.09765625 14.72265625 C-6.08605469 15.82480469 -6.07445312 16.92695312 -6.0625 18.0625 C-6.05347656 19.16722656 -6.04445313 20.27195312 -6.03515625 21.41015625 C-6.02355469 22.26480469 -6.01195312 23.11945313 -6 24 C-4.68 24 -3.36 24 -2 24 C-0.9929762 18.96488101 -1.02612187 15.76052962 -3 11 C-3.66 11 -4.32 11 -5 11 Z " fill="#F6F6F6" transform="translate(291,62)"/>
<path d="M0 0 C110.22 0 220.44 0 334 0 C334 0.99 334 1.98 334 3 C223.78 3 113.56 3 0 3 C0 2.01 0 1.02 0 0 Z " fill="#B3B3B3" transform="translate(14,104)"/>
<path d="M0 0 C0 4.62 0 9.24 0 14 C-0.99 14 -1.98 14 -3 14 C-3.268125 13.05125 -3.53625 12.1025 -3.8125 11.125 C-4.74986588 7.74732727 -4.74986588 7.74732727 -8 6 C-10.44679185 5.72091003 -10.44679185 5.72091003 -13.0625 5.8125 C-13.94035156 5.81894531 -14.81820312 5.82539062 -15.72265625 5.83203125 C-18.03125991 5.85720868 -18.03125991 5.85720868 -20 7 C-20 8.65 -20 10.3 -20 12 C-18.90300781 12.51949219 -17.80601562 13.03898437 -16.67578125 13.57421875 C-15.22109057 14.27810134 -13.76667807 14.98255902 -12.3125 15.6875 C-11.59126953 16.02716797 -10.87003906 16.36683594 -10.12695312 16.71679688 C-4.8516418 19.29423209 -0.75908403 22.12149887 2.375 27.25 C3.2826416 31.24362303 2.92403542 35.02068617 2 39 C1.34 39.99 0.68 40.98 0 42 C-1.32 42 -2.64 42 -4 42 C-4.226875 42.598125 -4.45375 43.19625 -4.6875 43.8125 C-6.50121296 46.83535493 -7.70094614 47.65344741 -11 49 C-17.31301527 49.63422874 -23.05175512 49.19826441 -29 47 C-30 46 -30 46 -30.09765625 42.40234375 C-30.0909822 40.91403133 -30.07902183 39.42573568 -30.0625 37.9375 C-30.05798828 37.17888672 -30.05347656 36.42027344 -30.04882812 35.63867188 C-30.0370068 33.75908129 -30.01907078 31.87953101 -30 30 C-28.68 30 -27.36 30 -26 30 C-25.82984375 30.61488281 -25.6596875 31.22976562 -25.484375 31.86328125 C-24.03070137 36.80587829 -24.03070137 36.80587829 -21.25 41.0625 C-18.00353687 42.41519297 -15.47436037 42.37902113 -12 42 C-9.95548981 40.95625978 -9.95548981 40.95625978 -9 39 C-8.24978756 36.54367668 -8.24978756 36.54367668 -9 34 C-12.40974396 31.03890656 -15.85441041 29.63502974 -20.0625 28.0625 C-25.09440325 26.14522361 -28.52097327 23.95805345 -31 19 C-31.0955931 17.33555539 -31.12984645 15.66718037 -31.125 14 C-31.12757813 13.113125 -31.13015625 12.22625 -31.1328125 11.3125 C-31 9 -31 9 -30 7 C-29.01 6.67 -28.02 6.34 -27 6 C-26.566875 5.21625 -26.13375 4.4325 -25.6875 3.625 C-20.11318525 -5.04615628 -8.35457975 -2.78485992 0 0 Z " fill="#F7F7F7" transform="translate(230,49)"/>
<path d="M0 0 C0 5.28 0 10.56 0 16 C-0.99 16 -1.98 16 -3 16 C-3.34611328 15.07767578 -3.34611328 15.07767578 -3.69921875 14.13671875 C-5.74914576 9.03082302 -5.74914576 9.03082302 -9.3125 4.9375 C-13.37423903 3.52061429 -16.78647456 3.1938395 -20.8984375 4.69140625 C-25.32012523 6.92090702 -27.25745065 9.25639343 -29 14 C-31.16011049 21.46219986 -30.46291871 29.07416258 -27 36 C-22.61748267 40.27562666 -19.41559775 41.38640289 -13.44921875 41.3671875 C-9.9260662 40.83899557 -7.63003445 39.21134676 -4.82421875 37.09375 C-3 36 -3 36 1 36 C0.67 38.97 0.34 41.94 0 45 C-7.68310355 47.7116836 -16.60391372 50.49449896 -24.43359375 46.875 C-26.5625 45.5 -26.5625 45.5 -28.37890625 44.09375 C-30.08855474 42.72034935 -30.08855474 42.72034935 -33 43 C-38.0702885 40.78987424 -39.64566274 37.79275799 -42 33 C-44.13993862 26.35343567 -44.28333476 17.79844056 -41.3125 11.4375 C-39.41624282 8.2226984 -37.12121898 6.08081265 -34 4 C-33.34 4.33 -32.68 4.66 -32 5 C-31.29875 4.236875 -30.5975 3.47375 -29.875 2.6875 C-21.34900993 -5.28244724 -10.19143631 -4.79597003 0 0 Z " fill="#F9F9F9" transform="translate(56,50)"/>
<path d="M0 0 C1.299375 0.5878125 1.299375 0.5878125 2.625 1.1875 C5.90823621 3.69312764 6.78808929 6.09495439 8 10 C7.67 11.65 7.34 13.3 7 15 C-0.59 15 -8.18 15 -16 15 C-14.60764647 22.19433044 -14.60764647 22.19433044 -12.8125 25 C-9.77062533 26.67827568 -7.39387553 26.40960567 -4 26 C-0.77381267 23.9209015 0.8669302 22.19960471 3 19 C4.32 19.33 5.64 19.66 7 20 C5.5139351 25.32506591 3.68658716 29.3880477 -1.1875 32.3125 C-5.17548345 33.2873404 -8.92567987 33.63196571 -13 33 C-15.75 31.0625 -15.75 31.0625 -18 29 C-19.66194453 28.64386903 -21.328451 28.30791692 -23 28 C-25.90500524 25.84814427 -27.02643909 23.44490785 -28 20 C-28.71541111 13.32694119 -27.83280494 8.57179754 -23.5625 3.1875 C-21.73547124 1.79895815 -20.2078111 1.55195277 -18 1 C-16.97980427 0.0206121 -15.97850195 -0.97895449 -15 -2 C-9.80321723 -3.73226092 -4.84634444 -2.29563684 0 0 Z " fill="#F4F4F4" transform="translate(165,65)"/>
<path d="M0 0 C1.953125 0.94921875 1.953125 0.94921875 3.953125 3.94921875 C4.27197266 6.49291992 4.27197266 6.49291992 4.3671875 9.4921875 C4.40585938 10.56533203 4.44453125 11.63847656 4.484375 12.74414062 C4.5153125 13.86369141 4.54625 14.98324219 4.578125 16.13671875 C4.61679688 17.26787109 4.65546875 18.39902344 4.6953125 19.56445312 C4.78965033 22.35921125 4.87524152 25.15396153 4.953125 27.94921875 C6.273125 28.60921875 7.593125 29.26921875 8.953125 29.94921875 C8.953125 30.93921875 8.953125 31.92921875 8.953125 32.94921875 C5.37115096 33.20449923 1.78785121 33.42387563 -1.796875 33.63671875 C-2.81265625 33.70955078 -3.8284375 33.78238281 -4.875 33.85742188 C-6.34453125 33.93959961 -6.34453125 33.93959961 -7.84375 34.0234375 C-8.74448242 34.08104248 -9.64521484 34.13864746 -10.57324219 34.19799805 C-13.54962066 33.89865639 -14.84535708 32.91485975 -17.046875 30.94921875 C-17.376875 31.60921875 -17.706875 32.26921875 -18.046875 32.94921875 C-23.71856414 29.28625285 -23.71856414 29.28625285 -24.5859375 25.75390625 C-24.7246304 21.9335474 -24.52492953 19.65744768 -22.359375 16.44921875 C-19.82788754 14.80717283 -18.00714664 14.3932595 -15.046875 13.94921875 C-14.36625 13.59859375 -13.685625 13.24796875 -12.984375 12.88671875 C-11.046875 11.94921875 -11.046875 11.94921875 -7.046875 11.94921875 C-7.706875 9.63921875 -8.366875 7.32921875 -9.046875 4.94921875 C-14.06222552 5.27882091 -14.06222552 5.27882091 -18.046875 7.94921875 C-20.171875 7.57421875 -20.171875 7.57421875 -22.046875 6.94921875 C-21.67133809 4.40209885 -21.34634109 3.22081091 -19.41015625 1.46484375 C-12.26291816 -2.94602319 -7.84474248 -2.52152437 0 0 Z " fill="#F7F7F7" transform="translate(85.046875,64.05078125)"/>
<path d="M0 0 C4.95 0.33 9.9 0.66 15 1 C15 1.99 15 2.98 15 4 C13.83682317 5.11810909 12.67156719 6.23411986 11.49707031 7.34033203 C8.29262202 10.89281727 6.18273578 15.27379218 3.875 19.4375 C3.35035156 20.36626953 2.82570313 21.29503906 2.28515625 22.25195312 C-0.26135168 26.78086913 -2.73581666 31.32329027 -5 36 C-8.87092566 34.70969145 -9.21291809 33.37377355 -11.1796875 29.86328125 C-11.77910156 28.81076172 -12.37851563 27.75824219 -12.99609375 26.67382812 C-13.61613281 25.56458984 -14.23617187 24.45535156 -14.875 23.3125 C-20.27848484 12.1958216 -20.27848484 12.1958216 -29 4 C-29 3.01 -29 2.02 -29 1 C-22.4 1 -15.8 1 -9 1 C-9.33 3.31 -9.66 5.62 -10 8 C-8.94582672 10.87946186 -8.94582672 10.87946186 -7.1875 13.375 C-6.64480469 14.22835937 -6.10210937 15.08171875 -5.54296875 15.9609375 C-4.15630318 18.10659162 -4.15630318 18.10659162 -2 19 C-1.731875 18.175 -1.46375 17.35 -1.1875 16.5 C0.12524922 12.63084439 1.55101284 8.82005706 3 5 C1.68 4.67 0.36 4.34 -1 4 C-0.67 2.68 -0.34 1.36 0 0 Z " fill="#F8F8F8" transform="translate(122,62)"/>
<path d="M0 0 C0.99 0.33 1.98 0.66 3 1 C3 3.64 3 6.28 3 9 C4.2375 8.835 5.475 8.67 6.75 8.5 C9.57820832 8.12290556 12.11564062 8 15 8 C14.62120265 10.19702465 14.09789619 11.83875922 12.9375 13.75 C11 15 11 15 3 15 C3.33 22.26 3.66 29.52 4 37 C7.465 36.505 7.465 36.505 11 36 C11.66 35.01 12.32 34.02 13 33 C14.485 33.495 14.485 33.495 16 34 C15.78233948 37.80905906 15.00605451 38.99366389 12.3125 41.8125 C8.60902322 44.25819221 7.31655282 44.52855749 3 44 C1.80375 43.9175 0.6075 43.835 -0.625 43.75 C-4.50373033 42.88805993 -5.5598201 42.06098462 -8 39 C-8.54589844 36.43457031 -8.54589844 36.43457031 -8.609375 33.578125 C-8.64160156 32.55332031 -8.67382812 31.52851562 -8.70703125 30.47265625 C-8.72121094 29.40917969 -8.73539063 28.34570312 -8.75 27.25 C-8.77964844 26.17105469 -8.80929688 25.09210938 -8.83984375 23.98046875 C-8.91046936 21.32023756 -8.96320196 18.66087898 -9 16 C-9.66 15.67 -10.32 15.34 -11 15 C-11 14.01 -11 13.02 -11 12 C-10.34 12 -9.68 12 -9 12 C-8.62875 11.0409375 -8.62875 11.0409375 -8.25 10.0625 C-7 8 -7 8 -4.875 7.25 C-4.25625 7.1675 -3.6375 7.085 -3 7 C-2.87625 6.401875 -2.7525 5.80375 -2.625 5.1875 C-2 3 -2 3 0 0 Z " fill="#F4F4F4" transform="translate(249,54)"/>
<path d="M0 0 C6.6 0.33 13.2 0.66 20 1 C20 1.66 20 2.32 20 3 C19.01 3.495 19.01 3.495 18 4 C18.7763932 7.0745356 18.7763932 7.0745356 21 9 C20.42307692 15.57692308 20.42307692 15.57692308 19 17 C17.59651265 17.09860131 16.18819523 17.13078937 14.78125 17.1328125 C13.50701172 17.13474609 13.50701172 17.13474609 12.20703125 17.13671875 C10.86705078 17.13091797 10.86705078 17.13091797 9.5 17.125 C8.60667969 17.12886719 7.71335938 17.13273437 6.79296875 17.13671875 C5.94347656 17.13542969 5.09398437 17.13414062 4.21875 17.1328125 C3.43435547 17.13168457 2.64996094 17.13055664 1.84179688 17.12939453 C0 17 0 17 -1 16 C-1.14257189 12.66381769 -1.04228157 9.34024394 -1 6 C2.3 6 5.6 6 9 6 C8.67 5.01 8.34 4.02 8 3 C7.67 3.66 7.34 4.32 7 5 C4.36 5 1.72 5 -1 5 C-0.67 3.35 -0.34 1.7 0 0 Z " fill="#3B3B3B" transform="translate(221,112)"/>
<path d="M0 0 C0.66 0 1.32 0 2 0 C2 0.66 2 1.32 2 2 C5.3 2 8.6 2 12 2 C12 2.99 12 3.98 12 5 C6.72 5 1.44 5 -4 5 C-4 5.66 -4 6.32 -4 7 C0.62 7 5.24 7 10 7 C10.87890625 13.93359375 10.87890625 13.93359375 11 16 C10 17 10 17 6.62109375 17.09765625 C5.22652923 17.09098369 3.83198257 17.07902532 2.4375 17.0625 C1.72658203 17.05798828 1.01566406 17.05347656 0.28320312 17.04882812 C-1.47790013 17.03700864 -3.23896036 17.01907263 -5 17 C-4.67 15.02 -4.34 13.04 -4 11 C-4.66 11 -5.32 11 -6 11 C-6.33 12.65 -6.66 14.3 -7 16 C-7.99 16.33 -8.98 16.66 -10 17 C-9.835 16.484375 -9.67 15.96875 -9.5 15.4375 C-8.53798719 10.74768757 -8.84494182 6.62023271 -10 2 C-6.7 2 -3.4 2 0 2 C0 1.34 0 0.68 0 0 Z " fill="#E8E8E8" transform="translate(169,112)"/>
<path d="M0 0 C3.16035617 0.53793297 4.0819064 0.96076665 5.9375 3.5 C7.39873786 6.42247573 7.1852615 9.05853839 7.25 12.3125 C7.28738281 13.53582031 7.32476562 14.75914063 7.36328125 16.01953125 C6.86597004 20.08470819 5.86842002 21.69032308 2.9375 24.5 C-0.125 25 -0.125 25 -3.0625 24.5 C-5.62199546 22.64657225 -6.04168798 21.56243607 -7.0625 18.5 C-7.23316284 16.37930439 -7.3287598 14.25204902 -7.375 12.125 C-7.41238281 11.00351563 -7.44976562 9.88203125 -7.48828125 8.7265625 C-6.84202268 3.82922695 -5.00058892 0.81642268 0 0 Z M-1.0625 5.5 C-2.37512571 6.58552366 -2.37512571 6.58552366 -2.16015625 9.22265625 C-2.14855469 10.32480469 -2.13695312 11.42695312 -2.125 12.5625 C-2.11597656 13.66722656 -2.10695313 14.77195312 -2.09765625 15.91015625 C-2.08605469 16.76480469 -2.07445312 17.61945313 -2.0625 18.5 C-0.7425 18.5 0.5775 18.5 1.9375 18.5 C2.9445238 13.46488101 2.91137813 10.26052962 0.9375 5.5 C0.2775 5.5 -0.3825 5.5 -1.0625 5.5 Z " fill="#070707" transform="translate(287.0625,67.5)"/>
<path d="M0 0 C0.66 0 1.32 0 2 0 C2.33 0.99 2.66 1.98 3 3 C3.99 3 4.98 3 6 3 C6.33 2.01 6.66 1.02 7 0 C7.99 0 8.98 0 10 0 C10 0.99 10 1.98 10 3 C12.64 3 15.28 3 18 3 C18.05437607 4.58294782 18.09296271 6.16644256 18.125 7.75 C18.14820313 8.63171875 18.17140625 9.5134375 18.1953125 10.421875 C17.99139502 13.1135858 17.36551721 14.69904974 16 17 C14.35 17 12.7 17 11 17 C11 16.34 11 15.68 11 15 C12.32 15 13.64 15 15 15 C15 12.69 15 10.38 15 8 C14.62488281 8.56589844 14.24976563 9.13179687 13.86328125 9.71484375 C9.63121784 15.78044597 9.63121784 15.78044597 6.125 17 C5.42375 17 4.7225 17 4 17 C4 16.34 4 15.68 4 15 C5.67721041 13.43041807 7.46794114 12.0519475 9.2734375 10.6328125 C11.12057039 8.88597642 12.00522667 7.32113778 13 5 C12.34 5 11.68 5 11 5 C10.71125 5.78375 10.4225 6.5675 10.125 7.375 C9 10 9 10 7 12 C4.375 11.625 4.375 11.625 2 11 C2 12.65 2 14.3 2 16 C1.34 16 0.68 16 0 16 C0 14.68 0 13.36 0 12 C-1.32 12 -2.64 12 -4 12 C-4 11.34 -4 10.68 -4 10 C-2.68 10 -1.36 10 0 10 C0 8.68 0 7.36 0 6 C-0.66 6 -1.32 6 -2 6 C-2 6.66 -2 7.32 -2 8 C-2.66 8 -3.32 8 -4 8 C-3.67 6.02 -3.34 4.04 -3 2 C-2.34 2 -1.68 2 -1 2 C-0.67 1.34 -0.34 0.68 0 0 Z " fill="#F0F1F1" transform="translate(198,112)"/>
<path d="M0 0 C0.82757813 0.16371094 1.65515625 0.32742187 2.5078125 0.49609375 C6.32273447 1.04656907 10.0335325 1.11050772 13.875 1.0625 C17.401875 1.0315625 17.401875 1.0315625 21 1 C21 6.28 21 11.56 21 17 C19.35 17 17.7 17 16 17 C16 16.34 16 15.68 16 15 C16.99 15 17.98 15 19 15 C19 11.04 19 7.08 19 3 C18.01 3.495 18.01 3.495 17 4 C17 4.66 17 5.32 17 6 C14.03 6 11.06 6 8 6 C8 9.63 8 13.26 8 17 C7.01 16.67 6.02 16.34 5 16 C4.67 15.34 4.34 14.68 4 14 C3.34 14.66 2.68 15.32 2 16 C1.01 16 0.02 16 -1 16 C-1 14 -1 14 0.5 12.375 C0.995 11.92125 1.49 11.4675 2 11 C1.67 10.01 1.34 9.02 1 8 C0.34 7.67 -0.32 7.34 -1 7 C-1 6.34 -1 5.68 -1 5 C1.475 5.495 1.475 5.495 4 6 C3.34 5.38125 2.68 4.7625 2 4.125 C0 2 0 2 0 0 Z " fill="#ECECEC" transform="translate(134,112)"/>
<path d="M0 0 C6.6 0.33 13.2 0.66 20 1 C20 1.66 20 2.32 20 3 C19.01 3.495 19.01 3.495 18 4 C18.7763932 7.0745356 18.7763932 7.0745356 21 9 C20 10 20 10 18.05053711 10.11352539 C17.2178833 10.10828857 16.38522949 10.10305176 15.52734375 10.09765625 C14.62822266 10.09443359 13.72910156 10.09121094 12.80273438 10.08789062 C11.85720703 10.07951172 10.91167969 10.07113281 9.9375 10.0625 C8.98810547 10.05798828 8.03871094 10.05347656 7.06054688 10.04882812 C4.70696935 10.0370011 2.35351523 10.02052025 0 10 C0 8.68 0 7.36 0 6 C2.97 6 5.94 6 9 6 C8.67 5.01 8.34 4.02 8 3 C7.67 3.66 7.34 4.32 7 5 C4.36 5 1.72 5 -1 5 C-0.67 3.35 -0.34 1.7 0 0 Z " fill="#BFBFBF" transform="translate(221,112)"/>
<path d="M0 0 C3.63 0 7.26 0 11 0 C11 3.96 11 7.92 11 12 C10.01 12 9.02 12 8 12 C7.67 12.66 7.34 13.32 7 14 C7 13.01 7 12.02 7 11 C4.69 11 2.38 11 0 11 C0 8.36 0 5.72 0 3 C2.97 3 5.94 3 9 3 C9 2.34 9 1.68 9 1 C6.03 1 3.06 1 0 1 C0 0.67 0 0.34 0 0 Z " fill="#212121" transform="translate(142,115)"/>
<path d="M0 0 C2.31 0 4.62 0 7 0 C9.57003044 7.87071822 9.67162311 13.50376949 6 21 C2.37 21 -1.26 21 -5 21 C-5.33 20.34 -5.66 19.68 -6 19 C-2.7 18.67 0.6 18.34 4 18 C4.67673447 14.59679066 4.67673447 14.59679066 5 11 C4.34 10.34 3.68 9.68 3 9 C3 8.01 3 7.02 3 6 C1.68 5.67 0.36 5.34 -1 5 C0.98 5 2.96 5 5 5 C5 4.01 5 3.02 5 2 C3.35 2 1.7 2 0 2 C0 1.34 0 0.68 0 0 Z " fill="#090909" transform="translate(236,110)"/>
<path d="M0 0 C3.63 0 7.26 0 11 0 C11 1.98 11 3.96 11 6 C7.37 6 3.74 6 0 6 C0 4.02 0 2.04 0 0 Z " fill="#CECFD1" transform="translate(229,123)"/>
<path d="M0 0 C1.32 0 2.64 0 4 0 C4 1.65 4 3.3 4 5 C4.66 5.33 5.32 5.66 6 6 C6 4.02 6 2.04 6 0 C7.32 0 8.64 0 10 0 C10.66 2.31 11.32 4.62 12 7 C7.05 7 2.1 7 -3 7 C-2.34 5.68 -1.68 4.36 -1 3 C-0.67 2.01 -0.34 1.02 0 0 Z " fill="#DEE1E4" transform="translate(167,122)"/>
<path d="M0 0 C4.29 0 8.58 0 13 0 C13 5.28 13 10.56 13 16 C11.35 16 9.7 16 8 16 C8 15.34 8 14.68 8 14 C8.99 14 9.98 14 11 14 C11 10.04 11 6.08 11 2 C7.04 2 3.08 2 -1 2 C-0.67 1.34 -0.34 0.68 0 0 Z " fill="#FAFAFA" transform="translate(142,113)"/>
<path d="M0 0 C0 3.3 0 6.6 0 10 C-4.875 9.125 -4.875 9.125 -6 8 C-6.30392154 5.11274535 -6.41849029 3.57791516 -4.6875 1.1875 C-3 0 -3 0 0 0 Z " fill="#0D0E0D" transform="translate(78,82)"/>
<path d="M0 0 C0.33 0 0.66 0 1 0 C0.67 2.64 0.34 5.28 0 8 C-1.32 8 -2.64 8 -4 8 C-4 8.66 -4 9.32 -4 10 C-2.35 10 -0.7 10 1 10 C-2.6441774 12.4294516 -4.71241272 12.16179575 -9 12 C-9 11.01 -9 10.02 -9 9 C-8.01 8.67 -7.02 8.34 -6 8 C-4.36980308 6.13946652 -4.36980308 6.13946652 -2.875 3.9375 C-1.93726337 2.61020612 -0.98401328 1.29335877 0 0 Z " fill="#151515" transform="translate(213,119)"/>
<path d="M0 0 C0.78375 0.185625 1.5675 0.37125 2.375 0.5625 C4.97089775 1.25962266 4.97089775 1.25962266 7 0 C7 3.63 7 7.26 7 11 C6.34 10.34 5.68 9.68 5 9 C4.34 9.66 3.68 10.32 3 11 C2.01 11 1.02 11 0 11 C0 9 0 9 1.5 7.375 C1.995 6.92125 2.49 6.4675 3 6 C2.67 5.01 2.34 4.02 2 3 C1.34 2.67 0.68 2.34 0 2 C0 1.34 0 0.68 0 0 Z " fill="#959595" transform="translate(133,117)"/>
<path d="M0 0 C3.96 0 7.92 0 12 0 C12.33 2.64 12.66 5.28 13 8 C12.34 8 11.68 8 11 8 C10.67 6.02 10.34 4.04 10 2 C8.68 2 7.36 2 6 2 C6 3.98 6 5.96 6 8 C5.01 7.67 4.02 7.34 3 7 C3.061875 6.21625 3.12375 5.4325 3.1875 4.625 C3.125625 3.75875 3.06375 2.8925 3 2 C2.01 1.34 1.02 0.68 0 0 Z " fill="#F9F9F9" transform="translate(167,120)"/>
<path d="M0 0 C6.27 0.33 12.54 0.66 19 1 C19 1.33 19 1.66 19 2 C18.21753906 2.04898438 17.43507812 2.09796875 16.62890625 2.1484375 C15.61699219 2.22320312 14.60507813 2.29796875 13.5625 2.375 C12.55316406 2.44460937 11.54382813 2.51421875 10.50390625 2.5859375 C9.67761719 2.72257812 8.85132813 2.85921875 8 3 C7.67 3.66 7.34 4.32 7 5 C4.36 5 1.72 5 -1 5 C-0.67 3.35 -0.34 1.7 0 0 Z " fill="#DFDFDF" transform="translate(221,112)"/>
<path d="M0 0 C0.66 0 1.32 0 2 0 C0.60846256 4.42761914 -1.52071486 6.9556255 -5 10 C-5.66 10 -6.32 10 -7 10 C-7 10.66 -7 11.32 -7 12 C-6.34 12.33 -5.68 12.66 -5 13 C-6.65 13 -8.3 13 -10 13 C-10.33 12.34 -10.66 11.68 -11 11 C-10.34 11 -9.68 11 -9 11 C-9 9.35 -9 7.7 -9 6 C-8.2575 6.12375 -7.515 6.2475 -6.75 6.375 C-5.38875 6.189375 -5.38875 6.189375 -4 6 C-1.78831775 3.05763218 -1.78831775 3.05763218 0 0 Z " fill="#323232" transform="translate(209,117)"/>
<path d="M0 0 C0.99 0 1.98 0 3 0 C3 1.98 3 3.96 3 6 C0.6739143 6.38063221 -1.66055264 6.71269945 -4 7 C-5 6 -5 6 -5.0625 3.4375 C-5.041875 2.633125 -5.02125 1.82875 -5 1 C-4.01 1 -3.02 1 -2 1 C-2 1.99 -2 2.98 -2 4 C-1.34 4 -0.68 4 0 4 C0 2.68 0 1.36 0 0 Z " fill="#DFDFDF" transform="translate(148,119)"/>
<path d="M0 0 C2.64 0 5.28 0 8 0 C7.67 1.65 7.34 3.3 7 5 C5.02 5 3.04 5 1 5 C0.67 3.35 0.34 1.7 0 0 Z " fill="#C2C2C2" transform="translate(220,124)"/>
<path d="M0 0 C2.4375 0.1875 2.4375 0.1875 5 1 C5.66 2.32 6.32 3.64 7 5 C3.7 5 0.4 5 -3 5 C-1 1 -1 1 0 0 Z " fill="#0B0B0B" transform="translate(153,68)"/>
<path d="M0 0 C0.66 0 1.32 0 2 0 C2 0.66 2 1.32 2 2 C5.3 2 8.6 2 12 2 C12 2.99 12 3.98 12 5 C10.37536158 5.05395478 8.75021459 5.09277195 7.125 5.125 C6.22007812 5.14820312 5.31515625 5.17140625 4.3828125 5.1953125 C2 5 2 5 0 3 C0 2.01 0 1.02 0 0 Z " fill="#F1F2F3" transform="translate(169,112)"/>
<path d="M0 0 C0.66 0 1.32 0 2 0 C2.33 0.99 2.66 1.98 3 3 C3.99 3.66 4.98 4.32 6 5 C5.34 5 4.68 5 4 5 C4 5.99 4 6.98 4 8 C3.34 8 2.68 8 2 8 C1.67 7.01 1.34 6.02 1 5 C0.01 5.33 -0.98 5.66 -2 6 C-2 6.66 -2 7.32 -2 8 C-2.66 8 -3.32 8 -4 8 C-3.67 6.02 -3.34 4.04 -3 2 C-2.34 2 -1.68 2 -1 2 C-0.67 1.34 -0.34 0.68 0 0 Z " fill="#CCCCCC" transform="translate(198,112)"/>
<path d="M0 0 C1.28132812 0.10183594 2.56265625 0.20367187 3.8828125 0.30859375 C4.87023437 0.39238281 5.85765625 0.47617188 6.875 0.5625 C4.875 2.5625 4.875 2.5625 1.6171875 2.7578125 C0.34101563 2.73460938 -0.93515625 2.71140625 -2.25 2.6875 C-4.17199219 2.66042969 -4.17199219 2.66042969 -6.1328125 2.6328125 C-7.61394531 2.59800781 -7.61394531 2.59800781 -9.125 2.5625 C-9.125 1.9025 -9.125 1.2425 -9.125 0.5625 C-6.07230154 -0.96384923 -3.36654311 -0.27544444 0 0 Z " fill="#484848" transform="translate(174.125,116.4375)"/>
<path d="M0 0 C0.33 0 0.66 0 1 0 C1 1.65 1 3.3 1 5 C1.66 5.33 2.32 5.66 3 6 C2.34 6 1.68 6 1 6 C1 7.98 1 9.96 1 12 C0.34 12 -0.32 12 -1 12 C-1 10.68 -1 9.36 -1 8 C-2.32 8 -3.64 8 -5 8 C-5 7.34 -5 6.68 -5 6 C-3.68 6 -2.36 6 -1 6 C-1.020625 5.195625 -1.04125 4.39125 -1.0625 3.5625 C-1 1 -1 1 0 0 Z " fill="#F2F2F2" transform="translate(199,116)"/>
<path d="M0 0 C0.99 0 1.98 0 3 0 C3 0.99 3 1.98 3 3 C5.64 3 8.28 3 11 3 C11 3.33 11 3.66 11 4 C8.03 4 5.06 4 2 4 C1.67 5.32 1.34 6.64 1 8 C0.01 8.33 -0.98 8.66 -2 9 C-1.649375 8.38125 -1.29875 7.7625 -0.9375 7.125 C-0.628125 6.42375 -0.31875 5.7225 0 5 C-0.33 4.34 -0.66 3.68 -1 3 C-0.67 2.01 -0.34 1.02 0 0 Z " fill="#B1B2B2" transform="translate(205,112)"/>
<path d="M0 0 C0.33 0 0.66 0 1 0 C1 3.96 1 7.92 1 12 C-0.65 12 -2.3 12 -4 12 C-4 11.34 -4 10.68 -4 10 C-3.01 10 -2.02 10 -1 10 C-1.01160156 9.36191406 -1.02320313 8.72382812 -1.03515625 8.06640625 C-1.04869141 6.82697266 -1.04869141 6.82697266 -1.0625 5.5625 C-1.07410156 4.73878906 -1.08570313 3.91507812 -1.09765625 3.06640625 C-1 1 -1 1 0 0 Z " fill="#ECEDEE" transform="translate(154,117)"/>
<path d="M0 0 C2.97 0 5.94 0 9 0 C8.01 0.33 7.02 0.66 6 1 C6 2.32 6 3.64 6 5 C5.34 5 4.68 5 4 5 C4 4.01 4 3.02 4 2 C3.01 2 2.02 2 1 2 C1.33 3.98 1.66 5.96 2 8 C1.34 8 0.68 8 0 8 C0 5.36 0 2.72 0 0 Z " fill="#474747" transform="translate(142,118)"/>
<path d="M0 0 C-1.20381448 2.49361571 -2.45428722 4.68143083 -4 7 C-6.625 7.6875 -6.625 7.6875 -9 8 C-9 6 -9 6 -7.5390625 4.4921875 C-6.59160156 3.69167969 -6.59160156 3.69167969 -5.625 2.875 C-4.99851563 2.33617188 -4.37203125 1.79734375 -3.7265625 1.2421875 C-2 0 -2 0 0 0 Z " fill="#DBDBDB" transform="translate(211,121)"/>
<path d="M0 0 C1.32 0 2.64 0 4 0 C4 1.65 4 3.3 4 5 C2.35 5 0.7 5 -1 5 C-0.67 3.35 -0.34 1.7 0 0 Z " fill="#898989" transform="translate(167,122)"/>
<path d="M0 0 C1.32 0 2.64 0 4 0 C4 1.65 4 3.3 4 5 C2.68 5 1.36 5 0 5 C0 3.35 0 1.7 0 0 Z " fill="#7E7E7E" transform="translate(173,122)"/>
<path d="M0 0 C1.65 0 3.3 0 5 0 C5.33 0.99 5.66 1.98 6 3 C3.69 3 1.38 3 -1 3 C-0.67 2.01 -0.34 1.02 0 0 Z " fill="#212121" transform="translate(232,124)"/>
<path d="M0 0 C0.99 0 1.98 0 3 0 C3 0.99 3 1.98 3 3 C3.66 3.33 4.32 3.66 5 4 C4.34 4 3.68 4 3 4 C3 4.66 3 5.32 3 6 C2.01 5.67 1.02 5.34 0 5 C0 3.35 0 1.7 0 0 Z " fill="#CECECE" transform="translate(143,120)"/>
<path d="M0 0 C1.32 0.66 2.64 1.32 4 2 C3.01 2.495 3.01 2.495 2 3 C2.33 3.66 2.66 4.32 3 5 C-0.63 4.67 -4.26 4.34 -8 4 C-8 3.67 -8 3.34 -8 3 C-5.36 3 -2.72 3 0 3 C0 2.01 0 1.02 0 0 Z " fill="#272727" transform="translate(228,114)"/>
<path d="M0 0 C2.64 0.33 5.28 0.66 8 1 C7.34 2.32 6.68 3.64 6 5 C3.5625 4.1875 3.5625 4.1875 1 3 C0.67 2.01 0.34 1.02 0 0 Z " fill="#D1D1D1" transform="translate(134,112)"/>
<path d="M0 0 C0.66 0 1.32 0 2 0 C1.67 1.65 1.34 3.3 1 5 C-0.65 5 -2.3 5 -4 5 C-4 4.34 -4 3.68 -4 3 C-2.68 3 -1.36 3 0 3 C0 2.01 0 1.02 0 0 Z " fill="#D7D7D7" transform="translate(213,124)"/>
</svg>
