<?xml version="1.0" encoding="UTF-8"?>
<svg version="1.1" xmlns="http://www.w3.org/2000/svg" width="4909" height="2905">
<path d="M0 0 C10.30994442 -0.00037623 20.61988883 -0.00076874 30.92983324 -0.00117516 C35.61207329 -0.00135948 40.29431333 -0.00154185 44.97655338 -0.0017245 C48.54725697 -0.00186398 52.11796056 -0.00200475 55.68866415 -0.00214793 C582.52399758 -0.02323041 1109.35933816 0.03287947 1636.19466761 0.06587267 C1636.19466761 752.46587267 1636.19466761 1504.86587267 1636.19466761 2280.06587267 C131.06466761 2280.06587267 -1374.06533239 2280.06587267 -2924.80533239 2280.06587267 C-2924.80533239 1527.99587267 -2924.80533239 775.92587267 -2924.80533239 1.06587267 C-1646.39582656 0.42502574 -1646.39582656 0.42502574 -1341.13385483 0.30338978 C-1338.1218943 0.30218745 -1335.10993377 0.30098409 -1332.09797324 0.29978064 C-1327.41541133 0.29790981 -1322.73284942 0.29603917 -1318.0502875 0.29417015 C-1307.70750095 0.29004121 -1297.3647144 0.28589312 -1287.02192786 0.28173394 C-1202.66766705 0.24781353 -1118.31340591 0.21478521 0 0 Z " fill="#010101" transform="translate(3076.805332387783,94.93412733486912)"/>
<path d="M0 0 C215.16 0 430.32 0 652 0 C666.78388998 17.9518664 666.78388998 17.9518664 671.04296875 23.515625 C673.90282196 27.14609733 676.86367985 30.69165589 679.8125 34.25 C684.03493959 39.34690933 688.19124849 44.47368013 692.1875 49.75 C695.93923643 54.68681847 699.8597305 59.42315051 703.89526367 64.12597656 C707.49970842 68.34946898 710.88606004 72.70811402 714.23706055 77.13378906 C717.14366256 80.94838318 720.18295373 84.61693902 723.3125 88.25 C727.54921997 93.1736335 731.52714366 98.25153565 735.4375 103.4375 C739.91886011 109.37740041 744.57027562 115.08372935 749.47143555 120.68017578 C754.04033964 125.94243309 758.22650341 131.46663694 762.42138672 137.02856445 C765.76666326 141.4446728 769.24172269 145.63445136 772.98828125 149.71875 C777.5825972 154.92861508 781.74409152 160.51330907 786 166 C791.40295879 172.95942141 796.83131396 179.86905569 802.5625 186.5625 C806.56323422 191.234952 810.37232139 196.01474659 814.09228516 200.91650391 C817.45326067 205.32983966 820.92713565 209.64231481 824.4375 213.9375 C828.50921405 218.92003904 832.54076875 223.92757469 836.5 229 C840.44185031 234.04853686 844.4502462 239.03762563 848.5 244 C853.00759973 249.52339685 857.44842642 255.09184436 861.8359375 260.7109375 C865.33776247 265.18436708 868.90811164 269.59867202 872.5 274 C877.00759973 279.52339685 881.44842642 285.09184436 885.8359375 290.7109375 C889.33776247 295.18436708 892.90811164 299.59867202 896.5 304 C901.00759973 309.52339685 905.44842642 315.09184436 909.8359375 320.7109375 C913.33776247 325.18436708 916.90811164 329.59867202 920.5 334 C925.00759973 339.52339685 929.44842642 345.09184436 933.8359375 350.7109375 C937.33776247 355.18436708 940.90811164 359.59867202 944.5 364 C949.00759973 369.52339685 953.44842642 375.09184436 957.8359375 380.7109375 C961.33776247 385.18436708 964.90811164 389.59867202 968.5 394 C972.54975959 398.96238148 976.55785296 403.95168967 980.5 409 C986.55913545 416.75436897 992.7773288 424.37668065 999 432 C1005.68097011 440.18477581 1012.3336976 448.3840373 1018.83642578 456.71142578 C1022.33793972 461.18480915 1025.90825692 465.59885003 1029.5 470 C1034.00759973 475.52339685 1038.44842642 481.09184436 1042.8359375 486.7109375 C1046.33776247 491.18436708 1049.90811164 495.59867202 1053.5 500 C1058.00759973 505.52339685 1062.44842642 511.09184436 1066.8359375 516.7109375 C1070.33776247 521.18436708 1073.90811164 525.59867202 1077.5 530 C1082.00925657 535.52542706 1086.45272738 541.09516159 1090.84033203 546.7175293 C1094.29374822 551.13105741 1097.82501817 555.47645076 1101.375 559.8125 C1106.42589277 565.98847314 1111.3007224 572.27961481 1116.12011719 578.63720703 C1120.38807363 584.24773256 1124.79422477 589.73202818 1129.26123047 595.18481445 C1132.77370084 599.47576729 1136.21973201 603.81112713 1139.625 608.1875 C1143.1519241 612.71365557 1146.76968828 617.14004968 1150.5 621.5 C1154.71022634 626.42086964 1158.75494076 631.44587235 1162.73217773 636.55639648 C1166.28132188 641.10936433 1169.90845903 645.59342535 1173.5625 650.0625 C1177.44996875 654.82161124 1181.27340354 659.61374954 1185 664.5 C1192.52742351 674.3584966 1200.44008885 683.90667486 1208.34130859 693.46630859 C1214.08638957 700.41922483 1219.74082238 707.42828171 1225.2890625 714.5390625 C1228.65920208 718.85451515 1232.09004529 723.12092821 1235.51782227 727.390625 C1238.43641136 731.03095479 1241.32739614 734.6907365 1244.1953125 738.37109375 C1248.63344585 744.06458482 1253.18677066 749.62743235 1257.87963867 755.11254883 C1261.6188 759.50217188 1265.19108358 764.00629115 1268.73217773 768.55639648 C1272.28132371 773.10936667 1275.90854646 777.59335157 1279.5625 782.0625 C1284.33983936 787.91319328 1289.00883263 793.83138277 1293.5859375 799.83984375 C1296.69774347 803.9133891 1299.85286663 807.95368567 1303 812 C1303.33 544.04 1303.66 276.08 1304 0 C1519.16 0 1734.32 0 1956 0 C1956 644.82 1956 1289.64 1956 1954 C1740.51 1954 1525.02 1954 1303 1954 C1295.86632268 1945.22008946 1288.77494113 1936.46794795 1281.8125 1927.5625 C1278.75455557 1923.67057072 1275.62936531 1919.83457439 1272.5 1916 C1268.45024041 1911.03761852 1264.44214704 1906.04831033 1260.5 1901 C1254.44086455 1893.24563103 1248.2226712 1885.62331935 1242 1878 C1235.31902989 1869.81522419 1228.6663024 1861.6159627 1222.16357422 1853.28857422 C1218.66206028 1848.81519085 1215.09174308 1844.40114997 1211.5 1840 C1206.99240027 1834.47660315 1202.55157358 1828.90815564 1198.1640625 1823.2890625 C1194.66223753 1818.81563292 1191.09188836 1814.40132798 1187.5 1810 C1182.99240027 1804.47660315 1178.55157358 1798.90815564 1174.1640625 1793.2890625 C1170.66223649 1788.81563158 1167.09183079 1784.40137622 1163.5 1780 C1158.97245928 1774.45081941 1154.50484138 1768.86084363 1150.09375 1763.21875 C1146.75845272 1758.95537 1143.38742566 1754.72205605 1140 1750.5 C1136.15735633 1745.71056443 1132.34450173 1740.89994408 1128.5625 1736.0625 C1124.05741077 1730.30382072 1119.45883855 1724.6257169 1114.83618164 1718.96118164 C1110.88758877 1714.1144637 1107.01137874 1709.21632716 1103.1640625 1704.2890625 C1099.12433367 1699.12848405 1094.98855951 1694.04903597 1090.84472656 1688.97192383 C1087.26615528 1684.57960545 1083.73876355 1680.15141821 1080.25 1675.6875 C1075.07657439 1669.07246584 1069.78030019 1662.56683707 1064.42529297 1656.09765625 C1056.48074728 1646.49979232 1048.65350298 1636.83130597 1041 1627 C1034.69543751 1618.91728695 1028.31751005 1610.90346477 1021.83642578 1602.96142578 C1018.34492588 1598.67588622 1014.90200037 1594.35684963 1011.5 1590 C1005.90741235 1582.83902275 1000.16869212 1575.80018996 994.42919922 1568.75683594 C989.95901649 1563.26188634 985.55657182 1557.7149839 981.19140625 1552.13647461 C973.10507093 1541.80663938 964.80931531 1531.65075698 956.5 1521.5 C948.30847339 1511.49313507 940.12441479 1501.48643213 932.16674805 1491.29199219 C928.64669323 1486.79375543 925.05161597 1482.3603692 921.4375 1477.9375 C916.71034725 1472.1500513 912.12160224 1466.2818091 907.58984375 1460.33984375 C904.11471951 1455.82258932 900.49267037 1451.42459661 896.88671875 1447.01171875 C893.37663802 1442.71063392 889.91582925 1438.37623814 886.5 1434 C882.55814969 1428.95146314 878.5497538 1423.96237437 874.5 1419 C869.99240027 1413.47660315 865.55157358 1407.90815564 861.1640625 1402.2890625 C857.66223753 1397.81563292 854.09188836 1393.40132798 850.5 1389 C846.4502431 1384.03762183 842.44200507 1379.048419 838.5 1374 C832.90741235 1366.83902275 827.16869212 1359.80018996 821.42919922 1352.75683594 C817.4152761 1347.82274117 813.44711524 1342.85292805 809.52734375 1337.84375 C804.03412511 1330.82407938 798.47289963 1323.86827489 792.8371582 1316.96240234 C788.88826186 1312.11525919 785.01169977 1307.2167383 781.1640625 1302.2890625 C777.12080938 1297.12398193 772.98152753 1292.04000757 768.83374023 1286.95874023 C765.36106518 1282.69689091 761.94173694 1278.39868899 758.5625 1274.0625 C754.46061778 1268.80243927 750.25410405 1263.63759564 746 1258.5 C740.33082643 1251.65090088 734.78805943 1244.71709968 729.32666016 1237.70166016 C727.05991713 1234.79418889 724.77924535 1231.89767334 722.5 1229 C719.76896958 1225.52691001 717.03972453 1222.05251067 714.3203125 1218.5703125 C708.90053589 1211.6380401 703.39985849 1204.7789578 697.83642578 1197.96142578 C694.3449217 1193.6758811 690.90221943 1189.35668259 687.5 1185 C676.46352867 1170.88160014 664.99189322 1157.3243258 653 1144 C652.67 1411.3 652.34 1678.6 652 1954 C436.84 1954 221.68 1954 0 1954 C0 1309.18 0 664.36 0 0 Z " fill="#010101" transform="translate(2595,259)"/>
<path d="M0 0 C0.98707821 -0.00129787 1.97415642 -0.00259575 2.99114609 -0.00393295 C34.00116948 -0.03477697 64.65346578 0.66154022 95.51043701 4.01177979 C98.36929024 4.31859479 101.22937783 4.60947339 104.09033203 4.89599609 C138.23462536 8.32847027 172.11414173 13.15978017 205.64648438 20.51074219 C208.90899704 21.22425388 212.17375772 21.92543031 215.44006348 22.6212616 C229.64551683 25.64904628 243.80824399 28.75435122 257.81103516 32.62939453 C260.73727315 33.42849798 263.67083966 34.19713672 266.60546875 34.96484375 C277.8702559 37.92607457 289.01918447 41.01962902 300.01953125 44.85546875 C303.48807631 46.0575821 306.9849105 47.14381415 310.49609375 48.21484375 C317.22063869 50.26874365 323.89519297 52.45556123 330.5625 54.6875 C331.73474121 55.0796167 332.90698242 55.4717334 334.11474609 55.87573242 C359.95175002 64.54316041 359.95175002 64.54316041 368.02734375 68.32421875 C370.98851521 69.60486213 374.01360369 70.63327131 377.0625 71.6875 C382.63645824 73.64783277 387.9155988 75.91541697 393.24609375 78.453125 C398.79503866 81.04136674 404.47539288 83.33019071 410.125 85.6875 C418.65699204 89.2654515 427.01496487 92.99672536 435.234375 97.23828125 C439.22558361 99.29293303 443.27748335 101.20871932 447.33691406 103.12426758 C468.29977707 113.02417816 488.60829487 123.85025342 508.54345703 135.6796875 C511.9376406 137.68112461 515.35576831 139.63854931 518.77685547 141.59350586 C534.36716769 150.51684426 549.44635983 160.23611401 564.3125 170.3125 C565.03904785 170.80331055 565.7655957 171.29412109 566.51416016 171.79980469 C586.36678179 185.22447615 605.68517953 199.32916575 624.62841797 214.0078125 C625.75935744 214.88397088 626.89120747 215.75895506 628.02392578 216.6328125 C635.29613352 222.24860713 642.39091867 228.01805784 649.3347168 234.03588867 C652.68630907 236.93662383 656.07914038 239.7568543 659.5625 242.5 C663.85264542 245.88991819 667.91290173 249.48534288 671.953125 253.16796875 C674.00877396 255.03643113 676.08739901 256.86943736 678.1875 258.6875 C683.10004712 262.97249619 687.89359939 267.38608181 692.68066406 271.81005859 C694.24666982 273.25188975 695.82166599 274.683244 697.3984375 276.11328125 C706.6255639 284.54380137 715.46817256 293.35977995 724.3125 302.1875 C724.950737 302.8231488 725.588974 303.45879761 726.24655151 304.1137085 C738.53745747 316.36532241 738.53745747 316.36532241 743.96484375 322.74658203 C745.80455729 324.88424918 747.78912541 326.84952465 749.8125 328.8125 C753.20518399 332.16506779 756.40350684 335.60725682 759.5078125 339.2265625 C761.52901276 341.56275501 763.60628839 343.84214851 765.6875 346.125 C769.556012 350.41102425 773.22214965 354.82739562 776.8515625 359.31640625 C780.15408754 363.33709944 783.55397178 367.27100093 786.97583008 371.19042969 C790.07593506 374.76969429 792.96511747 378.4560116 795.78295898 382.26098633 C798.37811958 385.74177395 801.07288236 389.14463212 803.75 392.5625 C814.20197633 405.96416562 824.57130631 419.44495692 834.09912109 433.52490234 C835.52287954 435.62243943 836.95834075 437.71173722 838.39453125 439.80078125 C841.71277041 444.62970787 845.01551682 449.46904233 848.3125 454.3125 C848.96387939 455.26697021 848.96387939 455.26697021 849.62841797 456.24072266 C860.25122078 471.83881642 870.24668189 487.88527806 879.75 504.1875 C880.21656006 504.98381836 880.68312012 505.78013672 881.16381836 506.60058594 C884.3125 512.06613061 884.3125 512.06613061 884.3125 514.3125 C883.57821777 514.66876465 882.84393555 515.0250293 882.08740234 515.39208984 C874.8457787 518.95231438 867.86868396 522.8104777 860.9375 526.9375 C853.03083262 531.60037469 845.0777196 536.14002627 837 540.5 C829.48902192 544.55610127 822.0645536 548.72772381 814.69482422 553.03466797 C808.21601963 556.8125178 801.67737635 560.47651199 795.125 564.125 C786.83996082 568.74153611 778.61395304 573.44386911 770.4375 578.25 C760.83682278 583.89145569 751.13297878 589.32462542 741.38378906 594.70458984 C732.92498188 599.38493587 724.5641336 604.21436334 716.23046875 609.11328125 C709.14088512 613.27150467 701.99436251 617.31601981 694.8125 621.3125 C685.65523336 626.41074737 676.57556683 631.62558142 667.53417969 636.92626953 C656.96605984 643.1164625 646.32864412 649.18378064 635.68777466 655.24760437 C631.49653527 657.63623973 627.30805809 660.02966105 623.12109375 662.42578125 C612.13909646 668.70952729 601.14900393 674.97761268 590.125 681.1875 C582.80218611 685.3132499 575.52873455 689.51069971 568.29663086 693.79321289 C561.78483356 697.64247807 555.19459145 701.34410642 548.59277344 705.03613281 C536.18655612 711.98042661 523.82307536 718.98880668 511.5625 726.1875 C501.84396284 731.88962574 492.02767954 737.39783297 482.16674805 742.84936523 C472.77957899 748.04124935 463.45633585 753.33680481 454.15478516 758.68017578 C448.62712955 761.85470811 443.09559381 765.02245839 437.5625 768.1875 C436.96951111 768.52672485 436.37652222 768.86594971 435.76556396 769.2154541 C425.31950743 775.18858209 414.82997877 781.08169332 404.32421875 786.94921875 C397.52663501 790.74732074 390.74923764 794.58074477 383.9753418 798.42089844 C379.03701754 801.21766075 374.08958514 803.99617901 369.125 806.74609375 C345.95022307 819.33852291 345.95022307 819.33852291 323.91796875 833.7734375 C321.3125 835.3125 321.3125 835.3125 319.31616211 835.14379883 C316.73083264 834.07117219 316.0731349 832.9414729 314.6484375 830.55078125 C313.93276611 829.37733154 313.93276611 829.37733154 313.20263672 828.18017578 C312.7026416 827.33696777 312.20264648 826.49375977 311.6875 825.625 C310.61774854 823.87696528 309.5447991 822.13088385 308.46875 820.38671875 C307.93636719 819.52224121 307.40398437 818.65776367 306.85546875 817.76708984 C303.28491588 812.08697298 299.32001834 806.68930773 295.3125 801.3125 C294.91353516 800.77463867 294.51457031 800.23677734 294.10351562 799.68261719 C286.10443388 788.94632953 277.68471458 778.26872634 267.99633789 768.9987793 C266.2733378 767.27328102 264.70593651 765.47262377 263.12890625 763.61328125 C259.34529182 759.26384154 255.27795544 755.30224372 251.0625 751.375 C250.31379639 750.67479736 249.56509277 749.97459473 248.79370117 749.25317383 C243.15021504 744.01214249 237.37793637 739.06201555 231.3125 734.3125 C230.23867793 733.44773767 229.16581284 732.58178608 228.09375 731.71484375 C186.30061909 698.1121166 134.43657347 671.51970326 81.6015625 661.00390625 C78.3125 660.3125 78.3125 660.3125 76.3125 659.3125 C73.77542284 658.88782223 71.24680665 658.50592815 68.69921875 658.15625 C67.5511248 657.99545959 67.5511248 657.99545959 66.37983704 657.8314209 C64.75176014 657.60444098 63.12342971 657.37927338 61.49487305 657.15576172 C59.04720873 656.8189953 56.60074286 656.47439766 54.15429688 656.12890625 C37.75942382 653.838219 21.67013036 653.10702918 5.125 653.125 C4.10027588 653.12560425 3.07555176 653.1262085 2.01977539 653.12683105 C-13.64803056 653.15190639 -29.10638603 653.54516353 -44.6875 655.3125 C-46.39921387 655.48990723 -46.39921387 655.48990723 -48.14550781 655.67089844 C-76.82893042 658.6922292 -105.47128206 665.13385525 -132.16015625 676.265625 C-134.11478106 677.07526866 -136.0839967 677.84973859 -138.05859375 678.609375 C-147.5808648 682.27479369 -156.66501781 686.5530806 -165.6875 691.3125 C-166.47318359 691.72661133 -167.25886719 692.14072266 -168.06835938 692.56738281 C-193.4608724 706.04402388 -216.86245935 722.297017 -238.625 741.0625 C-239.22755615 741.58110596 -239.8301123 742.09971191 -240.45092773 742.6340332 C-244.14070906 745.85090968 -247.63888927 749.20329592 -251.05664062 752.70800781 C-252.71831425 754.34281606 -254.45169485 755.83051079 -256.25 757.3125 C-266.47334059 766.14355685 -275.31690953 776.75952574 -283.6875 787.3125 C-284.66397839 788.51024603 -285.64193769 789.70678571 -286.62109375 790.90234375 C-291.99671268 797.49355489 -297.1104365 804.11849959 -301.72265625 811.27734375 C-303.06855599 813.35639763 -304.45370919 815.41041335 -305.87109375 817.44140625 C-319.10488193 836.42504723 -331.16285529 857.78056276 -338.73828125 879.67578125 C-339.71977412 882.40215032 -340.84241945 885.03143331 -342 887.6875 C-350.56431435 908.12626246 -356.22687151 929.7476956 -359.9375 951.5625 C-360.08856201 952.44655518 -360.23962402 953.33061035 -360.39526367 954.24145508 C-360.87710415 957.25995601 -361.29100813 960.28155937 -361.6875 963.3125 C-361.77470306 963.94401978 -361.86190613 964.57553955 -361.95175171 965.22619629 C-364.08062217 981.0893599 -364.02946512 997.01026448 -364.00317383 1012.98291016 C-363.99854569 1016.02895893 -364.00546659 1019.07460811 -364.02368164 1022.12060547 C-364.13185076 1040.39247525 -363.66558934 1058.22883189 -360.6875 1076.3125 C-360.52340134 1077.3451297 -360.52340134 1077.3451297 -360.35598755 1078.39862061 C-359.75327249 1082.15792605 -359.06320354 1085.89267276 -358.3125 1089.625 C-358.09972412 1090.70273682 -357.88694824 1091.78047363 -357.66772461 1092.89086914 C-355.03074143 1105.95552543 -351.56673545 1118.71139685 -347.625 1131.4375 C-347.39176025 1132.19538818 -347.15852051 1132.95327637 -346.91821289 1133.73413086 C-345.43137354 1138.40830789 -343.63707072 1142.84701063 -341.59985352 1147.30810547 C-340.55010725 1149.61434492 -339.60581207 1151.95112611 -338.6875 1154.3125 C-336.81025843 1159.04170473 -334.79990781 1163.68403957 -332.6875 1168.3125 C-332.17960937 1169.4675 -331.67171875 1170.6225 -331.1484375 1171.8125 C-319.98431206 1196.75271164 -304.76722709 1219.84469107 -288.12255859 1241.44384766 C-286.75241431 1243.22797224 -285.40024376 1245.02442828 -284.05078125 1246.82421875 C-270.97064083 1264.08372525 -255.25934729 1280.37013401 -238.6875 1294.3125 C-237.78257812 1295.1065625 -236.87765625 1295.900625 -235.9453125 1296.71875 C-222.46703635 1308.47506538 -207.69636506 1318.61909789 -192.6875 1328.3125 C-191.61242188 1329.00988281 -190.53734375 1329.70726562 -189.4296875 1330.42578125 C-181.72406362 1335.30096098 -173.76386778 1339.41440038 -165.57275391 1343.38964844 C-162.80175418 1344.74608187 -160.0598207 1346.15886247 -157.3125 1347.5625 C-152.19692034 1350.11345082 -147.02394745 1352.27313859 -141.6875 1354.3125 C-140.34457586 1354.84123997 -139.0021724 1355.3713034 -137.66015625 1355.90234375 C-133.01416024 1357.73624926 -128.35474481 1359.53342127 -123.6875 1361.3125 C-122.64480957 1361.71154541 -122.64480957 1361.71154541 -121.58105469 1362.11865234 C-110.04697321 1366.49048612 -98.29995526 1369.69375469 -86.33105469 1372.6484375 C-84.07771323 1373.21447821 -81.83944181 1373.81392131 -79.6015625 1374.4375 C-69.85377871 1377.01011098 -59.99218046 1378.29318281 -50 1379.5 C-49.29852844 1379.58485657 -48.59705688 1379.66971313 -47.87432861 1379.75714111 C-32.22746639 1381.62575787 -16.73976923 1382.49914955 -0.98608398 1382.49780273 C1.84602161 1382.49997775 4.67772904 1382.51817174 7.50976562 1382.53710938 C25.59109239 1382.59522628 43.27985108 1380.95304545 61.08129883 1377.81787109 C63.27435849 1377.43322774 65.46984097 1377.06561183 67.66601562 1376.69921875 C76.76814362 1375.14546559 85.46951257 1372.9982714 94.3125 1370.3125 C96.08145234 1369.82643517 97.85196555 1369.34595671 99.625 1368.875 C111.50327589 1365.63387752 123.02517193 1362.29956046 134.3125 1357.3125 C136.29031558 1356.49671665 138.26950695 1355.68426152 140.25 1354.875 C177.81546897 1339.13419938 213.83400644 1317.73545945 243.64453125 1289.796875 C245.84835299 1287.74470717 248.08349825 1285.76469216 250.375 1283.8125 C257.61224543 1277.52514303 264.36594719 1270.61424487 270.58203125 1263.3203125 C272.54677497 1261.04067758 274.58598082 1258.83838556 276.625 1256.625 C281.38476292 1251.34262798 285.7076452 1245.76560545 289.97363281 1240.08398438 C291.33005303 1238.28927521 292.70593469 1236.51099657 294.0859375 1234.734375 C301.02965696 1225.72246359 307.31144064 1216.36878815 313.4128418 1206.76611328 C314.02168213 1205.81333496 314.63052246 1204.86055664 315.2578125 1203.87890625 C315.79937988 1203.02240479 316.34094727 1202.16590332 316.89892578 1201.28344727 C318.3125 1199.3125 318.3125 1199.3125 320.3125 1198.3125 C322.96362305 1199.61669922 322.96362305 1199.61669922 326.32421875 1201.6171875 C327.22418579 1202.14853302 327.22418579 1202.14853302 328.14233398 1202.69061279 C330.09949441 1203.84867088 332.04967355 1205.01797583 334 1206.1875 C335.34634457 1206.98686728 336.69310643 1207.78553213 338.0402832 1208.58349609 C345.495991 1213.00591511 352.92350834 1217.47541333 360.34375 1221.95703125 C366.97314356 1225.92079687 373.6962536 1229.72712842 380.39355469 1233.57446289 C388.17077877 1238.05149074 395.8932552 1242.60921796 403.55541992 1247.28051758 C408.42488899 1250.23558599 413.37152352 1253.00236074 418.3815918 1255.71166992 C423.71554643 1258.62501774 428.97810398 1261.66375286 434.25 1264.6875 C435.46779409 1265.38503441 436.68565028 1266.08246044 437.90356445 1266.77978516 C439.79505153 1267.86278684 441.6864896 1268.9458731 443.5776825 1270.02938843 C447.97057024 1272.54586848 452.36707715 1275.05592827 456.765625 1277.5625 C467.52279863 1283.69454627 478.26766598 1289.84164631 488.92285156 1296.14990234 C493.3533461 1298.76669823 497.82931581 1301.27740073 502.359375 1303.71875 C514.47821606 1310.25907692 526.40964924 1317.09852002 538.28588867 1324.06835938 C544.57687571 1327.74894319 550.90937711 1331.33105241 557.3125 1334.8125 C567.73301173 1340.48442411 577.9618249 1346.47040828 588.19091797 1352.47900391 C593.49857292 1355.59651436 598.81115561 1358.70555486 604.125 1361.8125 C605.08438477 1362.37557861 606.04376953 1362.93865723 607.03222656 1363.51879883 C612.45797628 1366.69202026 617.92957722 1369.75556635 623.45629883 1372.74902344 C628.76307634 1375.65393866 634.00218844 1378.67778599 639.25 1381.6875 C640.47364016 1382.38798742 641.69735606 1383.08834252 642.92114258 1383.78857422 C647.32799139 1386.31048011 651.7335533 1388.83463013 656.13891602 1391.35913086 C660.25855603 1393.71984861 664.37884435 1396.07942906 668.5 1398.4375 C669.07946381 1398.76915161 669.65892761 1399.10080322 670.25595093 1399.44250488 C678.49723544 1404.15738026 686.76897961 1408.81513736 695.0625 1413.4375 C704.13492843 1418.49660225 713.13066225 1423.67337376 722.09179688 1428.92675781 C729.72105886 1433.39575046 737.38259068 1437.80629648 745.0625 1442.1875 C745.64681793 1442.52086365 746.23113586 1442.85422729 746.8331604 1443.19769287 C749.8044198 1444.8925349 752.77613272 1446.58657984 755.74804688 1448.28027344 C761.0238967 1451.28747178 766.2957599 1454.30164539 771.56790161 1457.31533813 C773.31200711 1458.31221828 775.05624759 1459.30886181 776.80053711 1460.30541992 C782.69745419 1463.67451982 788.59353084 1467.04507925 794.48828125 1470.41796875 C814.29312305 1481.74851397 834.14631154 1492.98914274 854.06298828 1504.12207031 C864.18383894 1509.78642785 874.25542401 1515.53581562 884.3125 1521.3125 C880.84729502 1528.5516906 876.96143459 1535.42142199 872.75 1542.25 C872.13503662 1543.25216553 871.52007324 1544.25433105 870.88647461 1545.28686523 C869.03415014 1548.29895156 867.174491 1551.30638185 865.3125 1554.3125 C864.79204102 1555.15586914 864.27158203 1555.99923828 863.73535156 1556.86816406 C852.23193231 1575.47283486 839.81652827 1593.43972215 826.91845703 1611.10058594 C825.25366248 1613.39353799 823.60726885 1615.69879247 821.96484375 1618.0078125 C816.37907464 1625.84529142 810.69286736 1633.46286125 804.4453125 1640.78515625 C802.63035427 1642.93584852 800.91787123 1645.11015847 799.25 1647.375 C792.29439029 1656.81060426 784.52196977 1665.62198769 776.87402344 1674.49658203 C775.3099147 1676.31550648 773.75168924 1678.13930079 772.1953125 1679.96484375 C767.02541844 1686.0258449 761.82084883 1692.0430209 756.46484375 1697.94140625 C754.97011439 1699.58805003 753.48370285 1701.24226736 752.00390625 1702.90234375 C748.13861948 1707.23694021 744.22179471 1711.45420562 740.07397461 1715.51855469 C738.42101261 1717.20198708 736.90067967 1718.93651136 735.37890625 1720.73828125 C730.68026742 1726.13898702 725.61170645 1731.16306602 720.54272461 1736.21264648 C718.87823723 1737.8717732 717.21916553 1739.53618051 715.56054688 1741.20117188 C710.48152412 1746.28304092 705.36941319 1751.27248488 699.90209961 1755.94116211 C697.93612954 1757.6371925 696.11544182 1759.4451674 694.3125 1761.3125 C691.1626997 1764.50511312 687.90030511 1767.48411279 684.5 1770.40625 C681.95738601 1772.62195648 679.48139802 1774.90348592 677 1777.1875 C672.55999216 1781.23771292 667.99315719 1785.06784122 663.31640625 1788.83984375 C659.81582522 1791.72133633 656.40992675 1794.69994562 653 1797.6875 C646.57978738 1803.2905063 639.99094328 1808.61548596 633.24462891 1813.81884766 C631.10920446 1815.46965973 628.98190575 1817.13059722 626.85546875 1818.79296875 C612.76253411 1829.80450908 598.47147597 1840.38404028 583.78515625 1850.59033203 C581.26590822 1852.34495048 578.75395741 1854.10969792 576.2421875 1855.875 C571.72203626 1859.0402511 567.15855458 1862.13373872 562.5625 1865.1875 C561.78374512 1865.70505859 561.00499023 1866.22261719 560.20263672 1866.75585938 C557.90794085 1868.27781794 555.61099961 1869.79629314 553.3125 1871.3125 C552.69858398 1871.71758789 552.08466797 1872.12267578 551.45214844 1872.54003906 C541.81979911 1878.8717547 531.96153622 1884.8160048 522.04589844 1890.69140625 C520.2244142 1891.771672 518.40474601 1892.85500579 516.58691406 1893.94140625 C504.16927554 1901.35780031 491.58609026 1908.40727589 478.8125 1915.1875 C478.15616577 1915.53622162 477.49983154 1915.88494324 476.8236084 1916.24423218 C463.0193755 1923.56530826 449.07595464 1930.57714448 434.90039062 1937.15234375 C431.40556778 1938.78897254 427.99278917 1940.4561039 424.66796875 1942.41796875 C421.3937554 1944.26662239 418.21838572 1945.59831937 414.6875 1946.875 C410.57405539 1948.36502447 407.04581305 1950.05079985 403.3125 1952.3125 C401.64241411 1952.98264505 399.95328422 1953.60689331 398.25 1954.1875 C394.25525404 1955.59395005 390.33878945 1957.10164061 386.4375 1958.75 C381.12706857 1960.99248788 375.76997134 1963.08238089 370.3828125 1965.1328125 C367.76115956 1966.14011426 365.16071531 1967.18429135 362.5625 1968.25 C357.3561972 1970.34945219 352.06301369 1972.18376106 346.76269531 1974.02880859 C342.4049567 1975.55200407 338.10102942 1977.1638929 333.8125 1978.875 C328.19927876 1981.06569607 322.5200915 1982.78952574 316.73242188 1984.44213867 C312.21127207 1985.73698712 307.75946735 1987.15163995 303.3125 1988.6875 C293.48394422 1992.01585382 283.46614006 1994.6757032 273.46630859 1997.43505859 C267.82044563 1999.0058305 262.19091792 2000.63413412 256.56396484 2002.27124023 C246.30381606 2005.22979852 235.99642108 2007.6675481 225.5 2009.625 C223.21349256 2010.05833474 220.92703645 2010.49194036 218.640625 2010.92578125 C217.44888672 2011.15088379 216.25714844 2011.37598633 215.02929688 2011.60791016 C209.25800781 2012.70196824 203.49043721 2013.81507865 197.72335815 2014.93109131 C195.74491661 2015.31348251 193.76615591 2015.69418805 191.78735352 2016.07470703 C185.73843377 2017.24211505 179.69640095 2018.42993167 173.66796875 2019.69921875 C150.02989253 2024.66002488 126.21570233 2026.76056562 102.18885803 2028.80503845 C96.51774869 2029.2896114 90.85218886 2029.82110454 85.1875 2030.375 C77.87829182 2031.08062616 70.56632663 2031.74726783 63.25 2032.375 C62.3532959 2032.45435791 61.4565918 2032.53371582 60.53271484 2032.61547852 C41.75571578 2034.19769773 22.99778268 2034.50069341 4.1628418 2034.49780273 C1.40724033 2034.49772206 -1.3481928 2034.50458981 -4.10375977 2034.51831055 C-27.04640972 2034.63066231 -49.87221763 2033.93927356 -72.6875 2031.3125 C-75.76942508 2031.12263406 -78.85227509 2030.9980228 -81.9375 2030.875 C-101.93717435 2029.94698833 -121.69541853 2027.37735325 -141.51452637 2024.6151123 C-143.81583562 2024.29462774 -146.11738176 2023.97587944 -148.41894531 2023.65722656 C-152.46890083 2023.09568406 -156.51811937 2022.529071 -160.5668335 2021.95864868 C-162.14209471 2021.7369457 -163.71749318 2021.51621568 -165.29302979 2021.29647827 C-167.49275085 2020.98898253 -169.69175829 2020.67682045 -171.890625 2020.36328125 C-173.15551758 2020.18450439 -174.42041016 2020.00572754 -175.72363281 2019.8215332 C-178.6875 2019.3125 -178.6875 2019.3125 -180.6875 2018.3125 C-182.75804646 2018.03671897 -184.82901844 2017.86828415 -186.91015625 2017.69140625 C-189.92739637 2017.27977152 -192.85832866 2016.62597597 -195.82543945 2015.94799805 C-199.3554607 2015.16418458 -202.89741265 2014.44377193 -206.44140625 2013.7265625 C-207.88867631 2013.43231349 -209.33594184 2013.1380422 -210.78320312 2012.84375 C-213.00462897 2012.39251148 -215.22623659 2011.94228171 -217.44848633 2011.49511719 C-232.23841092 2008.51566169 -246.79529645 2004.93163266 -261.3125 2000.8125 C-262.39007568 2000.50844238 -263.46765137 2000.20438477 -264.57788086 1999.89111328 C-266.68520371 1999.29601103 -268.79223478 1998.69987423 -270.89892578 1998.10253906 C-273.21152343 1997.44735031 -275.52519476 1996.79632757 -277.83984375 1996.1484375 C-284.36429278 1994.30993296 -290.8450119 1992.3522866 -297.30688477 1990.3059082 C-301.05586485 1989.12190196 -304.81230477 1987.9742578 -308.5859375 1986.87109375 C-317.79916226 1984.17441043 -326.8269408 1981.26555547 -335.78125 1977.8046875 C-339.78248762 1976.26003302 -343.82367313 1974.84439469 -347.875 1973.4375 C-354.49876654 1971.12490519 -361.0695313 1968.68697943 -367.625 1966.1875 C-368.47666748 1965.86281738 -369.32833496 1965.53813477 -370.20581055 1965.20361328 C-376.05560295 1962.96205617 -381.88266679 1960.66806083 -387.6875 1958.3125 C-388.58178711 1957.95019287 -389.47607422 1957.58788574 -390.39746094 1957.21459961 C-399.1592635 1953.61648093 -407.7635862 1949.69026009 -416.375 1945.75 C-418.55035064 1944.75662619 -420.72595615 1943.76381308 -422.90167236 1942.77124023 C-424.29517177 1942.1354972 -425.68852592 1941.49943566 -427.08172607 1940.86303711 C-430.63776604 1939.2401991 -434.20031598 1937.63460345 -437.77734375 1936.05859375 C-459.29682903 1926.53775899 -480.34617965 1915.13023065 -500.6875 1903.3125 C-501.72068359 1902.71598633 -502.75386719 1902.11947266 -503.81835938 1901.50488281 C-538.7896198 1881.30738493 -573.51678009 1859.82465235 -605.33203125 1834.8828125 C-610.18833961 1831.1144968 -615.22391013 1827.58262304 -620.24658203 1824.04077148 C-624.69027323 1820.87502733 -628.84208515 1817.52360033 -632.91235352 1813.89038086 C-635.04772355 1811.9923068 -637.25633028 1810.20571607 -639.5 1808.4375 C-653.44717246 1797.35182949 -666.96500596 1785.83583452 -680.04296875 1773.73828125 C-682.30971645 1771.6590341 -684.60589132 1769.63063621 -686.9375 1767.625 C-690.27243288 1764.73794034 -693.37426495 1761.67263631 -696.4375 1758.5 C-698.35217287 1756.63851249 -700.30561081 1754.90451411 -702.32983398 1753.16577148 C-706.61038016 1749.42997045 -710.64988528 1745.49485698 -714.66015625 1741.47265625 C-715.38690048 1740.74686874 -716.11364471 1740.02108124 -716.8624115 1739.27330017 C-718.38712296 1737.74926444 -719.9105915 1736.22398431 -721.43286133 1734.69750977 C-723.74383891 1732.38117537 -726.06010771 1730.07022922 -728.37695312 1727.75976562 C-729.8675082 1726.26854966 -731.357753 1724.77702347 -732.84765625 1723.28515625 C-733.53013931 1722.60469742 -734.21262238 1721.92423859 -734.91578674 1721.22315979 C-738.80254512 1717.31767812 -742.51013062 1713.3131809 -746.09007263 1709.12400818 C-747.72114724 1707.2743435 -749.42705694 1705.53877417 -751.1875 1703.8125 C-755.38583079 1699.66977624 -759.19183298 1695.23401134 -763.02099609 1690.75146484 C-764.53442995 1688.97980038 -766.04846177 1687.20864799 -767.5625 1685.4375 C-768.08271729 1684.82777344 -768.60293457 1684.21804688 -769.13891602 1683.58984375 C-772.137589 1680.08522953 -775.18908395 1676.64477667 -778.3125 1673.25 C-782.10280558 1669.07655884 -785.55562972 1664.68839667 -788.95751953 1660.19897461 C-791.62963544 1656.67391268 -794.36819848 1653.22246505 -797.1875 1649.8125 C-831.500577 1608.13378867 -860.61726097 1562.18839236 -887.45751953 1515.44775391 C-888.58789177 1513.48542052 -889.72743384 1511.52882791 -890.87109375 1509.57421875 C-895.47773669 1501.64504581 -899.654127 1493.56760361 -903.69189453 1485.34033203 C-905.3254382 1482.01315849 -906.97261279 1478.69284968 -908.625 1475.375 C-908.94952148 1474.72208984 -909.27404297 1474.06917969 -909.60839844 1473.39648438 C-912.12676246 1468.35975634 -914.77204834 1463.39756264 -917.4375 1458.4375 C-920.23113006 1453.22330955 -922.78788593 1448.05394531 -924.86328125 1442.50390625 C-926.29489138 1438.69758737 -928.01327111 1435.01689621 -929.6875 1431.3125 C-933.11251769 1423.68535978 -936.42882597 1416.01213546 -939.6875 1408.3125 C-940.05367432 1407.45245361 -940.41984863 1406.59240723 -940.79711914 1405.70629883 C-944.41543035 1397.130436 -947.70416174 1388.44043029 -950.96069336 1379.72241211 C-954.18596965 1371.04467498 -954.18596965 1371.04467498 -957.83984375 1362.54296875 C-959.56010182 1358.77726861 -960.75073572 1354.98068438 -961.88769531 1351.00439453 C-963.73785306 1344.77733734 -966.02164312 1338.68055048 -968.1953125 1332.56054688 C-971.10202119 1324.27344076 -973.64426041 1315.91462109 -976.06616211 1307.47640991 C-976.67036208 1305.37218558 -977.27991821 1303.26958012 -977.890625 1301.16723633 C-987.15351818 1269.17935642 -994.17876291 1236.82823919 -1000.53671265 1204.15240479 C-1001.14862394 1201.01258107 -1001.78009195 1197.87946417 -1002.44897461 1194.7512207 C-1004.80484623 1183.61860238 -1006.22696828 1172.41142677 -1007.625 1161.125 C-1007.88774214 1159.02644424 -1008.15051933 1156.92789287 -1008.41333008 1154.8293457 C-1009.06356677 1149.61385395 -1009.70390066 1144.39721071 -1010.33862305 1139.17980957 C-1010.74202826 1135.86434943 -1011.1487358 1132.54929838 -1011.55603027 1129.23431396 C-1015.91425092 1092.9804073 -1018.21663943 1056.79942772 -1018.07861328 1020.28076172 C-1018.06152316 1015.72410754 -1018.07172218 1011.16797975 -1018.08893967 1006.61134338 C-1018.18859143 975.37293471 -1016.51928293 944.37154975 -1012.91841793 913.33821869 C-1012.53473615 909.97238501 -1012.18285493 906.6033757 -1011.828125 903.234375 C-1007.39504872 861.96397131 -1000.08939459 821.37350035 -990.5 781 C-990.18464294 779.67071472 -990.18464294 779.67071472 -989.86291504 778.3145752 C-986.48167467 764.11918966 -982.5987634 750.13807428 -978.3125 736.1875 C-977.7625178 734.39338329 -977.21306273 732.59910493 -976.6640625 730.8046875 C-976.36129395 729.81678223 -976.05852539 728.82887695 -975.74658203 727.81103516 C-974.94482024 725.16252282 -974.15515168 722.51166829 -973.37451172 719.85693359 C-970.0015349 708.42245333 -966.35134064 697.10883961 -962.47314453 685.8359375 C-961.55142601 683.1552934 -960.63668061 680.47233868 -959.72265625 677.7890625 C-956.90431256 669.54433429 -954.03484434 661.36041387 -950.6875 653.3125 C-949.86999269 651.18942133 -949.05676641 649.0646834 -948.25 646.9375 C-945.84814359 640.67656333 -943.30552235 634.48576573 -940.6875 628.3125 C-940.18992187 627.13042969 -939.69234375 625.94835937 -939.1796875 624.73046875 C-934.84130688 614.49494261 -934.84130688 614.49494261 -932.625 610.25 C-931.02187346 607.15931106 -929.82107799 604.0174158 -928.6328125 600.74609375 C-925.18438651 591.71294281 -920.89417623 583.10522143 -916.625 574.4375 C-915.76731956 572.68872778 -914.90965367 570.93994842 -914.05200195 569.19116211 C-904.63094543 550.0199131 -894.80853806 531.23132058 -883.93359375 512.8359375 C-881.65266927 508.97449364 -879.41874627 505.09468507 -877.26196289 501.16259766 C-873.75749691 494.84414464 -870.09510659 488.66177416 -866.2265625 482.55859375 C-865.70674805 481.73739044 -865.18693359 480.91618713 -864.65136719 480.07009888 C-859.3244215 471.68861962 -853.85141974 463.40669558 -848.33300781 455.15039062 C-846.68468245 452.68328287 -845.04135036 450.21290196 -843.3984375 447.7421875 C-834.38767082 434.21950028 -825.28989898 420.71049006 -815.3125 407.875 C-814.51996826 406.84777832 -814.51996826 406.84777832 -813.71142578 405.79980469 C-812.60415452 404.36610116 -811.49527349 402.93363941 -810.38476562 401.50244141 C-808.63073469 399.23925707 -806.88527172 396.96964288 -805.140625 394.69921875 C-799.00091475 386.73056959 -792.75759816 378.89302423 -786.203125 371.26171875 C-783.79577404 368.43943618 -781.45411524 365.57446277 -779.125 362.6875 C-775.24937067 357.92442782 -771.17515711 353.37885751 -767.01953125 348.859375 C-765.06344748 346.72308251 -763.14562303 344.56469343 -761.25 342.375 C-757.49204053 338.05113604 -753.6094126 333.84412122 -749.7265625 329.6328125 C-748.05382631 327.8163587 -746.39870483 325.98754633 -744.75828552 324.14173889 C-739.39064033 318.10964676 -733.83684891 312.31501687 -728.12109375 306.61328125 C-726.80359886 305.29435127 -726.80359886 305.29435127 -725.45948792 303.94877625 C-723.61785555 302.10646862 -721.77498084 300.26540212 -719.9309082 298.42553711 C-717.12531215 295.62531155 -714.32511344 292.81976828 -711.52539062 290.01367188 C-709.72427896 288.21322086 -707.92285721 286.41307999 -706.12109375 284.61328125 C-705.29379257 283.78395584 -704.46649139 282.95463043 -703.61412048 282.10017395 C-699.34848856 277.85153647 -695.01729086 273.74649162 -690.44345093 269.83033752 C-687.50381833 267.28932992 -684.70088865 264.60340188 -681.875 261.9375 C-676.83184182 257.21376891 -671.66059024 252.74415709 -666.265625 248.421875 C-663.6632371 246.29264854 -661.17174498 244.07800643 -658.6875 241.8125 C-654.02833975 237.57689978 -649.21205494 233.57861116 -644.31103516 229.62695312 C-642.48620879 228.1495298 -640.67056697 226.66123231 -638.85546875 225.171875 C-630.93538427 218.68368094 -622.92521876 212.39434195 -614.6875 206.3125 C-612.81193545 204.89658084 -610.93695096 203.47989305 -609.0625 202.0625 C-595.54060128 191.94334065 -581.78552316 182.21781485 -567.71069336 172.88256836 C-565.25144914 171.25096145 -562.79638968 169.61320337 -560.34179688 167.97460938 C-545.1382518 157.84695266 -529.81911547 147.91244766 -513.9375 138.875 C-512.83881592 138.24650146 -511.74013184 137.61800293 -510.6081543 136.97045898 C-508.36861853 135.69060917 -506.12799814 134.41265517 -503.88623047 133.13671875 C-500.91957953 131.44485371 -497.96074908 129.74017938 -495.00390625 128.03125 C-470.96676602 114.20478371 -446.20227789 101.20040053 -420.6875 90.3125 C-418.91414838 89.50551117 -417.1431437 88.69333661 -415.375 87.875 C-411.13638304 85.93947979 -406.86472352 84.16807099 -402.52734375 82.46875 C-399.69244694 81.31451416 -396.89523058 80.0875506 -394.09887695 78.84326172 C-386.74039458 75.57027651 -379.32570484 72.60051739 -371.765625 69.828125 C-369.07089367 68.8372257 -366.3974248 67.807466 -363.734375 66.734375 C-352.771136 62.32900164 -341.63088288 58.54326493 -330.40771484 54.86425781 C-323.93185112 52.73881995 -317.50336654 50.53653228 -311.10766602 48.18139648 C-307.72678257 46.96757986 -304.32533528 45.93955412 -300.875 44.9375 C-300.16690186 44.73181396 -299.45880371 44.52612793 -298.72924805 44.31420898 C-290.95896007 42.0736965 -283.15479423 39.95544245 -275.34765625 37.84765625 C-271.66280521 36.85234835 -267.98358714 35.83968767 -264.30859375 34.80859375 C-251.37515605 31.19421459 -238.36689354 28.06490686 -225.26513672 25.12304688 C-222.12393823 24.41137914 -218.98634212 23.68581847 -215.85014343 22.95246887 C-202.27308109 19.77874585 -188.75908734 16.78319453 -174.9296875 14.91796875 C-171.17995064 14.40785142 -167.51110587 13.68220151 -163.8125 12.875 C-151.91394596 10.4132302 -139.81267487 9.09737001 -127.76519775 7.57611084 C-125.68601192 7.3123112 -123.60735508 7.04466645 -121.52880859 6.77587891 C-102.95394856 4.37814948 -84.39770618 2.337331 -65.6875 1.3125 C-64.63947708 1.24994522 -64.63947708 1.24994522 -63.57028198 1.18612671 C-42.40486016 -0.05104483 -21.19403661 0.02293789 0 0 Z " fill="#FDFDFD" transform="translate(1356.6875,218.6875)"/>
<path d="M0 0 C752.73 0 1505.46 0 2281 0 C2281 752.4 2281 1504.8 2281 2280 C1528.6 2280 776.2 2280 1 2280 C0.67 1527.6 0.34 775.2 0 0 Z M163 164 C163 808.82 163 1453.64 163 2118 C378.16 2118 593.32 2118 815 2118 C815.33 1850.7 815.66 1583.4 816 1308 C828.34553563 1320.34553563 839.10112567 1333.96435295 849.83496094 1347.70947266 C853.33687757 1352.18358203 856.90791503 1356.59807465 860.5 1361 C868.11536368 1370.33832709 875.56072213 1379.79930289 882.875 1389.375 C887.1787312 1395.00401811 891.63117847 1400.50383021 896.11499023 1405.98999023 C899.60675136 1410.26758947 903.04412135 1414.5815674 906.4375 1418.9375 C910.53927465 1424.19763571 914.7457833 1429.36250717 919 1434.5 C923.71297432 1440.1914994 928.34452844 1445.93324446 932.88671875 1451.76171875 C936.36853977 1456.22089304 939.92248072 1460.61734231 943.5 1465 C948.00404537 1470.51889262 952.44238276 1476.08205817 956.82495117 1481.69775391 C960.94672784 1486.96517619 965.16527925 1492.15173365 969.41015625 1497.3203125 C972.00159369 1500.48762493 974.53000133 1503.68203754 976.96875 1506.96875 C980.0705193 1511.13917061 983.36019644 1515.13363474 986.6875 1519.125 C991.50646494 1524.93937227 996.24380113 1530.80373787 1000.88549805 1536.76025391 C1004.36783458 1541.21983186 1007.922078 1545.61684897 1011.5 1550 C1016.00767214 1555.52333657 1020.44842767 1561.09184597 1024.8359375 1566.7109375 C1028.33776247 1571.18436708 1031.90811164 1575.59867202 1035.5 1580 C1040.00925657 1585.52542706 1044.45272738 1591.09516159 1048.84033203 1596.7175293 C1052.29374711 1601.13105599 1055.82496146 1605.47649846 1059.375 1609.8125 C1063.84173822 1615.27287441 1068.18068295 1620.81214341 1072.4375 1626.4375 C1077.43652432 1633.039785 1082.61633797 1639.46384358 1087.90771484 1645.83349609 C1091.52587345 1650.19363429 1095.07944194 1654.59376715 1098.5625 1659.0625 C1106.05187169 1668.66795157 1113.78515538 1678.07545539 1121.5 1687.5 C1122.20125 1688.35722656 1122.9025 1689.21445313 1123.625 1690.09765625 C1124.91578099 1691.67504157 1126.20692936 1693.2521278 1127.5 1694.82763672 C1132.99578593 1701.52727719 1138.47814846 1708.2143463 1143.625 1715.1875 C1147.16159939 1719.96965356 1150.90927745 1724.50003958 1154.77832031 1729.01123047 C1158.55669235 1733.43242325 1162.16184016 1737.96950811 1165.73388672 1742.55810547 C1169.26518927 1747.08659899 1172.86802377 1751.55195142 1176.5 1756 C1182.8817894 1763.82323241 1189.12199606 1771.75072702 1195.33398438 1779.70898438 C1201.19730099 1787.21574156 1207.13467262 1794.65382287 1213.15917969 1802.03198242 C1216.70089043 1806.37714654 1220.18143533 1810.76430055 1223.625 1815.1875 C1227.1520609 1819.71355503 1230.76968252 1824.14004294 1234.5 1828.5 C1238.71090688 1833.42166504 1242.75561985 1838.44795136 1246.734375 1843.55859375 C1250.26536456 1848.08703799 1253.86805258 1852.55222679 1257.5 1857 C1262.00943331 1862.52528011 1266.45273044 1868.09516551 1270.84033203 1873.7175293 C1274.29374711 1878.13105599 1277.82496146 1882.47649846 1281.375 1886.8125 C1285.84173822 1892.27287441 1290.18068295 1897.81214341 1294.4375 1903.4375 C1299.43652432 1910.039785 1304.61633797 1916.46384358 1309.90771484 1922.83349609 C1313.98517772 1927.74712856 1317.96268672 1932.72624865 1321.88720703 1937.76245117 C1325.36898282 1942.22128835 1328.92266549 1946.61756866 1332.5 1951 C1337.00767214 1956.52333657 1341.44842767 1962.09184597 1345.8359375 1967.7109375 C1349.33776247 1972.18436708 1352.90811164 1976.59867202 1356.5 1981 C1361.00759973 1986.52339685 1365.44842642 1992.09184436 1369.8359375 1997.7109375 C1373.87566633 2002.87151595 1378.01144049 2007.95096403 1382.15527344 2013.02807617 C1385.73384318 2017.42039266 1389.26132067 2021.84851744 1392.75 2026.3125 C1396.62693327 2031.27149653 1400.56423009 2036.17297445 1404.5625 2041.03515625 C1412.08404499 2050.18395857 1419.54601604 2059.3751997 1426.83544922 2068.71020508 C1430.33732049 2073.18397526 1433.90804211 2077.59834923 1437.5 2082 C1443.42550628 2089.26436736 1449.22581399 2096.61441325 1455 2104 C1458.63 2108.62 1462.26 2113.24 1466 2118 C1681.49 2118 1896.98 2118 2119 2118 C2119 1473.18 2119 828.36 2119 164 C1903.84 164 1688.68 164 1467 164 C1466.67 431.96 1466.34 699.92 1466 976 C1459.24429854 967.55537318 1452.51600777 959.10819985 1445.84765625 950.59765625 C1442.23280214 946.01040006 1438.53441339 941.49146051 1434.84057617 936.96777344 C1431.29899835 932.62265317 1427.81840821 928.23567444 1424.375 923.8125 C1420.83040634 919.26231147 1417.18980816 914.81782605 1413.4375 910.4375 C1409.43665252 905.76515208 1405.62767119 900.98524362 1401.90771484 896.08349609 C1398.54674002 891.67016124 1395.07289078 887.35766317 1391.5625 883.0625 C1387.40611585 877.97692713 1383.29365801 872.86321072 1379.25 867.6875 C1373.51561535 860.35490789 1367.62184708 853.16124439 1361.6796875 845.99609375 C1355.49675822 838.52997871 1349.42359094 831.02085235 1343.5546875 823.3046875 C1340.09882298 818.79644235 1336.48617465 814.41518753 1332.89086914 810.01806641 C1329.33063591 805.65742197 1325.83235431 801.25500438 1322.375 796.8125 C1318.8480258 792.28637574 1315.2302602 787.86000152 1311.5 783.5 C1306.78312245 777.98569179 1302.27935707 772.32926625 1297.8203125 766.60546875 C1294.89547956 762.85360702 1291.91830071 759.14494226 1288.9375 755.4375 C1284.84038869 750.33638712 1280.82492914 745.18420235 1276.85693359 739.98193359 C1272.96796962 734.90917083 1268.93114773 729.961272 1264.88696289 725.01196289 C1261.37675248 720.71083519 1257.91589981 716.37632853 1254.5 712 C1250.55814969 706.95146314 1246.5497538 701.96237437 1242.5 697 C1237.99240027 691.47660315 1233.55157358 685.90815564 1229.1640625 680.2890625 C1225.66223753 675.81563292 1222.09188836 671.40132798 1218.5 667 C1213.99240027 661.47660315 1209.55157358 655.90815564 1205.1640625 650.2890625 C1201.66223753 645.81563292 1198.09188836 641.40132798 1194.5 637 C1189.99240027 631.47660315 1185.55157358 625.90815564 1181.1640625 620.2890625 C1177.12080938 615.12398193 1172.98152753 610.04000757 1168.83374023 604.95874023 C1165.36106518 600.69689091 1161.94173694 596.39868899 1158.5625 592.0625 C1154.46062077 586.8024431 1150.25421962 581.63749637 1146 576.5 C1141.28702568 570.8085006 1136.65547156 565.06675554 1132.11328125 559.23828125 C1128.63146023 554.77910696 1125.07751928 550.38265769 1121.5 546 C1116.99232786 540.47666343 1112.55157233 534.90815403 1108.1640625 529.2890625 C1104.66223753 524.81563292 1101.09188836 520.40132798 1097.5 516 C1092.99240027 510.47660315 1088.55157358 504.90815564 1084.1640625 499.2890625 C1080.66223753 494.81563292 1077.09188836 490.40132798 1073.5 486 C1068.99240027 480.47660315 1064.55157358 474.90815564 1060.1640625 469.2890625 C1056.66223753 464.81563292 1053.09188836 460.40132798 1049.5 456 C1044.99240027 450.47660315 1040.55157358 444.90815564 1036.1640625 439.2890625 C1032.66223753 434.81563292 1029.09188836 430.40132798 1025.5 426 C1020.99240027 420.47660315 1016.55157358 414.90815564 1012.1640625 409.2890625 C1008.66223649 404.81563158 1005.09183079 400.40137622 1001.5 396 C996.97245928 390.45081941 992.50484138 384.86084363 988.09375 379.21875 C984.26117194 374.31971544 980.37779666 369.46276452 976.48461914 364.61181641 C973.08376071 360.36913953 969.72178319 356.09789944 966.375 351.8125 C962.20030712 346.47222335 957.89591936 341.25647455 953.53515625 336.06640625 C950.29364016 332.14562022 947.16175182 328.14533234 944.03076172 324.13623047 C940.56293831 319.70098327 937.02635236 315.32825951 933.44921875 310.98046875 C926.28487313 302.26213429 919.17754806 293.4964603 912.14453125 284.671875 C909.90103663 281.87670137 907.63882492 279.09744505 905.37426758 276.31933594 C900.63349401 270.5033283 895.92794241 264.66609043 891.3125 258.75 C887.15809195 253.42578828 882.87329768 248.22842521 878.52734375 243.05859375 C875.8112013 239.77151564 873.18056668 236.42766111 870.5625 233.0625 C866.95582619 228.42807361 863.2594848 223.89592044 859.4375 219.4375 C855.33583969 214.64992873 851.43794686 209.74498547 847.62207031 204.72753906 C844.33571509 200.41241177 840.93797876 196.20451065 837.48828125 192.01953125 C834.43641497 188.31608913 831.40386208 184.59726305 828.375 180.875 C827.84865967 180.23006592 827.32231934 179.58513184 826.7800293 178.9206543 C822.77673918 174.00047558 818.89692846 169.0103366 815 164 C599.84 164 384.68 164 163 164 Z " fill="#FEFEFE" transform="translate(2432,95)"/>
<path d="M0 0 C32.01 0 64.02 0 97 0 C100.63 4.62 104.26 9.24 108 14 C110.15858383 16.67435165 112.32057769 19.34301503 114.5 22 C119.0089612 27.52227115 123.44844804 33.09187206 127.8359375 38.7109375 C131.33776247 43.18436708 134.90811164 47.59867202 138.5 52 C142.54976268 56.96238525 146.55769819 61.95180761 150.5 67 C159.21439041 78.1462022 168.14991998 89.10562781 177.3671875 99.83984375 C180.67714823 103.81277881 183.82526489 107.91819771 187 112 C187.33 75.04 187.66 38.08 188 0 C218.69 0 249.38 0 281 0 C281 92.4 281 184.8 281 280 C250.31 280 219.62 280 188 280 C173.72894621 263.53339947 173.72894621 263.53339947 168.4453125 257.01171875 C165.91064956 253.88995337 163.35413948 250.78710364 160.79394531 247.6862793 C151.84752997 236.84916308 143.09488935 225.87193528 134.42333984 214.81445312 C131.65913256 211.2906815 128.89113579 207.76988596 126.12353516 204.2487793 C123.84207455 201.34580062 121.56203871 198.44172748 119.28515625 195.53515625 C118.37771863 194.37751443 117.47016665 193.21996225 116.5625 192.0625 C115.89661865 191.21316895 115.89661865 191.21316895 115.21728516 190.34667969 C112.72069962 187.16888168 110.20717219 184.00562788 107.67578125 180.85546875 C106.85001587 179.82764282 106.85001587 179.82764282 106.00756836 178.77905273 C104.93849735 177.45034791 103.86775828 176.12298307 102.79516602 174.79711914 C99.10891443 170.21782885 99.10891443 170.21782885 98 168 C97.67 204.96 97.34 241.92 97 280 C64.99 280 32.98 280 0 280 C0 187.6 0 95.2 0 0 Z " fill="#010101" transform="translate(2526,2538)"/>
<path d="M0 0 C31.02 0 62.04 0 94 0 C98.13777143 4.13777143 102.07356437 8.1173909 105.8671875 12.5234375 C107.54909757 14.47642465 109.24274906 16.41668465 110.9453125 18.3515625 C116.76423729 24.98387596 122.43244998 31.68837757 127.8371582 38.66308594 C131.29837178 43.12828233 134.85358934 47.50790319 138.4375 51.875 C143.283582 57.79473489 147.91810964 63.83967812 152.47143555 69.98632812 C157.62965896 76.91495513 163.09241737 83.5840066 168.57373047 90.2578125 C171.75336229 94.14173113 174.87089913 98.07536501 178 102 C180.64 105.3 183.28 108.6 186 112 C185.67 75.04 185.34 38.08 185 0 C216.35 0 247.7 0 280 0 C280 92.4 280 184.8 280 280 C249.31 280 218.62 280 187 280 C174.77777778 265.55555556 174.77777778 265.55555556 170.5 260 C166.93562744 255.4069485 163.28149403 250.91588279 159.5 246.5 C154.78167854 240.9845574 150.27730691 235.32617439 145.81640625 229.6015625 C142.91060153 225.87439722 139.95855782 222.1853464 137 218.5 C133.15720431 213.71068772 129.34450022 208.89994214 125.5625 204.0625 C121.06671772 198.31571744 116.47806772 192.64899996 111.86474609 186.99633789 C106.48938771 180.39857363 101.23763329 173.7072107 96 167 C95.12850425 182.48461193 94.91259565 197.93297318 94.9375 213.4375 C94.93966019 214.86206009 94.93966019 214.86206009 94.94186401 216.31539917 C94.9541378 223.21029112 94.9762463 230.10513952 95 237 C95.02367706 243.97958041 95.04393332 250.95914025 95.05593872 257.93875122 C95.06241522 260.71367385 95.07489914 263.48852785 95.08764648 266.26342773 C95.09127368 267.94124289 95.09462606 269.61905866 95.09765625 271.296875 C95.10282257 272.06751785 95.10798889 272.83816071 95.11331177 273.63215637 C95.11349271 275.42183618 95.06238339 277.21140777 95 279 C94.67 279.33 94.34 279.66 94 280 C62.98 280 31.96 280 0 280 C0 187.6 0 95.2 0 0 Z " fill="#000000" transform="translate(2060,2538)"/>
<path d="M0 0 C31.68 0 63.36 0 96 0 C102.87749232 29.8024667 102.87749232 29.8024667 105.03515625 42.640625 C105.28284346 44.07547643 105.53135813 45.51018523 105.78062439 46.94476318 C106.54931946 51.37847515 107.30643388 55.81412006 108.0625 60.25 C109.06660546 66.13153368 110.0765949 72.01200973 111.09765625 77.890625 C111.21943867 78.59284683 111.34122108 79.29506866 111.46669388 80.01856995 C113.57314403 92.10946515 116.08966875 104.0760718 119 116 C124.64355985 104.27692721 129.48347171 92.23761701 134.375 80.1875 C135.25693157 78.02166804 136.13901355 75.85589731 137.02124023 73.69018555 C141.30070465 63.17366514 145.55258917 52.64643642 149.76171875 42.1015625 C150.13061218 41.17747086 150.49950562 40.25337921 150.87957764 39.30128479 C152.61221291 34.95768667 154.34037275 30.6123726 156.06201172 26.2644043 C156.3752388 25.47613251 156.68846588 24.68786072 157.01118469 23.8757019 C157.58680206 22.42705915 158.16038922 20.97760703 158.73136902 19.52713013 C160.30297566 15.57793621 162.04587074 11.77428403 164 8 C167.351646 12.24414893 169.28821045 16.7525047 171.4375 21.6875 C171.89560059 22.73188232 172.35370117 23.77626465 172.82568359 24.85229492 C179.02666213 39.15353551 184.82570694 53.62670187 190.65405273 68.08276367 C195.52954567 80.1460565 200.61104669 92.08049339 206.03900146 103.90585327 C207.38985024 106.84953678 208.72546358 109.80001957 210.0625 112.75 C210.70790997 114.16685959 211.35353388 115.58362198 212 117 C212.09385986 116.2778833 212.18771973 115.5557666 212.28442383 114.81176758 C215.15633818 93.28817147 219.3022028 72.12004658 223.90161133 50.90161133 C227.53252076 33.95115624 230.22801058 17.18633443 233 0 C264.35 0 295.7 0 328 0 C326.87477992 13.50264093 326.87477992 13.50264093 325.82348633 19.28808594 C325.70895268 19.9268784 325.59441904 20.56567087 325.47641468 21.22382069 C325.10050574 23.31172173 324.71645406 25.3980262 324.33203125 27.484375 C324.05798349 28.99406359 323.78434375 30.5038263 323.51107788 32.01365662 C322.77363446 36.07767841 322.02826186 40.14020679 321.2807579 44.20238876 C320.80780451 46.77554636 320.33701355 49.34909096 319.86685181 51.92276001 C315.06213614 78.21397543 310.05462886 104.46213268 304.91313744 130.68932438 C300.01390705 155.68278791 295.2285599 180.69680117 290.4982338 205.72278214 C289.94674661 208.63861121 289.39423847 211.55424494 288.84140015 214.46981812 C287.96172516 219.10982979 287.0846537 223.75032679 286.20948029 228.39118958 C285.89070797 230.08000974 285.57124688 231.76870012 285.25093842 233.45722961 C282.31510085 248.94276603 279.67870721 264.46349821 277 280 C250.93 280 224.86 280 198 280 C191.00479697 266.00959393 184.26393592 252.1598514 178.125 237.8125 C177.04163514 235.29671304 175.95646924 232.78170891 174.87103271 230.26681519 C174.18203159 228.67022568 173.49373366 227.07333248 172.80621338 225.47610474 C170.27989163 219.61572947 167.68199795 213.79100887 165 208 C163.26709705 210.59935443 162.09186104 212.90282158 160.86450195 215.75244141 C160.23793449 217.2013829 160.23793449 217.2013829 159.59870911 218.67959595 C159.14976791 219.72634491 158.70082672 220.77309387 158.23828125 221.8515625 C157.76939987 222.9389975 157.30051849 224.0264325 156.81742859 225.14682007 C155.82162335 227.45795217 154.82726374 229.76970759 153.83422852 232.08203125 C152.33873259 235.56392389 150.8387308 239.04384565 149.33789062 242.5234375 C144.80401541 253.04995814 140.27879204 263.57661598 136.00080872 274.21035767 C134.10289066 278.89710934 134.10289066 278.89710934 133 280 C130.56603981 280.09498646 128.16057048 280.12558417 125.72631836 280.11352539 C124.58493156 280.11374443 124.58493156 280.11374443 123.42048645 280.1139679 C120.89357702 280.11326862 118.36674038 280.10547555 115.83984375 280.09765625 C114.0924941 280.09579212 112.34514393 280.0943682 110.59779358 280.09336853 C105.98968066 280.08954293 101.38159905 280.07971229 96.77349854 280.06866455 C92.07491479 280.05845134 87.37632601 280.0538711 82.67773438 280.04882812 C73.45180913 280.03809005 64.22590716 280.02101313 55 280 C52.48925897 270.20644035 50.1578359 260.41214497 48.171875 250.49609375 C47.90757828 249.18752702 47.64313219 247.87899046 47.3785553 246.57048035 C46.65050593 242.96110443 45.92878826 239.35048989 45.20904922 235.73944855 C44.74348721 233.40484097 44.27642774 231.07053653 43.80917358 228.73626709 C36.08428352 190.10285419 28.82876751 151.37782977 21.5664196 112.65532207 C20.34382428 106.13714512 19.11962811 99.61926972 17.89453125 93.1015625 C17.65606853 91.83253397 17.41760582 90.56350544 17.17191696 89.2560215 C12.79883377 66.00848723 8.26378986 42.79441928 3.66572571 19.59048462 C3.29607036 17.72360929 3.29607036 17.72360929 2.91894722 15.81901932 C2.45629958 13.48417543 1.99270937 11.14951805 1.52804375 8.81507492 C1.32544504 7.79347904 1.12284634 6.77188316 0.91410828 5.71932983 C0.73655849 4.82678183 0.55900869 3.93423382 0.37607861 3.0146389 C0 1 0 1 0 0 Z " fill="#000000" transform="translate(3421,2538)"/>
<path d="M0 0 C43.0340625 -0.061875 43.0340625 -0.061875 86.9375 -0.125 C95.97116943 -0.14320801 105.00483887 -0.16141602 114.31225586 -0.18017578 C125.40734863 -0.18920898 125.40734863 -0.18920898 130.61378479 -0.19088745 C134.22306312 -0.1927386 137.83228165 -0.20018472 141.44154358 -0.21115112 C146.06516607 -0.22501046 150.68870334 -0.22895654 155.31234467 -0.22614455 C156.99684953 -0.22673135 158.68135779 -0.23061281 160.36584461 -0.23843026 C191.54303019 -0.37623498 217.78709651 6.68096243 240.73828125 28.6171875 C261.36833504 50.2418473 269.69932515 75.68143461 269.34765625 105.2421875 C269.04320067 114.29942254 267.0090843 122.49477442 264 131 C263.61585938 132.11375 263.23171875 133.2275 262.8359375 134.375 C258.53216807 145.61749975 252.07232695 155.38903642 243.78515625 164.07421875 C241.94236881 165.88186519 241.94236881 165.88186519 241 168 C240.34 168 239.68 168 239 168 C239 168.66 239 169.32 239 170 C231.74681165 176.87526672 223.2708475 182.43788793 215 188 C215.35602295 188.55123535 215.7120459 189.1024707 216.07885742 189.67041016 C223.22885563 200.76417037 230.21794449 211.92420385 236.88696289 223.31396484 C241.39417537 231.00365538 245.99423669 238.63439941 250.625 246.25 C250.98646118 246.84506348 251.34792236 247.44012695 251.72033691 248.05322266 C255.30319822 253.95118217 258.89631717 259.84246421 262.52734375 265.7109375 C263.0466748 266.55237305 263.56600586 267.39380859 264.10107422 268.26074219 C265.04791721 269.79252092 265.99853172 271.32197734 266.95361328 272.84863281 C270 277.77813116 270 277.77813116 270 280 C256.39628852 280.18527957 242.79287665 280.32746691 229.1881609 280.41449738 C222.87099997 280.4562661 216.55470156 280.5129278 210.23803711 280.60351562 C204.14310409 280.69037754 198.04900108 280.73826143 191.95349693 280.75901794 C189.62693904 280.77381122 187.30042711 280.80269981 184.97422218 280.84584045 C181.71724598 280.90384574 178.46370762 280.91191618 175.20629883 280.90820312 C174.24244766 280.93696533 173.2785965 280.96572754 172.28553772 280.99536133 C169.62508417 280.96250062 167.52016214 280.85786623 165 280 C162.67478703 277.60078151 161.35245565 275.02996565 160 272 C159.431604 270.96842773 158.86320801 269.93685547 158.27758789 268.87402344 C157.76446045 267.87918945 157.25133301 266.88435547 156.72265625 265.859375 C156.13371582 264.72008545 155.54477539 263.5807959 154.93798828 262.40698242 C154.3127021 261.18805159 153.6875425 259.96905581 153.0625 258.75 C152.40361926 257.47169086 151.7445998 256.19345322 151.08544922 254.9152832 C145.92128131 244.88136678 140.89635316 234.78057004 135.88061523 224.671875 C131.52499614 215.93928266 126.89575702 207.44096038 122 199 C112.76 199 103.52 199 94 199 C94 225.73 94 252.46 94 280 C62.98 280 31.96 280 0 280 C0 187.6 0 95.2 0 0 Z M94 82 C94 97.18 94 112.36 94 128 C101.38296951 128.04208152 108.76549793 128.08213598 116.14848328 128.10350037 C119.58748572 128.1140081 123.02638761 128.12802125 126.46533203 128.15087891 C130.42218766 128.17701074 134.37900397 128.18651771 138.3359375 128.1953125 C139.55300385 128.20563507 140.77007019 128.21595764 142.02401733 128.22659302 C155.99109373 128.2905438 155.99109373 128.2905438 168 122 C173.53068217 114.56063132 174.8375308 108.23578485 174 99 C172.10296581 92.42427007 168.7498282 86.8332188 163 83 C155.68272102 81.62963193 148.29536061 81.87272403 140.875 81.90234375 C139.51879936 81.9042122 138.16259804 81.90563408 136.80639648 81.90663147 C133.26204517 81.91042304 129.71773579 81.92022405 126.17340088 81.93133545 C122.54659604 81.94162238 118.91978413 81.94619965 115.29296875 81.95117188 C108.19527565 81.96131723 101.09769721 81.98089735 94 82 Z " fill="#010101" transform="translate(845,2538)"/>
<path d="M0 0 C28.7925 -0.061875 57.585 -0.12375 87.25 -0.1875 C96.30856445 -0.21481201 105.36712891 -0.24212402 114.70019531 -0.27026367 C125.84521484 -0.28381348 125.84521484 -0.28381348 131.07879639 -0.28633118 C134.69880806 -0.28910247 138.31868493 -0.30024919 141.93865967 -0.31672668 C146.58132468 -0.33757357 151.22379863 -0.34342458 155.8665061 -0.33921683 C157.55464298 -0.34009439 159.24278777 -0.34588168 160.93088388 -0.35764539 C189.36727924 -0.54631946 214.58373038 5.36571954 236 25 C236.92425781 25.84304687 237.84851562 26.68609375 238.80078125 27.5546875 C255.22869772 43.23278205 266.94260665 64.31789889 268.17700195 87.29467773 C268.71694716 117.15515365 268.71694716 117.15515365 264 130 C263.42185547 131.61648437 263.42185547 131.61648437 262.83203125 133.265625 C254.74331395 154.10257961 238.41008185 172.85717523 219 184 C217.67502278 184.36513595 216.34237465 184.7051794 215 185 C225.43918302 204.67343789 225.43918302 204.67343789 236.70214844 223.88134766 C241.85261827 232.28913117 246.87820605 240.77458411 251.94250488 249.23443604 C253.04118945 251.06876873 254.14112666 252.90234629 255.24121094 254.73583984 C257.11636441 257.86213999 258.98663024 260.99131996 260.85372925 264.12243652 C261.57397356 265.32867792 262.29574644 266.53400797 263.01907349 267.73840332 C264.02593967 269.41558995 265.0267901 271.09638363 266.02734375 272.77734375 C266.60218506 273.73890381 267.17702637 274.70046387 267.76928711 275.69116211 C269 278 269 278 269 280 C234.02 280 199.04 280 163 280 C148.625 251.1875 148.625 251.1875 144.15478516 242.21948242 C137.25539149 228.3965346 130.26990137 214.63285443 123 201 C122.67 200.34 122.34 199.68 122 199 C112.76 198.67 103.52 198.34 94 198 C94 225.06 94 252.12 94 280 C62.98 280 31.96 280 0 280 C0 187.6 0 95.2 0 0 Z M94 82 C94 97.18 94 112.36 94 128 C101.09469991 128.06942983 108.18818814 128.12899409 115.28295898 128.16479492 C117.68892443 128.1797428 120.0948633 128.20010848 122.50073242 128.22631836 C145.77554187 128.98895659 145.77554187 128.98895659 168 123 C169.41266934 121.03562494 169.41266934 121.03562494 170.25 118.6875 C170.56453125 117.92824219 170.8790625 117.16898438 171.203125 116.38671875 C173.78050724 108.66720625 174.48184026 99.45470391 171.17578125 91.85546875 C168.84258361 88.17351234 165.72069825 85.24805761 162 83 C155.06489385 81.56396786 147.99164254 81.58714191 140.9375 81.375 C139.8580864 81.34081467 139.8580864 81.34081467 138.75686646 81.30593872 C123.7846796 80.84877429 108.97081641 81.3229279 94 82 Z " fill="#010101" transform="translate(4074,2538)"/>
<path d="M0 0 C80.85 0 161.7 0 245 0 C245 27.06 245 54.12 245 82 C195.17 82 145.34 82 94 82 C94 89.59 94 97.18 94 105 C136.57 105 179.14 105 223 105 C223 128.43 223 151.86 223 176 C180.43 176 137.86 176 94 176 C94 184.91 94 193.82 94 203 C143.83 203 193.66 203 245 203 C245 228.41 245 253.82 245 280 C164.15 280 83.3 280 0 280 C0 187.6 0 95.2 0 0 Z " fill="#000000" transform="translate(2845,2538)"/>
<path d="M0 0 C1.0228862 0.00273422 1.0228862 0.00273422 2.06643677 0.00552368 C18.60214119 0.07985506 33.22869644 2.91313238 48.8125 8.3125 C49.91078125 8.68117188 51.0090625 9.04984375 52.140625 9.4296875 C71.88663872 16.48183526 88.84330689 28.87868576 103.8125 43.3125 C104.96298828 44.36824219 104.96298828 44.36824219 106.13671875 45.4453125 C134.07639757 71.83000022 144.67839974 107.25943616 146.0390625 144.69140625 C146.78588875 176.7781565 137.61889784 208.77174542 117.8125 234.3125 C117.11769531 235.22773438 116.42289063 236.14296875 115.70703125 237.0859375 C106.52167506 248.76422278 96.05787878 258.90002433 83.8125 267.3125 C82.94367187 267.91449219 82.07484375 268.51648437 81.1796875 269.13671875 C63.52552747 280.86224295 43.96708915 288.15786592 22.8125 290.3125 C21.79671875 290.42207031 20.7809375 290.53164062 19.734375 290.64453125 C-20.25776382 294.33838644 -59.42885458 287.02323597 -91.1875 261.3125 C-95.33871225 257.80136432 -99.2730624 254.08344648 -103.1875 250.3125 C-103.88101563 249.68214844 -104.57453125 249.05179688 -105.2890625 248.40234375 C-130.74079646 224.5740743 -143.75836042 189.79552204 -145.31225586 155.56420898 C-146.46009693 115.03218853 -136.66939861 79.67423828 -109.1875 49.3125 C-108.08148437 48.00925781 -108.08148437 48.00925781 -106.953125 46.6796875 C-80.95255688 16.40895309 -39.40294545 -0.16707449 0 0 Z M-38.1875 111.3125 C-49.19973036 125.54091914 -51.56165671 139.66489247 -50.1875 157.3125 C-48.96185363 165.72114119 -45.33425362 172.65769222 -40.1875 179.3125 C-39.445 180.323125 -38.7025 181.33375 -37.9375 182.375 C-37.07125 183.3340625 -37.07125 183.3340625 -36.1875 184.3125 C-35.5275 184.3125 -34.8675 184.3125 -34.1875 184.3125 C-34.1875 184.9725 -34.1875 185.6325 -34.1875 186.3125 C-22.1061836 195.48075133 -8.90283191 200.68133675 6.4375 198.75 C20.99854938 195.94028295 34.03857435 188.41684245 42.8125 176.3125 C49.00983927 166.98262585 51.37251175 157.50217826 51.25 146.375 C51.24242676 145.40788086 51.23485352 144.44076172 51.22705078 143.44433594 C51.06446021 136.41140349 50.21734058 130.5617571 46.8125 124.3125 C46.37679687 123.45785156 45.94109375 122.60320313 45.4921875 121.72265625 C37.9747848 108.06398741 25.60946307 99.65612464 10.8125 95.3125 C-6.12233421 91.16519366 -26.64784374 98.34386762 -38.1875 111.3125 Z " fill="#010101" transform="translate(3901.1875,2530.6875)"/>
<path d="M0 0 C1.6528087 1.53418606 3.29850778 3.0760623 4.9375 4.625 C5.81019531 5.42164062 6.68289063 6.21828125 7.58203125 7.0390625 C24.94070031 23.47888927 36.48090245 44.77702461 42.9375 67.625 C43.23696533 68.6763916 43.23696533 68.6763916 43.54248047 69.74902344 C54.30448145 108.56488182 48.18909725 148.51211633 28.92578125 183.53515625 C16.39329571 205.42490239 -1.4978885 222.75765436 -23.0625 235.625 C-23.65546875 235.97981445 -24.2484375 236.33462891 -24.859375 236.70019531 C-57.60295236 255.97263786 -102.45835529 258.80096289 -138.89453125 249.6640625 C-155.32209242 245.02867294 -170.36083496 237.77559229 -184.0625 227.625 C-185.00222656 226.92890625 -185.94195313 226.2328125 -186.91015625 225.515625 C-216.94919138 201.97988614 -237.19890712 168.4577793 -243.3125 130.6875 C-247.76859174 92.30890811 -238.55214372 51.64315358 -214.62939453 20.77587891 C-211.5479291 16.96117013 -208.31580814 13.29309244 -205.0625 9.625 C-204.19097825 8.57281669 -203.3224594 7.51813852 -202.45703125 6.4609375 C-192.56836752 -5.25059573 -178.61627842 -14.44255163 -165.0625 -21.375 C-163.89847656 -21.97054687 -162.73445313 -22.56609375 -161.53515625 -23.1796875 C-107.94371211 -49.0859102 -44.21173269 -39.05949928 0 0 Z M-119.0625 61.625 C-119.85011719 61.94082031 -120.63773438 62.25664062 -121.44921875 62.58203125 C-132.76923599 68.00832318 -142.66245092 79.54023711 -146.8125 91.25 C-151.45271813 106.69117785 -149.15784367 121.86413839 -141.59375 135.97265625 C-134.78829465 147.76067712 -125.25704646 155.40690874 -112.3125 159.9375 C-95.87745359 163.17062388 -82.09494886 160.97499634 -68.171875 151.69921875 C-55.94517802 143.01957156 -50.06575782 133.14679897 -46.54296875 118.5859375 C-44.15545793 103.87265943 -47.09313123 92.22057801 -55 79.625 C-55.99084853 78.26923539 -57.01054599 76.93391987 -58.0625 75.625 C-58.53816406 75.02558594 -59.01382812 74.42617187 -59.50390625 73.80859375 C-68.39479887 63.84812007 -81.64358469 58.42682576 -94.6875 57.31640625 C-103.47912605 57.0191484 -110.91420499 58.34168434 -119.0625 61.625 Z " fill="#010101" transform="translate(1986.0625,2568.375)"/>
<path d="M0 0 C1.70995122 1.43557509 3.4185048 2.87281838 5.125 4.3125 C6.20828871 5.16672326 7.29161307 6.02090131 8.375 6.875 C11.99848377 10.08672425 15.04459265 13.58296466 18.125 17.3125 C18.96289062 18.3128125 19.80078125 19.313125 20.6640625 20.34375 C46.18588324 51.39279241 55.78690862 88.87253635 52.84375 128.65234375 C52.42937628 132.57694104 51.86108154 136.43791129 51.125 140.3125 C50.97434082 141.10688477 50.82368164 141.90126953 50.66845703 142.71972656 C46.21082806 165.25194908 37.24004372 186.11436892 23.125 204.3125 C22.45210937 205.19035156 21.77921875 206.06820312 21.0859375 206.97265625 C13.22023818 217.04014399 4.27846578 224.66232705 -5.875 232.3125 C-6.41431152 232.72322754 -6.95362305 233.13395508 -7.50927734 233.55712891 C-40.84325913 258.71622468 -83.77407042 261.54095118 -123.875 256.3125 C-150.77468341 252.38626445 -175.33144652 237.46968098 -194.47900391 218.67333984 C-195.72941851 217.45441522 -197.00943663 216.26603261 -198.29296875 215.08203125 C-224.63719419 190.22986814 -236.07359999 154.64442516 -237.875 119.3125 C-238.51639197 96.03881052 -234.90391412 71.44230243 -224.875 50.3125 C-224.59317871 49.71066895 -224.31135742 49.10883789 -224.02099609 48.48876953 C-217.75284357 35.30522842 -208.73283378 21.19507925 -197.875 11.3125 C-197.215 11.3125 -196.555 11.3125 -195.875 11.3125 C-195.64683594 10.74015625 -195.41867187 10.1678125 -195.18359375 9.578125 C-192.40247458 4.763053 -187.21083427 1.66999218 -182.875 -1.6875 C-182.01390625 -2.36296875 -181.1528125 -3.0384375 -180.265625 -3.734375 C-127.23867373 -43.90630778 -51.39786048 -41.59800175 0 0 Z M-112.875 66.3125 C-113.63683594 66.67472656 -114.39867187 67.03695312 -115.18359375 67.41015625 C-127.80526548 73.86317732 -136.2392413 82.74819832 -141.25 96.0625 C-145.86669111 111.42493767 -144.37836037 127.18627563 -136.875 141.3125 C-131.90023412 149.11383741 -125.58338109 154.31996532 -117.875 159.3125 C-117.21113281 159.745625 -116.54726562 160.17875 -115.86328125 160.625 C-105.29550668 167.08440378 -92.0501507 166.59741293 -80.171875 164.73046875 C-71.47838229 162.38579522 -64.04126375 157.64072161 -56.875 152.3125 C-56.26922119 151.88251709 -55.66344238 151.45253418 -55.03930664 151.00952148 C-49.97430331 147.12323858 -48.02824544 143.11423227 -46.0625 137.125 C-45.77117187 136.27784424 -45.47984375 135.43068848 -45.1796875 134.55786133 C-39.51444718 117.67046546 -39.93249166 103.30964621 -47.875 87.3125 C-54.71975728 75.36810769 -66.38552533 67.5960162 -79.16015625 63.17578125 C-90.26158887 60.59595306 -102.66857902 61.11557446 -112.875 66.3125 Z " fill="#010101" transform="translate(1666.875,2563.6875)"/>
<path d="M0 0 C31.02 0 62.04 0 94 0 C94.4375 32.9375 94.4375 32.9375 94.56811523 43.22631836 C94.60630603 45.97249771 94.64478069 48.71867313 94.68359375 51.46484375 C94.69173599 52.15179825 94.69987823 52.83875275 94.70826721 53.54652405 C94.83440762 64.0559635 95.3059868 74.51278573 96 85 C103.11382661 76.82037324 109.773175 68.42503522 116.23632812 59.72192383 C120.43839509 54.0670484 124.71316572 48.47974907 129.0625 42.9375 C134.49090692 36.01073027 139.73821536 28.96694983 144.93261719 21.86352539 C158.11497544 3.88502456 158.11497544 3.88502456 162 0 C163.58154848 -0.09594225 165.16739125 -0.1218796 166.75184631 -0.12025452 C167.77974777 -0.12162918 168.80764923 -0.12300385 169.86669922 -0.12442017 C171.00389404 -0.12082489 172.14108887 -0.11722961 173.31274414 -0.11352539 C174.50282578 -0.11367142 175.69290741 -0.11381744 176.91905212 -0.1139679 C180.19163274 -0.11338894 183.46417107 -0.10835981 186.73674321 -0.10139394 C190.15338665 -0.09515967 193.57003083 -0.09455654 196.98667908 -0.09336853 C203.46069267 -0.09025543 209.93468946 -0.08204233 216.40869564 -0.07201904 C223.7773792 -0.06085725 231.14606355 -0.05534729 238.51475346 -0.05032361 C253.67651169 -0.03985969 268.83825417 -0.02226066 284 0 C281.63246999 4.05825618 278.94743062 7.58345129 275.875 11.125 C274.87951358 12.28716566 273.8847311 13.44993465 272.890625 14.61328125 C272.39884766 15.18771973 271.90707031 15.7621582 271.40039062 16.35400391 C267.86349746 20.51120993 264.44169916 24.76406258 261 29 C259.97935566 30.25015432 258.95850933 31.50014375 257.9375 32.75 C252.7549772 39.10197201 247.60363276 45.47257146 242.5625 51.9375 C237.80748974 58.03350927 232.90970382 64.00475567 227.98291016 69.96240234 C224.31693396 74.39612224 220.69211013 78.85798983 217.109375 83.359375 C209.82660485 92.47632429 202.46041848 101.52040381 194.89453125 110.40405273 C191.20842178 114.73590896 187.60636928 119.13203648 184.015625 123.54296875 C181.39321207 126.73966978 178.70787294 129.87553122 176 133 C177.26325386 135.65965367 178.6314606 138.00993639 180.3984375 140.36328125 C180.8713623 140.99468018 181.34428711 141.6260791 181.83154297 142.27661133 C182.34088379 142.94845459 182.85022461 143.62029785 183.375 144.3125 C183.90883301 145.02108154 184.44266602 145.72966309 184.99267578 146.4597168 C188.54030965 151.14390551 192.17736202 155.74628935 195.875 160.3125 C200.99919887 166.64199664 205.83978781 173.15241952 210.63916016 179.73046875 C214.74303384 185.33928428 218.95781793 190.84674746 223.25 196.3125 C227.65930068 201.9326699 231.92600361 207.61184757 236.0300293 213.45776367 C241.86020578 221.71001387 248.0929035 229.66774623 254.23486328 237.68847656 C256.3407929 240.44628315 258.42442356 243.21928531 260.5 246 C264.73846113 251.67048489 269.02389069 257.30487116 273.3125 262.9375 C274.35470703 264.30745117 274.35470703 264.30745117 275.41796875 265.70507812 C276.08054688 266.57455078 276.743125 267.44402344 277.42578125 268.33984375 C278.0492041 269.1582373 278.67262695 269.97663086 279.31494141 270.81982422 C280.67056536 272.57376828 282.06899852 274.29458245 283.48046875 276.00390625 C285 278 285 278 285 280 C269.2233301 280.53942035 253.44918049 280.94385232 237.66555691 281.19167995 C230.33484117 281.30986553 223.00987914 281.47063524 215.68286133 281.73510742 C209.28932811 281.96577322 202.89995902 282.11304126 196.50238091 282.16403538 C193.11801755 282.1938274 189.74555228 282.26264095 186.36504936 282.43179131 C165.89049626 283.3425467 165.89049626 283.3425467 159.44884872 277.80816078 C154.84627961 272.38058332 151.60521951 266.3803908 148.52455997 259.99747658 C146.03690521 255.10643455 142.9426548 250.64271324 139.859375 246.11328125 C138.68084413 244.32744159 137.50466563 242.54004529 136.33178711 240.75048828 C135.13800928 238.93772594 133.9440776 237.1250649 132.75 235.3125 C132.13013214 234.3713031 131.51026428 233.4301062 130.87161255 232.46038818 C120.95192392 217.4052989 110.93030991 202.42512406 100.73803711 187.55322266 C98.80610323 184.7151605 96.90440504 181.85660756 95 179 C94.67 212.33 94.34 245.66 94 280 C62.98 280 31.96 280 0 280 C0 187.6 0 95.2 0 0 Z " fill="#000000" transform="translate(4370,2538)"/>
<path d="M0 0 C1.55829104 0.00138269 1.55829104 0.00138269 3.14806271 0.00279331 C4.92971828 0.00073132 4.92971828 0.00073132 6.74736691 -0.00137234 C8.71965519 0.00402058 8.71965519 0.00402058 10.73178768 0.00952244 C12.12108006 0.00980431 13.51037259 0.00964658 14.89966488 0.00907993 C18.6825558 0.00879195 22.46541529 0.01468882 26.24829888 0.02165389 C30.19745968 0.02788728 34.14662113 0.02849122 38.09578609 0.0296793 C45.57915367 0.03279266 53.0625067 0.04100611 60.54586786 0.05102879 C69.06326025 0.06218978 77.58065332 0.06770034 86.09805119 0.07272422 C103.62367685 0.08318872 121.14928835 0.10078825 138.67490292 0.12304783 C139.31151348 1.53843997 139.94628391 2.95465985 140.58029842 4.37121677 C140.93398746 5.15978313 141.28767651 5.94834949 141.6520834 6.76081181 C143.15476951 10.23131585 144.41460616 13.76697261 145.64365292 17.34179783 C146.05281948 18.52166012 146.05281948 18.52166012 146.47025204 19.72535801 C147.3782478 22.3557576 148.27761482 24.98897729 149.17490292 27.62304783 C149.64978146 29.01231983 149.64978146 29.01231983 150.1342535 30.42965794 C158.77714682 55.79421867 166.49489683 81.45181905 174.30603695 107.08122349 C177.35485966 117.08452976 180.42038609 127.08216371 183.54990292 137.06054783 C183.86107555 138.0543848 183.86107555 138.0543848 184.17853451 139.06829929 C186.67699098 147.03003262 189.27589242 154.95371904 191.95224667 162.85742283 C193.13111184 166.34163583 194.30965457 169.82595714 195.48740292 173.31054783 C195.92732571 174.61117664 195.92732571 174.61117664 196.37613583 175.93808079 C201.61928092 191.48808943 206.28467089 207.17526732 210.80652523 222.94830418 C215.38048201 238.89724082 220.28234671 254.67080501 225.75205135 270.33618259 C226.82232868 273.56825022 227.73956907 276.84937935 228.67490292 280.12304783 C195.01490292 280.12304783 161.35490292 280.12304783 126.67490292 280.12304783 C123.30984133 270.02786306 123.30984133 270.02786306 121.99130917 264.94336033 C121.7032037 263.84894627 121.41509823 262.7545322 121.11826229 261.62695408 C120.53317817 259.3826181 119.94983153 257.13782842 119.36826229 254.89257908 C118.93417049 253.2470908 118.93417049 253.2470908 118.49130917 251.56836033 C118.23808895 250.59399021 117.98486874 249.61962009 117.72397518 248.61572361 C116.25236428 243.71629015 114.4231479 238.93072153 112.67490292 234.12304783 C84.62490292 234.12304783 56.57490292 234.12304783 27.67490292 234.12304783 C24.70490292 242.70304783 21.73490292 251.28304783 18.67490292 260.12304783 C16.36490292 266.72304783 14.05490292 273.32304783 11.67490292 280.12304783 C-21.32509708 280.12304783 -54.32509708 280.12304783 -88.32509708 280.12304783 C-80.1343819 250.8704936 -80.1343819 250.8704936 -76.08974552 237.79589939 C-75.78355289 236.80529514 -75.47736027 235.8146909 -75.16188908 234.79406834 C-74.84449772 233.76825657 -74.52710636 232.7424448 -74.20009708 231.68554783 C-73.86594791 230.60188938 -73.53179874 229.51823093 -73.18752384 228.40173435 C-67.26167719 209.18979885 -61.1850925 190.02696402 -55.07509708 170.87304783 C-41.53617015 128.42665091 -28.03295411 85.97097774 -15.38759708 43.24804783 C-15.05980259 42.14078342 -14.73200809 41.03351902 -14.39428043 39.89270115 C-11.10146666 28.75075898 -7.83864644 17.60423126 -4.83072758 6.38137913 C-3.14288472 0.16632645 -3.14288472 0.16632645 0 0 Z M70.67490292 80.12304783 C64.90248526 94.38359015 60.34449976 108.67655551 56.48740292 123.56054783 C55.50161857 127.3321465 54.5083143 131.10165368 53.50693417 134.86914158 C53.2705624 135.76047794 53.03419064 136.65181431 52.79065609 137.57016087 C51.03893531 144.05815843 48.95385716 150.34423383 46.56430721 156.62329197 C45.56316586 158.99488454 45.56316586 158.99488454 45.67490292 161.12304783 C61.18490292 161.12304783 76.69490292 161.12304783 92.67490292 161.12304783 C89.78716695 148.99455678 86.98050796 137.23534336 83.25156307 125.40457249 C79.58344125 113.74571068 76.12327993 102.10870737 73.67490292 90.12304783 C73.45318417 89.0582822 73.23146542 87.99351658 73.00302792 86.89648533 C72.54330107 84.64133876 72.09735818 82.38540695 71.67490292 80.12304783 C71.34490292 80.12304783 71.01490292 80.12304783 70.67490292 80.12304783 Z " fill="#010101" transform="translate(592.3250970840454,2537.8769521713257)"/>
<path d="M0 0 C0.67975891 0.00182281 1.35951782 0.00364563 2.05987549 0.00552368 C12.61060714 0.05306345 22.50858022 0.66955296 32.75 3.3125 C33.42562988 3.47878906 34.10125977 3.64507813 34.79736328 3.81640625 C70.36550262 12.69405601 102.42607752 34.7190823 122.75 65.3125 C123.19601562 65.91191406 123.64203125 66.51132813 124.1015625 67.12890625 C126.80067101 70.79198208 126.80067101 70.79198208 126.5546875 73.31884766 C125.55814123 75.78783942 124.62157131 76.4392808 122.375 77.8359375 C121.65022461 78.29210449 120.92544922 78.74827148 120.17871094 79.21826172 C119.37723633 79.70311035 118.57576172 80.18795898 117.75 80.6875 C116.90985352 81.20715332 116.06970703 81.72680664 115.20410156 82.26220703 C107.37746413 87.04831096 99.36474262 91.49588615 91.33886719 95.93652344 C83.79931895 100.12156264 76.36868793 104.45851673 69 108.9375 C68.0419043 109.51741699 67.08380859 110.09733398 66.09667969 110.69482422 C62.49702934 112.89865201 59.07718056 115.04677399 55.796875 117.7109375 C53.75 119.3125 53.75 119.3125 50.75 119.3125 C49.3125 117.94921875 49.3125 117.94921875 47.75 116 C37.45117514 103.82277312 25.46497994 91.55835907 8.67382812 90.13671875 C-9.31402947 89.07414488 -23.83979496 93.44445687 -38 104.9375 C-49.10787996 115.42043571 -54.52859004 130.13248513 -55.34765625 145.1953125 C-55.15312604 151.40471673 -53.81346972 157.32320828 -52.25 163.3125 C-52.08757812 163.9621875 -51.92515625 164.611875 -51.7578125 165.28125 C-48.70937941 177.09979058 -43.77323213 185.07724679 -33.27905273 191.64257812 C-16.24518323 201.64737591 0.83354645 203.21895514 19.75 198.3125 C33.05668291 194.02862685 43.00624236 185.92813645 50.75 174.3125 C54.48093603 174.98706656 57.26000376 176.636234 60.5 178.56640625 C61.34308464 179.06513748 61.34308464 179.06513748 62.20320129 179.57394409 C63.41868268 180.29349414 64.63285679 181.01525608 65.84585571 181.73898315 C69.10347522 183.68248642 72.37035023 185.61031165 75.63671875 187.5390625 C76.3083757 187.93614914 76.98003265 188.33323578 77.67204285 188.74235535 C84.00378868 192.47846278 90.38918337 196.11682762 96.78479004 199.74215698 C107.26894045 205.68597123 117.6254344 211.77240794 127.75 218.3125 C126.25799646 222.61203708 124.01420912 226.14442053 121.375 229.8125 C120.93655762 230.42198486 120.49811523 231.03146973 120.04638672 231.65942383 C108.84105632 246.9048918 94.77213096 260.26638342 78.75 270.3125 C78.14704102 270.69148438 77.54408203 271.07046875 76.92285156 271.4609375 C54.88157017 285.0810554 29.98109708 291.86192587 4.11083984 291.35839844 C2.36908206 291.32453593 0.6271869 291.29757254 -1.11474609 291.27441406 C-44.59888176 290.61321231 -78.04960156 275.42351524 -108.71484375 244.85546875 C-114.72567416 238.48546746 -119.48012041 231.39159934 -124.16015625 224.02246094 C-125.07968021 222.57973114 -126.02173114 221.15139542 -126.96875 219.7265625 C-133.47226124 209.59077105 -137.62008008 197.98562819 -141.0625 186.5 C-141.257229 185.85603271 -141.45195801 185.21206543 -141.65258789 184.54858398 C-144.90877337 173.13687979 -145.5971654 161.95248784 -145.56567383 150.16064453 C-145.56253157 147.71210384 -145.58599316 145.2647971 -145.61132812 142.81640625 C-145.67217427 128.06793037 -143.98790764 113.66091576 -139.0625 99.6875 C-138.76279297 98.81561035 -138.46308594 97.9437207 -138.15429688 97.04541016 C-130.6759935 75.96353326 -118.39823197 58.62385033 -103.25 42.3125 C-102.69957031 41.70792969 -102.14914062 41.10335937 -101.58203125 40.48046875 C-84.99460585 22.99199802 -62.73870142 12.1772538 -39.9375 5.4375 C-38.97223389 5.15124756 -38.00696777 4.86499512 -37.01245117 4.57006836 C-24.70758866 1.09453753 -12.76461591 -0.05446868 0 0 Z " fill="#000000" transform="translate(373.25,2530.6875)"/>
<path d="M0 0 C93.06 0 186.12 0 282 0 C282 27.06 282 54.12 282 82 C253.29 82 224.58 82 195 82 C195 147.34 195 212.68 195 280 C160.02 280 125.04 280 89 280 C89 214.66 89 149.32 89 82 C59.63 82 30.26 82 0 82 C0 54.94 0 27.88 0 0 Z " fill="#000000" transform="translate(1136,2538)"/>
<path d="M0 0 C92.73 0 185.46 0 281 0 C281 27.06 281 54.12 281 82 C251.96 82 222.92 82 193 82 C193 147.34 193 212.68 193 280 C158.02 280 123.04 280 87 280 C87 214.66 87 149.32 87 82 C58.29 82 29.58 82 0 82 C0 54.94 0 27.88 0 0 Z " fill="#000000" transform="translate(3120,2538)"/>
<path d="M0 0 C2.56251795 -0.01355033 5.12496341 -0.02344419 7.6875 -0.03125 C8.40873047 -0.03543945 9.12996094 -0.03962891 9.87304688 -0.04394531 C14.68659822 -0.05493516 19.25814388 0.20969065 24 1 C27.21357665 11.88848418 30.02443343 22.85576607 32.75 33.875 C33.16514157 35.54562835 33.58050487 37.21620162 33.99609375 38.88671875 C34.99994442 42.92385089 36.00082202 46.96170896 37 51 C38.88765433 47.64978354 39.71760414 44.38834508 40.55078125 40.64453125 C40.97701782 38.76145264 40.97701782 38.76145264 41.41186523 36.84033203 C41.55904999 36.1814801 41.70623474 35.52262817 41.85787964 34.84381104 C44.48927884 23.08633008 47.41691596 11.50930024 51 0 C58.59 0 66.18 0 74 0 C74 25.74 74 51.48 74 78 C68.72 78 63.44 78 58 78 C57.67 61.83 57.34 45.66 57 29 C56.113125 33.2075 55.22625 37.415 54.3125 41.75 C52.39348876 50.76006901 50.41403345 59.74797237 48.1875 68.6875 C47.9810083 69.52313477 47.7745166 70.35876953 47.56176758 71.21972656 C46.1283064 76.8716936 46.1283064 76.8716936 45 78 C42.13732433 78.07325168 39.299281 78.09238205 36.4375 78.0625 C35.63119141 78.05798828 34.82488281 78.05347656 33.99414062 78.04882812 C31.99606244 78.03700518 29.99802217 78.01906914 28 78 C26.09344622 70.92476143 24.86278154 63.78087375 23.625 56.5625 C21.77167732 45.94001653 19.6712619 35.44627559 17 25 C16.32077742 42.6760451 15.84358469 60.30769061 16 78 C10.39 78 4.78 78 -1 78 C-1.1277575 51.98005633 -0.80624606 26.00786835 0 0 Z " fill="#000000" transform="translate(4767,2741)"/>
<path d="M0 0 C1.02448746 -0.00315216 2.04897491 -0.00630432 3.10450745 -0.009552 C4.74068275 -0.00651566 4.74068275 -0.00651566 6.40991211 -0.00341797 C7.54375839 -0.00437469 8.67760468 -0.00533142 9.84580994 -0.00631714 C12.23705094 -0.00699616 14.62829381 -0.00516127 17.01953125 -0.00097656 C20.67769509 0.00438053 24.33573643 -0.00093356 27.99389648 -0.00732422 C30.32006863 -0.00666349 32.6462407 -0.00538242 34.97241211 -0.00341797 C36.06521988 -0.0054422 37.15802765 -0.00746643 38.28395081 -0.009552 C39.3052861 -0.00639984 40.3266214 -0.00324768 41.37890625 0 C42.27348038 0.00079559 43.1680545 0.00159119 44.08973694 0.00241089 C46.72124097 0.13422764 49.08470158 0.42258099 51.62475586 1.12939453 C52.98803711 3.30908203 52.98803711 3.30908203 53.93725586 6.00439453 C54.26338867 6.88869141 54.58952148 7.77298828 54.92553711 8.68408203 C55.62475586 11.12939453 55.62475586 11.12939453 55.62475586 14.12939453 C46.88997359 15.02526964 38.46047564 15.12939453 29.62475586 15.12939453 C29.62475586 35.58939453 29.62475586 56.04939453 29.62475586 77.12939453 C25.62475586 78.12939453 25.62475586 78.12939453 11.62475586 78.12939453 C11.62475586 57.33939453 11.62475586 36.54939453 11.62475586 15.12939453 C4.36475586 15.12939453 -2.89524414 15.12939453 -10.37524414 15.12939453 C-10.70524414 10.50939453 -11.03524414 5.88939453 -11.37524414 1.12939453 C-7.29052867 0.44860862 -4.03343032 0.00358396 0 0 Z " fill="#000000" transform="translate(4706.375244140625,2740.87060546875)"/>
</svg>
