<?xml version="1.0" encoding="utf-8"?>
<!-- Generator: Adobe Illustrator 16.0.0, SVG Export Plug-In . SVG Version: 6.00 Build 0)  -->
<!DOCTYPE svg PUBLIC "-//W3C//DTD SVG 1.1//EN" "http://www.w3.org/Graphics/SVG/1.1/DTD/svg11.dtd">
<svg version="1.1" id="Layer_1" xmlns="http://www.w3.org/2000/svg" xmlns:xlink="http://www.w3.org/1999/xlink" x="0px" y="0px"
	 width="1000px" height="479.349px" viewBox="0 0 1000 479.349" enable-background="new 0 0 1000 479.349" xml:space="preserve">
<g>
	<path fill="#FFFFFF" d="M961.668,291.513l-60.59-86.498c-1.281-1.797-3.286-2.973-5.496-3.196l-32.854-3.527v-31.003
		c0-1.902-0.83-3.717-2.263-4.944l-17.629-14.914l11.907-71.513c0.328-1.971,0.484-3.957,0.484-5.962V53.709
		c0-1.866-0.986-3.578-2.576-4.527L782.47,8.015c-1.677-0.969-3.647-1.349-5.549-1.054L673.246,22.775
		c-1.71,0.259-2.974,1.71-2.974,3.455v2.246l-89.366-15.501c-1.691-0.311-3.316,0.708-3.801,2.351l-4.807,16.867l-36.568-19.65
		c-1.728-0.916-3.696-1.244-5.599-0.864L427.476,30.481c-1.692,0.33-2.956,1.814-2.956,3.544V47.85l-33.147-4.407V30.291
		c0-1.692-1.297-3.109-2.99-3.266l-102.242-9.54c-1.175-0.085-2.212,0.502-2.765,1.471L260.633,1.586
		c-1.555-1.175-3.456-1.728-5.391-1.556L176.97,7.479c-1.884,0.156-3.594,1.21-4.683,2.766l-41.772,62.146
		c-1.088,1.607-1.659,3.526-1.659,5.478v34.721c0,1.851,0.951,3.561,2.541,4.527l7.397,4.478l-14.328,19.027
		c-1.158,1.538-1.814,3.422-1.814,5.373l0.034,29.52l-27.479-3.646c-2.038-0.276-4.042,0.846-4.838,2.764L1.384,381.983
		C0.502,384.075,0,386.356,0,388.655v32.195c0,2.109,1.279,4.01,3.232,4.84l116.102,49.375c1.712,0.726,3.681-0.189,4.216-1.971
		l21.845-70.961l17.939,32.164c0.83,1.451,2.87,1.623,3.906,0.328l21.88-26.72l4.095,68.61c0.104,1.851,1.815,3.129,3.646,2.766
		l92.321-19.01l65.5,12.34c1.901,0.346,3.699-0.899,4.01-2.783l7.621-44.984l10.335-1.574l9.487,45.574
		c0.381,1.865,2.212,3.127,4.114,2.766l63.304-11.943l0.846,7.017c0.208,1.901,1.92,3.319,3.838,3.13l100.962-9.057l7.847,11.925
		c1.104,1.677,3.283,2.314,5.08,1.502l48.944-21.827v14.57c0,1.882,1.59,3.369,3.456,3.23l96.607-6.583
		c2.058-0.156,3.734-1.677,4.078-3.665l3.804-21.136l0.776,2.351c0.71,2.074,2.351,3.682,4.442,4.355l98.542,31.711
		c2.109,0.71,4.425,0.536,6.463-0.413l94.311-44.52c1.986-0.933,3.473-2.712,3.991-4.855l25.284-100.462
		c0.571-2.23,0.847-4.545,0.847-6.826v-22.278C963.673,295.591,962.965,293.36,961.668,291.513"/>
	<path fill="#010101" d="M950.366,300.015l-22.675,90.143c-0.519,2.109-2.005,3.906-3.992,4.84l-85.27,40.268
		c-2.022,0.934-4.339,1.071-6.482,0.397l-88.658-28.515c-2.071-0.692-3.748-2.299-4.439-4.373l-13.36-39.196l-10.022,56.288
		c-0.364,1.987-2.074,3.508-4.097,3.646l-74.85,5.116c-1.848,0.121-3.403-1.382-3.316-3.248l0.759-20.583l-57.55,25.697
		c-1.832,0.795-4.009,0.19-5.114-1.486l-23.159-35.254l0.83,23.711c0.085,1.917-1.417,3.63-3.335,3.783l-77.235,6.913
		c-1.918,0.19-3.663-1.191-3.871-3.127l-0.95-8.105l-64.341,12.097c-1.902,0.364-3.734-0.88-4.132-2.766l-9.401-45.156
		l-29.362,4.389l-7.07,41.667c-0.292,1.884-2.107,3.146-3.991,2.8l-56.185-10.595l-81.554,16.8
		c-1.798,0.362-3.509-0.933-3.596-2.766l-5.114-84.787l-29.76,36.45c-1.072,1.277-3.076,1.071-3.923-0.364l-22.847-40.89
		l-25.993,84.51c-0.553,1.779-2.505,2.695-4.25,1.987l-97.317-41.408c-1.797-0.743-2.592-2.8-1.832-4.563l84.614-197.206
		c0.829-1.884,2.799-2.991,4.839-2.714l62.493,8.261c2.107,0.277,3.889,1.729,4.563,3.767l11.787,34.945l15.034-29.035l-5.668,0.123
		c-1.936,0.033-3.837-0.641-5.288-1.884l-50.534-42.826c-1.451-1.191-2.281-3.024-2.281-4.908l-0.017-3.63
		c0-1.936,0.639-3.837,1.797-5.375l30.331-40.283l-23.4-14.188c-1.59-0.969-2.575-2.681-2.575-4.529v-4.042
		c0-1.938,0.588-3.838,1.677-5.463l37.572-55.837c1.071-1.574,2.765-2.612,4.666-2.767l69.854-6.636
		c1.901-0.19,3.803,0.379,5.357,1.52l33.942,25.906l0.416-6.722c0.138-1.607,1.555-2.853,3.179-2.696l81.781,7.62
		c1.624,0.156,2.799,1.644,2.522,3.25l-2.04,12.461l60.281,7.967l-2.127-17.508c-0.19-1.643,0.953-3.181,2.576-3.491l90.265-16.557
		c1.918-0.344,3.889-0.033,5.583,0.866l44.276,23.813l5.737-20.116c0.467-1.625,2.092-2.644,3.768-2.351l93.98,16.279l-0.605-5.927
		c-0.172-1.676,0.987-3.181,2.646-3.422l91.042-13.878c1.902-0.294,3.871,0.069,5.565,1.054l61.369,36.018
		c1.556,0.897,2.401,2.694,2.091,4.458l-10.976,66.175c-0.328,1.848-1.433,3.524-3.058,4.545l-13.548,8.38l34.27,29.104
		c1.451,1.21,2.281,3.025,2.281,4.927v5.668c0,1.814-1.089,3.439-2.748,4.165l-50.844,21.43l89.781,9.628
		c2.212,0.223,4.198,1.399,5.478,3.196l54.612,77.925C950.486,295.606,950.92,297.872,950.366,300.015 M963.673,320.114v-22.278
		c0-2.245-0.708-4.476-2.005-6.323l-60.607-86.463c-1.264-1.831-3.269-3.025-5.479-3.248l-32.854-3.527V167.27
		c0-1.884-0.83-3.698-2.281-4.908l-17.61-14.947l11.89-71.515c0.313-1.953,0.502-3.939,0.502-5.929V53.692
		c0-1.849-0.986-3.577-2.576-4.527L782.487,8.015c-1.694-0.969-3.665-1.33-5.566-1.054L673.246,22.757
		c-1.694,0.276-2.974,1.745-2.974,3.455v2.248l-89.366-15.503c-1.691-0.277-3.316,0.743-3.783,2.351l-4.824,16.867L535.73,12.527
		c-1.728-0.918-3.696-1.229-5.599-0.866L427.476,30.499c-1.728,0.313-2.956,1.797-2.956,3.526V47.85l-33.147-4.407V30.291
		c0-1.692-1.297-3.127-2.99-3.266l-102.242-9.54c-1.175-0.104-2.212,0.502-2.765,1.452L260.633,1.586
		c-1.555-1.175-3.474-1.746-5.391-1.538L176.97,7.479c-1.884,0.172-3.612,1.192-4.667,2.766l-41.806,62.146
		c-1.071,1.607-1.642,3.509-1.642,5.46v34.723c0,1.866,0.951,3.576,2.541,4.543l7.397,4.478l-14.328,19.01
		c-1.158,1.571-1.78,3.458-1.78,5.375v29.518l-27.479-3.612c-2.038-0.292-4.026,0.847-4.838,2.732L1.366,381.983
		C0.484,384.093,0,386.356,0,388.655v32.195c0,2.109,1.262,4.027,3.232,4.84l116.102,49.375c1.729,0.743,3.681-0.172,4.216-1.971
		l21.845-70.943l17.939,32.146c0.83,1.434,2.87,1.623,3.923,0.328l21.862-26.72l4.112,68.628c0.104,1.833,1.833,3.128,3.612,2.748
		l92.339-18.992l65.5,12.322c1.901,0.361,3.682-0.899,4.01-2.766l7.621-45.002l10.335-1.538l9.487,45.538
		c0.381,1.884,2.247,3.127,4.114,2.748l63.322-11.892l0.795,6.982c0.241,1.919,1.969,3.319,3.904,3.146l100.929-9.09l7.847,11.958
		c1.104,1.661,3.248,2.299,5.099,1.486l48.926-21.809v14.552c0,1.866,1.556,3.353,3.456,3.23l96.607-6.602
		c2.058-0.138,3.734-1.643,4.078-3.663l3.785-21.085l0.795,2.316c0.71,2.074,2.351,3.697,4.442,4.371l98.509,31.695
		c2.143,0.692,4.458,0.536,6.496-0.396l94.311-44.519c1.986-0.969,3.455-2.748,3.991-4.873l25.284-100.444
		C963.397,324.71,963.673,322.413,963.673,320.114"/>
	<path fill="#010101" d="M782.937,80.462l-4.979,32.75l-28.532,4.545l-1.486-49.617L782.937,80.462z M707.861,48.024l-7.708,45.763
		l10.059,97.661c0.122,1.297,1.279,2.281,2.609,2.179l36.518-3.215c1.349-0.122,2.333-1.245,2.316-2.594l-1.486-47.042l1.779-0.361
		l33.372,51.172c0.761,1.158,2.248,1.641,3.525,1.089l45.142-19.045c1.021-0.415,1.21-1.762,0.38-2.472l-41.321-35.048
		l24.473-15.209c1.294-0.813,2.194-2.143,2.436-3.629l8.71-52.347c0.243-1.418-0.449-2.835-1.677-3.578L776.61,31.795
		c-1.349-0.777-2.904-1.071-4.458-0.847l-74.885,11.405c-0.467,0.104-0.864,0.313-1.192,0.589l9.315,1.625
		C707.033,44.843,708.139,46.38,707.861,48.024"/>
	<path fill="#010101" d="M578.279,185.26c0.156,1.004,1.002,1.747,2.04,1.764l108.981,3.854c0.898,0.034,1.625-0.761,1.486-1.66
		l-5.842-38.349c-0.172-0.95-1.054-1.606-2.005-1.486l-54.196,7.984l-3.871-26.512l43.759,6.585
		c0.933,0.156,1.833-0.518,1.953-1.451l3.802-28.999c0.12-0.899-0.605-1.728-1.538-1.728l-45.002-0.692l6.844-24.905l49.944,15.055
		c0.882,0.259,1.797-0.311,1.969-1.21l6.034-35.844c0.153-0.95-0.484-1.85-1.436-2.004l-95.656-16.608
		c-0.969-0.138-1.92,0.449-2.196,1.399l-3.594,12.548l5.841,3.128c1.59,0.863,2.454,2.609,2.213,4.389l-9.298,62.752
		c-0.276,1.936-1.191,3.682-2.611,5.012l-14.637,13.93L578.279,185.26z"/>
	<path fill="#010101" d="M537.892,84.125l-4.855,30.106l-28.379,4.976l-2.919-47.473L537.892,84.125z M460.312,62.489
		c1.625,0.207,2.766,1.728,2.489,3.353l-6.637,39.212l10.369,85.254c0.139,1.314,1.348,2.281,2.679,2.125l37.312-3.732
		c1.349-0.138,2.351-1.278,2.281-2.643l-2.176-34.928l35.704-1.953c1.538-0.088,3.007-0.726,4.147-1.779l27.271-25.995
		c1.141-1.071,1.866-2.471,2.109-4.024l7.396-50.137c0.207-1.417-0.519-2.816-1.781-3.509l-50.791-27.305
		c-1.384-0.726-2.938-0.984-4.46-0.674l-74.417,13.618c-1.314,0.277-2.247,1.469-2.073,2.817l1.107,9.057L460.312,62.489z"/>
	<path fill="#010101" d="M306.188,124.03l0.554,2.196c0.484,1.882,0.328,3.853-0.449,5.634l-9.125,20.53l-0.104,1.849
		c-0.104,1.522,0.501,2.991,1.624,4.028l31.558,28.221c1.158,1.021,2.645,1.607,4.183,1.643l69.18,1.797
		c1.504,0.034,2.991-0.604,3.958-1.763l24.352-27.617c1.018-1.192,1.71-2.628,1.987-4.166l13.463-79.704
		c0.225-1.297-0.692-2.489-1.987-2.697l-54.958-7.274c-1.244-0.139-2.333,0.863-2.264,2.092l3.301,73.104l-43.379,2.817
		l15.347-94.362c0.208-1.278-0.726-2.471-2.004-2.591l-54.94-5.116c-1.297-0.105-2.454,0.881-2.54,2.176l-0.139,2.489l6.119,4.667
		c1.502,1.159,2.505,2.887,2.73,4.786l0.346,2.73c0.241,1.901-0.313,3.819-1.487,5.324l-9.574,12.097l-2.523,40.251l3.526,2.315
		C304.564,120.556,305.722,122.199,306.188,124.03"/>
	<path fill="#010101" d="M267.823,185.573l24.144-54.474c0.552-1.262,0.121-2.748-1.056-3.509l-73.207-47.991l12.356-20.117
		L272.61,88.55c1.124,0.759,2.644,0.535,3.475-0.536l20.704-26.199c0.846-1.021,0.656-2.522-0.398-3.317l-43.81-33.441
		c-1.21-0.934-2.765-1.366-4.286-1.21l-59.486,5.634c-1.502,0.154-2.869,0.967-3.715,2.211l-31.695,47.096
		c-0.726,1.089-0.397,2.573,0.725,3.248l77.339,46.921l-15.831,21.412l-41.201-34.58c-1.002-0.83-2.489-0.641-3.249,0.38
		l-24.092,31.971c-0.83,1.089-0.64,2.594,0.363,3.476l42.394,35.928c1.192,0.986,2.696,1.538,4.25,1.505l70.339-1.229
		C265.904,187.785,267.236,186.92,267.823,185.573"/>
	<path fill="#010101" d="M823.791,353.296l-31.245-32.975l22.466-38.437l41.702,11.13l5.15,41.462L823.791,353.296z
		 M885.367,230.229c-1.02-1.434-2.609-2.385-4.391-2.609l-93.167-11.303c-1.729-0.189-3.44,0.503-4.527,1.866l-41.08,51.744
		l-11.563,65.05l19.46,55.873c0.588,1.641,1.918,2.956,3.561,3.491l77.856,25.267c1.694,0.569,3.543,0.467,5.201-0.276
		l74.037-33.649c1.589-0.726,2.781-2.158,3.232-3.835l20.116-79.36c0.432-1.694,0.067-3.527-0.933-4.979L885.367,230.229z"/>
	<path fill="#010101" d="M731.262,224.837L660.129,207.9c-1.417-0.328-2.766,0.691-2.835,2.143l-6.083,158.409l8.779,7.241
		c1.692,1.382,2.489,3.543,2.213,5.652l-1.141,8.156c-0.295,2.161-1.694,3.994-3.666,4.857l-7.292,3.266l-0.432,11.492
		c-0.068,1.504,1.157,2.696,2.679,2.594l46.281-3.163c1.625-0.103,2.974-1.313,3.267-2.938l31.593-177.385
		C733.751,226.704,732.782,225.217,731.262,224.837"/>
	<path fill="#010101" d="M565.87,303.316l-36.568,8.467l-2.092-58.604l43.311,11.648L565.87,303.316z M586.989,335.892
		l34.877-20.271c1.521-0.881,2.609-2.384,2.938-4.131l12.15-62.992c0.292-1.625-0.434-3.266-1.884-4.132l-70.754-41.147
		c-1.556-0.899-3.389-1.263-5.186-0.933l-99.926,16.123c-1.538,0.241-2.626,1.641-2.454,3.197l13.93,119.212l24.144,69.128
		l35.118-3.145c1.554-0.139,2.748-1.47,2.679-3.043l-2.179-61.697l2.317-0.467l44.794,68.093c0.864,1.33,2.594,1.833,4.061,1.175
		l59.885-26.701c1.174-0.52,1.382-2.073,0.379-2.919L586.989,335.892z"/>
	<path fill="#010101" d="M351.071,321.722l9.021-53.456l18.578,1.471l11.13,53.385L351.071,321.722z M412.613,222.728
		c-0.554-1.606-2.005-2.729-3.699-2.92l-82.988-8.484c-1.625-0.156-3.111,0.846-3.578,2.384l-27.357,94.136l20.324,100.391
		l17.697,3.337c1.52,0.277,2.973-0.728,3.214-2.212l6.395-37.761l55.579-8.331l9.402,45.297c0.328,1.503,1.815,2.472,3.317,2.194
		l60.505-11.389c1.436-0.277,2.299-1.764,1.814-3.146L412.613,222.728z"/>
	<path fill="#010101" d="M261.152,220.742c-0.345-1.641-1.693-2.887-3.318-3.094l-45.521-6.119c-1.677-0.241-3.284,0.59-4.044,2.092
		l-30.192,58.154l-20.773-61.645c-0.553-1.607-1.97-2.799-3.665-3.007l-42.133-5.581c-1.607-0.225-3.197,0.69-3.854,2.194
		l-74.21,172.925c-0.622,1.418,0.052,3.043,1.469,3.663l67.815,28.81c1.366,0.588,2.956-0.139,3.371-1.556l31.954-103.849
		l29.95,53.54c0.605,1.177,2.246,1.297,3.111,0.295l41.131-50.326l6.446,107.687c0.122,1.469,1.47,2.504,2.922,2.212l73.449-15.14
		c1.538-0.313,2.506-1.764,2.212-3.268L261.152,220.742z"/>
	<polygon fill="#010101" points="954.616,427.782 962.982,427.782 962.982,449.263 966.541,449.263 966.541,427.782 
		974.907,427.782 974.907,424.239 954.616,424.239 	"/>
	<polygon fill="#010101" points="996.439,424.239 988.785,440.433 981.129,424.239 977.586,424.239 977.586,449.263 
		981.129,449.263 981.129,432.706 981.336,432.706 987.299,445.151 987.886,445.151 989.665,445.151 990.27,445.151 
		996.232,432.706 996.439,432.706 996.439,449.263 1000,449.263 1000,424.239 	"/>
</g>
</svg>
