<?xml version="1.0" encoding="UTF-8"?>
<svg version="1.1" xmlns="http://www.w3.org/2000/svg" width="3840" height="2160">
<path d="M0 0 C6.13156518 0.00816051 12.26310996 -0.00138727 18.39467296 -0.00851054 C29.15074747 -0.01862857 39.90676342 -0.01783804 50.66283593 -0.00945991 C62.24848104 -0.00049649 73.83410004 0.00174372 85.41974757 -0.00383255 C86.52726098 -0.00435945 86.52726098 -0.00435945 87.65714841 -0.004897 C91.42793553 -0.00671985 95.19872259 -0.00864648 98.96950965 -0.01060784 C126.42003432 -0.02465863 153.87054333 -0.02399382 181.32106951 -0.0157652 C209.1262398 -0.00747528 236.9313992 -0.00575369 264.73657015 -0.01197721 C266.05422331 -0.01226752 266.05422331 -0.01226752 267.39849572 -0.0125637 C275.44936229 -0.01433843 283.50022884 -0.01618015 291.55109538 -0.01810233 C311.73576039 -0.0229137 331.92042554 -0.02668219 352.10509089 -0.02974345 C353.02983167 -0.02988415 353.95457245 -0.03002485 354.90733567 -0.03016982 C400.44772427 -0.03699962 445.98811092 -0.03240054 491.5284994 -0.02665998 C493.52242881 -0.02640907 495.51635822 -0.02615817 497.51028763 -0.02590729 C498.99259407 -0.02572074 498.99259407 -0.02572074 500.5048461 -0.02553042 C513.53742243 -0.02389078 526.56999876 -0.02228095 539.6025751 -0.02075054 C540.59883483 -0.02063305 541.59509456 -0.02051557 542.62154398 -0.02039453 C588.82189867 -0.01498702 635.02225239 -0.01627758 681.22260722 -0.0190419 C686.26512564 -0.0193413 691.30764406 -0.01962779 696.35016248 -0.01991573 C711.54950376 -0.02078753 726.74884503 -0.02167835 741.94818631 -0.02260853 C788.29539443 -0.0254419 834.64260255 -0.02724278 880.98981074 -0.02815343 C882.02170151 -0.02817404 883.05359229 -0.02819464 884.11675248 -0.02821587 C950.92865148 -0.02953178 1017.7405494 -0.02623136 1084.55244807 -0.0196047 C1085.61878868 -0.01949934 1086.68512929 -0.01939399 1087.78378326 -0.01928544 C1123.4992808 -0.01575654 1159.21477831 -0.01198827 1194.93027582 -0.00819555 C1302.92919771 0.00326535 1410.9281157 0.00954658 1603.80210456 -0.00854154 C1639.50865521 -0.01233127 1675.21520586 -0.01607688 1710.92175654 -0.0196047 C1711.98779865 -0.01971043 1713.05384076 -0.01981616 1714.15218718 -0.0199251 C1780.92958956 -0.02654266 1847.70699117 -0.02948688 1914.48439387 -0.02815343 C1915.51593912 -0.02813316 1916.54748437 -0.0281129 1917.61028856 -0.02809201 C1963.9319094 -0.02717178 2010.25353016 -0.02525673 2056.57515092 -0.02242192 C2071.7677202 -0.02149331 2086.96028949 -0.0206103 2102.15285878 -0.01974278 C2107.19246665 -0.0194548 2112.23207452 -0.01916274 2117.27168238 -0.0188612 C2163.47166525 -0.01610533 2209.67164681 -0.01530244 2255.87162951 -0.02075054 C2257.36506865 -0.02092591 2257.36506865 -0.02092591 2258.88867828 -0.02110483 C2271.91375786 -0.02264012 2284.93883742 -0.02426806 2297.96391698 -0.02590729 C2298.95133786 -0.02603153 2299.93875873 -0.02615577 2300.95610145 -0.02628378 C2302.94821302 -0.02653446 2304.94032459 -0.02678535 2306.93243616 -0.02703647 C2352.41132943 -0.03275434 2397.89022037 -0.03666329 2443.36911372 -0.02974345 C2444.75439154 -0.02953335 2444.75439154 -0.02953335 2446.16765476 -0.02931901 C2466.31960787 -0.02622798 2486.47156071 -0.02226896 2506.62351347 -0.0174576 C2514.66155378 -0.01555003 2522.69959412 -0.01374819 2530.73763445 -0.01197721 C2531.6144222 -0.01178096 2532.49120995 -0.01158471 2533.39456702 -0.01138252 C2561.16178786 -0.00521647 2588.92899744 -0.00820398 2616.69621744 -0.01652752 C2644.05871707 -0.02468886 2671.42119907 -0.02365488 2698.78369675 -0.00942243 C2702.54061681 -0.00746931 2706.29753691 -0.00561992 2710.05445704 -0.00383255 C2710.78987767 -0.00347858 2711.5252983 -0.00312462 2712.2830044 -0.00275993 C2723.82621598 0.00252592 2735.36940037 -0.00210536 2746.91260875 -0.01109661 C2758.23772991 -0.01971037 2769.56279653 -0.01724303 2780.88791743 -0.00408619 C2786.9039937 0.00260217 2792.91996914 0.00482225 2798.93604071 -0.00653574 C2831.61723797 -0.06397013 2863.82787026 0.98332526 2896.1746023 6.06972598 C2896.98620814 6.19439242 2897.79781397 6.31905886 2898.63401393 6.44750308 C2927.09917844 10.84583166 2954.84974435 17.47144931 2982.2371023 26.38222598 C2983.27109156 26.71722109 2984.30508082 27.05221621 2985.37040309 27.3973627 C3036.78482973 44.23380656 3085.60713683 70.06658924 3128.2371023 103.38222598 C3129.14073512 104.08476504 3130.04436793 104.7873041 3130.97538355 105.51113223 C3146.93510325 118.11091094 3161.72317022 131.78701199 3176.1121023 146.13222598 C3176.61046595 146.62791079 3177.1088296 147.12359561 3177.62229518 147.63430117 C3183.38082319 153.36934242 3188.97993803 159.18049579 3194.2371023 165.38222598 C3195.12572558 166.40366839 3196.01500663 167.4245391 3196.90507105 168.44472598 C3204.0787174 176.80841909 3210.75272636 185.47534566 3217.2371023 194.38222598 C3217.7335525 195.06301211 3218.2300027 195.74379824 3218.74149684 196.44521426 C3277.619804 277.5634551 3306.74334961 375.07169866 3303.2371023 532.38222598 C3303.07613062 533.66967715 3302.91515895 534.95712832 3302.74930934 536.28359316 C3298.22178588 571.32949519 3289.30173988 605.20917642 3277.2371023 638.38222598 C3276.60916773 640.11085879 3276.60916773 640.11085879 3275.96854762 641.87441348 C3261.09859087 682.1121998 3239.73616352 720.66058454 3213.2371023 754.38222598 C3212.39389653 755.47930016 3211.55149329 756.57699148 3210.70975855 757.67519473 C3194.51779847 778.68121922 3176.41139529 799.66023147 3156.10038355 816.79628848 C3153.88239046 818.68414004 3151.75468075 820.6592539 3149.6121023 822.63222598 C3143.41114716 828.21875721 3136.85685705 833.30719459 3130.2371023 838.38222598 C3129.61029566 838.86594668 3128.98348902 839.34966738 3128.33768824 839.84804629 C3053.75392388 897.29309103 2963.22199497 929.67146924 2791.31074428 942.76445195 C2785.19077036 942.75628127 2779.07081668 942.76584268 2772.95084492 942.7729625 C2762.21832013 942.78307413 2751.48585404 942.78229469 2740.75333126 942.77391187 C2729.19456828 942.76494463 2717.63583146 942.76271073 2706.07706605 942.7682845 C2705.34011019 942.76863577 2704.60315432 942.76898704 2703.84386645 942.76934896 C2700.08008282 942.77117183 2696.31629924 942.77309846 2692.55251568 942.77505979 C2665.16133126 942.78910623 2637.77016255 942.78844783 2610.37897662 942.78021716 C2582.63592358 942.77192577 2554.89288146 942.77020682 2527.14982775 942.77642916 C2526.27319198 942.7766227 2525.39655622 942.77681625 2524.49335573 942.77701565 C2516.45892762 942.7787904 2508.42449953 942.78063212 2500.39007146 942.78255429 C2480.2470861 942.78736551 2460.10410062 942.79113406 2439.96111492 942.7941954 C2439.03830746 942.7943361 2438.11550001 942.79447681 2437.16472869 942.79462178 C2391.72495864 942.80145077 2346.28519055 942.79685286 2300.84542063 942.79111193 C2298.85602375 942.79086102 2296.86662686 942.79061013 2294.87722997 942.79035925 C2293.89127164 942.79023488 2292.90531331 942.79011051 2291.88947745 942.78998238 C2278.88645703 942.78834273 2265.88343662 942.78673289 2252.88041619 942.78520249 C2251.88641028 942.78508501 2250.89240436 942.78496752 2249.86827706 942.78484648 C2203.76836496 942.7794385 2157.66845384 942.7807297 2111.56854161 942.78349386 C2106.53669527 942.78379325 2101.50484893 942.78407975 2096.4730026 942.78436768 C2081.30578011 942.78523948 2066.13855762 942.78613031 2050.97133513 942.78706048 C2004.72250979 942.78989382 1958.47368445 942.79169472 1912.22485903 942.79260539 C1911.19517046 942.79262599 1910.16548189 942.7926466 1909.10459063 942.79266783 C1842.43786072 942.79398369 1775.77113191 942.79068355 1709.10440234 942.78405665 C1707.50842515 942.78389862 1707.50842515 942.78389862 1705.88020601 942.78373739 C1670.24379445 942.78020852 1634.60738291 942.77644023 1598.97097138 942.7726475 C1491.20879759 942.76118632 1383.44662771 942.75490575 1190.99176862 942.7729935 C1155.36181748 942.77678322 1119.73186633 942.78052884 1084.10191516 942.78405665 C1082.50627902 942.78421525 1082.50627902 942.78421525 1080.87840781 942.78437706 C1014.2441915 942.7909946 947.60997594 942.79393884 880.9757593 942.79260539 C879.94642936 942.79258512 878.91709942 942.79256485 877.85657767 942.79254397 C831.63452023 942.79162374 785.41246287 942.78970869 739.19040551 942.78687388 C724.03054248 942.78594527 708.87067945 942.78506226 693.71081642 942.78419473 C688.68206962 942.78390676 683.65332282 942.78361469 678.62457602 942.78331316 C632.52476266 942.78055732 586.42495061 942.77975431 540.32513741 942.78520249 C539.33168574 942.78531941 538.33823407 942.78543632 537.31467781 942.78555678 C524.31808046 942.78709207 511.32148312 942.78872001 498.32488579 942.79035925 C497.33962653 942.79048349 496.35436727 942.79060773 495.33925166 942.79073573 C493.35150181 942.79098641 491.36375197 942.79123731 489.37600212 942.79148842 C443.99681513 942.79720628 398.61763047 942.80111525 353.23844341 942.7941954 C352.3169495 942.79405534 351.39545558 942.79391527 350.44603761 942.79377097 C330.33828081 942.79067994 310.23052426 942.78672092 290.1227678 942.78190955 C282.10237013 942.78000199 274.08197243 942.77820015 266.06157473 942.77642916 C265.1867121 942.77623292 264.31184946 942.77603667 263.41047584 942.77583447 C235.70446049 942.76966847 207.99845642 942.77265587 180.29244191 942.78097948 C152.9902202 942.78914089 125.68801616 942.7881067 98.38579639 942.77387438 C94.63711971 942.77192126 90.88844297 942.77007188 87.13976621 942.7682845 C86.40595972 942.76793054 85.67215323 942.76757657 84.91611019 942.76721188 C73.39846118 942.76192613 61.88083942 942.76655719 50.36319362 942.77554857 C39.06303986 942.78416253 27.76294076 942.78169466 16.46278726 942.76853815 C10.46003304 942.76185 4.45737987 942.75962919 -1.54536964 942.7709877 C-27.45162033 942.8166403 -52.99980752 942.2587626 -78.7628977 939.38222598 C-79.74728932 939.27268324 -80.73168095 939.16314051 -81.74590263 939.0502783 C-86.62077658 938.49681401 -91.47261577 937.85990762 -96.3253977 937.13222598 C-97.0225086 937.02962466 -97.7196195 936.92702334 -98.43785497 936.82131289 C-156.01097661 928.30286939 -210.74805712 910.45486864 -262.7628977 884.38222598 C-263.60530004 883.96231387 -264.44770238 883.54240176 -265.31563207 883.10976504 C-290.36326509 870.54234952 -313.87069878 854.83524525 -335.7628977 837.38222598 C-336.38615941 836.88899844 -337.00942113 836.3957709 -337.65156957 835.88759707 C-345.96081717 829.29897172 -353.99254463 822.5183329 -361.7003977 815.23378848 C-363.96064166 813.1016737 -366.28135814 811.05637321 -368.63399145 809.02675723 C-372.8742577 805.33580049 -376.86302281 801.43016027 -380.8253977 797.44472598 C-381.4937766 796.78021426 -382.16215551 796.11570254 -382.85078832 795.4310541 C-387.36051613 790.91256103 -391.60109935 786.22074937 -395.7628977 781.38222598 C-396.82013931 780.17921342 -397.87870273 778.97736102 -398.93867895 777.77675723 C-405.87507472 769.87515544 -412.50294492 761.83177931 -418.7628977 753.38222598 C-419.24694066 752.73479434 -419.73098363 752.0873627 -420.22969457 751.42031191 C-468.03499038 687.30816551 -497.8555074 611.62151374 -507.7628977 532.38222598 C-507.92515844 531.12313418 -508.08741918 529.86404238 -508.25459691 528.56679629 C-520.06805318 432.86439 -501.39074232 333.7338233 -414.6378977 185.00722598 C-408.57307174 177.26664817 -402.29151565 169.7350623 -395.7628977 162.38222598 C-394.47319066 160.92429629 -394.47319066 160.92429629 -393.15742895 159.43691348 C-386.36626025 151.88052515 -379.18394183 144.70011013 -372.0128977 137.50722598 C-371.51712224 137.00877169 -371.02134679 136.51031741 -370.51054784 135.99675845 C-364.7755985 130.23832224 -358.96452867 124.63930615 -352.7628977 119.38222598 C-351.74145528 118.4936027 -350.72058457 117.60432165 -349.7003977 116.71425723 C-341.33670459 109.54061088 -332.66977801 102.86660192 -323.7628977 96.38222598 C-323.08211156 95.88577578 -322.40132543 95.38932559 -321.69990941 94.87783145 C-269.43515845 56.94234333 -210.40680643 30.69252859 -147.7628977 15.38222598 C-146.23898412 15.00058291 -146.23898412 15.00058291 -144.68428441 14.61122988 C-130.3276933 11.05079529 -115.87177081 8.44818631 -101.2628977 6.19472598 C-100.50112218 6.07402743 -99.73934667 5.95332888 -98.95448705 5.8289728 C-66.04025812 0.66591301 -33.24123976 -0.06275752 0 0 Z " fill="#FFFEFE" transform="translate(515.7628976954147,609.6177740227431)"/>
<path d="M0 0 C6.13156518 0.00816051 12.26310996 -0.00138727 18.39467296 -0.00851054 C29.15074747 -0.01862857 39.90676342 -0.01783804 50.66283593 -0.00945991 C62.24848104 -0.00049649 73.83410004 0.00174372 85.41974757 -0.00383255 C86.52726098 -0.00435945 86.52726098 -0.00435945 87.65714841 -0.004897 C91.42793553 -0.00671985 95.19872259 -0.00864648 98.96950965 -0.01060784 C126.42003432 -0.02465863 153.87054333 -0.02399382 181.32106951 -0.0157652 C209.1262398 -0.00747528 236.9313992 -0.00575369 264.73657015 -0.01197721 C266.05422331 -0.01226752 266.05422331 -0.01226752 267.39849572 -0.0125637 C275.44936229 -0.01433843 283.50022884 -0.01618015 291.55109538 -0.01810233 C311.73576039 -0.0229137 331.92042554 -0.02668219 352.10509089 -0.02974345 C353.02983167 -0.02988415 353.95457245 -0.03002485 354.90733567 -0.03016982 C400.44772427 -0.03699962 445.98811092 -0.03240054 491.5284994 -0.02665998 C493.52242881 -0.02640907 495.51635822 -0.02615817 497.51028763 -0.02590729 C498.99259407 -0.02572074 498.99259407 -0.02572074 500.5048461 -0.02553042 C513.53742243 -0.02389078 526.56999876 -0.02228095 539.6025751 -0.02075054 C540.59883483 -0.02063305 541.59509456 -0.02051557 542.62154398 -0.02039453 C588.82189867 -0.01498702 635.02225239 -0.01627758 681.22260722 -0.0190419 C686.26512564 -0.0193413 691.30764406 -0.01962779 696.35016248 -0.01991573 C711.54950376 -0.02078753 726.74884503 -0.02167835 741.94818631 -0.02260853 C788.29539443 -0.0254419 834.64260255 -0.02724278 880.98981074 -0.02815343 C882.02170151 -0.02817404 883.05359229 -0.02819464 884.11675248 -0.02821587 C950.92865148 -0.02953178 1017.7405494 -0.02623136 1084.55244807 -0.0196047 C1085.61878868 -0.01949934 1086.68512929 -0.01939399 1087.78378326 -0.01928544 C1123.4992808 -0.01575654 1159.21477831 -0.01198827 1194.93027582 -0.00819555 C1302.92919771 0.00326535 1410.9281157 0.00954658 1603.80210456 -0.00854154 C1639.50865521 -0.01233127 1675.21520586 -0.01607688 1710.92175654 -0.0196047 C1711.98779865 -0.01971043 1713.05384076 -0.01981616 1714.15218718 -0.0199251 C1780.92958956 -0.02654266 1847.70699117 -0.02948688 1914.48439387 -0.02815343 C1915.51593912 -0.02813316 1916.54748437 -0.0281129 1917.61028856 -0.02809201 C1963.9319094 -0.02717178 2010.25353016 -0.02525673 2056.57515092 -0.02242192 C2071.7677202 -0.02149331 2086.96028949 -0.0206103 2102.15285878 -0.01974278 C2107.19246665 -0.0194548 2112.23207452 -0.01916274 2117.27168238 -0.0188612 C2163.47166525 -0.01610533 2209.67164681 -0.01530244 2255.87162951 -0.02075054 C2257.36506865 -0.02092591 2257.36506865 -0.02092591 2258.88867828 -0.02110483 C2271.91375786 -0.02264012 2284.93883742 -0.02426806 2297.96391698 -0.02590729 C2298.95133786 -0.02603153 2299.93875873 -0.02615577 2300.95610145 -0.02628378 C2302.94821302 -0.02653446 2304.94032459 -0.02678535 2306.93243616 -0.02703647 C2352.41132943 -0.03275434 2397.89022037 -0.03666329 2443.36911372 -0.02974345 C2444.75439154 -0.02953335 2444.75439154 -0.02953335 2446.16765476 -0.02931901 C2466.31960787 -0.02622798 2486.47156071 -0.02226896 2506.62351347 -0.0174576 C2514.66155378 -0.01555003 2522.69959412 -0.01374819 2530.73763445 -0.01197721 C2531.6144222 -0.01178096 2532.49120995 -0.01158471 2533.39456702 -0.01138252 C2561.16178786 -0.00521647 2588.92899744 -0.00820398 2616.69621744 -0.01652752 C2644.05871707 -0.02468886 2671.42119907 -0.02365488 2698.78369675 -0.00942243 C2702.54061681 -0.00746931 2706.29753691 -0.00561992 2710.05445704 -0.00383255 C2710.78987767 -0.00347858 2711.5252983 -0.00312462 2712.2830044 -0.00275993 C2723.82621598 0.00252592 2735.36940037 -0.00210536 2746.91260875 -0.01109661 C2758.23772991 -0.01971037 2769.56279653 -0.01724303 2780.88791743 -0.00408619 C2786.9039937 0.00260217 2792.91996914 0.00482225 2798.93604071 -0.00653574 C2831.61723797 -0.06397013 2863.82787026 0.98332526 2896.1746023 6.06972598 C2896.98620814 6.19439242 2897.79781397 6.31905886 2898.63401393 6.44750308 C2927.09917844 10.84583166 2954.84974435 17.47144931 2982.2371023 26.38222598 C2983.27109156 26.71722109 2984.30508082 27.05221621 2985.37040309 27.3973627 C3036.78482973 44.23380656 3085.60713683 70.06658924 3128.2371023 103.38222598 C3129.14073512 104.08476504 3130.04436793 104.7873041 3130.97538355 105.51113223 C3146.93510325 118.11091094 3161.72317022 131.78701199 3176.1121023 146.13222598 C3176.61046595 146.62791079 3177.1088296 147.12359561 3177.62229518 147.63430117 C3183.38082319 153.36934242 3188.97993803 159.18049579 3194.2371023 165.38222598 C3195.12572558 166.40366839 3196.01500663 167.4245391 3196.90507105 168.44472598 C3204.0787174 176.80841909 3210.75272636 185.47534566 3217.2371023 194.38222598 C3217.7335525 195.06301211 3218.2300027 195.74379824 3218.74149684 196.44521426 C3277.619804 277.5634551 3306.74334961 375.07169866 3303.2371023 532.38222598 C3303.07613062 533.66967715 3302.91515895 534.95712832 3302.74930934 536.28359316 C3298.22178588 571.32949519 3289.30173988 605.20917642 3277.2371023 638.38222598 C3276.60916773 640.11085879 3276.60916773 640.11085879 3275.96854762 641.87441348 C3261.09859087 682.1121998 3239.73616352 720.66058454 3213.2371023 754.38222598 C3212.39389653 755.47930016 3211.55149329 756.57699148 3210.70975855 757.67519473 C3194.51779847 778.68121922 3176.41139529 799.66023147 3156.10038355 816.79628848 C3153.88239046 818.68414004 3151.75468075 820.6592539 3149.6121023 822.63222598 C3143.41114716 828.21875721 3136.85685705 833.30719459 3130.2371023 838.38222598 C3129.61029566 838.86594668 3128.98348902 839.34966738 3128.33768824 839.84804629 C3053.75392388 897.29309103 2963.22199497 929.67146924 2791.31074428 942.76445195 C2785.19077036 942.75628127 2779.07081668 942.76584268 2772.95084492 942.7729625 C2762.21832013 942.78307413 2751.48585404 942.78229469 2740.75333126 942.77391187 C2729.19456828 942.76494463 2717.63583146 942.76271073 2706.07706605 942.7682845 C2705.34011019 942.76863577 2704.60315432 942.76898704 2703.84386645 942.76934896 C2700.08008282 942.77117183 2696.31629924 942.77309846 2692.55251568 942.77505979 C2665.16133126 942.78910623 2637.77016255 942.78844783 2610.37897662 942.78021716 C2582.63592358 942.77192577 2554.89288146 942.77020682 2527.14982775 942.77642916 C2526.27319198 942.7766227 2525.39655622 942.77681625 2524.49335573 942.77701565 C2516.45892762 942.7787904 2508.42449953 942.78063212 2500.39007146 942.78255429 C2480.2470861 942.78736551 2460.10410062 942.79113406 2439.96111492 942.7941954 C2439.03830746 942.7943361 2438.11550001 942.79447681 2437.16472869 942.79462178 C2391.72495864 942.80145077 2346.28519055 942.79685286 2300.84542063 942.79111193 C2298.85602375 942.79086102 2296.86662686 942.79061013 2294.87722997 942.79035925 C2293.89127164 942.79023488 2292.90531331 942.79011051 2291.88947745 942.78998238 C2278.88645703 942.78834273 2265.88343662 942.78673289 2252.88041619 942.78520249 C2251.88641028 942.78508501 2250.89240436 942.78496752 2249.86827706 942.78484648 C2203.76836496 942.7794385 2157.66845384 942.7807297 2111.56854161 942.78349386 C2106.53669527 942.78379325 2101.50484893 942.78407975 2096.4730026 942.78436768 C2081.30578011 942.78523948 2066.13855762 942.78613031 2050.97133513 942.78706048 C2004.72250979 942.78989382 1958.47368445 942.79169472 1912.22485903 942.79260539 C1911.19517046 942.79262599 1910.16548189 942.7926466 1909.10459063 942.79266783 C1842.43786072 942.79398369 1775.77113191 942.79068355 1709.10440234 942.78405665 C1707.50842515 942.78389862 1707.50842515 942.78389862 1705.88020601 942.78373739 C1670.24379445 942.78020852 1634.60738291 942.77644023 1598.97097138 942.7726475 C1491.20879759 942.76118632 1383.44662771 942.75490575 1190.99176862 942.7729935 C1155.36181748 942.77678322 1119.73186633 942.78052884 1084.10191516 942.78405665 C1082.50627902 942.78421525 1082.50627902 942.78421525 1080.87840781 942.78437706 C1014.2441915 942.7909946 947.60997594 942.79393884 880.9757593 942.79260539 C879.94642936 942.79258512 878.91709942 942.79256485 877.85657767 942.79254397 C831.63452023 942.79162374 785.41246287 942.78970869 739.19040551 942.78687388 C724.03054248 942.78594527 708.87067945 942.78506226 693.71081642 942.78419473 C688.68206962 942.78390676 683.65332282 942.78361469 678.62457602 942.78331316 C632.52476266 942.78055732 586.42495061 942.77975431 540.32513741 942.78520249 C539.33168574 942.78531941 538.33823407 942.78543632 537.31467781 942.78555678 C524.31808046 942.78709207 511.32148312 942.78872001 498.32488579 942.79035925 C497.33962653 942.79048349 496.35436727 942.79060773 495.33925166 942.79073573 C493.35150181 942.79098641 491.36375197 942.79123731 489.37600212 942.79148842 C443.99681513 942.79720628 398.61763047 942.80111525 353.23844341 942.7941954 C352.3169495 942.79405534 351.39545558 942.79391527 350.44603761 942.79377097 C330.33828081 942.79067994 310.23052426 942.78672092 290.1227678 942.78190955 C282.10237013 942.78000199 274.08197243 942.77820015 266.06157473 942.77642916 C265.1867121 942.77623292 264.31184946 942.77603667 263.41047584 942.77583447 C235.70446049 942.76966847 207.99845642 942.77265587 180.29244191 942.78097948 C152.9902202 942.78914089 125.68801616 942.7881067 98.38579639 942.77387438 C94.63711971 942.77192126 90.88844297 942.77007188 87.13976621 942.7682845 C86.40595972 942.76793054 85.67215323 942.76757657 84.91611019 942.76721188 C73.39846118 942.76192613 61.88083942 942.76655719 50.36319362 942.77554857 C39.06303986 942.78416253 27.76294076 942.78169466 16.46278726 942.76853815 C10.46003304 942.76185 4.45737987 942.75962919 -1.54536964 942.7709877 C-27.45162033 942.8166403 -52.99980752 942.2587626 -78.7628977 939.38222598 C-79.74728932 939.27268324 -80.73168095 939.16314051 -81.74590263 939.0502783 C-86.62077658 938.49681401 -91.47261577 937.85990762 -96.3253977 937.13222598 C-97.0225086 937.02962466 -97.7196195 936.92702334 -98.43785497 936.82131289 C-156.01097661 928.30286939 -210.74805712 910.45486864 -262.7628977 884.38222598 C-263.60530004 883.96231387 -264.44770238 883.54240176 -265.31563207 883.10976504 C-290.36326509 870.54234952 -313.87069878 854.83524525 -335.7628977 837.38222598 C-336.38615941 836.88899844 -337.00942113 836.3957709 -337.65156957 835.88759707 C-345.96081717 829.29897172 -353.99254463 822.5183329 -361.7003977 815.23378848 C-363.96064166 813.1016737 -366.28135814 811.05637321 -368.63399145 809.02675723 C-372.8742577 805.33580049 -376.86302281 801.43016027 -380.8253977 797.44472598 C-381.4937766 796.78021426 -382.16215551 796.11570254 -382.85078832 795.4310541 C-387.36051613 790.91256103 -391.60109935 786.22074937 -395.7628977 781.38222598 C-396.82013931 780.17921342 -397.87870273 778.97736102 -398.93867895 777.77675723 C-405.87507472 769.87515544 -412.50294492 761.83177931 -418.7628977 753.38222598 C-419.24694066 752.73479434 -419.73098363 752.0873627 -420.22969457 751.42031191 C-468.03499038 687.30816551 -497.8555074 611.62151374 -507.7628977 532.38222598 C-507.92515844 531.12313418 -508.08741918 529.86404238 -508.25459691 528.56679629 C-520.06805318 432.86439 -501.39074232 333.7338233 -414.6378977 185.00722598 C-408.57307174 177.26664817 -402.29151565 169.7350623 -395.7628977 162.38222598 C-394.47319066 160.92429629 -394.47319066 160.92429629 -393.15742895 159.43691348 C-386.36626025 151.88052515 -379.18394183 144.70011013 -372.0128977 137.50722598 C-371.51712224 137.00877169 -371.02134679 136.51031741 -370.51054784 135.99675845 C-364.7755985 130.23832224 -358.96452867 124.63930615 -352.7628977 119.38222598 C-351.74145528 118.4936027 -350.72058457 117.60432165 -349.7003977 116.71425723 C-341.33670459 109.54061088 -332.66977801 102.86660192 -323.7628977 96.38222598 C-323.08211156 95.88577578 -322.40132543 95.38932559 -321.69990941 94.87783145 C-269.43515845 56.94234333 -210.40680643 30.69252859 -147.7628977 15.38222598 C-146.23898412 15.00058291 -146.23898412 15.00058291 -144.68428441 14.61122988 C-130.3276933 11.05079529 -115.87177081 8.44818631 -101.2628977 6.19472598 C-100.50112218 6.07402743 -99.73934667 5.95332888 -98.95448705 5.8289728 C-66.04025812 0.66591301 -33.24123976 -0.06275752 0 0 Z M-90.2628977 122.19472598 C-91.0011881 122.32228274 -91.73947851 122.4498395 -92.50014135 122.58126162 C-149.56662019 132.44634432 -204.67830302 153.28897839 -251.7628977 187.38222598 C-252.41951391 187.85482852 -253.07613012 188.32743106 -253.75264379 188.81435488 C-269.06116435 199.88632278 -282.75773413 212.19933435 -296.1378977 225.50722598 C-296.97535528 226.33664706 -296.97535528 226.33664706 -297.82973119 227.18282412 C-304.95403788 234.25524143 -311.56009236 241.47569496 -317.7628977 249.38222598 C-318.62037593 250.44260298 -319.47832788 251.50259742 -320.33711645 252.56191348 C-343.67552479 282.32809047 -361.37625771 315.70559269 -373.7628977 351.38222598 C-374.24218725 352.75628604 -374.24218725 352.75628604 -374.73115941 354.15810488 C-381.30097789 373.23564886 -385.89119125 392.76716132 -389.0128977 412.69472598 C-389.23949071 414.13960391 -389.23949071 414.13960391 -389.47066137 415.61367129 C-392.20540638 434.21549016 -393.13916126 452.65718524 -393.0753977 471.44472598 C-393.07357488 472.56396456 -393.07175207 473.68320315 -393.06987401 474.83635806 C-393.02325466 491.86943095 -392.45384494 508.53295829 -389.7628977 525.38222598 C-389.50548803 527.07267031 -389.50548803 527.07267031 -389.24287816 528.79726504 C-380.39581525 585.95925328 -358.97598401 640.31579114 -323.7628977 686.38222598 C-323.09242406 687.26902041 -323.09242406 687.26902041 -322.40840551 688.17372988 C-316.09716077 696.50466381 -309.35516907 704.26325261 -302.18086645 711.8583002 C-299.20980148 715.05137656 -296.36390984 718.35834935 -293.5050852 721.65175723 C-291.93566018 723.6171315 -291.93566018 723.6171315 -289.7628977 723.38222598 C-289.7628977 724.04222598 -289.7628977 724.70222598 -289.7628977 725.38222598 C-288.31606717 726.88496484 -288.31606717 726.88496484 -286.3878977 728.44472598 C-283.29447987 731.06471638 -280.29170337 733.74444041 -277.3253977 736.50722598 C-217.82134047 790.02459452 -139.04080762 816.86158942 -60.5753977 825.13222598 C-59.49878881 825.2479999 -58.42217992 825.36377383 -57.31294652 825.48305606 C-29.54262538 828.14996413 -1.46868547 827.5281878 26.39331397 827.51220584 C32.41269251 827.50988016 38.43206832 827.5134213 44.4514463 827.51617266 C55.02061809 827.52020818 65.58978563 827.52059333 76.15895758 827.51846672 C87.54797192 827.51619485 98.93698319 827.51614458 110.3259975 827.51869943 C111.05080362 827.51886063 111.77560974 827.51902182 112.52237969 827.5191879 C116.22379958 827.52002052 119.92521947 827.52088736 123.62663936 827.52176543 C150.59792158 827.5280867 177.56920233 827.52948001 204.54048518 827.52834796 C231.86643823 827.52721465 259.19238993 827.52825242 286.51834277 827.53192042 C288.2628668 827.53215241 290.00739082 827.53238439 291.75191485 827.53261634 C298.78625681 827.53355592 305.82059876 827.53451222 312.85494071 827.53548753 C332.68125857 827.53823239 352.50757647 827.54061197 372.33389441 827.5427395 C373.6964906 827.54288582 373.6964906 827.54288582 375.08661399 827.5430351 C426.71125954 827.54853636 478.33590517 827.54884459 529.96055096 827.54925596 C537.8500657 827.54931921 545.73958045 827.54938574 553.62909519 827.54945652 C555.60661685 827.54947421 557.58413851 827.54949158 559.56166017 827.54950864 C603.96888084 827.54989664 648.37610136 827.55207604 692.78332196 827.55463889 C702.69826673 827.55521045 712.6132115 827.55576443 722.52815627 827.55631953 C724.00446647 827.55640221 724.00446647 827.55640221 725.51060113 827.55648656 C731.48499653 827.55682107 737.45939192 827.55715483 743.43378732 827.55748812 C746.42669999 827.55765521 749.41961266 827.55782271 752.41252533 827.55799026 C798.94451747 827.56059198 845.47650963 827.56282233 892.0085018 827.56467246 C893.5292187 827.56473301 893.5292187 827.56473301 895.08065716 827.56479479 C959.67184415 827.56735742 1024.26303105 827.56825734 1088.85421809 827.56799446 C1092.02971743 827.5679817 1095.20521676 827.56796974 1098.38071609 827.56795805 C1120.68918673 827.56787571 1142.99765736 827.567773 1165.306128 827.56766517 C1171.70226435 827.5676344 1178.0984007 827.56760433 1184.49453705 827.56757435 C1189.82974329 827.56754926 1195.16494953 827.56752347 1200.50015577 827.56749624 C1301.26812353 827.56698482 1402.03609049 827.56840293 1502.80405787 827.57784365 C1503.86497167 827.57794301 1504.92588548 827.57804237 1506.01894818 827.57814474 C1539.16759398 827.58125615 1572.31623974 827.58462262 1605.46488551 827.58803652 C1639.47918839 827.59153804 1673.49349127 827.59500855 1707.50779418 827.59830092 C1708.55516132 827.59840245 1709.60252846 827.59850397 1710.681634 827.59860858 C1776.29047292 827.60495917 1841.89931163 827.60887987 1907.50815085 827.61015891 C1908.52167093 827.61017893 1909.535191 827.61019896 1910.5794238 827.6102196 C1955.09347824 827.61109498 1999.60753266 827.61141467 2044.12158711 827.61112871 C2062.03016431 827.61101443 2079.93874152 827.61095836 2097.84731873 827.61092539 C2100.81655001 827.61091899 2103.78578129 827.61090991 2106.75501257 827.61090024 C2152.14983949 827.61076381 2197.54466568 827.61210578 2242.93949226 827.61794542 C2243.9177812 827.61807109 2244.89607015 827.61819676 2245.90400421 827.61832624 C2261.63983635 827.62035513 2277.37566847 827.62249919 2293.11150059 827.62465305 C2337.8006833 827.63076494 2382.48986503 827.63580411 2427.17904822 827.63368188 C2428.08657329 827.63363917 2428.99409837 827.63359645 2429.92912421 827.63355245 C2449.73237575 827.6325989 2469.53562722 827.63108286 2489.33887867 827.62901573 C2497.23793725 827.62819946 2505.13699583 827.62745581 2513.03605441 827.62673472 C2513.89768301 827.62665407 2514.75931161 827.62657342 2515.64705017 827.62649032 C2542.93268013 827.62397054 2570.21830462 827.62757467 2597.50393362 827.63475254 C2624.39286521 827.64179994 2651.2817892 827.64272587 2678.1707208 827.6348656 C2681.86294848 827.63378713 2685.55517618 827.63277822 2689.24740389 827.63181105 C2690.33153704 827.63152302 2690.33153704 827.63152302 2691.43757188 827.63122918 C2702.78033371 827.62839642 2714.12308278 827.63218592 2725.46584257 827.63889165 C2736.59536534 827.64533319 2747.72487237 827.64437888 2758.85439515 827.63629777 C2764.76615564 827.63220629 2770.67787024 827.63109268 2776.58962785 827.63904846 C2796.99102498 827.66460768 2817.36124403 827.66375496 2837.73440382 826.47995167 C2838.42054359 826.44029607 2839.10668335 826.40064047 2839.81361522 826.35978319 C2923.73817064 821.33945023 3007.46041551 793.32507118 3071.2371023 737.38222598 C3071.92288355 736.79570254 3072.6086648 736.2091791 3073.3152273 735.60488223 C3082.11332193 728.04517487 3091.12467617 720.30088723 3098.5574148 711.37050723 C3100.57664919 708.98029722 3102.72084388 706.72622656 3104.8621023 704.44472598 C3148.37937416 656.52313808 3174.03547512 593.98430199 3184.4871023 530.69472598 C3184.63816432 529.79576602 3184.78922633 528.89680606 3184.94486598 527.97060488 C3187.86452804 509.16817877 3188.6177453 490.25549385 3188.5496023 471.25722598 C3188.54777949 470.19227908 3188.54595667 469.12733218 3188.54407862 468.03011416 C3188.30670919 385.29411019 3160.60187641 302.67656135 3105.2371023 240.38222598 C3104.58999293 239.64899111 3103.94288355 238.91575625 3103.2761648 238.16030215 C3097.66142929 231.85053268 3091.83158962 225.79360263 3085.8621023 219.81972598 C3084.99327418 218.93865176 3084.12444605 218.05757754 3083.2292898 217.1498041 C3077.21447336 211.12164117 3070.90331931 205.67477819 3064.2371023 200.38222598 C3063.13755203 199.47696953 3062.03953086 198.56984703 3060.94413355 197.65956973 C2983.03403534 134.67961179 2885.45718509 115.81481083 2787.80943608 116 C2781.70950927 116.00815647 2775.60960304 115.99861411 2769.50967843 115.99148946 C2758.8078397 115.98136889 2748.10605261 115.98216382 2737.40421667 115.99054009 C2725.87640264 115.99950198 2714.34861484 116.00174472 2702.82079838 115.99616745 C2702.08627184 115.99581618 2701.3517453 115.99546491 2700.59496037 115.995103 C2696.84369208 115.99328016 2693.09242384 115.99135353 2689.34115561 115.98939216 C2662.02945075 115.97533965 2634.71776163 115.97600699 2607.40605525 115.9842348 C2579.74075908 115.99252414 2552.07547386 115.99424678 2524.41017703 115.98802279 C2523.53622606 115.98782925 2522.66227509 115.98763571 2521.76184076 115.9874363 C2513.75210088 115.98566158 2505.74236102 115.98381985 2497.73262117 115.98189767 C2477.65092511 115.97708625 2457.56922893 115.97331779 2437.48753253 115.97025655 C2436.10748566 115.9700455 2436.10748566 115.9700455 2434.69955905 115.96983018 C2389.38911986 115.96300008 2344.07868264 115.96759958 2298.76824359 115.97334002 C2296.78434116 115.97359093 2294.80043873 115.97384183 2292.8165363 115.97409271 C2291.34168473 115.97427926 2291.34168473 115.97427926 2289.83703819 115.97446958 C2276.8700577 115.97610921 2263.90307721 115.97771905 2250.9360967 115.97924946 C2249.9448557 115.97936695 2248.9536147 115.97948443 2247.93233609 115.97960547 C2201.96684703 115.98501274 2156.00135895 115.98372251 2110.03586976 115.9809581 C2105.01914662 115.9806587 2100.00242349 115.98037221 2094.98570035 115.98008427 C2079.86416153 115.97921247 2064.74262272 115.97832165 2049.6210839 115.97739147 C2003.51108558 115.97455809 1957.40108725 115.97275722 1911.29108885 115.97184657 C1910.26447678 115.97182596 1909.2378647 115.97180536 1908.18014317 115.97178413 C1841.7092733 115.9704682 1775.23840454 115.97376873 1708.76753501 115.9803953 C1707.70662388 115.98050066 1706.64571275 115.98060601 1705.5526528 115.98071456 C1670.01888193 115.98424347 1634.4851111 115.98801174 1598.95134026 115.99180445 C1491.50000252 116.00326554 1384.04866872 116.0095464 1192.15100593 115.99145846 C1156.62491265 115.98766874 1121.09881936 115.98392314 1085.57272605 115.9803953 C1083.98175229 115.9802367 1083.98175229 115.9802367 1082.35863764 115.9800749 C1015.92119915 115.97345755 949.48376143 115.97051308 883.04632262 115.97184657 C881.50692995 115.97187697 881.50692995 115.97187697 879.93643843 115.97190799 C833.85253263 115.97282821 787.7686269 115.97474324 741.68472118 115.97757808 C726.57021188 115.97850669 711.45570259 115.9793897 696.34119329 115.98025722 C691.32746312 115.9805452 686.31373295 115.98083726 681.30000278 115.9811388 C635.33459549 115.98389483 589.36918952 115.98469712 543.4037824 115.97924946 C542.41313261 115.97913255 541.42248281 115.97901563 540.40181332 115.97889517 C527.44175017 115.97735988 514.48168703 115.97573193 501.52162389 115.97409271 C500.53912725 115.97396847 499.55663061 115.97384423 498.54436134 115.97371622 C496.56218337 115.97346554 494.58000541 115.97321465 492.59782745 115.97296353 C447.34833386 115.96724599 402.0988426 115.96333601 356.84934894 115.97025655 C355.4711956 115.97046665 355.4711956 115.97046665 354.06520078 115.97068099 C334.01738525 115.97377194 313.96956998 115.97773092 293.92175479 115.9825424 C285.92537872 115.98444998 277.92900262 115.98625181 269.93262652 115.98802279 C269.06038095 115.98821904 268.18813538 115.98841529 267.28945812 115.98861748 C239.66122176 115.99478461 212.03299671 115.9917948 184.40476119 115.98347248 C157.18160248 115.97531304 129.95846149 115.97634137 102.73530473 115.99057757 C98.99844321 115.99253072 95.26158165 115.9943801 91.52472006 115.99616745 C90.4274686 115.9966984 90.4274686 115.9966984 89.30805045 115.99724007 C77.82128022 116.00252819 66.3345373 115.99789167 54.84777028 115.98890339 C43.58108317 115.98029471 32.31443956 115.9827493 21.04775313 115.99591381 C15.06145725 116.00260728 9.07526275 116.0048101 3.08897155 115.99346426 C-28.30713109 115.93807873 -59.26251914 116.67337912 -90.2628977 122.19472598 Z " fill="#FF151F" transform="translate(515.7628976954147,609.6177740227431)"/>
<path d="M0 0 C44.88 0 89.76 0 136 0 C141.62046022 5.62046022 141.62046022 5.62046022 143.69140625 9.1953125 C144.15450195 9.98309082 144.61759766 10.77086914 145.09472656 11.58251953 C145.5790918 12.42153809 146.06345703 13.26055664 146.5625 14.125 C147.62963614 15.93860414 148.69869312 17.75107923 149.76953125 19.5625 C150.30916504 20.47644531 150.84879883 21.39039063 151.40478516 22.33203125 C153.78241275 26.30857155 156.25901656 30.21880994 158.75 34.125 C165.59176638 44.88281463 172.25428337 55.74919876 178.92236328 66.61523438 C182.34019886 72.1833745 185.76361955 77.74807549 189.1875 83.3125 C190.18861816 84.93973999 190.18861816 84.93973999 191.20996094 86.59985352 C195.81616514 94.08408737 200.43755708 101.5587753 205.06713867 109.02856445 C210.08216078 117.12394582 215.07031085 125.23578065 220.05859375 133.34765625 C224.19477581 140.0719292 228.34110076 146.78975609 232.5 153.5 C238.03912863 162.43719757 243.55087207 171.3910766 249.05859375 180.34765625 C253.19477581 187.0719292 257.34110076 193.78975609 261.5 200.5 C267.03912863 209.43719757 272.55087207 218.3910766 278.05859375 227.34765625 C282.19477581 234.0719292 286.34110076 240.78975609 290.5 247.5 C296.02820794 256.4195774 301.52981598 265.35535693 307.02563477 274.29492188 C312.03193286 282.43540222 317.05763129 290.56368128 322.10351562 298.6796875 C322.60431641 299.48664063 323.10511719 300.29359375 323.62109375 301.125 C324.0586499 301.82882812 324.49620605 302.53265625 324.94702148 303.2578125 C326 305 326 305 327 307 C327.76776232 298.41866095 328.14301895 289.92703892 328.12025452 281.3132782 C328.12110894 280.10568983 328.12196337 278.89810147 328.12284368 277.65391952 C328.12419413 274.34260732 328.12111447 271.03135573 328.11606562 267.72005093 C328.111712 264.13401559 328.113211 260.54798183 328.1139679 256.96194458 C328.11449004 250.76232659 328.11137571 244.56271919 328.10573006 238.36310387 C328.09757294 229.39970791 328.09499553 220.43631704 328.09374207 211.47291777 C328.09155814 196.92733616 328.08491599 182.38176019 328.07543945 167.83618164 C328.06624824 153.71378609 328.05917578 139.59139208 328.05493164 125.46899414 C328.05466892 124.59721984 328.05440619 123.72544554 328.05413551 122.82725384 C328.05283039 118.45343922 328.0515667 114.07962459 328.05032361 109.70580995 C328.03997155 73.47053599 328.02237124 37.23526844 328 1 C372.78104376 -7.95620875 419.3321168 0 465 0 C465 146.52 465 293.04 465 444 C419.79 444 374.58 444 328 444 C322.72 435.42 317.44 426.84 312 418 C306.39345175 409.02948142 306.39345175 409.02948142 300.78125 400.0625 C296.14030258 392.63698413 291.56229169 385.17301664 286.98046875 377.7109375 C282.52004085 370.4529985 278.02360049 363.21871404 273.5 356 C267.60998978 346.60078369 261.78445807 337.16346943 255.98046875 327.7109375 C251.52004085 320.4529985 247.02360049 313.21871404 242.5 306 C236.60998978 296.60078369 230.78445807 287.16346943 224.98046875 277.7109375 C220.52004085 270.4529985 216.02360049 263.21871404 211.5 256 C205.60998978 246.60078369 199.78445807 237.16346943 193.98046875 227.7109375 C189.52004085 220.4529985 185.02360049 213.21871404 180.5 206 C175.2931845 197.69101863 170.13091473 189.35606114 165 181 C159.6139068 172.23077525 154.20145859 163.47875982 148.75 154.75 C148.12996094 153.75613281 147.50992188 152.76226563 146.87109375 151.73828125 C146.28972656 150.80886719 145.70835937 149.87945313 145.109375 148.921875 C144.60374023 148.11331055 144.09810547 147.30474609 143.57714844 146.47167969 C141.75853371 143.62157821 139.87538205 140.81307307 138 138 C137.505 289.47 137.505 289.47 137 444 C91.79 444 46.58 444 0 444 C0 297.48 0 150.96 0 0 Z " fill="#FF151F" transform="translate(384,858)"/>
<path d="M0 0 C43.23 0 86.46 0 131 0 C131 146.52 131 293.04 131 444 C87.77 444 44.54 444 0 444 C-0.33 438.72 -0.66 433.44 -1 428 C-2.29550781 428.71285156 -3.59101563 429.42570312 -4.92578125 430.16015625 C-40.26366322 449.32566978 -83.14394133 459.37898767 -123 449 C-124.1761084 448.70198486 -124.1761084 448.70198486 -125.37597656 448.39794922 C-165.6246386 437.93204275 -200.87036073 412.70749499 -222.49609375 376.96484375 C-236.72762143 352.62866574 -243.9605179 326.09751614 -245 298 C-245.05285156 296.99453125 -245.10570313 295.9890625 -245.16015625 294.953125 C-245.65452538 278.35951766 -242.49937887 261.60697927 -237 246 C-236.77973145 245.37077637 -236.55946289 244.74155273 -236.33251953 244.09326172 C-230.77590816 228.56945348 -222.87642125 214.18015371 -213 201 C-212.3503125 200.12601563 -211.700625 199.25203125 -211.03125 198.3515625 C-185.05422441 165.08098742 -148.59823675 143.19228531 -106.73339844 137.41015625 C-100.7549595 136.75335678 -94.8223922 136.65945817 -88.8125 136.6875 C-87.55018555 136.69241455 -86.28787109 136.6973291 -84.98730469 136.70239258 C-74.75289679 136.82970245 -64.96949739 137.67716708 -55 140 C-54.30616211 140.16097168 -53.61232422 140.32194336 -52.89746094 140.48779297 C-44.11031828 142.62204764 -35.76597519 145.75134221 -27.4375 149.25 C-26.63586426 149.58402832 -25.83422852 149.91805664 -25.00830078 150.26220703 C-16.5784512 153.93020815 -9.1402335 158.42111866 -1 163 C-0.67 109.21 -0.34 55.42 0 0 Z " fill="#FF151F" transform="translate(2889,858)"/>
<path d="M0 0 C4.51272288 4.18684451 8.71096312 8.50870676 12.5625 13.3125 C13.34238281 14.27800781 14.12226563 15.24351563 14.92578125 16.23828125 C40.36381712 48.22602613 52.67418717 86.30895816 48.66381836 127.09594727 C44.96743945 159.1002165 30.73994743 188.5798032 8.73828125 211.984375 C7.04316189 213.79818315 5.47003465 215.6147971 3.9375 217.5625 C-26.69370968 253.03021647 -79.17489024 272.03844074 -124.59765625 275.87109375 C-178.55650187 279.74448322 -237.06461012 267.47876547 -279.0390625 231.4453125 C-279.83054687 230.74148438 -280.62203125 230.03765625 -281.4375 229.3125 C-282.24960938 228.60867188 -283.06171875 227.90484375 -283.8984375 227.1796875 C-286.45271182 224.93160379 -288.95221434 222.6365982 -291.4375 220.3125 C-292.38496094 219.43078125 -293.33242187 218.5490625 -294.30859375 217.640625 C-320.86109309 192.3664022 -338.61201682 155.7192564 -339.72265625 118.91015625 C-340.57547777 77.10168033 -327.67600921 39.66546147 -298.8203125 8.79296875 C-298.03398437 7.97441406 -297.24765625 7.15585938 -296.4375 6.3125 C-295.97827148 5.82217285 -295.51904297 5.3318457 -295.04589844 4.82666016 C-264.77033591 -27.4216715 -222.58064021 -45.61973529 -179.4375 -52.6875 C-178.64569336 -52.81737305 -177.85388672 -52.94724609 -177.03808594 -53.08105469 C-113.80475637 -62.81555174 -47.17353996 -42.94001715 0 0 Z " fill="#FF151F" transform="translate(3403.4375,1041.6875)"/>
<path d="M0 0 C0.84927063 -0.00979385 1.69854126 -0.01958771 2.57354736 -0.02967834 C21.70032373 -0.20473661 40.08877296 0.07962358 58.84765625 4.23828125 C59.80510742 4.44195313 60.76255859 4.645625 61.74902344 4.85546875 C99.63229425 13.11256915 132.89967389 31.63433199 160.84765625 58.23828125 C161.60433594 58.93050781 162.36101563 59.62273437 163.140625 60.3359375 C188.25475244 84.07770825 204.0918898 118.09494992 207.84765625 152.23828125 C207.84765625 157.18828125 207.84765625 162.13828125 207.84765625 167.23828125 C125.34765625 167.23828125 42.84765625 167.23828125 -42.15234375 167.23828125 C-46.88647185 223.67315204 -46.88647185 223.67315204 -25.89453125 277.62109375 C-15.06683811 287.67191204 -1.45363579 293.1357752 13.29296875 293.26953125 C25.32765861 292.74053389 38.75347504 289.46663138 47.5 280.5546875 C48.84765625 279.23828125 48.84765625 279.23828125 50.84765625 279.23828125 C51.10933594 278.66851563 51.37101562 278.09875 51.640625 277.51171875 C52.93707964 275.06985272 54.47472139 273.05322543 56.16015625 270.86328125 C68.65984513 253.18142969 67.15697906 230.95859688 67.84765625 210.23828125 C111.40765625 210.23828125 154.96765625 210.23828125 199.84765625 210.23828125 C194.56392925 241.94064325 165.84077195 272.02273745 140.84765625 290.23828125 C91.8669159 325.14394887 31.79797398 337.57229799 -27.45996094 328.09423828 C-61.20353748 322.18172811 -92.88287619 309.01003362 -120.15234375 288.23828125 C-121.12042969 287.51382812 -122.08851562 286.789375 -123.0859375 286.04296875 C-155.17738701 260.96109291 -178.29138634 224.17238839 -183.6484375 183.52734375 C-185.43839861 167.06727811 -184.90747551 150.3700588 -181.15234375 134.23828125 C-180.99137207 133.51801758 -180.83040039 132.79775391 -180.66455078 132.05566406 C-175.2963476 108.65421733 -163.99073516 87.22756533 -148.15234375 69.23828125 C-147.04052734 67.96210937 -147.04052734 67.96210937 -145.90625 66.66015625 C-143.6878968 64.15345558 -141.4338295 61.68758206 -139.15234375 59.23828125 C-138.46785156 58.49964844 -137.78335937 57.76101563 -137.078125 57 C-102.87549626 21.4065065 -48.9809473 0.47002171 0 0 Z " fill="#FF151F" transform="translate(1965.15234375,988.76171875)"/>
<path d="M0 0 C17.92906021 16.89843962 30.55365312 36.66755305 37.5625 60.375 C37.78905273 61.12668457 38.01560547 61.87836914 38.24902344 62.65283203 C44.2881364 84.6978647 43.59422621 107.24100015 43.49168181 129.87072206 C43.47270992 134.77534863 43.47114864 139.6799829 43.46760559 144.5846405 C43.45834457 153.83818536 43.43381279 163.09162173 43.40355712 172.34511918 C43.36349797 184.87346906 43.34751012 197.40184937 43.33005047 209.93024731 C43.30198618 229.62024587 43.24217753 249.31001566 43.1875 269 C-0.3725 269 -43.9325 269 -88.8125 269 C-88.84988281 254.77390625 -88.88726563 240.5478125 -88.92578125 225.890625 C-88.95605833 216.87629235 -88.98708303 207.86197254 -89.02148438 198.84765625 C-89.07594437 184.54086474 -89.12735859 170.23410886 -89.15893555 155.92724609 C-89.18194837 145.50698134 -89.21538316 135.08681035 -89.26120156 124.66662002 C-89.28508939 119.15198242 -89.30384728 113.63743744 -89.31011391 108.12274933 C-89.31618482 102.92545114 -89.33625706 97.72838976 -89.36677551 92.53117943 C-89.37552363 90.63019394 -89.37928505 88.72917747 -89.37750816 86.82817268 C-89.36561481 68.2223856 -92.04051686 53.33916841 -105.33984375 39.3515625 C-113.25035644 31.82845249 -121.43268691 27.2996317 -131.8125 24 C-132.53566406 23.75378906 -133.25882813 23.50757813 -134.00390625 23.25390625 C-150.66590499 18.52594183 -169.10767483 22.57386693 -183.9375 30.6328125 C-196.76793923 38.11934844 -206.21297791 49.90469037 -210.8125 64 C-210.9892221 64.5386179 -211.16594419 65.07723579 -211.34802151 65.63217545 C-212.03071936 69.11244152 -211.96623339 72.579043 -211.97071838 76.11175537 C-211.97565636 76.93596709 -211.98059434 77.76017882 -211.98568195 78.60936666 C-212.00105564 81.37466688 -212.00941724 84.13994389 -212.01782227 86.90527344 C-212.02740089 88.88613591 -212.03741096 90.86699634 -212.04782104 92.84785461 C-212.07487787 98.22966445 -212.09588325 103.61148305 -212.11582303 108.99332333 C-212.13767776 114.61610962 -212.16506897 120.23886884 -212.19187927 125.8616333 C-212.24181308 136.51106665 -212.28674938 147.16051502 -212.32990164 157.80997777 C-212.38849559 172.19924138 -212.45478618 186.58846937 -212.52065182 200.97770119 C-212.62423728 223.65177681 -212.7175193 246.32588292 -212.8125 269 C-256.3725 269 -299.9325 269 -344.8125 269 C-344.8125 171.65 -344.8125 74.3 -344.8125 -26 C-301.2525 -26 -257.6925 -26 -212.8125 -26 C-212.4825 -16.43 -212.1525 -6.86 -211.8125 3 C-208.1825 0.03 -204.5525 -2.94 -200.8125 -6 C-142.22657034 -52.19534224 -55.53034557 -50.8563191 0 0 Z " fill="#FF151F" transform="translate(1476.8125,1033)"/>
<path d="M0 0 C0.80824219 0.67417969 1.61648438 1.34835937 2.44921875 2.04296875 C29.7825709 25.60028481 43.9737848 59.99235245 46.7977581 95.45227814 C47.19258333 102.37829159 47.12975667 109.30853385 47.11352539 116.24316406 C47.11324275 117.94934589 47.11340274 119.65552784 47.1139679 121.36170959 C47.11425289 125.95797068 47.10840459 130.55420527 47.10139394 135.15046024 C47.09511054 139.96706569 47.09455267 144.78367185 47.09336853 149.60028076 C47.09026985 158.70533213 47.0820763 167.81037138 47.07201904 176.91541743 C47.05871373 189.23029402 47.05334617 201.54517395 47.04751682 213.86005592 C47.03813533 233.24004634 47.01820667 252.62001121 47 272 C3.44 272 -40.12 272 -85 272 C-85.04898438 257.89507813 -85.09796875 243.79015625 -85.1484375 229.2578125 C-85.18382018 220.32551468 -85.21969758 211.39322339 -85.2578125 202.4609375 C-85.31822637 188.28126508 -85.37661255 174.10160496 -85.421875 159.921875 C-85.45484928 149.59467165 -85.49471055 139.26752159 -85.54279006 128.94037712 C-85.56800096 123.47388629 -85.5897982 118.00743058 -85.60334396 112.54089737 C-85.61621341 107.39125616 -85.63832028 102.24173567 -85.66738319 97.09216118 C-85.67642087 95.20645773 -85.68214026 93.32073487 -85.68421364 91.43501091 C-85.6234373 78.08861479 -85.6234373 78.08861479 -88 65 C-88.24878906 64.09507813 -88.49757813 63.19015625 -88.75390625 62.2578125 C-94.678498 46.63062846 -106.1836022 36.56803782 -120.921875 29.734375 C-136.74695589 22.78785766 -154.88713535 23.03382847 -171 29 C-188.5921126 36.76744644 -199.9674636 48.04148145 -207 66 C-208.33075826 69.96572538 -208.15299591 74.01534094 -208.15821838 78.14971924 C-208.16315636 78.97801451 -208.16809434 79.80630979 -208.17318195 80.65970492 C-208.18855616 83.4388247 -208.19691739 86.21792137 -208.20532227 88.99707031 C-208.21490085 90.98778487 -208.22491092 92.97849738 -208.23532104 94.96920776 C-208.26237831 100.37787631 -208.28338346 105.78655358 -208.30332303 111.19525242 C-208.32517748 116.84606585 -208.35256882 122.49685234 -208.37937927 128.14764404 C-208.42931345 138.85020141 -208.47424961 149.55277373 -208.51740164 160.25536036 C-208.57599518 174.71637466 -208.64228597 189.17735352 -208.70815182 203.63833618 C-208.81173786 226.42553359 -208.90501949 249.21276134 -209 272 C-252.56 272 -296.12 272 -341 272 C-341 174.65 -341 77.3 -341 -23 C-297.44 -23 -253.88 -23 -209 -23 C-208.67 -13.43 -208.34 -3.86 -208 6 C-206.205625 4.411875 -204.41125 2.82375 -202.5625 1.1875 C-178.22110839 -19.60404046 -148.58918197 -31.88632212 -117 -36 C-116.00484375 -36.14308594 -115.0096875 -36.28617188 -113.984375 -36.43359375 C-73.66269505 -41.09938814 -30.55679085 -26.09742502 0 0 Z " fill="#FF151F" transform="translate(2555,1030)"/>
<path d="M0 0 C43.89 0 87.78 0 133 0 C133.33 19.47 133.66 38.94 134 59 C157.43 59.33 180.86 59.66 205 60 C205 74.52 205 89.04 205 104 C181.24 104 157.48 104 133 104 C133.03029297 110.80987549 133.06058594 117.61975098 133.09179688 124.63598633 C133.18971821 146.69064568 133.28633612 168.74531062 133.38218227 190.79997908 C133.39719381 194.25394117 133.41221649 197.70790322 133.42724609 201.16186523 C133.43023671 201.84918339 133.43322732 202.53650155 133.43630856 203.24464753 C133.48409236 214.22052021 133.53276922 225.19638875 133.58180541 236.17225591 C133.6324977 247.52351126 133.68214399 258.87477078 133.73096704 270.22603434 C133.7582592 276.56432095 133.78595584 282.90260505 133.81480408 289.24088478 C133.82030384 290.45980677 133.82580359 291.67872876 133.83147001 292.93458778 C133.84148361 295.14838344 133.85162293 297.36217854 133.86195421 299.57597274 C134.00965394 332.38471698 134 365.19029327 134 398 C89.78 398 45.56 398 0 398 C-0.33 300.98 -0.66 203.96 -1 104 C-24.43 104 -47.86 104 -72 104 C-72 89.48 -72 74.96 -72 60 C-48.24 60 -24.48 60 0 60 C0 40.2 0 20.4 0 0 Z " fill="#FF151F" transform="translate(1593,904)"/>
<path d="M0 0 C43.89 0 87.78 0 133 0 C133 97.35 133 194.7 133 295 C89.11 295 45.22 295 0 295 C0 197.65 0 100.3 0 0 Z " fill="#FF151F" transform="translate(925,1007)"/>
<path d="M0 0 C21.50438609 22.15934201 18.7201792 54.05626839 18.72585082 82.55765772 C18.72657059 84.59714552 18.72872183 86.63662694 18.73134804 88.67611313 C18.74053812 95.82688563 18.7446903 102.97763975 18.74389648 110.12841797 C18.74329499 116.73932649 18.75387734 123.35015363 18.76964015 129.96104157 C18.78279954 135.68899952 18.788077 141.4169311 18.78744107 147.14490402 C18.78718887 150.54337003 18.78988465 153.94176317 18.80061913 157.34021378 C18.93697086 209.57746204 18.93697086 209.57746204 -0.03125 229.52734375 C-11.31317487 240.24242961 -24.40361499 244.1754999 -39.7421875 244.03125 C-54.11566513 243.19646513 -65.62972221 237.17318385 -75.44140625 226.81640625 C-93.64277907 204.89685416 -91.59814343 177.16710718 -91.57421875 150.359375 C-91.5748937 147.68483931 -91.57586426 145.010305 -91.57711792 142.33576965 C-91.57892794 136.74719745 -91.57656496 131.15863854 -91.57177734 125.57006836 C-91.56634502 119.1558272 -91.56809464 112.74161788 -91.57360375 106.3273775 C-91.57817802 100.77443111 -91.57876431 95.22149417 -91.57616508 89.6685465 C-91.57462478 86.37229362 -91.57475192 83.07605854 -91.57770157 79.77980614 C-91.61801614 22.06316767 -91.61801614 22.06316767 -74.828125 2.203125 C-54.17390382 -18.45109618 -21.89377569 -19.58179298 0 0 Z " fill="#FFFDFD" transform="translate(3293.44140625,1037.18359375)"/>
<path d="M0 0 C18.34142025 14.79390275 30.84740585 35.08327936 33.40234375 58.72265625 C35.55947876 82.97768611 29.87945565 106.50932958 14.17578125 125.50390625 C-0.99800377 143.01694134 -21.85732453 154.50771187 -45 157 C-71.07043914 158.54386699 -95.2699423 151.79672244 -115.34375 134.52734375 C-131.37591341 119.2732118 -142.47375771 99.01845802 -143.23828125 76.54296875 C-143.68873742 51.04393193 -138.36832447 29.35253958 -121 10 C-88.74128048 -23.24050664 -37.08567481 -27.41707171 0 0 Z " fill="#FFFCFC" transform="translate(3535,844)"/>
<path d="M0 0 C0.94746094 0.65935547 0.94746094 0.65935547 1.9140625 1.33203125 C12.96151614 9.77578987 17.49363495 23.57856597 19.59587669 36.77515221 C20.23842637 41.90260931 20.28677518 46.97806206 20.2746582 52.13989258 C20.27976913 53.28797897 20.28488007 54.43606537 20.29014587 55.61894226 C20.30393498 59.37752641 20.30309308 63.13592497 20.30078125 66.89453125 C20.30467416 69.53187629 20.30901005 72.16922071 20.31376648 74.80656433 C20.3219458 80.32133604 20.32109432 85.83605643 20.31567383 91.35083008 C20.30964106 97.68675608 20.32193939 104.02245963 20.3432439 110.35834771 C20.36311967 116.49967717 20.36601764 122.64090413 20.36250877 128.7822628 C20.36301887 131.37395436 20.36819748 133.96564971 20.37832069 136.55732155 C20.45486588 158.89316496 20.16585294 179.16468331 3.93359375 196.1640625 C-5.92553374 205.582263 -19.05566947 209.91918607 -32.625 210.3125 C-34.08525795 210.24015695 -35.54412267 210.13419391 -37 210 C-37.87527344 209.94199219 -38.75054688 209.88398437 -39.65234375 209.82421875 C-51.49337855 208.50501622 -63.98950637 202.64499872 -72.03515625 193.75 C-83.10643903 178.25460621 -85.15383463 162.33512503 -85.14526367 143.69213867 C-85.14862228 142.62062057 -85.1519809 141.54910248 -85.15544128 140.44511414 C-85.16486681 136.93605358 -85.16689006 133.42704115 -85.16796875 129.91796875 C-85.17118686 127.45616131 -85.17455134 124.99435405 -85.17805481 122.532547 C-85.18402487 117.38424232 -85.18589687 112.23595438 -85.18530273 107.08764648 C-85.18520117 100.52134152 -85.19885764 93.95514481 -85.21607494 87.38886547 C-85.22724356 82.30735286 -85.22922046 77.22586604 -85.22869301 72.14434242 C-85.22986563 69.72487324 -85.23424666 67.30540323 -85.24202538 64.88594627 C-85.36002038 24.40079627 -85.36002038 24.40079627 -73 8 C-72.13375 6.700625 -72.13375 6.700625 -71.25 5.375 C-53.17390742 -13.70531994 -20.83004675 -15.37087093 0 0 Z " fill="#FFFDFD" transform="translate(2870,1053)"/>
<path d="M0 0 C43.89 0 87.78 0 133 0 C133 30.03 133 60.06 133 91 C89.11 91 45.22 91 0 91 C0 60.97 0 30.94 0 0 Z " fill="#FF151F" transform="translate(925,858)"/>
<path d="M0 0 C13.82140597 11.89547235 19.84731337 26.8474921 21.38671875 44.71875 C22.04369849 54.02329239 22.49205652 63.45081275 22.046875 72.7734375 C21.046875 73.7734375 21.046875 73.7734375 19.2059164 73.89648533 C17.99053236 73.89510264 17.99053236 73.89510264 16.75059509 73.89369202 C15.82366348 73.89506668 14.89673187 73.89644135 13.94171143 73.89785767 C12.91672546 73.89426239 11.8917395 73.89066711 10.83569336 73.88696289 C9.22613518 73.88718193 9.22613518 73.88718193 7.58406067 73.8874054 C4.01825984 73.88670574 0.45251051 73.87891088 -3.11328125 73.87109375 C-5.57807893 73.86922976 -8.04287699 73.86780577 -10.50767517 73.86680603 C-17.00966405 73.86297937 -23.51163075 73.85314782 -30.01361084 73.84210205 C-36.64253317 73.83135498 -43.27146193 73.82730909 -49.90039062 73.82226562 C-62.91797824 73.81152569 -75.93555044 73.79463847 -88.953125 73.7734375 C-94.10255246 58.32515513 -89.40279138 32.38939305 -82.67578125 18.05078125 C-75.1083542 4.48810729 -64.14279787 -4.42531475 -49.55859375 -9.5 C-32.39398849 -14.2865316 -14.16930328 -10.68320486 0 0 Z " fill="#FFFDFD" transform="translate(2011.953125,1036.2265625)"/>
<path d="M0 0 C18.34142025 14.79390275 30.84740585 35.08327936 33.40234375 58.72265625 C35.55947876 82.97768611 29.87945565 106.50932958 14.17578125 125.50390625 C-0.99800377 143.01694134 -21.85732453 154.50771187 -45 157 C-71.07043914 158.54386699 -95.2699423 151.79672244 -115.34375 134.52734375 C-131.37591341 119.2732118 -142.47375771 99.01845802 -143.23828125 76.54296875 C-143.68873742 51.04393193 -138.36832447 29.35253958 -121 10 C-88.74128048 -23.24050664 -37.08567481 -27.41707171 0 0 Z M-106 18 C-106.70125 18.66515625 -107.4025 19.3303125 -108.125 20.015625 C-121.17726882 33.37380637 -126.25940895 52.36741713 -126.2487793 70.59301758 C-125.92052997 91.34357024 -117.89572276 109.84955661 -103.25415039 124.35522461 C-89.68739517 137.12223912 -71.31874556 143.40063558 -52.77246094 142.9453125 C-32.88378754 141.75426909 -15.80673023 134.08081504 -1.8125 119.76171875 C12.1143517 103.57719382 17.41578626 83.19384673 16.18457031 62.20117188 C14.6683802 44.11920089 6.3144543 26.40915973 -7 14 C-37.65982175 -10.25744652 -77.79085942 -9.65238122 -106 18 Z " fill="#FF1721" transform="translate(3535,844)"/>
<path d="M0 0 C57.92631579 0 57.92631579 0 67 8 C72.75637922 14.06554537 73.64546989 21.9185315 74 30 C73.47375341 37.91517835 70.95957631 44.04042369 65.3125 49.6875 C60.14218313 53.65053476 54.56630907 56.31158233 48 56 C54.02649563 66.0021496 60.16846814 75.88298579 66.6953125 85.56640625 C76 99.37574405 76 99.37574405 76 101 C70.3145861 101.82245942 64.62638429 102.50417719 59 101 C55.28987299 97.8786913 53.51719325 93.96448881 51.41455078 89.69140625 C49.65134267 86.33662438 47.68093829 83.12449804 45.68359375 79.90625 C45.29615997 79.28075256 44.9087262 78.65525513 44.509552 78.01080322 C43.7168929 76.73209171 42.92383006 75.45363038 42.13037109 74.17541504 C40.20572556 71.06884177 38.29727609 67.95290086 36.40234375 64.828125 C35.41995728 63.2179248 35.41995728 63.2179248 34.41772461 61.57519531 C33 59 33 59 33 57 C27.06 57 21.12 57 15 57 C15 71.52 15 86.04 15 101 C10.05 101 5.1 101 0 101 C0 67.67 0 34.34 0 0 Z " fill="#FF1620" transform="translate(3447,863)"/>
<path d="M0 0 C6.93 -0.0928125 6.93 -0.0928125 14 -0.1875 C16.16175781 -0.22846802 16.16175781 -0.22846802 18.3671875 -0.27026367 C26.85460847 -0.32520035 33.42036061 -0.27498923 39.9375 5.6875 C43.16389072 10.86927903 43.38343022 14.73776169 42.375 20.6875 C40.77393259 24.54461695 39.2942932 26.43777196 36 29 C31.19995144 30.6677245 27.03799824 31.24033776 21.97265625 31.1953125 C20.81258057 31.19031738 19.65250488 31.18532227 18.45727539 31.18017578 C17.00699951 31.16196777 15.55672363 31.14375977 14.0625 31.125 C9.421875 31.08375 4.78125 31.0425 0 31 C0 20.77 0 10.54 0 0 Z " fill="#FFFDFD" transform="translate(3462,876)"/>
</svg>
