<?xml version="1.0" encoding="UTF-8"?>
<svg version="1.1" xmlns="http://www.w3.org/2000/svg" width="3840" height="2160">
<path d="M0 0 C0.87914063 0.66644531 1.75828125 1.33289063 2.6640625 2.01953125 C35.74795056 27.80395829 59.16570997 61.68700357 74.5546875 100.453125 C75.05807048 101.70830326 75.56200242 102.96326148 76.06643677 104.21801758 C77.12778122 106.86115727 78.18553711 109.50569019 79.24023438 112.15148926 C80.90163779 116.31919115 82.57124761 120.48357494 84.2421875 124.64746094 C86.2020717 129.53266519 88.16031979 134.4185171 90.11603165 139.30539322 C94.04850188 149.13098498 98.01019782 158.94457682 101.98718262 168.75222778 C103.33482267 172.07572711 104.68098562 175.39982398 106.02722168 178.72389221 C107.01635013 181.16609472 108.00572079 183.608199 108.99511719 186.05029297 C111.09432456 191.23225152 113.19183058 196.41489794 115.2890625 201.59765625 C122.02107145 218.23378828 128.75583916 234.86879014 135.5 251.5 C142.9559277 269.88643845 150.40004466 288.27764902 157.84277344 306.66943359 C161.04126038 314.57314021 164.24041036 322.47657845 167.43951416 330.3800354 C169.20970363 334.75334579 170.9798496 339.12667379 172.75 343.5 C173.45833313 345.25000008 174.16666646 347.00000008 174.875 348.75 C193.29166667 394.25 211.70833333 439.75 230.125 485.25 C230.47561493 486.11622482 230.82622986 486.98244965 231.18746948 487.87492371 C231.89590537 489.62517768 232.60434043 491.375432 233.31277466 493.12568665 C235.08203204 497.49680357 236.85130382 501.86791467 238.62060547 506.23901367 C241.82692997 514.16035031 245.0331447 522.0817313 248.23883057 530.00332642 C255.32103273 547.50418781 262.40524636 565.00422262 269.5 582.5 C276.9559277 600.88643845 284.40004466 619.27764902 291.84277344 637.66943359 C295.04126038 645.57314021 298.24041036 653.47657845 301.43951416 661.3800354 C303.20970363 665.75334579 304.9798496 670.12667379 306.75 674.5 C307.45833313 676.25000008 308.16666646 678.00000008 308.875 679.75 C321.625 711.25 334.375 742.75 347.125 774.25 C347.47565018 775.11631042 347.82630035 775.98262085 348.18757629 776.87518311 C348.89566031 778.62457073 349.60373933 780.37396038 350.31181335 782.12335205 C352.08642025 786.50773797 353.86111484 790.89208837 355.63598633 795.27636719 C358.77853664 803.03931603 361.92059746 810.80245998 365.05917358 818.5670166 C373.81328234 840.22370415 382.60570196 861.86448278 391.42489624 883.49475098 C397.81022966 899.15643951 404.17548717 914.82599226 410.51324463 930.50698853 C416.60560068 945.57869682 422.73672363 960.63444259 428.875 975.6875 C438.2670169 998.72266152 447.62089723 1021.77294056 456.92138672 1044.84521484 C458.27285516 1048.19780112 459.6259834 1051.54970778 460.98095703 1054.90087891 C462.45613668 1058.54945069 463.92815431 1062.19927825 465.39715576 1065.8503418 C465.91735688 1067.14182575 466.43868935 1068.43285467 466.96124268 1069.72338867 C467.65837906 1071.44579999 468.35083004 1073.17010558 469.04296875 1074.89453125 C469.42477295 1075.84175049 469.80657715 1076.78896973 470.19995117 1077.76489258 C471 1080 471 1080 471 1082 C463.99646668 1082.917897 457.1596413 1083.140139 450.10096645 1083.12304783 C448.92391564 1083.12420167 447.74686482 1083.12535552 446.5341458 1083.12654433 C443.27495392 1083.1287309 440.01580091 1083.12644996 436.75661213 1083.12226619 C433.20796177 1083.11882075 429.65931447 1083.12120493 426.11066347 1083.12284368 C419.8940191 1083.12491457 413.6773843 1083.1232785 407.46074104 1083.11920547 C398.21684639 1083.1131659 388.97295777 1083.1128701 379.72906151 1083.11374746 C364.17872144 1083.11506089 348.62838563 1083.11172173 333.0780468 1083.10573006 C317.68147701 1083.09981284 302.284909 1083.09596407 286.88833809 1083.09487724 C285.45231764 1083.09477413 285.45231764 1083.09477413 283.98728667 1083.09466894 C279.12539626 1083.09433061 274.26350586 1083.09402922 269.40161545 1083.09374207 C234.96574047 1083.09164171 200.52986781 1083.0849045 166.09399414 1083.07543945 C132.64021822 1083.06625496 99.18644294 1083.05917137 65.73266602 1083.05493164 C64.70145712 1083.05480011 63.67024822 1083.05466859 62.60779056 1083.05453308 C52.2519578 1083.05321456 41.89612503 1083.05193874 31.54029225 1083.05069422 C10.44430633 1083.04815801 -10.65167955 1083.04533676 -31.74766541 1083.04234314 C-32.71762264 1083.04220585 -33.68757988 1083.04206856 -34.68692976 1083.04192711 C-64.41694291 1083.03770406 -94.14695567 1083.03227285 -123.87696838 1083.02565002 C-124.7210291 1083.02546247 -125.56508982 1083.02527491 -126.43472813 1083.02508167 C-160.62315227 1083.01746638 -194.8115761 1083.00857246 -229 1083 C-229 1032.51 -229 982.02 -229 930 C-72.58 930 83.84 930 245 930 C226.03913066 883.00678132 226.03913066 883.00678132 207.03710938 836.03027344 C204.92482011 830.81484201 202.81386103 825.59887269 200.703125 820.3828125 C193.97365331 803.75321803 187.24152583 787.12471187 180.5 770.5 C173.0440723 752.11356155 165.59995534 733.72235098 158.15722656 715.33056641 C154.95873962 707.42685979 151.75958964 699.52342155 148.56048584 691.6199646 C146.79029637 687.24665421 145.0201504 682.87332621 143.25 678.5 C142.54166687 676.74999992 141.83333354 674.99999992 141.125 673.25 C128.375 641.75 115.625 610.25 102.875 578.75 C102.52438507 577.88377518 102.17377014 577.01755035 101.81253052 576.12507629 C101.10409463 574.37482232 100.39565957 572.624568 99.68722534 570.87431335 C97.91796796 566.50319643 96.14869618 562.13208533 94.37939453 557.76098633 C91.17307003 549.83964969 87.9668553 541.9182687 84.76116943 533.99667358 C77.67896727 516.49581219 70.59475364 498.99577738 63.5 481.5 C56.0440723 463.11356155 48.59995534 444.72235098 41.15722656 426.33056641 C37.95873962 418.42685979 34.75958964 410.52342155 31.56048584 402.6199646 C29.79029637 398.24665421 28.0201504 393.87332621 26.25 389.5 C25.54166687 387.74999992 24.83333354 385.99999992 24.125 384.25 C5.70833333 338.75 -12.70833333 293.25 -31.125 247.75 C-31.47558975 246.88384064 -31.8261795 246.01768127 -32.18739319 245.12527466 C-32.89609255 243.37436317 -33.60478191 241.62344764 -34.3134613 239.87252808 C-36.0786127 235.51144064 -37.84393483 231.15042248 -39.60961914 226.78955078 C-43.61704701 216.8914223 -47.6201468 206.99156348 -51.6174469 197.08934021 C-53.44094025 192.57370124 -55.26760737 188.05939775 -57.10180664 183.5480957 C-57.44957657 182.69267685 -57.7973465 181.837258 -58.15565491 180.95591736 C-58.83630926 179.28176513 -59.51708261 177.60766127 -60.19798279 175.93360901 C-62.14720289 171.13190434 -64.05700859 166.31730374 -65.9375 161.48828125 C-70.33128921 150.32329852 -74.67061861 140.78689183 -83 132 C-84.05767578 130.87658203 -84.05767578 130.87658203 -85.13671875 129.73046875 C-100.42966517 114.94634495 -119.52250994 110.45411299 -140.109375 110.7265625 C-158.00283691 111.30321842 -173.58604478 119.71645209 -186.18359375 132.15625 C-193.76340214 140.29487224 -198.5388621 149.58934257 -202.58203125 159.875 C-202.99344864 160.9008873 -203.40486603 161.9267746 -203.82875061 162.98374939 C-205.16452544 166.31942043 -206.48846114 169.65965543 -207.8125 173 C-208.74730588 175.33963539 -209.68302697 177.67890529 -210.61962891 180.01782227 C-212.51544311 184.75412115 -214.40740515 189.49192915 -216.29638672 194.23095703 C-219.77702811 202.95559019 -223.30140112 211.66233859 -226.83236694 220.36669922 C-228.22299632 223.795548 -229.6113436 227.22531899 -230.99977112 230.65505981 C-235.46863066 241.69348327 -239.94340881 252.72950898 -244.41864014 263.76535034 C-249.45089474 276.17482401 -254.47677045 288.58687053 -259.5 301 C-264.82889357 314.16846965 -270.16144813 327.33544287 -275.5 340.5 C-280.79629033 353.56063014 -286.0876326 366.62325497 -291.375 379.6875 C-291.72850525 380.56095062 -292.0820105 381.43440125 -292.44622803 382.33432007 C-294.96430082 388.55615316 -297.48217295 394.77806746 -300 401 C-302.87486286 408.10422217 -305.74981341 415.20840884 -308.625 422.3125 C-308.97866638 423.18635345 -309.33233276 424.06020691 -309.69671631 424.96054077 C-314.93233485 437.89645164 -320.17315235 450.83024641 -325.4175415 463.76260376 C-330.45015874 476.1729944 -335.47640057 488.58595651 -340.5 501 C-346.13400275 514.92243871 -351.77273811 528.84294472 -357.41699219 542.76123047 C-362.44979073 555.17207959 -367.47621563 567.5854995 -372.5 580 C-378.13400275 593.92243871 -383.77273811 607.84294472 -389.41699219 621.76123047 C-394.44979073 634.17207959 -399.47621563 646.5854995 -404.5 659 C-410.13400275 672.92243871 -415.77273811 686.84294472 -421.41699219 700.76123047 C-426.44979073 713.17207959 -431.47621563 725.5854995 -436.5 738 C-441.82889357 751.16846965 -447.16144813 764.33544287 -452.5 777.5 C-457.79629033 790.56063014 -463.0876326 803.62325497 -468.375 816.6875 C-468.72850525 817.56095062 -469.0820105 818.43440125 -469.44622803 819.33432007 C-471.96430082 825.55615316 -474.48217295 831.77806746 -477 838 C-479.87486286 845.10422217 -482.74981341 852.20840884 -485.625 859.3125 C-485.97866638 860.18635345 -486.33233276 861.06020691 -486.69671631 861.96054077 C-491.93233485 874.89645164 -497.17315235 887.83024641 -502.4175415 900.76260376 C-507.45015874 913.1729944 -512.47640057 925.58595651 -517.5 938 C-523.13400275 951.92243871 -528.77273811 965.84294472 -534.41699219 979.76123047 C-539.0894372 991.28345008 -543.75669507 1002.80776057 -548.4208374 1014.33334351 C-550.9055515 1020.4731773 -553.39078726 1026.61279995 -555.87597656 1032.75244141 C-557.30518505 1036.28329629 -558.73419486 1039.8142315 -560.16308594 1043.34521484 C-561.90450931 1047.64830725 -563.64669231 1051.95109142 -565.3894043 1056.25366211 C-566.03858322 1057.85674972 -566.68751524 1059.45993735 -567.33618164 1061.06323242 C-568.2312702 1063.27549717 -569.1272481 1065.48739976 -570.0234375 1067.69921875 C-570.41134964 1068.65884773 -570.41134964 1068.65884773 -570.80709839 1069.63786316 C-571.53279906 1071.42738686 -572.26629476 1073.21374325 -573 1075 C-573.19974426 1075.65110748 -573.39948853 1076.30221497 -573.60528564 1076.97305298 C-574.24853516 1078.89379883 -574.24853516 1078.89379883 -576 1082 C-581.83951506 1083.36527602 -587.81667403 1083.13980038 -593.78661919 1083.12584114 C-594.86776534 1083.12729458 -595.9489115 1083.12874802 -597.06281966 1083.13024551 C-600.69870333 1083.13390536 -604.33454508 1083.13041906 -607.97042847 1083.12698364 C-610.59852499 1083.12813549 -613.22662135 1083.12972344 -615.85471737 1083.13171089 C-621.57589648 1083.13532315 -627.29706615 1083.13521264 -633.0182457 1083.13266373 C-641.52676356 1083.12888333 -650.03527346 1083.13081403 -658.54379128 1083.13387203 C-673.74456271 1083.13914168 -688.94532995 1083.13867953 -704.14610179 1083.13579312 C-717.45978898 1083.13327753 -730.77347463 1083.13262086 -744.08716202 1083.13381577 C-744.97031466 1083.13389215 -745.8534673 1083.13396854 -746.76338215 1083.13404724 C-750.34858825 1083.13435858 -753.93379435 1083.13467698 -757.51900045 1083.135007 C-791.17115713 1083.13806768 -824.82331114 1083.13529074 -858.47546741 1083.1299101 C-888.33732476 1083.12517174 -918.19917784 1083.1255827 -948.06103516 1083.13037109 C-981.62448699 1083.13573507 -1015.18793646 1083.13784321 -1048.75138867 1083.13475883 C-1052.33564385 1083.13443813 -1055.91989903 1083.13412529 -1059.50415421 1083.13381577 C-1060.38665944 1083.13373669 -1061.26916466 1083.13365761 -1062.17841248 1083.13357614 C-1075.46738057 1083.13244178 -1088.75634694 1083.13376328 -1102.04531479 1083.13629532 C-1117.17945312 1083.13916459 -1132.3135866 1083.13841889 -1147.44772433 1083.13301457 C-1155.90306418 1083.13009425 -1164.35839351 1083.12986325 -1172.81373308 1083.13366075 C-1178.48148727 1083.13592384 -1184.14923312 1083.13447071 -1189.81698609 1083.13015598 C-1193.03352687 1083.12780584 -1196.25004322 1083.12747019 -1199.46658395 1083.13056196 C-1241.03637946 1083.16741917 -1241.03637946 1083.16741917 -1261.375 1080.75 C-1262.48182129 1080.62069092 -1263.58864258 1080.49138184 -1264.72900391 1080.3581543 C-1331.322478 1072.18322479 -1395.42787293 1045.45743177 -1446 1001 C-1446.71027344 1000.38898438 -1447.42054687 999.77796875 -1448.15234375 999.1484375 C-1458.59763017 990.13430485 -1468.94557535 980.87031892 -1477.9453125 970.390625 C-1479.4875053 968.59628661 -1481.04791375 966.81757791 -1482.6171875 965.046875 C-1549.57390175 889.03705029 -1571.17119451 793.38310857 -1571.14538372 694.63957822 C-1571.14517762 689.71018091 -1571.15071817 684.78078925 -1571.15544128 679.85139465 C-1571.16370417 670.21700836 -1571.16649415 660.58262818 -1571.16705366 650.94823863 C-1571.16753098 643.10525506 -1571.1695964 635.26227348 -1571.17275429 627.41929054 C-1571.18154954 605.11677645 -1571.18617552 582.81426715 -1571.18542381 560.51175132 C-1571.18538386 559.31250961 -1571.1853439 558.11326791 -1571.18530273 556.87768555 C-1571.18526185 555.67695637 -1571.18522097 554.4762272 -1571.18517885 553.2391123 C-1571.18477287 533.80353987 -1571.19433331 514.36798686 -1571.2084411 494.93242004 C-1571.22285772 474.9112061 -1571.22970837 454.8900016 -1571.22884732 434.86878234 C-1571.22851714 423.65460089 -1571.23118521 412.44043978 -1571.24202538 401.22626305 C-1571.25120036 391.674501 -1571.25324898 382.12276852 -1571.24651595 372.57100394 C-1571.24328542 367.71243951 -1571.24306577 362.85393157 -1571.2518692 357.99537277 C-1571.33769876 307.32641385 -1567.23994536 258.40079547 -1551 210 C-1550.68305176 209.04931641 -1550.36610352 208.09863281 -1550.03955078 207.11914062 C-1534.98671644 162.51468178 -1510.82461868 121.09089852 -1479.09765625 86.31640625 C-1477.29408387 84.32475183 -1475.54893904 82.29978143 -1473.8125 80.25 C-1465.9450182 71.22445429 -1457.24162374 62.61167983 -1448 55 C-1447.47277344 54.55897949 -1446.94554687 54.11795898 -1446.40234375 53.66357422 C-1369.08181815 -10.94415438 -1281.05496129 -28.20617499 -1183.04198909 -28.11606562 C-1177.08325505 -28.11170561 -1171.12452193 -28.11321144 -1165.16578674 -28.1139679 C-1154.20010674 -28.11452348 -1143.23443387 -28.11066483 -1132.26875567 -28.10462701 C-1122.14927317 -28.09910299 -1112.02979279 -28.09589259 -1101.91030884 -28.09487724 C-1101.23680771 -28.0948085 -1100.56330658 -28.09473976 -1099.86939632 -28.09466894 C-1096.44830946 -28.09433056 -1093.02722259 -28.09402919 -1089.60613573 -28.09374207 C-1065.44429058 -28.09164783 -1041.28244875 -28.08492783 -1017.12060547 -28.07543945 C-993.66389992 -28.06623869 -970.20719528 -28.0591631 -946.75048828 -28.05493164 C-946.02603968 -28.05480011 -945.30159108 -28.05466859 -944.55518949 -28.05453308 C-937.27924461 -28.05321443 -930.00329972 -28.05193864 -922.72735482 -28.05069422 C-907.90856853 -28.04815876 -893.0897823 -28.04533751 -878.27099609 -28.04234314 C-877.58981795 -28.04220585 -876.9086398 -28.04206856 -876.20681989 -28.04192711 C-830.80454491 -28.03274365 -785.40227312 -28.01625511 -740 -28 C-740 22.49 -740 72.98 -740 125 C-754.57687988 124.98952637 -769.15375977 124.97905273 -784.17236328 124.96826172 C-815.37612805 124.94678903 -846.57989142 124.92793883 -877.78366089 124.91531372 C-878.80468907 124.91489955 -878.80468907 124.91489955 -879.84634408 124.91447701 C-894.64255051 124.90848999 -909.43875707 124.9029498 -924.23496384 124.89786934 C-931.49192905 124.89537486 -938.74889422 124.89278172 -946.00585938 124.89013672 C-946.72798138 124.8898752 -947.45010339 124.88961368 -948.19410788 124.88934424 C-971.5637155 124.88083471 -994.93331339 124.86582196 -1018.30291512 124.84740556 C-1042.33556907 124.82850122 -1066.36821765 124.81622005 -1090.40087891 124.81217002 C-1093.80206173 124.81159378 -1097.20324454 124.81094251 -1100.60442734 124.81024551 C-1101.27377201 124.81011067 -1101.94311669 124.80997582 -1102.63274454 124.80983689 C-1112.70647547 124.80762693 -1122.78019144 124.79966733 -1132.85391617 124.78853989 C-1144.33438856 124.77590475 -1155.81483902 124.77006966 -1167.29531844 124.77299725 C-1173.14703302 124.77427302 -1178.99869891 124.77237416 -1184.85040474 124.76158905 C-1190.22274254 124.75176051 -1195.59499954 124.75142647 -1200.96734129 124.75820221 C-1202.89638914 124.75903798 -1204.82544232 124.75658293 -1206.7544799 124.75023364 C-1224.00137396 124.69683336 -1241.63140253 125.22391108 -1258.5 129.125 C-1259.44246582 129.33962891 -1260.38493164 129.55425781 -1261.35595703 129.77539062 C-1293.64849474 137.49506503 -1326.00266695 154.23043579 -1349.23046875 178.3125 C-1351 180 -1351 180 -1353 180 C-1353 180.66 -1353 181.32 -1353 182 C-1354.375 183.625 -1354.375 183.625 -1356 185 C-1356.66 185 -1357.32 185 -1358 185 C-1358.23074219 185.55429687 -1358.46148438 186.10859375 -1358.69921875 186.6796875 C-1360.35260367 189.6289687 -1362.45343525 191.70030973 -1364.8125 194.125 C-1376.79137374 206.87172456 -1386.0526434 221.48230246 -1394 237 C-1394.38639648 237.7429834 -1394.77279297 238.4859668 -1395.17089844 239.25146484 C-1408.90426299 265.895113 -1416.522058 295.17730018 -1417.55342102 325.1230011 C-1417.59552147 326.33869886 -1417.63762192 327.55439662 -1417.68099815 328.8069337 C-1418.17625088 344.65087193 -1418.14982554 360.49770544 -1418.14538372 376.34786928 C-1418.14517613 380.98934678 -1418.15073155 385.63081845 -1418.15544128 390.27229309 C-1418.16366961 399.32337251 -1418.16649245 408.3744454 -1418.16705366 417.42552825 C-1418.16753215 424.79068322 -1418.16960327 432.15583607 -1418.17275429 439.52099037 C-1418.181536 460.47853262 -1418.18617705 481.43606979 -1418.18542381 502.3936139 C-1418.18538386 503.51822082 -1418.1853439 504.64282775 -1418.18530273 505.80151367 C-1418.18524141 507.49052008 -1418.18524141 507.49052008 -1418.18517885 509.21364782 C-1418.18477209 527.47585773 -1418.1943559 545.73804706 -1418.2084411 564.00025102 C-1418.22284483 582.82613622 -1418.22970924 601.65201139 -1418.22884732 620.47790223 C-1418.22851695 631.01772422 -1418.23119409 641.55752456 -1418.24202538 652.09734154 C-1418.25118278 661.06424893 -1418.25326264 670.03112484 -1418.24651595 678.99803492 C-1418.24327826 683.56022399 -1418.2430931 688.12235285 -1418.2518692 692.68453598 C-1418.54212651 727.8230549 -1418.54212651 727.8230549 -1413.875 762.5625 C-1413.66109619 763.58021484 -1413.44719238 764.59792969 -1413.22680664 765.64648438 C-1406.26345123 797.20397362 -1392.13208144 826.74153695 -1372 852 C-1371.20464844 853.0003125 -1370.40929688 854.000625 -1369.58984375 855.03125 C-1353.06783879 875.37017788 -1333.65036716 891.88865746 -1311 905 C-1310.33564941 905.38639648 -1309.67129883 905.77279297 -1308.98681641 906.17089844 C-1282.71810813 921.24839133 -1253.48438637 929.32341301 -1223.18093872 929.2784729 C-1221.74511403 929.28348233 -1220.30929215 929.289355 -1218.87347412 929.29600525 C-1214.9617712 929.31166422 -1211.05014022 929.31520444 -1207.13840976 929.31664422 C-1202.84259832 929.32044643 -1198.54682443 929.33578589 -1194.25103569 929.3496151 C-1185.9283966 929.3747069 -1177.60577021 929.38975077 -1169.28310239 929.40119901 C-1159.64760956 929.4148924 -1150.01217804 929.44122678 -1140.37670898 929.4675293 C-1114.959497 929.53071742 -1089.54224486 929.57682019 -1064.125 929.625 C-1007.32375 929.74875 -950.5225 929.8725 -892 930 C-892 792.39 -892 654.78 -892 513 C-987.7 513 -1083.4 513 -1182 513 C-1182 462.84 -1182 412.68 -1182 361 C-1036.14 361 -890.28 361 -740 361 C-739.67 597.61 -739.34 834.22 -739 1078 C-733.72 1064.8 -728.44 1051.6 -723 1038 C-718.93147462 1027.94834906 -714.86196795 1017.8973862 -710.78121948 1007.85073853 C-707.05419782 998.67467983 -703.34001936 989.49342271 -699.625 980.3125 C-698.90894564 978.54312742 -698.19288117 976.77375894 -697.47680664 975.00439453 C-696.03690126 971.44647018 -694.59704622 967.88852545 -693.15722656 964.33056641 C-689.25206783 954.68061959 -685.34598227 945.03104788 -681.44006348 935.38140869 C-680.37930731 932.76078524 -679.31855741 930.14015926 -678.2578125 927.51953125 C-677.90759033 926.65428833 -677.55736816 925.78904541 -677.1965332 924.89758301 C-675.05121116 919.59736111 -672.90610899 914.29705028 -670.76116943 908.99667358 C-663.37299056 890.73971179 -655.98171687 872.48401879 -648.58044434 854.23236084 C-641.43119253 836.60173941 -634.29397897 818.96625041 -627.15722656 801.33056641 C-623.95873962 793.42685979 -620.75958964 785.52342155 -617.56048584 777.6199646 C-615.79029637 773.24665421 -614.0201504 768.87332621 -612.25 764.5 C-611.54166687 762.74999992 -610.83333354 760.99999992 -610.125 759.25 C-609.774375 758.38375 -609.42375 757.5175 -609.0625 756.625 C-605.87499958 748.74999896 -605.87499958 748.74999896 -604.81253052 746.12507629 C-604.10409463 744.37482232 -603.39565957 742.624568 -602.68722534 740.87431335 C-600.91796796 736.50319643 -599.14869618 732.13208533 -597.37939453 727.76098633 C-594.17307003 719.83964969 -590.9668553 711.9182687 -587.76116943 703.99667358 C-580.37299056 685.73971179 -572.98171687 667.48401879 -565.58044434 649.23236084 C-558.43119253 631.60173941 -551.29397897 613.96625041 -544.15722656 596.33056641 C-540.95873962 588.42685979 -537.75958964 580.52342155 -534.56048584 572.6199646 C-532.79029637 568.24665421 -531.0201504 563.87332621 -529.25 559.5 C-528.54166687 557.74999992 -527.83333354 555.99999992 -527.125 554.25 C-526.5990625 552.950625 -526.5990625 552.950625 -526.0625 551.625 C-522.87500037 543.75000093 -522.87500037 543.75000093 -521.81253052 541.12507629 C-521.10409463 539.37482232 -520.39565957 537.624568 -519.68722534 535.87431335 C-517.91796796 531.50319643 -516.14869618 527.13208533 -514.37939453 522.76098633 C-511.17307003 514.83964969 -507.9668553 506.9182687 -504.76116943 498.99667358 C-497.37299056 480.73971179 -489.98171687 462.48401879 -482.58044434 444.23236084 C-475.43119253 426.60173941 -468.29397897 408.96625041 -461.15722656 391.33056641 C-457.25206783 381.68061959 -453.34598227 372.03104788 -449.44006348 362.38140869 C-448.37930731 359.76078524 -447.31855741 357.14015926 -446.2578125 354.51953125 C-445.73247925 353.22166687 -445.73247925 353.22166687 -445.1965332 351.89758301 C-443.05121116 346.59736111 -440.90610899 341.29705028 -438.76116943 335.99667358 C-431.37299056 317.73971179 -423.98171687 299.48401879 -416.58044434 281.23236084 C-409.43119253 263.60173941 -402.29397897 245.96625041 -395.15722656 228.33056641 C-391.95873962 220.42685979 -388.75958964 212.52342155 -385.56048584 204.6199646 C-383.79029637 200.24665421 -382.0201504 195.87332621 -380.25 191.5 C-379.54166687 189.74999992 -378.83333354 187.99999992 -378.125 186.25 C-377.5990625 184.950625 -377.5990625 184.950625 -377.0625 183.625 C-373.87500001 175.75000002 -373.87500001 175.75000002 -372.81260681 173.12528992 C-372.1038933 171.3743333 -371.39520395 169.6233669 -370.6865387 167.87239075 C-368.92171949 163.51194675 -367.15648817 159.1516705 -365.39038086 154.79174805 C-361.7521889 145.80892479 -358.12195101 136.82298959 -354.50390625 127.83203125 C-350.36233671 117.54390341 -346.2005008 107.26422042 -342 97 C-341.60264648 96.02842957 -341.60264648 96.02842957 -341.19726562 95.03723145 C-329.42761932 66.31798842 -313.26183492 42.56548027 -292 20 C-291.27167969 19.21753906 -290.54335937 18.43507813 -289.79296875 17.62890625 C-283.92429488 11.52069468 -277.41254513 6.37256317 -270.67529297 1.26953125 C-269.19440485 0.14731933 -267.7233799 -0.98788241 -266.25390625 -2.125 C-197.9585483 -53.68435699 -96.52857929 -55.51484777 0 0 Z " fill="#0060AC" transform="translate(3353,560)"/>
<path d="M0 0 C2.05404957 -0.00043718 4.10809908 -0.00131476 6.1621483 -0.00258917 C11.75160536 -0.0048054 17.34104294 -0.0008526 22.93049753 0.0041889 C28.97861817 0.00853485 35.02673785 0.00704405 41.07485962 0.00628662 C51.53546565 0.005764 61.99606651 0.00884813 72.45667076 0.01452446 C83.41831174 0.02045732 94.37995021 0.02429359 105.34159279 0.02537727 C106.36691667 0.02548038 106.36691667 0.02548038 107.41295417 0.02558558 C110.88486614 0.02592395 114.35677811 0.02622532 117.82869009 0.02651245 C142.37043966 0.02860851 166.91218598 0.03533368 191.45393372 0.04481506 C215.28433719 0.05401095 239.11473976 0.06108894 262.94514465 0.06532288 C263.68070928 0.0654544 264.4162739 0.06558593 265.17412836 0.06572144 C272.56149514 0.06704005 279.94886193 0.06831585 287.33622872 0.0695603 C302.3828948 0.07209598 317.42956081 0.07491723 332.47622681 0.07791138 C333.16792983 0.07804867 333.85963284 0.07818596 334.57229656 0.07832741 C380.70187035 0.08751597 426.83144224 0.10338064 472.96101379 0.12025452 C474.0444159 3.37046082 474.0841445 5.71784698 474.08126831 9.13763428 C474.08264297 10.39546722 474.08401764 11.65330017 474.08543396 12.94924927 C474.08189481 14.3456881 474.07826 15.7421267 474.07453918 17.13856506 C474.07425715 18.60696918 474.07441536 20.07537343 474.07498169 21.54377747 C474.07526905 25.53315432 474.06938223 29.52250122 474.06240773 33.5118711 C474.05616398 37.67989943 474.05556958 41.84792841 474.05438232 46.01596069 C474.05127203 53.91008653 474.04306269 61.80419855 474.03303283 69.6983183 C474.02186235 78.68491391 474.01635889 87.67151016 474.0113374 96.65811098 C474.00087984 115.1455 473.98328621 133.63287615 473.96101379 152.12025452 C468.82846211 152.96863146 463.85379805 153.26000192 458.6491766 153.23771572 C457.83558307 153.23827037 457.02198954 153.23882502 456.18374166 153.23939648 C453.45802106 153.24003817 450.73236514 153.23352109 448.00665283 153.22705078 C446.03226188 153.22605457 444.05787066 153.22550505 442.08347946 153.22536379 C436.65760091 153.22371774 431.23174636 153.21584739 425.80587542 153.20700204 C419.95344644 153.1985745 414.10101468 153.19597322 408.24858093 153.19274902 C398.10374968 153.18644803 387.95892647 153.17670529 377.81410027 153.16485405 C362.4447056 153.14708947 347.07531055 153.137613 331.70590806 153.1299634 C325.53306236 153.12685399 319.3602168 153.12347182 313.18737125 153.12008762 C312.50153367 153.11971285 311.8156961 153.11933808 311.10907556 153.11895196 C294.7847364 153.10997995 278.46039943 153.09832074 262.13606262 153.08583069 C261.06481897 153.08501408 261.06481897 153.08501408 259.97193404 153.08418098 C243.32693495 153.0714696 226.68193755 153.05746893 210.03694153 153.04121399 C209.32206284 153.0405168 208.60718416 153.03981961 207.87064248 153.0391013 C204.26619988 153.03558388 200.66175729 153.03205702 197.0573147 153.02852941 C196.34498673 153.02783263 195.63265875 153.02713585 194.89874508 153.02641795 C193.46099423 153.0250112 192.02324338 153.02360294 190.58549253 153.02219315 C166.78347576 152.99889656 142.98146183 152.98246969 119.17943522 152.97351655 C115.81138637 152.97224014 112.44333756 152.97087137 109.07528877 152.96943855 C108.08110891 152.96901653 108.08110891 152.96901653 107.06684461 152.96858599 C95.78481738 152.96355426 84.50281105 152.94980062 73.22079457 152.93377507 C63.17178957 152.92001413 53.12279645 152.91357122 43.07378214 152.91276496 C37.28479995 152.91206441 31.49586868 152.90815132 25.70689964 152.89530182 C20.39220698 152.88356795 15.07759292 152.88135024 9.76289035 152.88624401 C7.85491166 152.88639352 5.94692872 152.88323832 4.03896313 152.87616693 C-13.15260225 152.81581956 -30.72504164 153.35982356 -47.53898621 157.24525452 C-48.47782654 157.45770813 -49.41666687 157.67016174 -50.38395691 157.88905334 C-83.12279088 165.68089036 -111.9491743 182.38001562 -136.66007996 204.96400452 C-138.81409129 206.91640888 -141.00926347 208.80302811 -143.22648621 210.68275452 C-147.23493665 214.1971216 -150.65428222 218.00793662 -154.03898621 222.12025452 C-154.47227234 222.6411969 -154.90555847 223.16213928 -155.35197449 223.6988678 C-162.87870179 232.77634067 -169.84339474 242.08160772 -176.03898621 252.12025452 C-176.65338562 253.1143634 -176.65338562 253.1143634 -177.28019714 254.1285553 C-205.97438592 301.3362078 -213.52089855 358.59957223 -200.82365417 412.02650452 C-191.65222374 448.18716616 -172.64245819 484.06515665 -145.23039246 509.81947327 C-144.03898621 511.12025452 -144.03898621 511.12025452 -144.03898621 513.12025452 C-143.13793152 513.52437561 -143.13793152 513.52437561 -142.21867371 513.93666077 C-140.02419747 515.12828496 -138.82566542 516.22092534 -137.16398621 518.05775452 C-108.40785978 547.54807991 -62.80732959 568.47727064 -21.55892897 569.35844898 C-17.47044057 569.40621776 -13.3825887 569.41011425 -9.29386902 569.40736389 C-7.44910891 569.41340212 -5.60435153 569.42032987 -3.75959778 569.42807007 C0.18637132 569.44286025 4.13229069 569.45168334 8.07828522 569.45578003 C14.33491961 569.46254989 20.59144875 569.48437011 26.84803772 569.50831604 C40.13567159 569.55709396 53.42332779 569.58952139 66.71101379 569.62025452 C81.04755907 569.65343872 95.38406263 569.68958061 109.7205441 569.74438524 C115.92249502 569.76753999 122.12437236 569.78142572 128.32636213 569.78787994 C132.20590734 569.79387716 136.08539388 569.80802305 139.9649086 569.82422447 C141.74406536 569.83003087 143.52323667 569.83258746 145.3024025 569.83138466 C160.12013676 569.82423176 175.25011357 570.25834261 189.58601379 574.37025452 C190.76163879 574.69666931 190.76163879 574.69666931 191.96101379 575.02967834 C220.88259282 583.27501929 245.05863952 598.6579446 266.96101379 619.12025452 C267.82468567 619.9181842 268.68835754 620.71611389 269.57820129 621.53822327 C303.04283735 653.59637462 323.14793484 700.67556805 324.19148254 746.80238342 C324.63323464 797.81370647 302.3828466 844.31093494 267.08601379 880.30775452 C232.80214585 914.3670679 189.57363571 929.31686814 141.91566467 929.24050903 C139.88415569 929.24094558 137.85264677 929.24182203 135.82113814 929.2430982 C130.26147193 929.24532671 124.70182511 929.24134442 119.14216137 929.23632014 C113.13822622 929.23199218 107.13429211 929.23346373 101.13035583 929.23422241 C90.73565188 929.23474616 80.34095309 929.23164997 69.94625092 929.22598457 C59.04860148 929.22006033 48.15095456 929.21621717 37.25330353 929.21513176 C36.57481848 929.21506302 35.89633343 929.21499428 35.19728824 929.21492346 C31.75137373 929.21458511 28.30545923 929.21428373 24.85954472 929.21399658 C0.47474625 929.21189816 -23.91004895 929.20516636 -48.29484558 929.19569397 C-71.9790902 929.18650436 -95.66333391 929.17942328 -119.34757996 929.17518616 C-120.07808904 929.17505463 -120.80859812 929.1749231 -121.56124384 929.17478759 C-128.89755436 929.17346903 -136.23386489 929.17219322 -143.57017542 929.17094873 C-158.51406373 929.16841276 -173.45795198 929.16559151 -188.40184021 929.16259766 C-189.0888823 929.16246037 -189.7759244 929.16232308 -190.48378595 929.16218163 C-236.33552102 929.15298649 -282.18725296 929.13649982 -328.03898621 929.12025452 C-328.03898621 878.96025452 -328.03898621 828.80025452 -328.03898621 777.12025452 C-323.2224056 776.31749108 -318.85271654 775.98168006 -314.01970291 776.00279331 C-313.22561693 776.00223866 -312.43153094 776.00168401 -311.61338174 776.00111255 C-308.94811657 776.00046992 -306.28291724 776.00699259 -303.61766052 776.01345825 C-301.68920272 776.01445426 -299.76074465 776.01500396 -297.8322866 776.01514524 C-292.52920155 776.01679238 -287.22614102 776.0246651 -281.92306376 776.03350699 C-276.20513569 776.04192971 -270.48720479 776.04453493 -264.76927185 776.04776001 C-254.8590323 776.0540617 -244.94880097 776.06380434 -235.03856659 776.07565498 C-220.69909502 776.09262182 -206.35962549 776.10218179 -192.0201461 776.10953372 C-185.33829406 776.11296393 -178.65644217 776.11666553 -171.9745903 776.12042141 C-171.30567635 776.12079618 -170.6367624 776.12117095 -169.94757834 776.12155708 C-154.02654867 776.13052891 -138.10552127 776.1421896 -122.18449402 776.15467834 C-121.13962181 776.15549495 -121.13962181 776.15549495 -120.07364107 776.15632806 C-103.82339968 776.16905104 -87.57316003 776.18306041 -71.32292175 776.19929504 C-70.62411725 776.19999223 -69.92531275 776.20068942 -69.20533235 776.20140773 C-65.68165242 776.20492535 -62.1579725 776.20845218 -58.63429257 776.21197962 C-57.9378867 776.2126764 -57.24148083 776.21337318 -56.52397175 776.21409108 C-55.11834413 776.21549784 -53.71271651 776.2169061 -52.3070889 776.21831588 C-28.41915207 776.24223103 -4.53121928 776.25850232 19.35672784 776.26776117 C33.66004685 776.27361568 47.96333109 776.28599299 62.2666364 776.30673396 C72.06793899 776.32044016 81.86922942 776.32693485 91.6705415 776.32774407 C97.32638796 776.32844823 102.98218255 776.33244765 108.63801575 776.34520721 C113.81704012 776.3568297 118.99598381 776.35920177 124.1750181 776.35426503 C126.04714727 776.3541139 127.91928047 776.35734947 129.79139659 776.3643421 C147.06477239 776.98010627 147.06477239 776.98010627 162.20710754 769.88587952 C167.86942363 764.18573058 170.89825799 757.47803114 170.99226379 749.45228577 C170.46368648 739.87182186 167.53004573 734.04651243 160.44929504 727.66322327 C151.98828268 722.41659865 142.99405737 722.71192994 133.35725403 722.79554749 C131.78897756 722.79803481 130.22069848 722.79917778 128.65242004 722.79908752 C125.28687981 722.80178316 121.92155758 722.81395388 118.55607414 722.83362961 C113.20977548 722.86486335 107.86355839 722.87496068 102.5171814 722.88249207 C94.03555543 722.89696526 85.55404836 722.92586056 77.07248408 722.96073925 C61.9502003 723.02251328 46.82784998 723.06060386 31.70547634 723.09233201 C26.41673908 723.1040011 21.12807698 723.12220951 15.83937973 723.14571607 C-30.33265706 723.34372364 -30.33265706 723.34372364 -51.41398621 720.87025452 C-52.52572205 720.74167053 -53.63745789 720.61308655 -54.78288269 720.48060608 C-123.34562364 712.10903982 -190.72769563 683.07132177 -241.37492371 635.60072327 C-243.55649589 633.56949403 -245.768455 631.61223885 -248.03898621 629.68275452 C-256.32520205 622.486375 -263.96628124 614.50102965 -271.03898621 606.12025452 C-271.83433777 605.21404358 -272.62968933 604.30783264 -273.44914246 603.37416077 C-324.03659566 545.375511 -353.56997119 468.52272171 -359.03898621 392.12025452 C-359.12358093 390.97701721 -359.12358093 390.97701721 -359.20988464 389.8106842 C-364.75867245 311.7008251 -347.48045312 229.55037664 -305.03898621 163.12025452 C-304.65355652 162.51181702 -304.26812683 161.90337952 -303.87101746 161.27650452 C-293.49481468 145.00551545 -281.94925169 129.46499394 -269.03898621 115.12025452 C-268.30083679 114.29751038 -268.30083679 114.29751038 -267.54777527 113.45814514 C-257.92172722 102.77367021 -247.95362387 92.49637895 -237.03898621 83.12025452 C-236.40895691 82.57820374 -235.77892761 82.03615295 -235.12980652 81.47767639 C-184.31061922 38.09864947 -121.668361 11.17845709 -55.47648621 2.80775452 C-54.21820007 2.64823303 -52.95991394 2.48871155 -51.66349792 2.32435608 C-34.47917265 0.29898874 -17.28589043 -0.02777642 0 0 Z " fill="#0060AC" transform="translate(374.0389862060547,531.8797454833984)"/>
<path d="M0 0 C0.84275283 -0.00115384 1.68550565 -0.00230769 2.55379644 -0.0034965 C5.36644552 -0.00613494 8.1790369 -0.00166396 10.99168301 0.00279331 C13.03297722 0.00235704 15.07427138 0.00148111 17.11556524 0.00020415 C22.71621415 -0.00202987 28.3168439 0.00196554 33.91749036 0.00698221 C39.96033341 0.01130219 46.00317539 0.00983918 52.04601955 0.00907993 C62.51280428 0.00855568 72.97958349 0.01165723 83.44636631 0.01731777 C94.42185464 0.02323819 105.39734048 0.0270844 116.37283039 0.02817059 C117.0556807 0.02823933 117.738531 0.02830806 118.44207374 0.02837889 C121.91003525 0.02871723 125.37799677 0.02901861 128.84595829 0.02930576 C153.39880226 0.03140524 177.95164299 0.03813998 202.50448513 0.04760838 C226.35474537 0.0567952 250.20500472 0.06387765 274.05526638 0.06811619 C274.79065221 0.06824771 275.52603804 0.06837924 276.28370829 0.06851475 C283.66886786 0.06983329 291.05402745 0.0711091 298.43918704 0.07235361 C313.48312414 0.07488971 328.52706118 0.07771096 343.57099819 0.08070469 C344.26266862 0.08084198 344.95433905 0.08097927 345.66696919 0.08112072 C391.84238278 0.09031878 438.01779447 0.1061845 484.19320583 0.12304783 C484.99860641 3.91854351 485.31882091 7.37360025 485.32018948 11.2603159 C485.3230093 12.49421055 485.32582912 13.7281052 485.3287344 14.9993906 C485.32679033 16.35864368 485.32474218 17.71789661 485.32260036 19.07714939 C485.32395599 20.51467019 485.32573683 21.95219063 485.32791042 23.38971043 C485.33246395 27.28606012 485.33070418 31.1823833 485.32753134 35.07873344 C485.32499896 39.15419492 485.32734755 43.22965413 485.3289175 47.3051157 C485.3307358 54.14449566 485.32834092 60.98386482 485.32357693 67.82324314 C485.31812626 75.74007125 485.31990416 83.65687365 485.32540333 91.57370114 C485.32993377 98.36696953 485.33058562 105.16023015 485.32796466 111.95349956 C485.32640262 116.01285045 485.32620631 120.07218922 485.32950115 124.13153934 C485.33237915 127.943304 485.33040552 131.75503528 485.3246069 135.5667963 C485.32327928 136.96930479 485.32367343 138.37181607 485.32586956 139.77432346 C485.32858076 141.6807861 485.32458651 143.58725484 485.32018948 145.49371433 C485.31981245 146.56295265 485.31943542 147.63219097 485.31904697 148.73383045 C485.19320583 151.12304783 485.19320583 151.12304783 484.19320583 152.12304783 C481.67555201 152.22332518 479.18524245 152.25773683 476.66701603 152.25053978 C475.46472979 152.25300553 475.46472979 152.25300553 474.23815495 152.25552109 C471.51747661 152.25987727 468.79685078 152.25704828 466.07617092 152.25434971 C464.11974208 152.25605011 462.16331359 152.25819899 460.2068857 152.26076096 C455.93503475 152.26537446 451.66319832 152.26677563 447.39134502 152.26579571 C440.44197166 152.26420859 433.4926128 152.26939295 426.54324245 152.2754221 C416.45230647 152.28354941 406.36137303 152.28848392 396.27043438 152.29171276 C380.99595959 152.29696877 365.72150286 152.31245653 350.44703895 152.33065418 C347.05826966 152.33467599 343.66950025 152.33859682 340.28073084 152.34252053 C339.26733184 152.34369452 339.26733184 152.34369452 338.23346012 152.34489222 C336.86436074 152.34647782 335.49526135 152.34806265 334.12616196 152.34964671 C332.75194745 152.35123799 331.37773294 152.35283224 330.00351844 152.35442944 C313.78663853 152.37327178 297.5697571 152.39035118 281.3528738 152.40600681 C280.64304992 152.40669573 279.93322603 152.40738465 279.20189233 152.40809445 C256.19860251 152.43034291 233.19531918 152.44219078 210.19202034 152.44967337 C186.54758826 152.45744061 162.90320049 152.47851067 139.25879493 152.51521598 C124.02500678 152.5388077 108.79131038 152.55030309 93.55750363 152.54383089 C83.57342863 152.54065674 73.58943652 152.55198365 63.60538717 152.57472531 C57.84410025 152.58739605 52.08299797 152.59355929 46.32170391 152.58230877 C41.04486212 152.57213678 35.76837869 152.58039728 30.49157922 152.60317173 C28.58497123 152.60816387 26.67833104 152.60644226 24.77173872 152.59723905 C7.76627014 152.4191215 7.76627014 152.4191215 -6.80679417 160.43554783 C-11.7231726 165.92824814 -13.48704643 172.04626416 -14.05679417 179.31054783 C-13.48718479 187.99709086 -10.99611102 193.96971879 -4.92398167 200.27539158 C1.53834027 205.91501939 9.45206083 206.24502637 17.71839809 206.26107883 C18.455848 206.26390011 19.19329791 206.26672139 19.95309478 206.26962817 C22.41424611 206.27793334 24.87535221 206.27930901 27.33651638 206.28076267 C29.10637951 206.2854346 30.87624145 206.29057879 32.64610195 206.29615879 C36.45685812 206.30742536 40.26760653 206.31586718 44.07837391 206.32227802 C50.13098796 206.33300657 56.18354703 206.35327081 62.23612881 206.37539768 C79.44827617 206.43713773 96.66042167 206.49108212 113.87264919 206.52441502 C123.38007713 206.54290729 132.88741398 206.5720327 142.39477473 206.61241972 C147.41181791 206.63326826 152.42874734 206.64891471 157.44583607 206.651227 C184.30489051 206.66710786 210.44972634 207.53392013 236.88070583 212.87304783 C238.16759304 213.12836277 239.45448025 213.38367771 240.78036404 213.64672947 C252.80938262 216.08516822 264.52428566 219.338476 276.19320583 223.12304783 C277.0381863 223.39197849 277.88316677 223.66090916 278.75375271 223.93798923 C320.95068834 237.48708385 359.92289704 259.93351284 393.19320583 289.12304783 C393.89058865 289.72117283 394.58797146 290.31929783 395.30648708 290.93554783 C397.28909853 292.64313864 399.24439993 294.37694619 401.19320583 296.12304783 C402.16773708 296.99316502 403.14226833 297.8632822 404.14633083 298.75976658 C411.96719278 305.81514738 419.20390186 313.24764541 426.19320583 321.12304783 C426.67612087 321.66123142 427.15903591 322.19941502 427.65658474 322.7539072 C476.15125854 376.96431385 504.43532932 446.56117466 514.19320583 518.12304783 C514.3064822 518.94305271 514.41975857 519.76305759 514.53646755 520.60791111 C527.2489913 616.50412105 500.73158506 717.82216547 441.99789333 794.50976658 C435.65622829 802.70841885 429.01596193 810.54606898 421.95883083 818.13476658 C419.26553226 821.03110133 416.63832595 823.9839446 414.00570583 826.93554783 C410.6327789 830.64735596 407.19295859 834.05019362 403.35336208 837.27148533 C400.73789612 839.5133133 398.26036419 841.88310511 395.75570583 844.24804783 C346.35903217 890.06525239 280.20280066 916.82410045 214.19320583 926.12304783 C213.00042019 926.29296238 213.00042019 926.29296238 211.78353786 926.46630955 C200.73227982 927.96844533 189.62620082 928.35992486 178.48852444 928.66574192 C177.71976512 928.68718175 176.95100581 928.70862157 176.15895076 928.73071109 C155.46020972 929.29180541 134.76011624 929.26603201 114.05532742 929.2537725 C108.28081559 929.25147091 102.50630654 929.25502087 96.73179531 929.25775242 C85.48237472 929.26215623 74.23296087 929.26125878 62.98354004 929.25833978 C53.84683044 929.25606814 44.7101227 929.25578078 35.5734129 929.25686359 C33.61247672 929.25709344 33.61247672 929.25709344 31.61192567 929.25732794 C28.95545136 929.25764769 26.29897705 929.25797191 23.64250274 929.25830053 C-0.4420357 929.26115752 -24.52657074 929.25821753 -48.6111086 929.25295793 C-70.589425 929.2481949 -92.56773562 929.24865466 -114.54605198 929.25341892 C-139.30742274 929.2587687 -164.06879018 929.26088274 -188.83016145 929.25780666 C-191.46568672 929.25748812 -194.10121198 929.25717375 -196.73673725 929.25686359 C-198.03326043 929.25670932 -199.3297836 929.25655504 -200.66559536 929.25639609 C-209.80973502 929.25553198 -218.95387263 929.25699117 -228.09801197 929.25934315 C-239.21220319 929.26213944 -250.32638735 929.26140575 -261.44057776 929.2560624 C-267.11182594 929.25342585 -272.78306231 929.25241982 -278.45431042 929.25571156 C-283.63663827 929.25867432 -288.81894327 929.25708213 -294.00126903 929.251734 C-295.88312302 929.25060996 -297.76497892 929.25120071 -299.64683171 929.25360979 C-302.18932973 929.25661706 -304.73174772 929.25356592 -307.27424145 929.24888897 C-308.0175523 929.25123014 -308.76086316 929.2535713 -309.52669859 929.25598341 C-314.57849227 929.23719878 -314.57849227 929.23719878 -316.80679417 928.12304783 C-316.80679417 877.96304783 -316.80679417 827.80304783 -316.80679417 776.12304783 C-294.19087742 776.10117405 -294.19087742 776.10117405 -271.11807346 776.07885838 C-238.85201743 776.04624993 -206.58597199 776.00976609 -174.31993198 775.96406651 C-173.61627656 775.96307094 -172.91262114 775.96207537 -172.18764282 775.96104964 C-156.89300022 775.93938793 -141.59835865 775.917065 -126.30371801 775.89406155 C-118.80254631 775.88278365 -111.3013744 775.87165177 -103.80020237 775.86059666 C-102.68055472 775.85894281 -102.68055472 775.85894281 -101.53828792 775.85725555 C-77.37169236 775.82162708 -53.20509817 775.79562881 -29.03848581 775.77465814 C-4.19110167 775.75304562 20.65625156 775.72165051 45.50360732 775.6780567 C49.01818898 775.67189502 52.53277082 775.66584445 56.04735279 775.65986156 C56.73903014 775.65868068 57.4307075 775.6574998 58.14334477 775.65628314 C69.24923903 775.63760745 80.35511834 775.62915509 91.46102638 775.62458659 C102.64329358 775.61976629 113.82550441 775.60379224 125.00774506 775.57738217 C131.05959572 775.5634102 137.11135263 775.55418026 143.16322041 775.55803967 C148.71494672 775.56147259 154.2664735 775.55095536 159.81815901 775.52981231 C161.81578519 775.52458319 163.81343231 775.5242682 165.81105808 775.5296522 C182.07844867 775.56899525 197.98335263 774.15035325 213.63070583 769.43554783 C214.49429714 769.17991062 215.35788845 768.92427341 216.24764919 768.66088963 C238.78384997 761.7929676 259.49660384 751.48280915 278.19320583 737.12304783 C279.06976833 736.45789158 279.94633083 735.79273533 280.84945583 735.10742283 C287.63707845 729.8233875 293.94705306 724.02654 300.19320583 718.12304783 C301.0504324 717.31996189 301.90765896 716.51687595 302.79086208 715.68945408 C309.13332669 709.56812136 314.56939106 702.93328311 319.85385036 695.9023447 C320.7152981 694.7579351 321.58298689 693.61818282 322.45834255 692.48437595 C346.60693956 661.18028432 363.16305046 618.27246092 363.39633083 578.51367283 C363.40678432 577.31271473 363.40678432 577.31271473 363.417449 576.08749485 C363.43475966 573.51595853 363.44116931 570.94464 363.44320583 568.37304783 C363.44421291 567.49622349 363.44521999 566.61939915 363.44625759 565.71600437 C363.43630916 552.93665569 362.96361848 540.64065584 360.19320583 528.12304783 C359.91126617 526.71563373 359.63001947 525.30808063 359.34945583 523.90039158 C351.09346349 484.35034398 330.95994524 449.13092008 303.19320583 420.12304783 C302.48792751 419.37692234 302.48792751 419.37692234 301.76840115 418.61572361 C277.81894319 393.37717838 246.86682207 375.63758005 213.63070583 365.81054783 C212.48348049 365.46491795 212.48348049 365.46491795 211.31307888 365.11230564 C196.03516763 360.83203924 180.62184737 359.67837699 164.83627224 359.7382822 C162.98578974 359.7341628 161.13530984 359.72869394 159.28483486 359.72200108 C155.34110941 359.71039329 151.39752345 359.70774923 147.45378399 359.71235752 C141.19590464 359.71924884 134.93820409 359.70316086 128.68035793 359.68396091 C115.39298336 359.64632558 102.10562551 359.6333418 88.81820583 359.62304783 C74.47263072 359.61192987 60.12714016 359.59632306 45.78162229 359.55233526 C39.58295984 359.53416553 33.38450712 359.53001866 27.18582463 359.53727055 C23.30502944 359.53881068 19.42433583 359.52789547 15.54356861 359.51389217 C13.76888892 359.50994731 11.99418894 359.51091314 10.21951771 359.51766491 C-6.19618367 359.57523455 -22.84943648 358.21251028 -38.61929417 353.37304783 C-39.48199924 353.11555759 -40.34470432 352.85806736 -41.23355198 352.59277439 C-67.50923944 344.49523549 -90.15050116 329.10710099 -109.80679417 310.12304783 C-110.78955737 309.2034459 -111.77263367 308.28417846 -112.75601292 307.36523533 C-143.66234091 278.01737967 -165.50280341 233.04607693 -166.80679417 190.12304783 C-166.84546604 189.0175156 -166.84546604 189.0175156 -166.88491917 187.88964939 C-168.21172991 144.75171505 -154.76202362 104.48762246 -128.80679417 70.12304783 C-128.11585667 69.18718845 -127.42491917 68.25132908 -126.71304417 67.28711033 C-99.84663474 32.63797119 -59.47984828 6.82521539 -15.72117487 0.83767036 C-10.45889376 0.21625977 -5.29597342 -0.0181319 0 0 Z " fill="#0060AC" transform="translate(362.80679416656494,713.8769521713257)"/>
<path d="M0 0 C5.11885072 0.00668303 10.23769316 0.00160627 15.35654521 -0.0018822 C25.3345785 -0.00687867 35.3125782 -0.00134289 45.2906073 0.00796811 C56.91910266 0.01842487 68.54759104 0.0182801 80.17609021 0.01779553 C100.90879022 0.01729698 121.6414747 0.02640543 142.37416911 0.04097974 C162.491685 0.05511421 182.60918725 0.06214819 202.72670817 0.06148756 C204.59175832 0.06142762 204.59175832 0.06142762 206.49448624 0.06136648 C207.73572175 0.06132612 208.97695726 0.06128577 210.25580597 0.06124419 C233.19672494 0.0605555 256.13763814 0.06643107 279.07855524 0.07539741 C287.18864174 0.07841658 295.29872719 0.07947723 303.40881419 0.07992971 C313.26680317 0.08060989 323.12478237 0.08504838 332.98276719 0.09426252 C338.01385807 0.09889418 343.04493639 0.10192091 348.07602954 0.10066831 C352.67262002 0.09957928 357.26918266 0.10305446 361.86576733 0.11031684 C363.53583494 0.11214098 365.2059054 0.11225007 366.87597314 0.11054955 C369.13052365 0.10850649 371.38498092 0.11250884 373.63952327 0.11815584 C374.89624599 0.11886026 376.15296871 0.11956469 377.44777393 0.12029046 C380.22524333 0.24679029 380.22524333 0.24679029 381.22524333 1.24679029 C381.321893 3.19573988 381.34711454 5.14824484 381.34549785 7.09958875 C381.34687251 8.37150068 381.34824718 9.6434126 381.3496635 10.95386732 C381.34612388 12.37645971 381.34248906 13.79905187 381.33876872 15.22164381 C381.33848686 16.7094571 381.33864457 18.19727053 381.33921123 19.68508375 C381.33949923 23.73656029 381.333602 27.78800749 381.32663727 31.83947718 C381.32040425 36.06891026 381.31979997 40.29834393 381.31861186 44.52778089 C381.31549839 52.54238751 381.30728479 60.55698055 381.29726237 68.57158118 C381.28610172 77.69355713 381.28059091 86.81553371 381.27556694 95.93751478 C381.26510219 114.70728099 381.24750245 133.47703455 381.22524333 152.24679029 C376.46368647 153.01493236 371.9085288 153.37004471 367.08750224 153.36425149 C366.40083633 153.36480615 365.71417043 153.3653608 365.00669646 153.36593226 C362.71273573 153.36657249 360.41885238 153.36006414 358.12490153 153.35358655 C356.46058333 153.35259006 354.79626482 153.35204078 353.13194633 153.35189956 C348.56311441 153.35025526 343.99431109 153.34238886 339.42548823 153.33353782 C334.49533961 153.32510329 329.56518767 153.32250785 324.63503337 153.3192848 C316.08954682 153.31298598 307.54406983 153.30324442 298.99858928 153.29138982 C286.61822754 153.27439764 274.23786816 153.264855 261.85749733 153.25751109 C241.73788902 153.24556146 221.61828442 153.23061466 201.49868083 153.21236646 C199.69238391 153.21073128 199.69238391 153.21073128 197.84959614 153.20906306 C180.79043702 153.19347901 163.7312825 153.17488912 146.67212784 153.15506519 C145.47278095 153.15367187 144.27343406 153.15227856 143.03774333 153.15084302 C141.83986646 153.14944949 140.6419896 153.14805596 139.40781343 153.14662021 C119.38253378 153.12352661 99.35725708 153.10824753 79.33196616 153.09928364 C66.99632473 153.09345161 54.66072402 153.08113894 42.32509863 153.06031085 C33.85481389 153.04652531 25.38454323 153.04010567 16.91424739 153.03930073 C12.03853241 153.03860181 7.16287802 153.03472813 2.28717875 153.02183759 C-37.66665261 152.92080321 -75.11107588 155.01642961 -111.0760262 174.33858716 C-112.58810353 175.14699873 -114.11601633 175.92563191 -115.64585042 176.69991529 C-143.05726104 190.87401766 -166.76787851 213.378782 -184.77475667 238.24679029 C-185.17517171 238.79609205 -185.57558675 239.34539381 -185.98813558 239.91134107 C-212.95469967 277.34740487 -224.95668628 321.49951899 -224.90846944 367.16514051 C-224.91034073 368.85724947 -224.91264269 370.54935801 -224.91533476 372.24146587 C-224.92141996 376.86372382 -224.92132305 381.48596359 -224.92014039 386.10822463 C-224.91993554 391.10433664 -224.92546311 396.10044294 -224.93019795 401.09655225 C-224.93848727 410.87506277 -224.94125203 420.65356725 -224.94181033 430.43208099 C-224.94228635 438.38548489 -224.94434537 446.33888682 -224.94751096 454.29229009 C-224.95631317 476.8688699 -224.96093106 499.44544495 -224.96018048 522.02202649 C-224.96014053 523.23790508 -224.96010057 524.45378368 -224.9600594 525.70650709 C-224.95999808 527.53256622 -224.95999808 527.53256622 -224.95993552 529.39551543 C-224.95952927 549.11453049 -224.96909471 568.83352643 -224.98319777 588.55253596 C-224.99758272 608.82656144 -225.00446678 629.10057762 -225.00360399 649.37460834 C-225.00327274 660.7461398 -225.00598851 672.11765122 -225.01678205 683.48917806 C-225.025915 693.17286315 -225.02803946 702.85651913 -225.02127262 712.54020668 C-225.01802137 717.4741885 -225.01789993 722.40811455 -225.02662587 727.34209096 C-225.03455404 731.8718588 -225.03299585 736.40152723 -225.02434174 740.93129282 C-225.02282051 742.55710306 -225.02456991 744.18292095 -225.03020182 745.80872215 C-225.07823264 760.67648721 -224.09777878 775.60503516 -221.02475667 790.18429029 C-220.76988484 791.41030958 -220.76988484 791.41030958 -220.50986409 792.66109693 C-208.67721152 847.4663399 -175.22094163 896.31222377 -128.40756917 927.18038404 C-101.88695801 944.11083351 -70.05110047 957.33033967 -38.14016747 957.38266218 C-37.41198913 957.3852048 -36.68381078 957.38774742 -35.93356642 957.39036709 C-33.5046447 957.39765998 -31.07577413 957.39796167 -28.64684224 957.39827955 C-26.88348456 957.40213222 -25.12012779 957.40642017 -23.35677212 957.41110504 C-18.51970769 957.42271742 -13.68265267 957.42822259 -8.84557712 957.43273985 C-3.62614723 957.43869907 1.59327021 957.45036394 6.81269145 957.46137464 C15.85311817 957.479709 24.89354519 957.49456027 33.93398166 957.50715101 C47.00600817 957.52544868 60.07801683 957.55011221 73.15002919 957.57652491 C94.3602348 957.61930105 115.57044531 957.65842286 136.78066325 957.6945442 C138.04987882 957.696707 139.31909439 957.6988698 140.62677104 957.70109814 C150.92931341 957.71862612 161.23185608 957.73597585 171.53439879 957.75330102 C180.55040635 957.76846692 189.5664138 957.78369833 198.58242106 957.79903638 C199.85221399 957.80119525 201.12200691 957.80335412 202.43027841 957.80557841 C223.56968567 957.84163946 244.70908386 957.88158489 265.84847862 957.92433918 C278.89591963 957.95053816 291.94335784 957.97318661 304.99081261 957.99132276 C313.91927523 958.00395443 322.84772706 958.02006704 331.77617859 958.0389719 C336.93471224 958.04976646 342.09323536 958.05887168 347.25177836 958.06366765 C351.96578776 958.06807547 356.6797655 958.07698727 361.39375985 958.08961087 C363.10684861 958.09337092 364.81994211 958.09540907 366.53303497 958.09563106 C368.84590844 958.09616609 371.15868506 958.10272803 373.47154212 958.1109184 C374.7609127 958.11303437 376.05028329 958.11515034 377.37872571 958.11733043 C380.22524333 958.24679029 380.22524333 958.24679029 381.22524333 959.24679029 C381.321893 961.19573988 381.34711454 963.14824484 381.34549785 965.09958875 C381.34687251 966.37150068 381.34824718 967.6434126 381.3496635 968.95386732 C381.34612388 970.37645971 381.34248906 971.79905187 381.33876872 973.22164381 C381.33848686 974.7094571 381.33864457 976.19727053 381.33921123 977.68508375 C381.33949923 981.73656029 381.333602 985.78800749 381.32663727 989.83947718 C381.32040425 994.06891026 381.31979997 998.29834393 381.31861186 1002.52778089 C381.31549839 1010.54238751 381.30728479 1018.55698055 381.29726237 1026.57158118 C381.28610172 1035.69355713 381.28059091 1044.81553371 381.27556694 1053.93751478 C381.26510219 1072.70728099 381.24750245 1091.47703455 381.22524333 1110.24679029 C373.23089754 1111.56039998 365.21494844 1111.3860334 357.138726 1111.37377393 C355.48805667 1111.37492687 353.8373876 1111.37651556 352.18671906 1111.37850118 C347.6601486 1111.38267152 343.13359925 1111.38061407 338.60702872 1111.37751496 C333.7204627 1111.37525143 328.8339003 1111.37874545 323.947335 1111.38149488 C314.37313882 1111.38594312 304.79895048 1111.38497977 295.22475399 1111.38208224 C287.43292808 1111.37982213 279.64110436 1111.37951833 271.84927821 1111.38060606 C270.73939835 1111.38075929 269.62951848 1111.38091252 268.48600589 1111.3810704 C266.23093618 1111.38139014 263.97586646 1111.38171435 261.72079675 1111.38204299 C240.56452135 1111.38489562 219.40825027 1111.38161538 198.25197558 1111.37624262 C180.1437788 1111.37178588 162.03558843 1111.37254158 143.92739177 1111.37716138 C122.87374759 1111.38253016 101.82010722 1111.38460928 80.76646245 1111.38154912 C78.51427237 1111.3812306 76.2620823 1111.38091623 74.00989223 1111.38060606 C72.9019742 1111.38045178 71.79405618 1111.3802975 70.65256489 1111.38013855 C62.88959553 1111.37927946 55.1266286 1111.38072335 47.36365962 1111.38308561 C37.87368592 1111.38590993 28.38372047 1111.38509087 18.8937477 1111.37980486 C14.06223075 1111.37720132 9.2307275 1111.37610485 4.39921069 1111.37945402 C-49.02821303 1111.41338381 -49.02821303 1111.41338381 -69.27475667 1108.99679029 C-70.37746907 1108.86820631 -71.48018147 1108.73962232 -72.6163094 1108.60714185 C-137.40244848 1100.63374649 -199.90702189 1074.58318096 -249.77475667 1032.24679029 C-250.77764729 1031.4282356 -251.78053792 1030.60968091 -252.81381917 1029.76632154 C-260.45842896 1023.46365146 -267.56244973 1016.66839159 -274.58725667 1009.68429029 C-275.45850179 1008.82222974 -276.3297469 1007.9601692 -277.22739339 1007.0719856 C-283.16635397 1001.10478191 -288.51802897 994.81654525 -293.77475667 988.24679029 C-294.65000369 987.20762827 -295.53013282 986.17251463 -296.41928792 985.14522779 C-338.89007295 935.7107645 -364.23857054 871.51626551 -374.02475667 807.62179029 C-374.17589925 806.64798414 -374.32704183 805.67417799 -374.48276448 804.67086256 C-374.97866709 801.20262269 -375.38794297 797.72849964 -375.77475667 794.24679029 C-375.85809994 793.49719163 -375.94144321 792.74759298 -376.02731204 791.97527921 C-378.18860897 771.54222633 -378.06316217 751.13092108 -378.03620601 730.61176932 C-378.03162599 725.44057955 -378.0386924 720.26940257 -378.04416585 715.09821546 C-378.05300304 705.00196068 -378.05116335 694.90573584 -378.04534057 684.80947995 C-378.04080156 676.59518595 -378.04022079 668.38090026 -378.0423882 660.16660535 C-378.04269467 658.99213142 -378.04300113 657.8176575 -378.04331689 656.60759345 C-378.04395641 654.22077608 -378.04460484 651.83395871 -378.04526207 649.44714135 C-378.05094874 627.12910507 -378.04443367 604.81108528 -378.03366134 582.49305171 C-378.02472735 563.39321543 -378.02627986 544.29340347 -378.03549886 525.19356763 C-378.04623098 502.94881307 -378.05039957 480.70407293 -378.04427433 458.45931613 C-378.04363731 456.08186917 -378.04300857 453.7044222 -378.0423882 451.32697523 C-378.04207965 450.15759264 -378.0417711 448.98821005 -378.0414532 447.78339162 C-378.03973506 439.59044727 -378.04262222 431.39751215 -378.04734731 423.20456922 C-378.05298896 413.20369917 -378.05137126 403.20286046 -378.04078582 393.20199394 C-378.03557295 388.1112357 -378.03339636 383.02052949 -378.04008412 377.92977178 C-378.07108474 352.18475603 -377.69435789 326.78924918 -373.52475667 301.30929029 C-373.41704946 300.64401319 -373.30934224 299.97873609 -373.19837117 299.29329908 C-367.88104575 266.62856072 -358.75010666 234.52016474 -344.79086995 204.44063795 C-343.79258983 202.28529312 -342.82610547 200.11796696 -341.86460042 197.94600904 C-334.18015127 180.82920538 -324.58748696 164.56763629 -313.77475667 149.24679029 C-313.34872151 148.64205884 -312.92268636 148.0373274 -312.48374104 147.41427076 C-294.48822039 122.04058663 -273.43910118 97.34748238 -248.77475667 78.24679029 C-247.71967249 77.37148868 -246.66778066 76.4923298 -245.61850667 75.61007154 C-175.36175098 17.02791073 -89.02865821 -0.15533327 0 0 Z " fill="#0060AC" transform="translate(1321.7747566699982,531.7532097101212)"/>
<path d="M0 0 C2.02565807 -0.00043637 4.05131608 -0.00131248 6.0769738 -0.00258917 C11.62975713 -0.00482125 17.18252111 -0.00083045 22.73530197 0.0041889 C28.72836556 0.00851168 34.72142809 0.00704567 40.7144928 0.00628662 C51.09340773 0.00576255 61.47231747 0.00886221 71.85123062 0.01452446 C82.73378657 0.02044622 93.61634001 0.02429136 104.49889755 0.02537727 C105.51475182 0.02548038 105.51475182 0.02548038 106.5511284 0.02558558 C109.99062077 0.02592392 113.43011315 0.0262253 116.86960553 0.02651245 C141.21669144 0.02861156 165.56377408 0.03534526 189.91085815 0.04481506 C213.56027204 0.05400287 237.20968503 0.06108483 260.85910034 0.06532288 C261.58837842 0.0654544 262.3176565 0.06558593 263.06903392 0.06572144 C270.39290027 0.06703999 277.71676664 0.0683158 285.04063301 0.0695603 C299.9595228 0.07209635 314.87841254 0.07491761 329.79730225 0.07791138 C330.48321343 0.07804867 331.16912461 0.07818596 331.87582099 0.07832741 C377.66159024 0.08752444 423.44735636 0.10401081 469.23312378 0.12025452 C469.23312378 50.28025452 469.23312378 100.44025452 469.23312378 152.12025452 C454.98197388 152.14007385 440.73082397 152.15989319 426.04782104 152.18031311 C395.57092134 152.22363138 365.09402782 152.26952685 334.61714172 152.32157898 C333.95298812 152.3227126 333.28883451 152.32384623 332.60455504 152.3250142 C318.17059596 152.34966583 303.73663769 152.37475872 289.30268017 152.40030613 C282.22423769 152.41283195 275.14579504 152.42526026 268.06735229 152.43763733 C267.01076892 152.43948732 267.01076892 152.43948732 265.93284042 152.44137468 C243.10290064 152.48130224 220.27295693 152.51479173 197.44300232 152.54494142 C173.31647785 152.57683836 149.18997502 152.61607368 125.06347507 152.66304457 C110.61009277 152.69094609 96.15672591 152.71297195 81.70332389 152.72751702 C71.79636338 152.73804716 61.88943274 152.75585694 51.98249472 152.77942155 C46.26404385 152.79280752 40.5456349 152.80295474 34.82716751 152.80446815 C29.59180615 152.8059245 24.35654579 152.81652253 19.12121546 152.83438893 C17.22739927 152.83923863 15.3335709 152.84073459 13.43974978 152.83853333 C10.86369872 152.83603064 8.28796753 152.8457904 5.71195316 152.85854149 C4.97834524 152.85489181 4.24473731 152.85124213 3.48889884 152.84748185 C-5.36782812 152.92283033 -12.68364921 154.44817086 -19.36062622 160.58509827 C-27.79518636 169.37109841 -27.20086347 180.80512187 -27.14782715 192.25123596 C-27.15128779 193.88203891 -27.15605509 195.51283952 -27.16200888 197.14363527 C-27.17449264 201.60542152 -27.16836048 206.06701441 -27.15905023 210.5288012 C-27.1522493 215.34823408 -27.16274614 220.16763422 -27.17098999 224.98706055 C-27.18431837 234.4206111 -27.18145356 243.85408997 -27.17275207 253.28764331 C-27.16597242 260.95561299 -27.16506002 268.62356261 -27.16832352 276.29153442 C-27.16901307 277.92957277 -27.16901307 277.92957277 -27.16971654 279.60070279 C-27.17067574 281.81924515 -27.17164838 284.03778749 -27.17263432 286.25632983 C-27.18118559 307.05161187 -27.17135819 327.8468542 -27.15523322 348.64212972 C-27.14183028 366.47909614 -27.14415845 384.31600399 -27.1579895 402.15296936 C-27.17404994 422.87467459 -27.18036164 443.59634504 -27.17115271 464.31805563 C-27.17019708 466.52836195 -27.16925397 468.73866828 -27.16832352 470.94897461 C-27.16786069 472.03644117 -27.16739786 473.12390772 -27.16692101 474.24432781 C-27.16433252 481.90163273 -27.1686991 489.55891555 -27.17576218 497.21621704 C-27.18418251 506.54998622 -27.18188578 515.88367972 -27.16591994 525.21744025 C-27.15804445 529.97816738 -27.15493336 534.7387684 -27.1648674 539.49949455 C-27.1738297 543.86053698 -27.16885619 548.22133682 -27.15293474 552.58235735 C-27.14959344 554.15692069 -27.15126633 555.73150467 -27.15856211 557.30605465 C-27.20678664 568.58177646 -26.99823564 578.96745801 -18.75906372 587.42884827 C-5.69451808 598.52090369 18.70532179 594.25483664 34.60095668 594.22164845 C38.14831138 594.21532569 41.69566726 594.21480415 45.24302673 594.21362305 C51.93615299 594.21053571 58.62926258 594.20235794 65.32238156 594.19227356 C72.95256982 594.18103098 80.58275894 594.1755816 88.21295345 594.17057812 C103.8863548 594.16017266 119.55973325 594.14186015 135.23312378 594.12025452 C135.23312378 576.30025452 135.23312378 558.48025452 135.23312378 540.12025452 C99.26312378 540.12025452 63.29312378 540.12025452 26.23312378 540.12025452 C26.19282075 502.29361785 26.19282075 502.29361785 26.18429565 486.49330139 C26.17835234 475.56548089 26.17134978 464.63766807 26.15768433 453.70985413 C26.14773843 445.75267578 26.14127058 437.79550364 26.13903528 429.83831924 C26.13772802 425.62239465 26.13464116 421.40648783 26.12739372 417.19056892 C26.12063499 413.22703268 26.11850652 409.26352162 26.1200161 405.29998016 C26.1197397 403.84103445 26.11773371 402.38208795 26.1139183 400.9231472 C26.10898342 398.93978857 26.11072567 396.95641659 26.11286926 394.97305298 C26.11148657 393.30414678 26.11148657 393.30414678 26.11007595 391.60152531 C26.23312378 389.12025452 26.23312378 389.12025452 27.23312378 388.12025452 C28.62490702 388.02375763 30.02156368 387.99653563 31.41668797 387.99720669 C32.32436186 387.99521564 33.23203576 387.99322459 34.16721493 387.99117321 C35.17594865 387.99408605 36.18468236 387.99699889 37.22398376 388 C38.2865618 387.99914558 39.34913984 387.99829115 40.44391721 387.99741083 C44.03390708 387.99575287 47.62385106 388.00128255 51.21383667 388.00672913 C53.77552794 388.00701096 56.3372193 388.00685335 58.89891052 388.00628662 C64.42921097 388.00605829 69.95949642 388.00890983 75.48979378 388.01452446 C83.48576182 388.0226371 91.48172416 388.02525444 99.47769587 388.02651245 C112.44931635 388.02870334 125.42093054 388.03536443 138.39254761 388.04481506 C150.99638843 388.05398822 163.60022756 388.06106952 176.20407104 388.06532288 C176.98042717 388.0655856 177.7567833 388.06584832 178.55666537 388.06611901 C182.45125325 388.06742401 186.34584114 388.06868772 190.24042904 388.06993091 C222.57133185 388.08030468 254.90222694 388.097924 287.23312378 388.12025452 C288.1104735 391.89296244 288.35754435 395.37867737 288.35617161 399.24842548 C288.35816266 400.48801936 288.3601537 401.72761325 288.36220509 403.00477058 C288.35935223 404.37743798 288.35640664 405.75010519 288.3533783 407.12277222 C288.35381438 408.58314221 288.35468997 410.04351213 288.35596746 411.50388163 C288.3582051 415.51735044 288.3542011 419.53079259 288.3491894 423.544258 C288.34487463 427.87209057 288.34633206 432.19992162 288.34709167 436.52775574 C288.34761626 444.02619597 288.3444763 451.52462752 288.33885384 459.02306557 C288.33072996 469.8645748 288.3281227 480.70607982 288.32686584 491.54759177 C288.32467673 509.13683785 288.31802042 526.72607931 288.30856323 544.31532288 C288.2993855 561.40256222 288.29230643 578.48980031 288.28805542 595.57704163 C288.28766133 597.15668536 288.28766133 597.15668536 288.28725929 598.76824109 C288.28595426 604.05126506 288.28469055 609.33428904 288.28344738 614.61731303 C288.27307913 658.45163007 288.25546461 702.28594205 288.23312378 746.12025452 C284.75578358 746.90786172 281.54830876 747.24609788 277.98574638 747.24888897 C276.42086143 747.25372564 276.42086143 747.25372564 274.82436264 747.25866002 C273.68460263 747.25711142 272.54484262 747.25556281 271.37054443 747.25396729 C269.54664631 747.25736562 269.54664631 747.25736562 267.68590176 747.26083261 C264.31339038 747.26606903 260.94093231 747.26681725 257.56842065 747.26563823 C253.92938877 747.26543415 250.29036484 747.27095407 246.65133667 747.2756958 C239.51951622 747.28400398 232.38770403 747.2867508 225.25587915 747.28730818 C219.45190738 747.28778369 213.64793834 747.28984022 207.84396744 747.2930088 C191.36849587 747.30181935 174.89303081 747.30642808 158.41755687 747.30567833 C157.085137 747.3056184 157.085137 747.3056184 155.72579956 747.30555725 C154.83642653 747.30551637 153.94705351 747.30547549 153.03072979 747.30543337 C138.64938421 747.3050278 124.26806494 747.3145739 109.88672696 747.32869562 C95.10026279 747.34309968 80.31381141 747.34996345 65.52734005 747.34910184 C57.23419722 747.34877104 48.94108189 747.35146597 40.6479454 747.36227989 C33.57900029 747.37143852 26.51009511 747.3735169 19.4411466 747.36677047 C15.84185649 747.36353079 12.24264273 747.36335449 8.64336014 747.37212372 C-28.93022064 747.45793717 -28.93022064 747.45793717 -45.76687622 742.99525452 C-46.58390015 742.783526 -47.40092407 742.57179749 -48.2427063 742.35365295 C-57.46243601 739.8370092 -66.14193609 736.20252816 -74.76687622 732.12025452 C-75.48971802 731.78010315 -76.21255981 731.43995178 -76.95730591 731.0894928 C-93.52258934 723.15368906 -108.21682168 712.39512584 -121.30838013 699.54798889 C-122.73110532 698.15527096 -124.17650291 696.78583363 -125.62234497 695.41712952 C-157.74826101 664.42400318 -178.71325954 619.19522315 -179.86124456 574.44132972 C-179.91089598 570.08915725 -179.90519471 565.73701663 -179.90058899 561.3846283 C-179.90245982 559.7002066 -179.90476161 558.01578533 -179.90745431 556.33136475 C-179.9135451 551.72578935 -179.91344194 547.12023218 -179.91225994 542.51465368 C-179.91205524 537.53833076 -179.91758129 532.56201358 -179.9223175 527.58569336 C-179.9306098 517.84448054 -179.93337171 508.10327378 -179.93392988 498.36205773 C-179.93440574 490.44007726 -179.93646397 482.51809877 -179.93963051 474.59611893 C-179.94843339 452.1141747 -179.95305048 429.63223524 -179.95230003 407.15028928 C-179.95226008 405.93929383 -179.95222012 404.72829837 -179.95217896 403.48060608 C-179.95213807 402.26812443 -179.95209719 401.05564278 -179.95205507 399.80641927 C-179.95164876 380.1635878 -179.96121553 360.52077551 -179.97531732 340.87794958 C-179.98969731 320.68758632 -179.9965866 300.49723241 -179.99572355 280.3068639 C-179.99539213 268.98009437 -179.99811507 257.65334495 -180.0089016 246.32658005 C-180.01802798 236.68160716 -180.02016433 227.0366635 -180.01339217 217.39168815 C-180.01013769 212.47618841 -180.01003137 207.56074466 -180.01874542 202.64525032 C-180.02665901 198.13466809 -180.0251299 193.62418581 -180.01646129 189.11360587 C-180.01493692 187.49251193 -180.01670174 185.87141034 -180.02232137 184.25032543 C-180.18065417 135.28513301 -162.07192912 90.0361616 -128.23074341 54.65150452 C-127.23944036 53.61457111 -126.2532429 52.57273682 -125.27175903 51.52650452 C-112.83498579 38.3029961 -98.63561653 27.88309657 -82.76687622 19.12025452 C-82.14909302 18.77510803 -81.53130981 18.42996155 -80.89480591 18.07435608 C-65.02586708 9.32219665 -47.72834504 3.56016146 -29.76687622 1.12025452 C-29.15385592 1.03309711 -28.54083561 0.94593969 -27.90923893 0.85614115 C-18.64580983 -0.26949133 -9.31443901 -0.01490713 0 0 Z " fill="#0060AC" transform="translate(2143.766876220703,713.8797454833984)"/>
<path d="M0 0 C10.80033553 -0.49817046 22.40084964 2.25001922 30.8046875 9.21484375 C36.65476751 14.67244877 39.23534538 21.1882796 42.1171875 28.52734375 C42.62606349 29.79324657 43.13628208 31.05861035 43.64770508 32.32348633 C44.76996441 35.10512041 45.88420616 37.88979487 46.99316406 40.67675781 C48.89692588 45.45557785 50.82948779 50.22250292 52.765625 54.98828125 C55.64079836 62.06892637 58.509576 69.15210591 61.37109375 76.23828125 C65.36322642 86.123604 69.36103797 96.00661787 73.36148071 105.88858032 C74.43079733 108.53008533 75.49995889 111.17165305 76.5690918 113.81323242 C81.44902278 125.86977574 86.33431559 137.92413852 91.222229 149.97744751 C96.61649696 163.27966572 102.00309325 176.58497986 107.38769531 189.89111328 C112.35567621 202.16745633 117.3277927 214.44211185 122.3046875 226.71484375 C127.60097783 239.77547389 132.8923201 252.83809872 138.1796875 265.90234375 C138.70994537 267.21251968 138.70994537 267.21251968 139.25091553 268.54916382 C142.13010754 275.66327595 145.00902842 282.77749779 147.88793945 289.89172363 C150.4017297 296.10364791 152.91562556 302.31552943 155.4296875 308.52734375 C155.78335388 309.4011972 156.13702026 310.27505066 156.50140381 311.17538452 C161.73702235 324.11129539 166.97783985 337.04509016 172.222229 349.97744751 C177.61649696 363.27966572 183.00309325 376.58497986 188.38769531 389.89111328 C193.3556762 402.1674563 198.32775734 414.4421262 203.3046875 426.71484375 C209.00493692 440.77120959 214.69779906 454.83055362 220.38769531 468.89111328 C225.3556762 481.1674563 230.32775734 493.4421262 235.3046875 505.71484375 C241.00493692 519.77120959 246.69779906 533.83055362 252.38769531 547.89111328 C257.35567621 560.16745633 262.3277927 572.44211185 267.3046875 584.71484375 C272.60097783 597.77547389 277.8923201 610.83809872 283.1796875 623.90234375 C283.70994537 625.21251968 283.70994537 625.21251968 284.25091553 626.54916382 C287.13010754 633.66327595 290.00902842 640.77749779 292.88793945 647.89172363 C295.04495377 653.22200513 297.20205956 658.5522496 299.35928345 663.88244629 C300.07235318 665.64439433 300.78538628 667.4063572 301.49838257 669.16833496 C305.55059265 679.18220511 309.6069219 689.19437825 313.6714325 699.20326233 C316.43343471 706.00551832 319.18999907 712.8099644 321.94335938 719.61572266 C323.23202596 722.80098368 324.52268956 725.98542733 325.81445312 729.16943359 C327.47924805 733.27420858 329.13845159 737.38120513 330.79385376 741.48977661 C331.42108543 743.04412028 332.05010583 744.59774345 332.68099976 746.15060425 C333.54870705 748.28728069 334.40991335 750.42646503 335.26953125 752.56640625 C335.7605835 753.78150879 336.25163574 754.99661133 336.75756836 756.24853516 C337.8046875 759.21484375 337.8046875 759.21484375 337.8046875 762.21484375 C195.9046875 762.21484375 54.0046875 762.21484375 -92.1953125 762.21484375 C-92.1953125 712.05484375 -92.1953125 661.89484375 -92.1953125 610.21484375 C-87.67776981 609.31133521 -83.601432 609.07709764 -79.03923035 609.09458923 C-78.2223313 609.09373481 -77.40543226 609.09288038 -76.5637787 609.09200007 C-73.82919923 609.09035424 -71.09468123 609.09585196 -68.36010742 609.10131836 C-66.39880373 609.10160045 -64.43749992 609.10144207 -62.47619629 609.10087585 C-57.15227276 609.10058874 -51.82837172 609.1064717 -46.50445342 609.11344981 C-40.94041416 609.11969754 -35.37637439 609.12028828 -29.81233215 609.12147522 C-19.27624342 609.12458434 -8.74016505 609.1327921 1.79591912 609.14282471 C13.7909687 609.15399884 25.78601877 609.15949958 37.78107226 609.16452014 C62.45561642 609.17497504 87.13015138 609.1925664 111.8046875 609.21484375 C110.20949951 605.05445219 108.61258855 600.89472398 107.01538086 596.73510742 C106.56667381 595.56477715 106.11796677 594.39444687 105.65566254 593.18865204 C102.59350419 585.21716495 99.44691609 577.29247467 96.15457153 569.41293335 C94.68546718 565.89479255 93.22985023 562.37106576 91.7734375 558.84765625 C91.4603212 558.09048813 91.1472049 557.33332001 90.82460022 556.5532074 C86.61602276 546.35907702 82.49486595 536.12942581 78.3671875 525.90234375 C77.7596312 524.39738846 77.7596312 524.39738846 77.13980103 522.86203003 C75.51802128 518.84476672 73.89636187 514.82745493 72.27510071 510.8099823 C68.54430294 501.56614447 64.80149854 492.32720042 61.0546875 483.08984375 C60.44392417 481.58382359 59.83316569 480.07780146 59.22241211 478.57177734 C58.01719786 475.60005383 56.81186587 472.62837811 55.60644531 469.65673828 C52.54678427 462.11390756 49.4880959 454.57068246 46.4296875 447.02734375 C46.12317261 446.27136902 45.81665771 445.51539429 45.50085449 444.73651123 C40.07364963 431.35056753 34.6534776 417.96178244 29.23532104 404.57217407 C25.33819243 394.94145957 21.4395065 385.31138319 17.53515625 375.68359375 C17.19191315 374.83716309 16.84867004 373.99073242 16.49502563 373.11865234 C14.87206882 369.11670564 13.24876956 365.11489825 11.625 361.11328125 C8.66669342 353.82104689 5.71527595 346.52629524 2.8046875 339.21484375 C1.08024428 341.80150859 -0.02976944 344.00061873 -1.20703125 346.84765625 C-1.83097778 348.35332153 -1.83097778 348.35332153 -2.4675293 349.8894043 C-2.93457275 351.02804932 -3.40161621 352.16669434 -3.8828125 353.33984375 C-4.39557279 354.58439804 -4.90835025 355.82894524 -5.42114258 357.07348633 C-13.45128091 376.60676803 -21.30163666 396.2140726 -29.19317436 415.80365372 C-33.76557454 427.15377729 -38.35139158 438.49841631 -42.9453125 449.83984375 C-44.30475688 453.19658649 -45.66411273 456.55336507 -47.0234375 459.91015625 C-47.35978714 460.74072037 -47.69613678 461.57128448 -48.04267883 462.42701721 C-52.26490543 472.85439948 -56.47978098 483.28475353 -60.6953125 493.71484375 C-68.82461436 513.82764169 -76.96175105 533.93725898 -85.10253906 554.04541016 C-88.27906692 561.89169754 -91.45490128 569.73826563 -94.63079834 577.58480835 C-96.40227564 581.96149791 -98.17379623 586.33816996 -99.9453125 590.71484375 C-100.65364604 592.46484367 -101.36197937 594.21484367 -102.0703125 595.96484375 C-114.8203125 627.46484375 -127.5703125 658.96484375 -140.3203125 690.46484375 C-140.67094757 691.33111893 -141.02158264 692.1973941 -141.38284302 693.08992004 C-142.09107379 694.83966607 -142.7993054 696.58941175 -143.50753784 698.3391571 C-145.27994714 702.71804018 -147.05234191 707.09692913 -148.82470703 711.47583008 C-151.99338346 719.30449313 -155.16215339 727.13311825 -158.33148193 734.96151733 C-166.12446176 754.21059228 -173.91322297 773.4613632 -181.6953125 792.71484375 C-189.82471434 812.82760132 -197.96175102 832.93725891 -206.10253906 853.04541016 C-207.50564056 856.51118728 -208.9086371 859.97700687 -210.31152344 863.44287109 C-210.66200241 864.30869308 -211.01248138 865.17451508 -211.37358093 866.0665741 C-212.08357154 867.82082367 -212.79337953 869.57514716 -213.50300598 871.32954407 C-215.26328817 875.68083259 -217.02657801 880.03084989 -218.79663086 884.37817383 C-222.14167959 892.60318398 -225.45205587 900.83830681 -228.66439819 909.11621094 C-230.18977208 913.04173338 -231.73141854 916.96077068 -233.27441406 920.87939453 C-234.00803045 922.75609514 -234.73358718 924.63596811 -235.45068359 926.51904297 C-236.4432059 929.12388857 -237.46254392 931.71668391 -238.48828125 934.30859375 C-238.77515305 935.08352173 -239.06202484 935.85844971 -239.35758972 936.65686035 C-240.72530419 940.04055619 -241.48531455 941.90007132 -244.89856911 943.41331291 C-248.36810417 944.25685425 -251.34704022 944.46102542 -254.91513062 944.45535278 C-255.89062235 944.45791606 -255.89062235 944.45791606 -256.88582098 944.46053112 C-259.05078546 944.46380831 -261.21543549 944.45285195 -263.38037109 944.44189453 C-264.93788648 944.44133003 -266.4954024 944.44164773 -268.05291748 944.44277954 C-272.27148276 944.44335255 -276.48993393 944.43160666 -280.70847273 944.41763163 C-285.12071623 944.40511561 -289.53296244 944.40395308 -293.94522095 944.40158081 C-302.2961314 944.39536861 -310.64698939 944.37896129 -318.99787676 944.35888183 C-328.50689654 944.33651476 -338.01591884 944.32552737 -347.52495837 944.31549096 C-367.08177235 944.29459485 -386.63853912 944.2594239 -406.1953125 944.21484375 C-407.4145687 940.55707514 -406.89649342 939.86306304 -405.40625 936.40625 C-404.97030518 935.37669189 -404.53436035 934.34713379 -404.08520508 933.28637695 C-403.58529053 932.128396 -403.08537598 930.97041504 -402.5703125 929.77734375 C-401.45132936 927.13911456 -400.3409398 924.49729024 -399.23046875 921.85546875 C-398.92104843 921.1214534 -398.61162811 920.38743805 -398.29283142 919.63117981 C-393.74482649 908.81228797 -389.39172204 897.91344342 -385.0078125 887.02734375 C-384.09209906 884.7560473 -383.17624553 882.48480732 -382.26025391 880.21362305 C-380.88770657 876.8103954 -379.51522726 873.40714059 -378.14318848 870.00370789 C-373.92010745 859.52855153 -369.68462784 849.05843854 -365.4453125 838.58984375 C-364.75300171 836.87996798 -364.06070025 835.17008843 -363.3684082 833.46020508 C-361.99764589 830.07467168 -360.6267822 826.68917935 -359.25585938 823.30371094 C-356.09010302 815.48568552 -352.92576962 807.66708413 -349.7612915 799.84854126 C-348.69880642 797.22347612 -347.63627668 794.59842907 -346.57373047 791.97338867 C-343.36772158 784.05286984 -340.16183901 776.13229997 -336.95648193 768.21151733 C-329.56830306 749.95455554 -322.17702937 731.69886254 -314.77575684 713.44720459 C-307.62650503 695.81658316 -300.48929147 678.18109416 -293.35253906 660.54541016 C-289.44738033 650.89546334 -285.54129477 641.24589163 -281.63537598 631.59625244 C-280.57461981 628.97562899 -279.51386991 626.35500301 -278.453125 623.734375 C-278.10290283 622.86913208 -277.75268066 622.00388916 -277.3918457 621.11242676 C-275.24652366 615.81220486 -273.10142149 610.51189403 -270.95648193 605.21151733 C-263.56830306 586.95455554 -256.17702937 568.69886254 -248.77575684 550.44720459 C-241.62650503 532.81658316 -234.48929147 515.18109416 -227.35253906 497.54541016 C-223.44738033 487.89546334 -219.54129477 478.24589163 -215.63537598 468.59625244 C-214.57461981 465.97562899 -213.51386991 463.35500301 -212.453125 460.734375 C-212.10290283 459.86913208 -211.75268066 459.00388916 -211.3918457 458.11242676 C-209.24652366 452.81220486 -207.10142149 447.51189403 -204.95648193 442.21151733 C-197.56830306 423.95455554 -190.17702937 405.69886254 -182.77575684 387.44720459 C-175.62650503 369.81658316 -168.48929147 352.18109416 -161.35253906 334.54541016 C-158.15405212 326.64170354 -154.95490214 318.7382653 -151.75579834 310.83480835 C-149.98560887 306.46149796 -148.2154629 302.08816996 -146.4453125 297.71484375 C-145.73697937 295.96484367 -145.02864604 294.21484367 -144.3203125 292.46484375 C-143.9696875 291.59859375 -143.6190625 290.73234375 -143.2578125 289.83984375 C-140.07031225 281.96484313 -140.07031225 281.96484313 -139.00784302 279.33992004 C-138.29940713 277.58966607 -137.59097207 275.83941175 -136.88253784 274.0891571 C-135.11328046 269.71804018 -133.34400868 265.34692908 -131.57470703 260.97583008 C-128.36838253 253.05449344 -125.1621678 245.13311245 -121.95648193 237.21151733 C-114.56830306 218.95455554 -107.17702937 200.69886254 -99.77575684 182.44720459 C-92.62650503 164.81658316 -85.48929147 147.18109416 -78.35253906 129.54541016 C-76.21441942 124.2619525 -74.07600112 118.97861576 -71.9375 113.6953125 C-71.58705124 112.82948044 -71.23660248 111.96364838 -70.87553406 111.07157898 C-69.1126417 106.71616656 -67.34957256 102.36082583 -65.58618164 98.00561523 C-61.57849877 88.10683255 -57.57542957 78.20620467 -53.57745361 68.30349731 C-50.73113379 61.25562679 -47.8732123 54.2125113 -45.01092529 47.17111206 C-43.03303208 42.2994378 -41.08354197 37.41770974 -39.15234375 32.52734375 C-38.29194307 30.38139957 -37.43129257 28.23555553 -36.5703125 26.08984375 C-36.21718994 25.17315918 -35.86406738 24.25647461 -35.50024414 23.31201172 C-31.5491105 13.57305178 -25.84803434 7.78141883 -16.31640625 3.40234375 C-10.92554499 1.35125261 -5.70688834 0.55850331 0 0 Z " fill="#0060AC" transform="translate(3216.1953125,698.78515625)"/>
<path d="M0 0 C167.31 0 334.62 0 507 0 C507 50.16 507 100.32 507 152 C389.85 152 272.7 152 152 152 C150.54949157 176.43980991 150.54949157 176.43980991 159.375 197.875 C160.24125 198.57625 161.1075 199.2775 162 200 C162.845625 200.721875 163.69125 201.44375 164.5625 202.1875 C174.11018859 207.2217358 185.80594422 206.28093404 196.3359375 206.23377991 C197.96449024 206.23393623 199.5930431 206.2349776 201.22159481 206.23682016 C205.66761913 206.23933717 210.1135406 206.22945988 214.55954623 206.2174722 C219.3651795 206.20673499 224.17081243 206.20767111 228.97645569 206.2071991 C237.29381827 206.20484201 245.61114721 206.19528683 253.92849731 206.18089485 C265.95820345 206.1601776 277.98789526 206.15152661 290.01761687 206.1459735 C309.54284144 206.13672747 329.06804919 206.1192815 348.59326172 206.09594727 C349.76073806 206.09455395 350.92821441 206.09316064 352.13106883 206.0917251 C353.30004501 206.09032957 354.4690212 206.08893404 355.67342091 206.08749622 C372.26551455 206.06770737 388.85760876 206.04988446 405.44970703 206.03442383 C407.20241948 206.03278755 407.20241948 206.03278755 408.99054027 206.03111822 C428.45427095 206.01311244 447.91800334 205.99914532 467.38173866 205.98725218 C479.38686267 205.97965428 491.39197 205.96789692 503.3970843 205.95079052 C511.61301484 205.93924496 519.82894402 205.93105257 528.04488081 205.92552502 C532.78864217 205.92218573 537.53238672 205.91713335 542.27614021 205.90771103 C546.61449981 205.89910897 550.95283848 205.89505508 555.29120636 205.89467566 C556.8642618 205.89370635 558.43731726 205.89101671 560.01036644 205.88647438 C562.14150527 205.88055424 564.27255753 205.88076009 566.40370178 205.8825388 C568.18242723 205.880343 568.18242723 205.880343 569.99708652 205.87810284 C572.52664421 205.98078508 574.59604318 206.25407395 577 207 C577.02332753 226.67068178 577.04097845 246.34136076 577.05181217 266.01205349 C577.05697544 275.14484048 577.06401872 284.2776189 577.07543945 293.41040039 C577.08538535 301.36757874 577.0918532 309.32475088 577.09408849 317.28193527 C577.09539576 321.49785986 577.09848262 325.71376668 577.10573006 329.92968559 C577.11248879 333.89322184 577.11461726 337.85673289 577.11310768 341.82027435 C577.11338408 343.27922006 577.11539007 344.73816657 577.11920547 346.19710732 C577.12414036 348.18046595 577.12239811 350.16383792 577.12025452 352.14720154 C577.12117631 353.25980567 577.1220981 354.3724098 577.12304783 355.51872921 C577 358 577 358 576 359 C573.81574501 359.10079256 571.62815707 359.12924976 569.44157887 359.13142776 C568.3961896 359.13450672 568.3961896 359.13450672 567.32968137 359.13764787 C564.9647095 359.14335923 562.59979511 359.14185554 560.2348175 359.14044189 C558.53371605 359.14302325 556.8326152 359.14603576 555.1315152 359.1494453 C550.43319034 359.15754709 545.73488072 359.15930665 541.03654969 359.16004276 C535.97747199 359.16188808 530.91840231 359.16943328 525.85932922 359.17617798 C514.7797533 359.18978953 503.70018098 359.19579184 492.62059808 359.20018864 C485.6984164 359.20294917 478.77623613 359.20718646 471.8540554 359.21169281 C452.68228525 359.22389459 433.51051621 359.23418856 414.33874226 359.2375679 C412.49605707 359.23789725 412.49605707 359.23789725 410.61614592 359.23823325 C409.38473576 359.23845153 408.1533256 359.23866981 406.88459998 359.2388947 C404.38929387 359.23933817 401.89398775 359.23978473 399.39868164 359.24023438 C397.54204252 359.24056652 397.54204252 359.24056652 395.64789554 359.24090537 C375.63597221 359.24484496 355.62408549 359.26226919 335.61217628 359.2855939 C315.05711137 359.3093575 294.50206476 359.32177221 273.9469859 359.32293582 C262.41030367 359.32385035 250.87366898 359.32954557 239.33699989 359.34775543 C229.50161047 359.36322484 219.66628325 359.3682372 209.83088396 359.36001733 C204.81962027 359.35613343 199.80848156 359.35692829 194.79723358 359.37107468 C144.07165829 359.50572923 100.82241012 350.67741703 62.375 315.1875 C59.41155624 312.45801232 56.36082405 309.83519108 53.30078125 307.21484375 C22.58362466 277.64501729 4.65236494 235.87128447 0 194 C0 129.98 0 65.96 0 0 Z " fill="#0060AC" transform="translate(1126,1102)"/>
<path d="M0 0 C1.73605901 -0.00043641 3.47211796 -0.00131261 5.20817655 -0.00258917 C9.96511029 -0.00482034 14.72202143 -0.0008317 19.47895229 0.0041889 C24.61381139 0.008513 29.74866925 0.00704558 34.88352966 0.00628662 C43.77552657 0.00576263 52.66751613 0.00889641 61.55951118 0.01452446 C74.41579628 0.02265634 87.27207782 0.02525641 100.12836521 0.02651245 C120.98755127 0.02870031 141.84673342 0.03535321 162.70591736 0.04481506 C182.96698487 0.05399605 203.22805131 0.06107353 223.48912048 0.06532288 C225.36290044 0.06571696 225.36290044 0.06571696 227.27453453 0.06611901 C233.54142467 0.06742406 239.80831482 0.06868776 246.07520497 0.06993091 C298.05375645 0.08029525 350.0323007 0.09872911 402.010849 0.12025452 C402.010849 50.28025452 402.010849 100.44025452 402.010849 152.12025452 C389.88020691 152.13483704 377.74956482 152.14941956 365.25132751 152.16444397 C326.44524844 152.21319374 287.63920572 152.27660071 248.83316431 152.3492408 C242.80621111 152.36050907 236.77925767 152.3716475 230.75230408 152.38270569 C229.55243773 152.38490937 228.35257139 152.38711306 227.11634546 152.38938352 C207.68405377 152.42476334 188.25176211 152.44962361 168.81945015 152.47060154 C148.88257211 152.49235812 128.9457359 152.52540721 109.00889343 152.56895608 C96.70516396 152.59547519 84.40148661 152.61316867 72.09772997 152.61960056 C63.66248817 152.62485362 55.22731198 152.64106792 46.79210532 152.66592018 C41.92424284 152.67993786 37.05649782 152.68910494 32.18861389 152.68526268 C27.73037343 152.68185045 23.27238377 152.69222892 18.81419467 152.71349003 C17.20301747 152.71875481 15.5918142 152.7189961 13.98063726 152.71365014 C3.59359582 152.68270128 -5.87168805 152.99084682 -14.4188385 159.53041077 C-26.56149476 171.82409509 -22.53033786 191.97942078 -22.989151 207.12025452 C94.160849 207.12025452 211.310849 207.12025452 332.010849 207.12025452 C332.010849 257.28025452 332.010849 307.44025452 332.010849 359.12025452 C164.700849 359.12025452 -2.609151 359.12025452 -174.989151 359.12025452 C-174.989151 105.25459152 -174.989151 105.25459152 -116.989151 47.12025452 C-85.45575295 15.95893196 -43.95588017 -0.08216734 0 0 Z " fill="#0060AC" transform="translate(1300.9891510009766,713.8797454833984)"/>
</svg>
