<?xml version="1.0" encoding="UTF-8"?>
<svg version="1.1" xmlns="http://www.w3.org/2000/svg" width="3840" height="2160">
<path d="M0 0 C3.50044756 3.51664884 3.44159601 7.02029776 3.43237305 11.72607422 C3.44765627 12.90488049 3.44765627 12.90488049 3.46324825 14.10750103 C3.49375012 16.75663407 3.50275253 19.40540009 3.51171875 22.0546875 C3.52873468 23.97005768 3.54694585 25.88541755 3.56625366 27.80076599 C3.61501092 33.05603517 3.64427958 38.31125756 3.66975784 43.56668472 C3.69345499 47.98540522 3.72817157 52.40401231 3.76267529 56.82265949 C4.21052966 114.87945701 4.09620781 172.94201786 4 231 C1.63777965 228.63777965 1.59267025 227.67761481 1.10546875 224.44140625 C0.95706543 223.50683594 0.80866211 222.57226562 0.65576172 221.609375 C0.42397217 220.10117187 0.42397217 220.10117187 0.1875 218.5625 C-1.77650698 206.51003753 -4.69306255 194.88875814 -8.1171875 183.1796875 C-9 180 -9 180 -9.5 176.625 C-9.665 175.75875 -9.83 174.8925 -10 174 C-10.66 173.67 -11.32 173.34 -12 173 C-12.67358398 171.32250977 -12.67358398 171.32250977 -13.30859375 169.12890625 C-15.08814008 163.49423265 -17.50682061 158.25773212 -20.0625 152.9375 C-20.54348145 151.93468994 -21.02446289 150.93187988 -21.52001953 149.89868164 C-26.34223963 140.02299587 -31.59264165 130.06868745 -38.7890625 121.69140625 C-41 119 -41 119 -41 117 C-41.66 117 -42.32 117 -43 117 C-43.7425 115.96875 -44.485 114.9375 -45.25 113.875 C-64.35568314 87.77157268 -94.96489788 70.51228574 -125 60 C-125.99 60 -126.98 60 -128 60 C-128 59.34 -128 58.68 -128 58 C-129.010625 58.04125 -130.02125 58.0825 -131.0625 58.125 C-134.34427466 58.02081668 -136.80064175 57.5988095 -139.8984375 56.63671875 C-159.60167016 50.66715198 -184.78008926 47.66505662 -205 52 C-207.12351148 52.14815196 -209.2488725 52.27092383 -211.375 52.375 C-253.46001823 55.12739571 -295.16488685 75.96901273 -326 104 C-326.92039062 104.83660156 -327.84078125 105.67320312 -328.7890625 106.53515625 C-355.56020577 132.11047035 -375.05977326 170.49170103 -376.33227539 207.83227539 C-376.89987015 240.78196196 -355.60526124 270.44909612 -333.66015625 293.25390625 C-332.44195858 294.50441335 -331.22185761 295.75306875 -330 297 C-329.35530762 297.65983887 -328.71061523 298.31967773 -328.04638672 298.99951172 C-326.07919281 301.00632977 -324.10462539 303.00544719 -322.125 305 C-321.53098389 305.5988501 -320.93696777 306.1977002 -320.32495117 306.81469727 C-295.39387152 331.64864735 -265.49539403 351.47601766 -236.3125 370.875 C-235.38968231 371.48939941 -234.46686462 372.10379883 -233.51608276 372.73681641 C-220.8598067 381.16127219 -208.16988485 389.515543 -195.27685547 397.57470703 C-192.95166931 399.03025462 -190.63318735 400.49595925 -188.31640625 401.96484375 C-172.38597165 412.06351259 -156.40517178 422.08387494 -140.32299805 431.93920898 C-127.41051746 439.8529981 -114.60945737 447.92466896 -101.88525391 456.13769531 C-99.17950296 457.88413872 -96.47078947 459.62590039 -93.76171875 461.3671875 C-58.54336924 484.06506281 -24.50219426 508.18323696 6 537 C6.75023437 537.70769531 7.50046875 538.41539062 8.2734375 539.14453125 C23.10070536 553.53225559 34.44255103 570.82186911 42 590 C42.85015843 577.16676081 43.1519083 564.39602758 43.15821838 551.53683472 C43.16279622 549.53314497 43.16779798 547.52945615 43.17318195 545.5257684 C43.18663356 540.07088018 43.19414328 534.61599812 43.20060861 529.16109776 C43.2086703 523.25951123 43.22234787 517.35793727 43.23532104 511.45635986 C43.2570026 501.24838534 43.27517718 491.0404095 43.29092598 480.83242416 C43.30743344 470.13510529 43.32590901 459.43779306 43.34705925 448.74048233 C43.34903566 447.74000958 43.34903566 447.74000958 43.351052 446.71932526 C43.35775477 443.33158481 43.36449316 439.94384443 43.37124526 436.55610408 C43.41891374 412.60723332 43.46212568 388.65835642 43.50268555 364.70947266 C43.54208089 341.45425978 43.5835143 318.19905198 43.62768555 294.94384766 C43.62904808 294.22608018 43.63041061 293.5083127 43.63181442 292.76879469 C43.64550068 285.56018901 43.65922813 278.35158341 43.67298577 271.14297787 C43.7010067 256.46031944 43.72875276 241.77766049 43.7563324 227.09500122 C43.7582347 226.08253956 43.7582347 226.08253956 43.76017542 225.04962412 C43.8447248 180.03309076 43.92224819 135.01654572 44 90 C83.6 90 123.2 90 164 90 C164 295.59 164 501.18 164 713 C84.24468085 714.17287234 84.24468085 714.17287234 50 713 C49.9582666 713.72703125 49.9165332 714.4540625 49.87353516 715.203125 C49.35940905 722.68132286 48.17532224 729.73000086 46.375 737 C46.10703613 738.08595459 45.83907227 739.17190918 45.56298828 740.29077148 C38.95390927 766.36204008 27.88640007 790.24686036 12 812 C11.54802246 812.6202002 11.09604492 813.24040039 10.63037109 813.87939453 C-28.51167288 866.91193385 -91.0325276 901.26188861 -155 914 C-155.63478271 914.13341797 -156.26956543 914.26683594 -156.92358398 914.40429688 C-185.5905097 920.4107607 -218.54696064 925.9144188 -247.8125 922.5 C-253.05475464 921.89801861 -258.23720396 921.96512155 -263.5078125 922.0625 C-291.15659746 921.56766716 -322.12863665 915.59955055 -348.54736328 907.71386719 C-351.23970988 906.93022977 -353.94321946 906.20002441 -356.65234375 905.4765625 C-365.80064357 903.01440751 -374.87055935 900.4630882 -383.80078125 897.29296875 C-384.45397842 897.06188919 -385.1071756 896.83080963 -385.78016663 896.59272766 C-388.97761352 895.45672508 -392.1637159 894.2989676 -395.34301758 893.11254883 C-403.55901119 890.04690097 -403.55901119 890.04690097 -412 891 C-412.84304688 891.2371875 -413.68609375 891.474375 -414.5546875 891.71875 C-415.70324219 892.10546875 -415.70324219 892.10546875 -416.875 892.5 C-424.83751095 894.92964836 -430.75462622 895.46297862 -438.8359375 893.1796875 C-441.78092007 891.57429989 -442.53064996 890.01219337 -444 887 C-444.52051258 883.56528187 -444.52051258 883.56528187 -444.72236633 879.57539368 C-444.76197601 878.84635074 -444.80158569 878.11730781 -444.84239566 877.36617267 C-444.96789462 874.95593976 -445.07158068 872.54538776 -445.1730957 870.1340332 C-445.25359362 868.42314147 -445.33418104 866.71225396 -445.4148531 865.00137043 C-446.1994425 847.48716017 -446.27900186 829.97859767 -446.23571944 812.45009017 C-446.22666866 807.97765932 -446.22870135 803.50522929 -446.2290802 799.03279114 C-446.22815603 791.54975588 -446.21963898 784.06676222 -446.20581055 776.58374023 C-446.19002327 768.01061634 -446.18481583 759.43753748 -446.1855461 750.86440009 C-446.18622784 741.59969261 -446.17926276 732.33500176 -446.1700995 723.07029939 C-446.16799847 720.4549638 -446.1672626 717.83963101 -446.16686058 715.22429466 C-446.16124403 696.12440586 -445.99968136 677.0795799 -445 658 C-444.34 658 -443.68 658 -443 658 C-442.71503662 658.52505127 -442.43007324 659.05010254 -442.13647461 659.59106445 C-439.04027723 665.29162015 -435.93240659 670.98571287 -432.81787109 676.67626953 C-431.61578123 678.87412762 -430.41555379 681.07300547 -429.21728516 683.27294922 C-411.49050598 715.78412312 -392.60028603 748.31094252 -367.25 775.5625 C-365.34868921 777.62225336 -363.54364491 779.7226261 -361.75 781.875 C-326.32101991 822.34166724 -272.11566723 844.05746642 -219.41796875 848.203125 C-180.50989181 849.02080788 -138.98088147 830.38206953 -108 808 C-107.45472656 807.61021973 -106.90945313 807.22043945 -106.34765625 806.81884766 C-95.28896209 798.8463778 -84.43345888 789.74783845 -76 779 C-74.33988205 777.32681025 -72.67313909 775.66016901 -71 774 C-53.73344 754.65649293 -41.42627552 729.56669591 -37 704 C-36.773125 702.72125 -36.54625 701.4425 -36.3125 700.125 C-33.79461361 674.9461361 -40.43109196 650.17938562 -55.71484375 629.890625 C-57 628 -57 628 -57 626 C-57.66 626 -58.32 626 -59 626 C-60.23095703 624.33447266 -60.23095703 624.33447266 -61.6328125 622.0390625 C-64.90538732 616.96845688 -68.70144968 612.71549233 -72.875 608.375 C-73.54402344 607.6634375 -74.21304687 606.951875 -74.90234375 606.21875 C-79.37092457 601.51769966 -84.06021338 597.19856081 -89 593 C-90.03320963 592.09971241 -91.06581131 591.19872638 -92.09765625 590.296875 C-104.78647101 579.04582541 -104.78647101 579.04582541 -119 570 C-119 569.34 -119 568.68 -119 568 C-119.56847656 567.72671875 -120.13695312 567.4534375 -120.72265625 567.171875 C-127.89357176 563.48186702 -134.52542451 558.65561713 -141.21118164 554.16357422 C-151.88403677 546.99747242 -162.70434619 540.12535029 -173.67480469 533.42480469 C-175.82341618 532.10820487 -177.9642738 530.78019168 -180.1015625 529.4453125 C-180.70613281 529.06874512 -181.31070312 528.69217773 -181.93359375 528.30419922 C-183.49020898 527.33401091 -185.0459285 526.36238587 -186.6015625 525.390625 C-189.01759126 523.88175766 -189.01759126 523.88175766 -192 523 C-192 522.34 -192 521.68 -192 521 C-192.6703125 520.75894531 -193.340625 520.51789062 -194.03125 520.26953125 C-197.70292693 518.69940625 -201.07694427 516.72776645 -204.5 514.6875 C-205.22832031 514.25671143 -205.95664062 513.82592285 -206.70703125 513.38208008 C-213.73264897 509.20434668 -220.67807134 504.89681105 -227.60351562 500.55541992 C-231.4508444 498.1523295 -235.30218619 495.80027856 -239.28125 493.62109375 C-245.46707501 490.23042059 -251.47518503 486.5411366 -257.5 482.875 C-258.11938446 482.49872467 -258.73876892 482.12244934 -259.37692261 481.73477173 C-268.0069655 476.48873225 -276.56030304 471.14346475 -285.00390625 465.6015625 C-288.65817928 463.20678522 -292.35916482 460.89191878 -296.06689453 458.58105469 C-304.53024 453.29889446 -312.74701206 447.7636771 -320.85546875 441.953125 C-325.02616206 438.96546014 -329.25888344 436.07389158 -333.5 433.1875 C-338.60730445 429.70437411 -343.58420214 426.12703379 -348.3984375 422.2421875 C-349.99234164 420.9226667 -349.99234164 420.9226667 -352 420 C-352 419.34 -352 418.68 -352 418 C-352.85464844 417.60941406 -352.85464844 417.60941406 -353.7265625 417.2109375 C-368.53450138 409.32354738 -383.38524464 393.92866767 -395 382 C-396.16530771 380.83197596 -397.33208356 379.66541555 -398.5 378.5 C-401.33333333 375.66666667 -404.16666667 372.83333333 -407 370 C-407.8971875 369.1646875 -407.8971875 369.1646875 -408.8125 368.3125 C-410 367 -410 367 -410 365 C-410.66 365 -411.32 365 -412 365 C-414.73125836 362.10624114 -417.13051469 358.93067718 -419.5859375 355.80126953 C-420.55285567 354.56958406 -421.52443832 353.34154993 -422.5 352.11669922 C-429.02515681 343.91335365 -435.13142368 335.5411173 -440.75 326.6875 C-441.26344971 325.88119141 -441.77689941 325.07488281 -442.3059082 324.24414062 C-445.88200414 318.49891728 -445.88200414 318.49891728 -446.51660156 315.81567383 C-446.75588379 314.91691528 -446.75588379 314.91691528 -447 314 C-447.66 313.67 -448.32 313.34 -449 313 C-450.0703125 311.00390625 -450.0703125 311.00390625 -451.125 308.5625 C-451.47820312 307.75941406 -451.83140625 306.95632813 -452.1953125 306.12890625 C-453 304 -453 304 -453 302 C-453.66 301.67 -454.32 301.34 -455 301 C-465.64504457 278.43689522 -470.41682934 254.46931763 -472.72558594 229.83496094 C-472.95057876 227.51056888 -473.21485048 225.1992288 -473.5078125 222.8828125 C-478.742084 171.98787472 -458.96930601 111.55719326 -429 71 C-428.58073242 70.42813965 -428.16146484 69.8562793 -427.72949219 69.26708984 C-407.05166022 41.34191858 -380.9710232 20.21470907 -351 3 C-350.3615918 2.6277832 -349.72318359 2.25556641 -349.06542969 1.87207031 C-261.2183453 -49.04318381 -146.72426743 -52.54402268 0 0 Z " fill="#000000" transform="translate(502,640)"/>
<path d="M0 0 C3.42658758 0.78127731 5.92611138 1.98810282 8.9453125 3.81640625 C9.92604736 4.40728027 10.90678223 4.9981543 11.91723633 5.60693359 C12.97579834 6.25227051 14.03436035 6.89760742 15.125 7.5625 C16.23447998 8.23361816 17.34395996 8.90473633 18.48706055 9.59619141 C27.37273107 14.97606831 36.21777131 20.42270052 45.05761719 25.87744141 C55.86996035 32.54789471 66.72936457 39.13945559 77.59448242 45.72341919 C82.00332053 48.3951271 86.41028883 51.06990157 90.81640625 53.74609375 C91.45799683 54.13576828 92.0995874 54.52544281 92.76062012 54.92692566 C95.26010163 56.44503794 97.75955497 57.96319661 100.25897217 59.48141479 C101.96293417 60.51638499 103.66701164 61.55116507 105.37109375 62.5859375 C106.33974365 63.1742334 107.30839355 63.7625293 108.30639648 64.36865234 C110.90789456 66.06173154 110.90789456 66.06173154 113.63783264 66.96841431 C116 69 116 69 116.43640804 71.00861168 C116.5814648 73.73115567 116.56087985 76.41119015 116.48828125 79.13671875 C116.48120651 80.13129593 116.47413177 81.12587311 116.46684265 82.15058899 C116.43883158 85.33032133 116.37607922 88.50829906 116.3125 91.6875 C116.28742588 93.84177146 116.26461117 95.9960705 116.24414062 98.15039062 C116.1889834 103.43419341 116.10529098 108.71697138 116 114 C117.31665319 113.97925966 117.31665319 113.97925966 118.65990543 113.95810032 C140.07007826 113.62607305 161.47980431 113.37825052 182.8920145 113.22281742 C193.24723128 113.14564147 203.6007242 113.04053289 213.95483398 112.8684082 C222.98522536 112.71836099 232.01436794 112.62200292 241.04597133 112.58867258 C245.82393965 112.56920246 250.59833731 112.52384245 255.3751545 112.41404915 C288.3445833 111.68451244 288.3445833 111.68451244 297.02312374 119.37148952 C304 126.93071468 304 126.93071468 304 131 C301.71070947 132.17154293 299.41881638 133.33738074 297.125 134.5 C296.47402344 134.83386719 295.82304687 135.16773438 295.15234375 135.51171875 C290.2265625 138 290.2265625 138 288 138 C287.67 138.66 287.34 139.32 287 140 C285.56848068 140.89838146 284.10359552 141.74390847 282.625 142.5625 C273.08890093 148.17517545 264.77475006 155.24888883 258 164 C257.37891924 164.76824191 256.75783848 165.53648382 256.11793709 166.32800579 C248.67631607 177.44937899 250.22334486 189.90385557 250.51885644 202.75978921 C250.59352232 206.40129545 250.62424739 210.04317621 250.6579113 213.6852541 C250.70455808 218.50590617 250.75438048 223.32641961 250.81955397 228.14686149 C250.9930424 241.12497361 251.03738159 254.10049022 251.02496338 267.0796814 C251.02406683 268.07960111 251.02317027 269.07952083 251.02224655 270.10974114 C251.0182209 274.24983748 251.01354981 278.38993231 251.00794861 282.53002682 C250.9916619 294.66269501 250.99508832 306.79534843 250.99856567 318.92802429 C250.99905874 321.23903022 250.99954296 323.55003615 251.00001848 325.86104208 C251.00730148 356.74313535 251.03980952 387.62521799 251.07579029 418.50728954 C251.08329845 424.96652938 251.09055575 431.42576947 251.09765625 437.88500977 C251.099073 439.16986502 251.10048975 440.45472028 251.10194944 441.77851055 C251.12446381 462.76890458 251.12542919 483.7592497 251.11888863 504.74965247 C251.11260325 526.43001474 251.12891532 548.11027418 251.16643608 569.79060537 C251.1887734 583.10535686 251.19357777 596.4198734 251.17559664 609.73463253 C251.16501951 618.81403019 251.17636452 627.89323315 251.20516153 636.97259071 C251.22111077 642.20546649 251.22728828 647.43787889 251.20739174 652.67075157 C251.18939933 657.45832658 251.19897573 662.2450237 251.23053883 667.03252117 C251.23708017 668.76348134 251.2334919 670.49451566 251.21874608 672.22542538 C250.89000953 683.76639052 250.89000953 683.76639052 256.41512859 693.52353555 C256.93813615 694.01076882 257.46114372 694.49800209 258 695 C259.02288148 696.14400533 260.04394949 697.28963695 261.0625 698.4375 C274.56017358 711.37400115 291.24366199 716.6967883 308.6875 722.0625 C309.72043182 722.38408081 309.72043182 722.38408081 310.77423096 722.7121582 C320.21677372 725.650821 329.68638265 728.38076234 339.33862305 730.55493164 C344.80753318 731.80753318 344.80753318 731.80753318 347 734 C344.6699717 735.16501415 343.12839371 735.19800581 340.5300436 735.31241512 C339.60998706 735.35380613 338.68993053 735.39519714 337.74199349 735.43784243 C336.74476122 735.47663797 335.74752895 735.5154335 334.72007751 735.55540466 C333.16831941 735.61863612 333.16831941 735.61863612 331.58521265 735.68314499 C321.21461486 736.07698681 310.85542473 736.13427772 300.47875977 736.11352539 C298.4458364 736.11324223 296.41291293 736.11340375 294.37998962 736.1139679 C288.94349921 736.11425086 283.50703158 736.1084364 278.07054639 736.10139394 C272.35846912 736.09507577 266.64639114 736.09454999 260.93431091 736.09336853 C250.15445149 736.09027988 239.37460239 736.08210026 228.59474748 736.07201904 C216.30666212 736.06078065 204.01857622 736.05532812 191.73048699 736.05032361 C166.48698544 736.03991515 141.24349374 736.02215906 116 736 C115.67 748.21 115.34 760.42 115 773 C111.49805908 772.12451477 109.94742431 771.49896626 107.09375 769.55859375 C105.98833862 768.81367676 105.98833862 768.81367676 104.8605957 768.05371094 C103.69210083 767.25368652 103.69210083 767.25368652 102.5 766.4375 C100.85811956 765.32675397 99.21619252 764.21607681 97.57421875 763.10546875 C96.78063965 762.56583496 95.98706055 762.02620117 95.16943359 761.47021484 C92.56615951 759.70598836 89.94036726 757.97732782 87.3125 756.25 C80.30334941 751.58704968 73.42202507 746.73749087 66.53442383 741.89746094 C65.5936499 741.23907227 64.65287598 740.58068359 63.68359375 739.90234375 C62.85400146 739.31960693 62.02440918 738.73687012 61.16967773 738.13647461 C58.40383418 736.27219848 55.61121273 734.47466298 52.79321289 732.69091797 C47.33919641 729.23410493 41.97188428 725.66266481 36.625 722.04296875 C35.69324951 721.41393143 34.76149902 720.7848941 33.80151367 720.13679504 C30.86674744 718.15506685 27.93334167 716.17133604 25 714.1875 C23.00399846 712.83905621 21.00790546 711.49074778 19.01171875 710.14257812 C14.64668474 707.1944386 10.28253338 704.24499762 5.91918945 701.2943573 C4.2830494 700.19089676 2.64202537 699.09468358 1 698 C0.62740451 695.89211452 0.62740451 695.89211452 0.63085651 693.22486687 C0.62488337 692.21070005 0.61891022 691.19653324 0.61275607 690.1516341 C0.6214946 689.02908477 0.63023312 687.90653545 0.63923645 686.74996948 C0.63667318 685.56403045 0.6341099 684.37809141 0.63146895 683.15621483 C0.62736867 679.85407973 0.63679383 676.55247315 0.65180314 673.25040174 C0.66471978 669.69348464 0.66037715 666.13658482 0.65809631 662.57965088 C0.6565208 656.41363504 0.66595896 650.2477142 0.68280983 644.08172226 C0.70715771 635.16667272 0.71500077 626.25166926 0.7187738 617.33659007 C0.72534492 602.87361862 0.74532394 588.41069783 0.77368164 573.94775391 C0.80120516 559.89567312 0.8224127 545.84360614 0.83520508 531.79150391 C0.83600907 530.91696402 0.83681306 530.04242414 0.83764142 529.14138305 C0.84387943 522.30223394 0.84975029 515.46308452 0.85550511 508.62393498 C0.88382264 475.08257682 0.94417357 441.54134545 1 408 C-71.6 408 -144.2 408 -219 408 C-219 526.8 -219 645.6 -219 768 C-229.22251776 762.88874112 -239.25668682 757.73831434 -249.1875 752.125 C-251.51233018 750.81147893 -253.83947128 749.50235272 -256.16796875 748.1953125 C-257.67266724 747.34477295 -257.67266724 747.34477295 -259.20776367 746.47705078 C-261.76223389 745.12577467 -264.29638901 744.0131973 -267 743 C-267 742.34 -267 741.68 -267 741 C-267.8353125 740.75507812 -268.670625 740.51015625 -269.53125 740.2578125 C-273.4691504 738.82988015 -276.88609113 736.96833383 -280.5 734.875 C-281.19633545 734.47756592 -281.8926709 734.08013184 -282.61010742 733.6706543 C-284.74298686 732.45210806 -286.87174251 731.22659684 -289 730 C-291.43654137 728.6024902 -293.87444766 727.20737176 -296.3125 725.8125 C-297.45203125 725.16023438 -298.5915625 724.50796875 -299.765625 723.8359375 C-305.63471751 720.50444779 -311.55958544 717.28088057 -317.53515625 714.14453125 C-318.13191162 713.82943604 -318.72866699 713.51434082 -319.34350586 713.18969727 C-321.04177358 712.29390003 -322.74345988 711.40459272 -324.4453125 710.515625 C-327 709 -327 709 -328 707 C-329.99571323 706.32060826 -331.99594773 705.65438441 -334 705 C-336 703 -336 703 -336.249815 700.93569325 C-336.24972678 700.07508676 -336.24963856 699.21448027 -336.24954766 698.32779479 C-336.25429847 697.33434627 -336.25904928 696.34089775 -336.26394406 695.31734473 C-336.25897588 694.21571114 -336.2540077 693.11407755 -336.24888897 691.97906113 C-336.25149625 690.8118848 -336.25410354 689.64470847 -336.25678983 688.44216317 C-336.26203179 685.17795055 -336.25822166 681.91388748 -336.25073375 678.64968365 C-336.24478935 675.10770792 -336.25038574 671.56574813 -336.25455457 668.02377248 C-336.26025596 661.807812 -336.25847162 655.59188796 -336.2518692 649.37592888 C-336.24207818 640.13262506 -336.2436771 630.88934808 -336.2476195 621.64604117 C-336.25390535 606.09787142 -336.25071071 590.54971681 -336.24202538 575.00154877 C-336.23342169 559.59640106 -336.22850496 544.19126015 -336.22869301 528.78610992 C-336.22870065 527.82915253 -336.2287083 526.87219513 -336.22871618 525.88623902 C-336.22875708 522.0019485 -336.22882269 518.11765797 -336.22892199 514.23336744 C-336.2298289 477.76412099 -336.21987118 441.29488491 -336.20449232 404.82564205 C-336.19087195 372.4070346 -336.18463082 339.98843451 -336.18530273 307.56982422 C-336.18534315 305.48891909 -336.18538351 303.40801396 -336.18542381 301.32710883 C-336.18544416 300.29836264 -336.18546452 299.26961646 -336.18548548 298.20969614 C-336.18558627 293.03139772 -336.18567686 287.8530993 -336.18575573 282.67480087 C-336.18577244 281.65326027 -336.18578916 280.63171968 -336.18580638 279.5792233 C-336.18617142 252.51446908 -336.18163416 225.44971577 -336.17542917 198.38496232 C-336.17520889 197.42238071 -336.17498862 196.45979909 -336.17476168 195.46804834 C-336.17387341 191.59704343 -336.17298502 187.72603852 -336.17207072 183.85503361 C-336.16890848 170.37530618 -336.16740116 156.89557948 -336.16695923 143.4158517 C-336.16636256 126.04345028 -336.16237694 108.67105495 -336.15252777 91.29865614 C-336.14740636 82.10615879 -336.14500553 72.91367038 -336.14652396 63.72117168 C-336.14725697 57.58612169 -336.14436527 51.45108041 -336.13848015 45.31603322 C-336.1352224 41.81692471 -336.13355186 38.31783498 -336.13624074 34.81872556 C-336.13829469 31.05389821 -336.13426099 27.28912597 -336.12863445 23.52430344 C-336.13068977 22.43203451 -336.13274509 21.33976559 -336.13486269 20.21439761 C-336.12152365 15.36422656 -336.02857901 10.76640752 -335 6 C-331.4709642 6.64090535 -329.13789958 8.04985861 -326.1875 10.0625 C-324.59421875 11.14724609 -324.59421875 11.14724609 -322.96875 12.25390625 C-321.64503418 13.16811479 -320.3222066 14.08361006 -319 15 C-317.7934375 15.8350708 -317.7934375 15.8350708 -316.5625 16.68701172 C-310.71752028 20.73659417 -304.88362522 24.8019598 -299.05224609 28.87109375 C-294.20479366 32.2521356 -289.35223771 35.6258311 -284.5 39 C-282.58330677 40.33329515 -280.66664015 41.66662855 -278.75 43 C-277.80125 43.66 -276.8525 44.32 -275.875 45 C-273 47 -270.125 49 -267.25 51 C-266.29996094 51.66088623 -265.34992187 52.32177246 -264.37109375 53.00268555 C-262.46740805 54.32700976 -260.56376178 55.65139064 -258.66015625 56.97583008 C-253.67021382 60.44748498 -248.67945298 63.91795535 -243.6875 67.38671875 C-242.65173828 68.10666016 -241.61597656 68.82660156 -240.54882812 69.56835938 C-238.57382216 70.94112137 -236.59857695 72.31353923 -234.62304688 73.68554688 C-233.27823242 74.62043945 -233.27823242 74.62043945 -231.90625 75.57421875 C-231.12572266 76.11651123 -230.34519531 76.65880371 -229.54101562 77.2175293 C-228.70248047 77.80574463 -227.86394531 78.39395996 -227 79 C-226.42256528 79.32331667 -225.84513057 79.64663333 -225.25019783 79.97974747 C-223.25884288 81.18066312 -221.6319865 82.33861036 -220 84 C-219.29025855 87.08070657 -219.07611383 89.11913362 -219.15821838 92.19404602 C-219.15223741 93.01502862 -219.14625644 93.83601121 -219.14009422 94.68187207 C-219.12856847 97.43133878 -219.16704721 100.17781119 -219.20532227 102.92700195 C-219.20729689 104.89815704 -219.20618824 106.86931727 -219.20222473 108.84046936 C-219.2002147 114.19169275 -219.24139452 119.5418198 -219.29024243 124.89278817 C-219.33397541 130.4847994 -219.33811149 136.07683524 -219.34642029 141.66899109 C-219.36818482 152.25844145 -219.4256388 162.84738647 -219.49586672 173.43661422 C-219.57408452 185.49205208 -219.6125903 197.54751397 -219.64773476 209.60314238 C-219.72092033 234.40237518 -219.8440601 259.20115929 -220 284 C-219.34006987 283.99907821 -218.68013973 283.99815641 -218.00021172 283.99720669 C-201.49942566 283.97454818 -184.99864487 283.95830846 -168.4978466 283.94818783 C-160.51629938 283.94315633 -152.53476298 283.93635717 -144.55322266 283.92456055 C-96.36083583 283.85476495 -48.18676943 284.2617794 0 285 C-0.00607553 283.79850941 -0.01215105 282.59701881 -0.01841068 281.35911942 C-0.16346161 252.61975975 -0.30211656 223.88037374 -0.4332476 195.14094736 C-0.44951204 191.57752589 -0.4658287 188.01410467 -0.48217773 184.45068359 C-0.48543066 183.74148709 -0.48868358 183.03229059 -0.49203508 182.30160329 C-0.5443287 170.927591 -0.60082063 159.55360345 -0.6589582 148.1796197 C-0.7188402 136.44537765 -0.77399287 124.71111972 -0.82505554 112.97683597 C-0.85374783 106.41265146 -0.88453586 99.84848902 -0.92053413 93.2843399 C-1.08959848 62.17037748 -0.92998323 31.10187349 0 0 Z M116 136 C115.06134486 220.63317488 114.72324987 305.26442392 114.48995765 389.90193126 C114.45302504 403.2915618 114.41364079 416.68118309 114.37231445 430.07080078 C114.36681668 431.85445857 114.3613195 433.63811636 114.35582292 435.42177415 C114.35310521 436.30359761 114.35038751 437.18542108 114.34758744 438.09396647 C114.34487278 438.97495037 114.34215812 439.85593427 114.33936119 440.76361465 C114.33664899 441.64370159 114.33393678 442.52378852 114.33114239 443.43054475 C114.2034643 484.91089578 114.09306537 526.39127183 114.00456464 567.87172532 C114.00008073 569.96236003 113.99552692 572.05299457 113.99094868 574.14362907 C113.95687703 589.7286559 113.92914043 605.31366398 113.91615486 620.8987236 C113.91275049 624.89604737 113.90723243 628.89335708 113.89941216 632.89067459 C113.84631679 661.27196018 114.31170158 689.62725285 115 718 C117.25055434 718.01300627 119.50113031 718.022307 121.75170898 718.0300293 C123.00499496 718.03560349 124.25828094 718.04117767 125.54954529 718.04692078 C142.93189156 717.81054811 161.93104354 709.60795209 174.18359375 697.3828125 C174.78300781 696.59648438 175.38242188 695.81015625 176 695 C176.41242026 694.50748631 176.82484052 694.01497262 177.24975836 693.50753427 C182.97367104 685.32146252 181.6787158 675.36927898 181.60800171 665.83343506 C181.6108994 663.75190433 181.61599158 661.67037569 181.62308562 659.58885503 C181.63619737 653.87632356 181.61814932 648.16425111 181.59498715 642.45176721 C181.57544633 636.28801442 181.58478881 630.12429712 181.59057617 623.96052551 C181.59660875 613.28089463 181.58440862 602.60142777 181.55921555 591.92183685 C181.5328263 580.71467914 181.51639416 569.50758152 181.51332474 558.30039215 C181.51312616 557.60279231 181.51292759 556.90519246 181.512723 556.18645323 C181.5117591 552.64325133 181.51096153 549.10004943 181.51022096 545.55684748 C181.50460807 520.46315219 181.47506845 495.36953559 181.43212891 470.27587891 C181.39049966 445.93245303 181.36213594 421.5890645 181.35009766 397.24560547 C181.34972309 396.49597079 181.34934852 395.74633612 181.3489626 394.97398524 C181.34595419 388.94274413 181.34299295 382.91150301 181.34011877 376.88026184 C181.32767072 350.82528733 181.30469804 324.77032123 181.27942905 298.71535638 C181.27537256 294.51047201 181.27153417 290.30558751 181.26788078 286.10070278 C181.25446467 270.66184264 181.23785853 255.22299878 181.21106736 239.78415456 C181.20050452 233.69047941 181.19138828 227.59681255 181.18649673 221.50312996 C181.18192926 215.9206862 181.17271956 210.33826973 181.15983529 204.75583914 C181.15595327 202.74041496 181.15370061 200.72498681 181.15327708 198.70955893 C181.91644252 175.86352417 181.91644252 175.86352417 174 155 C173.34 155 172.68 155 172 155 C171.72929687 154.39929688 171.45859375 153.79859375 171.1796875 153.1796875 C167.19615814 145.81939154 158.38054916 142.06488523 151 139 C147.99855421 138.13938573 145.07823889 137.55509226 142 137 C141.67 136.67 141.34 136.34 141 136 C139.14630389 135.91262355 137.28932459 135.89301847 135.43359375 135.90234375 C134.30888672 135.90556641 133.18417969 135.90878906 132.02539062 135.91210938 C130.84138672 135.92048828 129.65738281 135.92886719 128.4375 135.9375 C127.24962891 135.94201172 126.06175781 135.94652344 124.83789062 135.95117188 C121.89187774 135.96300325 118.94596319 135.97948713 116 136 Z " fill="#000000" transform="translate(2655,691)"/>
<path d="M0 0 C140.25 0 280.5 0 425 0 C425 0.66 425 1.32 425 2 C402.45763318 14.02707499 378.50014389 22.01930714 354.15673828 29.53173828 C341.79614891 33.36043129 329.58672007 37.37671911 317.5625 42.171875 C316.56883423 42.56765747 315.57516846 42.96343994 314.5513916 43.37121582 C305.23873079 47.1674472 296.14630018 51.56168102 287.44122737 56.6069232 C285.86030255 57.50907174 284.25406956 58.36876756 282.62236032 59.17543988 C277.84268205 61.80277582 277.84268205 61.80277582 275.16895931 66.36197307 C274.84029113 69.35186861 274.809765 72.22603828 274.87022305 75.23366833 C274.85744167 76.3752597 274.8446603 77.51685106 274.83149162 78.69303611 C274.80509508 81.86790914 274.81908828 85.03966921 274.84999337 88.21440779 C274.87370369 91.66558016 274.84527908 95.1163853 274.82346922 98.56751567 C274.79247505 104.61798742 274.79503749 110.66772856 274.81948471 116.71821976 C274.85573946 125.71550248 274.8406307 134.71218617 274.81527626 143.70947982 C274.77171515 159.77848304 274.77959862 175.8471542 274.80902801 191.91617125 C274.83464121 205.98135086 274.84314249 220.04641162 274.83459663 234.11161232 C274.83405429 235.04400124 274.83351195 235.97639016 274.83295318 236.93703329 C274.83073294 240.72180431 274.82843853 244.50657527 274.82602902 248.29134618 C274.80369847 283.81293279 274.83309083 319.3343117 274.88613696 354.85585679 C274.93296256 386.41595684 274.93625815 417.97577424 274.90209961 449.53588867 C274.8639061 484.98425053 274.85129111 520.43246161 274.88125902 555.88083678 C274.88439159 559.66032744 274.88747129 563.43981814 274.89053535 567.21930885 C274.89170403 568.61524301 274.89170403 568.61524301 274.89289632 570.03937785 C274.90424184 584.09238981 274.89626076 598.1453056 274.87907219 612.19830894 C274.8596684 628.18132519 274.86909511 644.16403933 274.91637021 660.14700332 C274.94203751 669.09206046 274.94579088 678.03648686 274.9178508 686.98154078 C274.90141202 692.95795349 274.9141089 698.9338483 274.95042799 704.91017203 C274.97031656 708.31510439 274.97334209 711.71774131 274.94982552 715.12280568 C274.18464482 732.52120133 274.18464482 732.52120133 282.00213724 747.27633125 C282.66143195 747.84514193 283.32072666 748.41395262 284 749 C284.9590625 749.88558594 285.918125 750.77117188 286.90625 751.68359375 C299.10386137 759.93167734 307.50820417 762.10382555 322.24584961 762.55419922 C323.24732649 762.58564266 323.24732649 762.58564266 324.26903522 762.61772132 C342.56567134 763.17948681 360.86636881 763.14693653 379.16981244 763.1343255 C384.11881893 763.13174044 389.06782385 763.13415579 394.01683044 763.13571167 C402.3075291 763.13751431 410.59821874 763.13517615 418.88891602 763.13037109 C428.41000446 763.12491592 437.93107152 763.12670797 447.45215946 763.1321975 C455.7103867 763.1367641 463.96860758 763.13736243 472.22683567 763.13475883 C477.12316197 763.13321751 482.01947829 763.13294255 486.91580391 763.13629532 C534.19153705 763.1641364 573.83774572 761.74228524 609.5625 726.8125 C632.3493664 703.82899856 643.68252633 672.89174195 648.81030273 641.31982422 C649.81574145 635.18425855 649.81574145 635.18425855 652 633 C653.10559924 652.15011339 653.1338592 671.26531672 653.10139394 690.43878627 C653.09504817 694.83358394 653.09454788 699.22838266 653.09336853 703.6231842 C653.09028774 711.90621947 653.08211923 720.18924119 653.07201904 728.47227055 C653.06075558 737.91881336 653.05532194 747.3653569 653.05032361 756.81190479 C653.03993305 776.20794414 653.02239812 795.60397097 653 815 C559.61673037 815.70139593 466.23251006 816.01756741 271.69406576 816.17830308 C255.27944743 816.18364114 238.8648392 816.19437452 222.45022583 816.20800781 C203.45774006 816.22369355 184.46526745 816.23150584 165.47277498 816.22964984 C155.61691705 816.22883506 145.76108405 816.23098705 135.90523148 816.24188805 C57.65857024 816.32478839 57.65857024 816.32478839 21 814 C23.7718588 811.2281412 26.88156568 810.92724521 30.59375 810.1171875 C32.18481006 809.75562833 33.77578987 809.39371588 35.36669922 809.03149414 C36.62302155 808.74920456 36.62302155 808.74920456 37.90472412 808.46121216 C97.97590802 795.23122968 97.97590802 795.23122968 145 758 C148.69643103 751.66721168 151.07700213 746.19657739 151.31201172 738.82202148 C151.35335236 737.53884537 151.39469299 736.25566925 151.43728638 734.93360901 C151.47697837 733.51695279 151.51609417 732.10028033 151.5546875 730.68359375 C151.57562344 729.95824369 151.59655937 729.23289364 151.61812973 728.48556328 C152.0889441 711.96055176 152.15385105 695.43815609 152.13037109 678.9074707 C152.12467945 674.87382578 152.1280603 670.84024704 152.13382339 666.80660439 C152.15975346 645.18719677 151.7709245 623.60566325 151 602 C140.54076128 616.02250397 130.70291259 630.44563111 121 645 C-28.985 645.495 -28.985 645.495 -182 646 C-182 439.42 -182 232.84 -182 20 C-141.41 20 -100.82 20 -59 20 C-59 190.61 -59 361.22 -59 537 C9.31 537 77.62 537 148 537 C148.07980473 469.2841766 148.07980473 469.2841766 148.09507751 401.56832886 C148.09482668 400.56596171 148.09482668 400.56596171 148.09457078 399.54334473 C148.0908696 385.02025377 148.08516791 370.49716425 148.07740569 355.97407491 C148.07361123 348.8518574 148.07025879 341.72963971 148.06713867 334.60742188 C148.06682066 333.89867919 148.06650265 333.1899365 148.066175 332.45971676 C148.05607623 309.49120044 148.0751604 286.52282115 148.10939364 263.55433171 C148.14442131 239.94933442 148.14997671 216.34450898 148.11849881 192.73950222 C148.09827799 177.52910145 148.10393251 162.31918821 148.14815276 147.10883026 C148.17459098 137.14054638 148.16799828 127.17262706 148.13534261 117.20436294 C148.1174731 111.45102416 148.11425205 105.69865088 148.15022469 99.94537544 C148.18284589 94.67670399 148.17393788 89.40978566 148.13215785 84.14119397 C148.12435584 82.23658673 148.13172535 80.33184341 148.15590347 78.42737366 C148.46336967 66.29148765 148.46336967 66.29148765 142.67729855 55.9845562 C138.82692936 52.42771774 134.71595257 49.32369413 130.1875 46.6875 C129.49446777 46.27218018 128.80143555 45.85686035 128.08740234 45.42895508 C113.66482127 36.96222398 97.67432176 32.76398354 81.27270508 30.09545898 C74.92986033 29.04855296 68.75509537 27.52400272 62.53515625 25.9140625 C57.2374775 24.54427595 52.00628744 23.21886772 46.5625 22.625 C42.65797359 21.93999537 39.42320345 20.69268019 35.78515625 19.15625 C32.82377535 17.92684082 29.82613964 16.84452434 26.8125 15.75 C21.704028 13.78660151 16.84278612 11.53474246 12 9 C11.37714111 8.67999023 10.75428223 8.35998047 10.11254883 8.03027344 C5.83126457 5.72849522 3.60509881 3.60509881 0 0 Z " fill="#000000" transform="translate(3157,669)"/>
<path d="M0 0 C39.93 0 79.86 0 121 0 C137.95386905 33.9077381 137.95386905 33.9077381 145.67626953 50.20703125 C151.93942032 63.42179425 158.23760723 76.6132938 164.82470703 89.66992188 C172.93474256 105.74848005 180.924126 121.8728884 188.64404297 138.14257812 C194.92386571 151.37611169 201.22672672 164.59172699 207.82470703 177.66992188 C215.93474256 193.74848005 223.924126 209.8728884 231.64404297 226.14257812 C237.92386571 239.37611169 244.22672672 252.59172699 250.82470703 265.66992188 C258.93474256 281.74848005 266.924126 297.8728884 274.64404297 314.14257812 C280.92386571 327.37611169 287.22672672 340.59172699 293.82470703 353.66992188 C301.93032207 369.73971621 309.91550376 385.85522351 317.63085938 402.11621094 C320.03759043 407.1854526 322.45622994 412.24899476 324.875 417.3125 C325.31537598 418.23699951 325.75575195 419.16149902 326.20947266 420.11401367 C326.63276855 421.00064697 327.05606445 421.88728027 327.4921875 422.80078125 C327.85683105 423.56559814 328.22147461 424.33041504 328.59716797 425.1184082 C329.90985503 427.81483101 331.24544979 430.49828547 332.587677 433.18009949 C333.03908113 434.08222262 333.49048527 434.98434576 333.95556831 435.91380596 C334.30023077 436.60224999 334.64489323 437.29069403 335 438 C334.99829126 436.93005129 334.99829126 436.93005129 334.996548 435.83848745 C334.92944844 393.58491018 334.87795787 351.33133909 334.84680401 309.07771929 C334.84305178 304.00697228 334.83916883 298.93622537 334.83520508 293.86547852 C334.83441815 292.85596227 334.83363122 291.84644603 334.83282044 290.80633839 C334.81975805 274.44938752 334.79609962 258.09246821 334.76854161 241.73553608 C334.74051059 224.95821979 334.72382862 208.18092006 334.71773452 191.40358132 C334.71361329 181.04678978 334.70058562 170.69008742 334.6762506 160.33332332 C334.66042183 153.23624474 334.65559314 146.13921242 334.65949587 139.04211745 C334.66142188 134.94432262 334.65842018 130.84668388 334.64238358 126.74891663 C334.62781511 122.99899818 334.6270276 119.24934122 334.63730332 115.49941089 C334.63917673 113.49689787 334.62621059 111.49438804 334.61275607 109.49191934 C334.61872922 108.30457639 334.62470236 107.11723344 334.63085651 105.89391041 C334.62914777 104.35661265 334.62914777 104.35661265 334.62740451 102.78825837 C335.42237388 96.83923301 339.56069232 93.15293082 343.6875 89.125 C344.17927734 88.63386719 344.67105469 88.14273438 345.17773438 87.63671875 C347.95593218 84.89061822 350.8118109 82.2808574 353.77734375 79.73828125 C359.66680885 74.63487572 365.02243646 68.98616218 370.4609375 63.41210938 C371.275625 62.58646484 372.0903125 61.76082031 372.9296875 60.91015625 C373.66429199 60.15871338 374.39889648 59.40727051 375.15576172 58.63305664 C377 57 377 57 379 57 C379 56.34 379 55.68 379 55 C380.41601562 53.60742188 380.41601562 53.60742188 382.40625 51.96875 C387.37887998 47.74026359 391.92385907 43.14959424 396.5 38.5 C401.52331919 33.39604968 406.56869364 28.44142888 412.00390625 23.77783203 C416.5613297 19.71873742 420.74409274 15.25096808 424.99609375 10.87695312 C426.07310547 9.78350586 426.07310547 9.78350586 427.171875 8.66796875 C427.8122168 8.01078857 428.45255859 7.3536084 429.11230469 6.67651367 C430.99762635 5.0021081 432.73811218 4.07590965 435 3 C435.01710951 61.61808708 435.03303127 120.23617441 435.04234314 178.85426331 C435.0424812 179.72111384 435.04261925 180.58796437 435.04276149 181.4810831 C435.04575404 200.31773233 435.04852427 219.1543816 435.05106533 237.9910309 C435.05231272 247.22782594 435.05360927 256.46462098 435.05493164 265.70141602 C435.0550624 266.62061351 435.05519316 267.53981101 435.05532788 268.48686298 C435.05959317 298.30848701 435.06710741 328.13010916 435.07629722 357.95173205 C435.08571978 388.58408349 435.09188311 419.21643388 435.09391499 449.84878675 C435.09420317 454.17025402 435.0945288 458.49172129 435.09487724 462.81318855 C435.09494467 463.66375868 435.09501209 464.5143288 435.09508156 465.39067377 C435.09626566 479.11109548 435.10091011 492.83151395 435.10683203 506.55193434 C435.11270484 520.32826364 435.11497161 534.10458972 435.11350138 547.88092022 C435.11273781 556.07687931 435.1147951 564.27282668 435.12079754 572.46878366 C435.1249638 578.571661 435.12397508 584.67452559 435.12089889 590.77740408 C435.12047295 593.2592362 435.12177081 595.74106928 435.12488318 598.22289949 C435.12884284 601.57270951 435.1267661 604.92246032 435.12304783 608.27226925 C435.12567484 609.25631468 435.12830186 610.24036011 435.13100848 611.25422511 C435.12876118 612.13802398 435.12651389 613.02182285 435.1241985 613.9324035 C435.12435448 614.6996722 435.12451046 615.46694089 435.12467116 616.25746014 C435 618 435 618 434 619 C432.59588683 619.0954693 431.18700191 619.12188529 429.77964783 619.12025452 C428.86954453 619.12162918 427.95944122 619.12300385 427.02175903 619.12442017 C426.01547455 619.12082489 425.00919006 619.11722961 423.97241211 619.11352539 C422.91888046 619.11367142 421.86534882 619.11381744 420.77989197 619.1139679 C417.279022 619.11326826 413.77820448 619.10547348 410.27734375 619.09765625 C407.85738657 619.09579225 405.43742901 619.09436826 403.01747131 619.09336853 C396.63384976 619.08954192 390.25025079 619.07971041 383.86663818 619.06866455 C377.35836086 619.05845351 370.8500799 619.05387157 364.34179688 619.04882812 C351.56118825 619.03808827 338.78059533 619.02120112 326 619 C324.71555348 616.77031408 323.43323665 614.53944779 322.15209961 612.30786133 C321.79092796 611.68139961 321.42975632 611.0549379 321.05764008 610.40949249 C318.3046674 605.6085492 315.84476393 600.72986809 313.5625 595.6875 C310.19820098 588.40328174 306.59557907 581.29263483 302.74243164 574.25463867 C300 569.2015625 300 569.2015625 300 567 C299.34 566.67 298.68 566.34 298 566 C297.01025391 564.26928711 297.01025391 564.26928711 295.9765625 562.02734375 C295.595 561.20943359 295.2134375 560.39152344 294.8203125 559.54882812 C294.42585938 558.68708984 294.03140625 557.82535156 293.625 556.9375 C292.84719012 555.25872701 292.06855152 553.58033773 291.2890625 551.90234375 C290.91040039 551.08233887 290.53173828 550.26233398 290.14160156 549.41748047 C289.04166312 547.08822674 287.88660059 544.79567241 286.7109375 542.50390625 C285 539 285 539 285 537 C284.34 536.67 283.68 536.34 283 536 C281.94424314 534.02886392 280.95470857 532.02201176 280 530 C279.46503906 528.93007812 278.93007812 527.86015625 278.37890625 526.7578125 C263.125 496.25 263.125 496.25 261.625 493.24975586 C260.45858858 490.91710827 259.29191937 488.5845907 258.125 486.25219727 C255.07694461 480.15904987 252.0306859 474.06504674 248.99560547 467.96542358 C247.66486075 465.2914115 246.33250192 462.61820515 245 459.94506836 C244.33261872 458.60525481 243.66595339 457.2650844 243 455.92456055 C238.94894756 447.77201531 234.82728509 439.67494909 230.4375 431.69822693 C228 427.21456762 228 427.21456762 228 425 C227.34 424.67 226.68 424.34 226 424 C225.02612305 422.30102539 225.02612305 422.30102539 224.01171875 420.09765625 C223.63716553 419.29384521 223.2626123 418.49003418 222.87670898 417.66186523 C222.48427002 416.80407471 222.09183105 415.94628418 221.6875 415.0625 C220.88112072 413.32509708 220.07383645 411.58811389 219.265625 409.8515625 C218.87697266 409.01399414 218.48832031 408.17642578 218.08789062 407.31347656 C216.4052713 403.73526724 214.60678088 400.21972499 212.77734375 396.71484375 C212 395 212 395 212 393 C211.34 392.67 210.68 392.34 210 392 C209.09767565 390.00341434 208.20461878 388.00239157 207.34326172 385.98779297 C205.72383161 382.3857236 203.9424009 378.88634252 202.12890625 375.37890625 C201.76806946 374.6804509 201.40723267 373.98199554 201.03546143 373.26237488 C200.27366453 371.79036945 199.51107103 370.31877605 198.7477417 368.8475647 C196.72532045 364.94847524 194.71196765 361.04471419 192.69921875 357.140625 C192.29725281 356.36108963 191.89528687 355.58155426 191.48114014 354.77839661 C185.49406644 343.15208493 179.67760824 331.44022711 173.87158203 319.72265625 C172.89503424 317.75186452 171.91693202 315.78185978 170.9375 313.8125 C170.64214355 313.21783936 170.34678711 312.62317871 170.04248047 312.01049805 C168.02564027 307.97735206 165.94645309 303.97940541 163.84765625 299.98828125 C163.29537354 298.93729248 162.74309082 297.88630371 162.17407227 296.8034668 C161.07304199 294.71300258 159.96816664 292.62455823 158.85913086 290.53833008 C158.10901733 289.11556763 158.10901733 289.11556763 157.34375 287.6640625 C156.89193359 286.81279785 156.44011719 285.9615332 155.97460938 285.08447266 C155 283 155 283 155 281 C154.34 280.67 153.68 280.34 153 280 C151.86431512 277.78556432 150.82125284 275.58408898 149.8125 273.3125 C146.80917961 266.68915605 143.61016475 260.19779297 140.28515625 253.73046875 C139 251 139 251 139 249 C138.34 248.67 137.68 248.34 137 248 C136.18457031 246.42797852 136.18457031 246.42797852 135.328125 244.31640625 C132.77098871 238.3336054 129.75449491 232.60122778 126.74328613 226.83865356 C125.06269048 223.62198688 123.3908831 220.40075922 121.71875 217.1796875 C121.23006439 216.23891106 121.23006439 216.23891106 120.73150635 215.27912903 C117.0721146 208.22628496 113.520622 201.12290792 110 194 C109.00055087 191.99972466 108.00062578 189.99968699 107 188 C106.12806565 241.05301343 105.96135751 294.0868251 106.22812091 347.14442819 C106.29605188 360.68020061 106.3458628 374.21593367 106.38070679 387.75183105 C106.3830718 388.65753147 106.38543681 389.56323188 106.38787349 390.49637777 C106.40942516 398.79727068 106.42985555 407.09816568 106.44750333 415.39906788 C106.45939415 420.98854123 106.47221185 426.57801167 106.48608398 432.16748047 C106.48837743 433.09334369 106.49067087 434.01920691 106.49303381 434.97312659 C106.53266539 450.20324594 106.63331463 465.43246092 106.75280941 480.66213724 C106.875674 496.51154196 106.93013786 512.36014698 106.92195553 528.21002984 C106.9191596 537.88898088 106.96906191 547.56456505 107.09004747 557.2427747 C107.16725804 563.81810668 107.17824913 570.39147359 107.1373418 576.96712354 C107.11578226 580.74677426 107.12282017 584.52042165 107.20961571 588.29926872 C107.68563081 610.22315208 107.68563081 610.22315208 103.27624774 616.42414188 C99.16359453 620.49175383 94.54228554 623.20251873 89.38101947 625.73763132 C85.30851919 627.89678914 81.72147719 630.71389934 78.0625 633.5 C71.15907115 638.50560426 64.15136466 643.341911 57.09692383 648.1315918 C51.74978712 651.7728801 46.47993162 655.50508168 41.25 659.3125 C34.1805272 664.45566434 27.04784842 669.50197111 19.875 674.5 C18.9149707 675.17071533 17.95494141 675.84143066 16.96582031 676.5324707 C11.72747551 680.17296427 6.44178512 683.67090793 1 687 C-0.7410083 685.2589917 -0.1712968 682.86155767 -0.20724392 680.48919964 C-0.22756849 679.27340595 -0.24789305 678.05761226 -0.26883352 676.80497634 C-0.2863864 675.42611463 -0.30365124 674.04724923 -0.32066345 672.66838074 C-0.3418525 671.19944705 -0.36324464 669.73051627 -0.38482058 668.26158822 C-0.4431584 664.12784448 -0.49284036 659.99403676 -0.53974696 655.8601488 C-0.57040058 653.15895726 -0.60245068 650.45778439 -0.63451946 647.75660932 C-1.2922702 591.07426107 -1.03314297 534.38457391 -0.90999538 477.69972711 C-0.88500871 466.15296841 -0.86291319 454.6062067 -0.84269524 443.05943871 C-0.84124015 442.22917699 -0.83978506 441.39891527 -0.83828588 440.5434941 C-0.83090326 436.32399065 -0.82356295 432.10448712 -0.81623887 427.88498356 C-0.76479888 398.29302322 -0.70812854 368.70107512 -0.64819336 339.10913086 C-0.59011831 310.42944808 -0.53453014 281.74976218 -0.48217773 253.07006836 C-0.48055215 252.18006932 -0.47892657 251.29007027 -0.47725173 250.37310156 C-0.46092396 241.43225993 -0.44464535 232.49141821 -0.42840267 223.55057642 C-0.39533757 205.35038274 -0.36194525 187.15018966 -0.32835388 168.94999695 C-0.3268111 168.11388219 -0.32526832 167.27776744 -0.32367879 166.41631588 C-0.27654293 140.88018707 -0.22802537 115.34406116 -0.17811584 89.80793762 C-0.17670434 89.0854637 -0.17529283 88.36298978 -0.17383855 87.6186227 C-0.11675679 58.41241343 -0.05819258 29.20620708 0 0 Z " fill="#000000" transform="translate(1405,735)"/>
<path d="M0 0 C40.59 0 81.18 0 123 0 C123.2624142 50.1726579 123.2624142 50.1726579 123.35571289 69.83129883 C123.36432254 71.64468292 123.36432254 71.64468292 123.37310612 73.49470103 C123.41601858 82.55896453 123.45818298 91.62323138 123.5 100.6875 C123.50594854 101.97352726 123.51189708 103.25955451 123.51802588 104.58455229 C123.88526355 184.17512339 124.06696558 263.7646419 124.06315851 391.89745098 C124.06249779 394.32061469 124.06185514 396.74377841 124.06121445 399.16694212 C124.05026765 440.11130082 124.03018535 481.0556508 124 522 C125.02400878 521.99885445 126.04801756 521.99770889 127.10305691 521.99652863 C152.6991906 521.97064845 178.29333893 522.04332007 203.88895535 522.20192909 C208.59995074 522.23085049 213.31095452 522.2583415 218.0219574 522.28601074 C226.86750658 522.33816737 235.71304799 522.39153428 244.55858701 522.4453826 C254.66091181 522.50681932 264.7632449 522.56683589 274.86557877 522.62675762 C295.57706184 522.7496378 316.28853434 522.87422195 337 523 C336.69925673 524.41072269 336.39491793 525.82067909 336.08912659 527.23031616 C335.92004571 528.0155686 335.75096483 528.80082104 335.57676029 529.609869 C334.64626219 533.46591178 333.28567354 537.13866947 331.90234375 540.8515625 C331.59583893 541.6888942 331.28933411 542.52622589 330.97354126 543.38893127 C329.96672398 546.1362272 328.9521389 548.88058426 327.9375 551.625 C326.86623121 554.54094306 325.79687859 557.4575845 324.72758484 560.37425232 C323.98127629 562.40946118 323.23428669 564.44442042 322.48664856 566.47914124 C319.69507651 574.08163912 316.93748622 581.69596308 314.1953125 589.31640625 C313.8055574 590.39871521 313.41580231 591.48102417 313.01423645 592.59613037 C311.48407814 596.84590952 309.95424071 601.09579677 308.42868042 605.347229 C307.37292012 608.2883816 306.31375907 611.22828892 305.25390625 614.16796875 C304.93797516 615.05126358 304.62204407 615.93455841 304.29653931 616.84461975 C302.11371529 622.88628471 302.11371529 622.88628471 301 624 C299.40062582 624.09795498 297.79690532 624.12555539 296.1945343 624.12584114 C294.62494477 624.12975276 294.62494477 624.12975276 293.02364635 624.13374341 C291.85995683 624.13151268 290.6962673 624.12928196 289.49731445 624.12698364 C288.27209989 624.12854363 287.04688532 624.13010362 285.78454304 624.13171089 C282.36824162 624.13502428 278.95199469 624.13381163 275.53569651 624.13072467 C271.85740369 624.12847251 268.17911582 624.13194926 264.50082397 624.13470459 C257.28893449 624.13916326 250.07705538 624.13818539 242.86516547 624.13529195 C237.00659585 624.13303829 231.14802915 624.13272523 225.28945923 624.13381577 C224.04118299 624.13404561 224.04118299 624.13404561 222.76768905 624.13428011 C221.07739631 624.13459982 219.38710358 624.13492403 217.69681084 624.1352527 C201.82768228 624.13810777 185.95855949 624.13482004 170.08943188 624.12945233 C156.45773034 624.12498427 142.82603732 624.12576019 129.19433594 624.13037109 C113.38399077 624.13571637 97.57365066 624.13783308 81.76330471 624.13475883 C80.07905006 624.13444026 78.39479542 624.13412589 76.71054077 624.13381577 C75.88174339 624.13366149 75.05294601 624.13350721 74.19903356 624.13334826 C68.34400169 624.13248297 62.48897302 624.13394625 56.63394165 624.13629532 C49.50364061 624.139093 42.37335058 624.13835573 35.24305081 624.13301457 C31.60148464 624.13037713 27.95993687 624.12937322 24.31837082 624.13266373 C20.37979854 624.13616892 16.44125673 624.13199838 12.50268555 624.12698364 C11.33899602 624.12921436 10.17530649 624.13144509 8.97635365 624.13374341 C7.92996062 624.13113566 6.8835676 624.12852791 5.8054657 624.12584114 C4.4398552 624.12559761 4.4398552 624.12559761 3.04665661 624.12534916 C1 624 1 624 0 623 C-0.09685982 621.62983107 -0.12447415 620.25469551 -0.1241985 618.88110727 C-0.12644579 617.98584106 -0.12869308 617.09057485 -0.13100848 616.16817936 C-0.12706796 614.67285907 -0.12706796 614.67285907 -0.12304783 613.14733028 C-0.12420167 612.09431963 -0.12535552 611.04130898 -0.12654433 609.95638892 C-0.12921951 606.38032934 -0.12468146 602.80431358 -0.12025452 599.22825623 C-0.12069003 596.65764244 -0.12156458 594.08702869 -0.12284368 591.51641518 C-0.12492323 585.90291047 -0.12326379 580.28941634 -0.11920547 574.67591286 C-0.11318754 566.32874868 -0.11286808 557.98159121 -0.11374746 549.63442525 C-0.11506355 535.59535148 -0.11171167 521.55628241 -0.10573006 507.51721001 C-0.09981979 493.6100506 -0.09596548 479.70289315 -0.09487724 465.7957325 C-0.0948085 464.93210719 -0.09473976 464.06848189 -0.09466894 463.17868612 C-0.09433062 458.7930471 -0.09402923 454.40740808 -0.09374207 450.02176905 C-0.09163978 418.93125942 -0.08489722 387.84075234 -0.07543945 356.75024414 C-0.06626003 326.53995782 -0.05917397 296.3296722 -0.05493164 266.11938477 C-0.05480011 265.18871946 -0.05466859 264.25805415 -0.05453308 263.29918687 C-0.05321459 253.95334834 -0.05193877 244.60750981 -0.05069422 235.26167127 C-0.04815778 216.22189722 -0.04533652 197.18212322 -0.04234314 178.14234924 C-0.04220585 177.26686693 -0.04206856 176.39138462 -0.04192711 175.48937255 C-0.03770271 148.6464334 -0.03227075 121.80349469 -0.02565002 94.96055603 C-0.02546247 94.19822338 -0.02527491 93.43589073 -0.02508167 92.65045709 C-0.01746507 61.76697119 -0.00857204 30.88348564 0 0 Z " fill="#000000" transform="translate(701,750)"/>
<path d="M0 0 C125.73 0 251.46 0 381 0 C371.0421873 11.61744816 360.53831058 22.70444059 350.04199219 33.83300781 C346.81411758 37.25847589 343.59382342 40.69102807 340.375 44.125 C339.44929199 45.11258301 339.44929199 45.11258301 338.50488281 46.12011719 C333.7526904 51.19228889 329.00967546 56.27298267 324.26904297 61.35595703 C320.01989784 65.91074452 315.76174166 70.45699877 311.5 75 C306.61952595 80.20323338 301.74318548 85.41026572 296.875 90.625 C296.37419922 91.16125 295.87339844 91.6975 295.35742188 92.25 C289.22553664 98.82152983 283.11596736 105.41357361 277 112 C242.35 112 207.7 112 172 112 C172 281.62 172 451.24 172 626 C135.04 626 98.08 626 60 626 C60 456.38 60 286.76 60 112 C40.2 112 20.4 112 0 112 C0 75.04 0 38.08 0 0 Z " fill="#000000" transform="translate(1874,806)"/>
<path d="M0 0 C1.69979887 -0.00043654 3.39959767 -0.00131298 5.09939611 -0.00258917 C9.75145654 -0.00481777 14.40349381 -0.00083526 19.05555129 0.0041889 C24.07928067 0.00851673 29.10300879 0.00704532 34.1267395 0.00628662 C42.82446221 0.00576287 51.5221774 0.00889419 60.21989822 0.01452446 C72.79526552 0.02265953 85.37062919 0.02525674 97.94599883 0.02651245 C118.34985537 0.02869981 138.7537079 0.03535135 159.15756226 0.04481506 C178.97527039 0.05399734 198.79297743 0.06107419 218.61068726 0.06532288 C219.83272821 0.0655856 221.05476916 0.06584832 222.31384166 0.06611901 C228.44460452 0.06742407 234.57536739 0.06868777 240.70613027 0.06993091 C291.54817937 0.08029369 342.39022413 0.09790343 393.23226929 0.12025452 C393.27894285 17.2963662 393.31423529 34.47245816 393.33589363 51.6486187 C393.34621624 59.62339774 393.36029531 67.59813744 393.38314819 75.57289124 C393.40305202 82.5218369 393.41597856 89.47075407 393.42044628 96.41972744 C393.42305878 100.10083169 393.42921956 103.78185441 393.4437294 107.46293259 C393.45977736 111.56733095 393.46025092 115.67158663 393.45932007 119.77601624 C393.46651062 121.00312317 393.47370117 122.2302301 393.48110962 123.49452209 C393.47836029 124.60793976 393.47561096 125.72135742 393.47277832 126.86851501 C393.4755437 128.32586972 393.4755437 128.32586972 393.47836494 129.81266594 C393.23226929 132.12025452 393.23226929 132.12025452 391.23226929 134.12025452 C391.06211304 133.44784729 390.89195679 132.77544006 390.71664429 132.08265686 C382.23550681 98.86298873 372.96359032 65.34002979 341.71273804 46.76087952 C331.68927884 42.0360166 322.86934462 40.53552678 311.82577515 40.61854553 C310.42314616 40.61475223 309.02052095 40.60924393 307.61790466 40.60217285 C303.84510706 40.5883337 300.0727714 40.59930507 296.29999995 40.61588407 C292.33068882 40.62984683 288.36140149 40.62326192 284.39207458 40.61975098 C277.73057711 40.61705796 271.06926075 40.63044686 264.4078064 40.65370178 C256.73122905 40.68031675 249.05495408 40.68205174 241.37834638 40.67031342 C233.95981388 40.65949571 226.54138962 40.66575321 219.12286568 40.6798687 C215.98079398 40.68559289 212.83880242 40.68557419 209.69672966 40.6808033 C205.99060387 40.67599438 202.28480484 40.68629509 198.57874107 40.70775795 C196.58784922 40.71588155 194.59691433 40.70951817 192.60601807 40.70256042 C181.93727027 40.78993308 170.87030925 42.29721128 162.23226929 49.12025452 C154.5343364 58.20579762 153.08785251 67.59082286 153.0740509 79.16223145 C153.06911293 80.05025973 153.06417495 80.93828801 153.05908734 81.85322624 C153.04378 84.81650145 153.03537012 87.77975509 153.02694702 90.74305725 C153.01736318 92.87214343 153.0073528 95.00122773 152.99694824 97.13031006 C152.96994801 102.90242666 152.94891203 108.6745514 152.92894626 114.44669604 C152.90705657 120.4818639 152.87968248 126.51700682 152.85289001 132.55215454 C152.80300345 143.97709882 152.75804965 155.40205697 152.71486765 166.82702833 C152.66546077 179.83542399 152.61055544 192.84379462 152.55518806 205.85216606 C152.44142998 232.60817219 152.3345775 259.36420233 152.23226929 286.12025452 C171.66131243 286.17669762 191.08986986 286.18707074 210.51895237 286.14360046 C219.54163206 286.12447058 228.56385902 286.12003715 237.58651733 286.15101624 C245.4568694 286.17800072 253.32663474 286.17658033 261.19696563 286.14199543 C265.35892237 286.12467333 269.51982938 286.12093331 273.68173409 286.15129089 C277.61148304 286.17950417 281.53938543 286.16930359 285.4690361 286.13151741 C286.89952045 286.1241908 288.33015401 286.13006967 289.76049995 286.15127373 C305.30127402 286.36488088 316.93284426 279.4332218 328.23226929 269.12025452 C328.70761108 268.68729065 329.18295288 268.25432678 329.67269897 267.8082428 C342.07880669 256.3622738 350.09433459 243.27134752 357.23226929 228.12025452 C359.64941482 231.74597282 359.47937158 233.39180591 359.47277832 237.70709229 C359.47534159 238.71549108 359.47534159 238.71549108 359.47795665 239.74426156 C359.48125622 242.00145485 359.47024039 244.25835219 359.45932007 246.51551819 C359.45875605 248.13170362 359.45907232 249.74788957 359.46020508 251.36407471 C359.46077998 255.75636366 359.44900353 260.14854385 359.43505716 264.54080749 C359.42257261 269.12924002 359.4213811 273.71767493 359.41900635 278.30612183 C359.41278488 286.9971244 359.39636505 295.68807678 359.37630737 304.37905723 C359.3539691 314.27252282 359.34296016 324.16599078 359.3329165 334.0594753 C359.3119994 354.41309641 359.27681048 374.7666723 359.23226929 395.12025452 C356.51997227 392.4079575 355.48397727 389.17089601 354.04476929 385.68275452 C349.15139003 374.23076344 342.8667794 365.11453588 334.23226929 356.12025452 C333.57226929 355.40869202 332.91226929 354.69712952 332.23226929 353.96400452 C322.09442753 343.33562203 309.33234637 335.31783962 294.45175171 334.57752991 C293.62528483 334.5357087 292.79881796 334.4938875 291.94730663 334.45079899 C279.5912231 333.88901409 267.21958662 333.88960119 254.85307336 333.81693149 C251.23231307 333.7947178 247.61159 333.76750612 243.99085999 333.74087524 C237.16685643 333.69141749 230.34283169 333.64630933 223.51878756 333.60285288 C215.73612455 333.55307335 207.95349895 333.49830934 200.17087233 333.44317329 C184.19137274 333.33007571 168.21183845 333.22308604 152.23226929 333.12025452 C152.34026892 357.54949557 152.45315394 381.97871002 152.57160854 406.40790272 C152.6265187 417.75480057 152.67992348 429.10170151 152.72958374 440.44862366 C152.77295091 450.35670884 152.81934676 460.2647748 152.86914784 470.17282981 C152.89533458 475.40257495 152.92016278 480.63231733 152.94134331 485.86208534 C152.9916082 498.08111094 153.069285 510.29937307 153.2043395 522.51777697 C153.23222693 525.11630744 153.25610531 527.71485589 153.27986526 530.31342697 C153.32006267 534.39845455 153.38235538 538.48260069 153.46186841 542.56704652 C153.48812558 544.04853209 153.50814747 545.53014481 153.52113426 547.01180613 C153.63561446 559.03335403 155.60924954 569.24922756 164.23226929 578.12025452 C172.98570452 585.1645336 181.64923734 588.25801013 192.84771729 588.28761292 C193.60659119 588.2934063 194.36546509 588.29919969 195.14733517 588.30516863 C197.68589437 588.32318195 200.22443151 588.33408601 202.76303101 588.34486389 C204.58490193 588.35604342 206.40677083 588.36755687 208.2286377 588.37937927 C214.20638181 588.41587561 220.18414673 588.44114149 226.16195679 588.46400452 C227.17942191 588.46795038 228.19688703 588.47189625 229.24518442 588.47596169 C238.84157399 588.5123649 248.43797099 588.54380287 258.03440666 588.56507111 C270.30436395 588.59266889 282.5737447 588.64349992 294.84346187 588.72554541 C303.47459282 588.78130679 312.1055671 588.81030231 320.73687184 588.81954432 C325.89105367 588.82580418 331.04455851 588.8439486 336.19854355 588.89093018 C341.04642856 588.93457765 345.89326586 588.94509102 350.74131393 588.93030167 C352.5186859 588.93063046 354.29610272 588.94291799 356.07329559 588.96815109 C365.27672275 589.38192646 365.27672275 589.38192646 373.79741287 586.61294556 C375.58181392 584.86864023 376.90132324 583.22156902 378.23226929 581.12025452 C379.01473022 580.13025452 379.79719116 579.14025452 380.60336304 578.12025452 C393.99621633 558.6765658 402.00429878 537.92831367 407.97470093 515.11878967 C408.24274536 514.10478088 408.51078979 513.09077209 408.78695679 512.04603577 C409.0188269 511.14280579 409.25069702 510.23957581 409.48959351 509.30897522 C410.23226929 507.12025452 410.23226929 507.12025452 412.23226929 505.12025452 C412.23226929 544.39025452 412.23226929 583.66025452 412.23226929 624.12025452 C405.73457397 624.71095409 399.54385634 625.26881414 393.07408142 625.24171448 C391.94833429 625.24311912 391.94833429 625.24311912 390.7998448 625.24455214 C388.30406766 625.24637073 385.80836251 625.24098342 383.31259155 625.23548889 C381.48291211 625.23507877 379.65323254 625.23506632 377.82355309 625.2354126 C372.78159634 625.23488091 367.73966886 625.22761929 362.69772029 625.21897316 C358.33881406 625.21222941 353.9799077 625.20914553 349.62099773 625.20585012 C290.47326864 625.15860059 231.32566042 624.90639696 172.17842734 624.67487335 C161.1497464 624.63172228 150.12106273 624.58933359 139.09237671 624.54750061 C138.30498094 624.54451361 137.51758517 624.54152662 136.70632892 624.53844911 C128.08583622 624.50576158 119.465343 624.47321095 110.84484959 624.44071198 C108.55636831 624.43208214 106.26788703 624.42345156 103.97940575 624.41482002 C102.47066592 624.40913035 100.96192607 624.40344291 99.45318622 624.39775771 C89.99020153 624.36208902 80.52721929 624.32584804 71.06423938 624.2889328 C65.68241898 624.26794761 60.3005973 624.2472956 54.91877556 624.22665596 C52.44817047 624.21711169 49.97756586 624.20744173 47.50696182 624.19762993 C44.11204901 624.18415757 40.71713515 624.17104698 37.32221985 624.15821838 C35.7532548 624.15224388 35.7532548 624.15224388 34.15259349 624.14614868 C26.82716559 624.12041454 19.50186517 624.11375947 12.17641252 624.13478804 C6.78356399 624.1438941 1.42424243 623.98714946 -3.95523071 623.62025452 C-4.72802368 623.5725592 -5.50081665 623.52486389 -6.29702759 623.47572327 C-8.12092598 623.36243765 -9.94439392 623.24224599 -11.76773071 623.12025452 C-11.76773071 622.46025452 -11.76773071 621.80025452 -11.76773071 621.12025452 C-10.86345337 620.80387024 -9.95917603 620.48748596 -9.02749634 620.16151428 C41.61220394 605.90968497 41.61220394 605.90968497 81.31562477 574.51712102 C82.67916717 570.95169403 82.51014315 567.42148236 82.4923315 563.65710926 C82.49804001 562.35755976 82.49804001 562.35755976 82.50386384 561.03175673 C82.51422704 558.10854432 82.51026474 555.1855244 82.50642395 552.26229858 C82.5108738 550.15336087 82.516187 548.04442483 82.52229267 545.93549126 C82.53651365 540.12428559 82.53813519 534.3131333 82.53769577 528.50191271 C82.53934038 522.24066404 82.55240024 515.97943759 82.56388855 509.71820068 C82.58557469 496.73302549 82.59414776 483.74787378 82.59892355 470.76268395 C82.59918473 470.05670954 82.5994459 469.35073512 82.59971499 468.62336755 C82.59997527 467.91598915 82.60023554 467.20861076 82.6005037 466.47979666 C82.60358471 458.64453078 82.61008903 450.80926828 82.61671638 442.97400475 C82.63636622 419.31217393 82.65276932 395.65034677 82.65559292 371.98850727 C82.65568698 371.23147385 82.65578104 370.47444043 82.65587795 369.6944666 C82.65625644 366.62647968 82.65662043 363.55849277 82.65698093 360.49050585 C82.65725265 358.18129773 82.65752933 355.8720896 82.6578064 353.56288147 C82.65789442 352.79983039 82.65798244 352.03677931 82.65807313 351.25060546 C82.66097836 327.27686172 82.68307119 303.30319861 82.71932983 279.32948303 C82.76005359 252.40272876 82.78375147 225.47602943 82.78405243 198.54924268 C82.78414926 195.67802282 82.78431598 192.80680297 82.78453255 189.93558311 C82.78457666 189.22860288 82.78462078 188.52162264 82.78466623 187.79321876 C82.78578627 176.41402293 82.80319794 165.03490785 82.82635187 153.65573803 C82.84919176 142.21871431 82.85299723 130.78183005 82.83880257 119.34478102 C82.83161854 113.14824427 82.83255574 106.95198735 82.85521317 100.75548172 C82.87575437 95.083457 82.87324779 89.41192813 82.85233832 83.73990908 C82.84883415 81.6873885 82.85379243 79.6348325 82.86804276 77.5823584 C83.32941034 63.44981632 83.32941034 63.44981632 77.23226929 51.12025452 C76.58644897 50.17794983 75.94062866 49.23564514 75.27523804 48.26478577 C74.35678101 47.1104303 74.35678101 47.1104303 73.41976929 45.93275452 C72.81519897 45.15544983 72.21062866 44.37814514 71.58773804 43.57728577 C66.18361061 37.94014455 59.58300107 33.89283603 52.79476929 30.12025452 C51.64101807 29.47842224 51.64101807 29.47842224 50.46395874 28.82362366 C41.3696908 23.91459102 31.45905827 19.88076558 21.23226929 18.12025452 C21.23226929 17.46025452 21.23226929 16.80025452 21.23226929 16.12025452 C20.61816193 16.00859955 20.00405457 15.89694458 19.37133789 15.78190613 C13.41467126 14.65184681 7.70836888 13.16471438 1.94320679 11.29994202 C1.11390656 11.03641937 0.28460632 10.77289673 -0.56982422 10.50138855 C-3.17908549 9.67100801 -5.78591604 8.83327999 -8.39273071 7.99525452 C-10.17773038 7.42575308 -11.96288542 6.8567384 -13.74819946 6.28822327 C-18.08985652 4.90451082 -22.42935226 3.5142107 -26.76773071 2.12025452 C-26.76773071 1.79025452 -26.76773071 1.46025452 -26.76773071 1.12025452 C-17.83434883 0.00701319 -8.98361909 -0.01720105 0 0 Z " fill="#000000" transform="translate(976.7677307128906,835.8797454833984)"/>
<path d="" fill="#000000" transform="translate(0,0)"/>
<path d="" fill="#000000" transform="translate(0,0)"/>
</svg>
