<?xml version="1.0" standalone="no"?>
<!DOCTYPE svg PUBLIC "-//W3C//DTD SVG 20010904//EN"
 "http://www.w3.org/TR/2001/REC-SVG-20010904/DTD/svg10.dtd">
<svg version="1.0" xmlns="http://www.w3.org/2000/svg"
 width="2431.000000pt" height="714.000000pt" viewBox="0 0 2431.000000 714.000000"
 preserveAspectRatio="xMidYMid meet">

<g transform="translate(0.000000,714.000000) scale(0.100000,-0.100000)"
fill="#000000" stroke="none">
<path d="M6915 7130 c-505 -45 -891 -225 -1085 -505 -65 -94 -93 -165 -120
-293 -47 -232 -10 -473 101 -658 75 -125 287 -306 528 -452 64 -39 224 -128
356 -198 279 -148 357 -196 431 -266 78 -74 96 -106 92 -170 -3 -52 -4 -53
-48 -75 -55 -27 -137 -41 -290 -49 l-115 -6 -75 37 c-135 66 -268 228 -566
690 -156 241 -190 279 -268 295 -129 27 -233 -35 -272 -161 -17 -59 -19 -101
-22 -508 -3 -497 -1 -522 62 -584 103 -103 568 -230 980 -268 193 -18 698 -6
836 20 264 48 499 137 640 241 81 60 105 86 168 178 l51 74 27 -44 c79 -125
192 -236 317 -307 74 -42 243 -96 384 -122 96 -18 168 -23 381 -27 285 -4 365
4 536 53 248 72 471 258 588 490 14 28 38 97 52 155 29 114 27 83 62 950 9
222 20 416 26 430 15 40 58 97 94 125 l33 25 76 -30 c97 -38 188 -84 203 -102
20 -24 27 -230 27 -766 l0 -517 -24 -59 c-36 -90 -86 -133 -259 -221 -174 -87
-213 -123 -233 -210 -17 -79 1 -143 57 -199 80 -80 44 -77 1039 -74 683 3 878
6 909 16 21 8 57 32 80 55 84 85 82 222 -5 307 -24 23 -91 64 -164 100 -189
93 -265 175 -265 282 0 50 9 58 63 58 97 0 536 111 653 165 139 64 285 182
360 291 l39 57 8 -304 c5 -167 5 -329 2 -359 -6 -51 -11 -59 -64 -110 -45 -43
-79 -65 -148 -93 -154 -64 -202 -106 -222 -197 -18 -82 16 -172 84 -218 79
-55 -34 -52 2136 -49 1623 2 2011 5 2043 15 21 8 58 33 82 58 l44 44 38 -15
c72 -28 218 -65 337 -86 152 -27 546 -39 632 -19 79 17 137 76 153 154 26 124
-30 222 -157 276 -156 65 -297 167 -384 276 -28 35 -75 112 -106 171 -69 133
-116 204 -188 281 l-54 59 70 48 c171 117 274 323 286 570 5 98 2 123 -22 220
-15 61 -36 128 -47 150 -64 126 -179 242 -307 308 -246 128 -715 165 -1666
133 -345 -12 -768 -16 -1595 -16 -1203 0 -1205 0 -1271 -49 -35 -26 -33 -26
-121 3 -186 60 -163 59 -1187 53 -515 -3 -1171 -6 -1459 -6 -445 0 -531 -2
-586 -16 -58 -15 -69 -15 -124 -1 -51 14 -157 16 -736 16 l-676 0 0 46 c0 68
-20 135 -53 177 -63 81 -386 197 -674 241 -127 20 -375 28 -508 16z m550 -64
c140 -29 307 -76 411 -117 195 -76 229 -114 227 -255 l-1 -81 331 -6 c183 -4
488 -4 678 0 355 6 444 0 496 -33 13 -8 24 -10 28 -4 18 29 94 33 880 39 440
3 1115 6 1500 6 690 0 701 0 787 -22 48 -12 115 -34 150 -48 52 -21 65 -23 73
-12 18 24 63 48 117 63 44 11 232 14 1118 14 673 0 1078 -4 1100 -10 22 -6 46
-6 70 0 19 6 276 17 570 26 566 17 834 12 1120 -21 203 -24 366 -67 453 -121
172 -107 260 -222 308 -404 42 -162 25 -352 -47 -517 -49 -113 -162 -232 -266
-280 -32 -15 -58 -29 -58 -33 0 -3 34 -39 75 -80 84 -83 162 -194 223 -315 97
-196 227 -315 467 -431 124 -61 148 -83 164 -153 21 -95 -36 -188 -129 -209
-95 -22 -416 -9 -615 24 -106 17 -281 64 -349 94 -48 20 -66 19 -66 -4 0 -7
-16 -29 -36 -48 -65 -66 -56 -65 -989 -61 -456 2 -839 4 -850 4 -11 0 -519 -2
-1130 -4 -822 -2 -1122 0 -1156 9 -70 17 -107 44 -130 92 -27 54 -27 100 0
155 23 48 61 73 197 133 113 49 196 121 214 185 6 20 10 217 10 484 l-1 450
-28 -71 c-83 -211 -275 -396 -497 -480 -147 -55 -542 -144 -641 -144 l-43 0 0
-85 c0 -67 5 -95 21 -127 35 -69 108 -129 226 -187 160 -78 198 -105 223 -157
28 -56 28 -102 1 -156 -32 -66 -70 -86 -186 -98 -139 -15 -1686 -7 -1736 9
-83 26 -135 121 -115 209 15 65 60 103 219 184 206 104 267 174 289 333 14 95
5 1231 -10 1266 -15 37 -85 80 -217 133 -63 25 -119 46 -124 46 -20 0 -124
-106 -145 -149 -13 -25 -26 -73 -30 -106 -7 -72 -23 -452 -36 -880 -9 -293
-11 -317 -39 -426 -34 -135 -58 -185 -140 -295 -91 -123 -254 -247 -389 -298
-164 -62 -318 -86 -543 -86 -621 0 -970 158 -1142 516 l-33 71 -18 -51 c-41
-114 -151 -244 -276 -325 -106 -69 -368 -161 -556 -195 -94 -18 -362 -36 -524
-36 -354 0 -719 57 -1042 164 -139 46 -188 68 -221 101 -53 54 -57 90 -57 538
0 388 1 414 22 488 16 59 29 87 54 112 59 59 159 67 231 19 14 -8 107 -141
209 -294 311 -470 413 -592 551 -660 56 -26 83 -33 148 -36 103 -5 309 22 367
48 63 27 81 51 86 113 5 69 -19 118 -96 195 -79 79 -155 126 -467 294 -406
217 -562 319 -721 471 -144 137 -199 238 -240 439 -22 111 -14 269 20 396 30
110 52 155 117 243 177 240 503 397 949 459 108 14 542 5 635 -14z"/>
<path d="M6906 6910 c-533 -48 -913 -282 -981 -605 -19 -91 -19 -262 0 -344
26 -109 77 -191 179 -289 156 -147 288 -234 664 -433 125 -67 262 -142 306
-167 167 -99 297 -227 349 -342 30 -65 29 -196 -2 -265 -60 -135 -184 -190
-483 -217 -164 -15 -236 -3 -359 59 -171 85 -301 238 -621 731 -107 163 -155
229 -162 222 -8 -8 -11 -154 -11 -448 l0 -436 75 -29 c366 -141 846 -201 1340
-168 272 18 432 58 640 158 165 80 265 202 300 368 31 146 7 352 -55 477 -96
191 -335 364 -890 645 -403 204 -535 303 -615 462 -83 166 31 401 246 510 154
77 438 85 573 16 57 -28 147 -122 188 -195 47 -83 119 -257 178 -431 56 -164
87 -235 92 -209 4 24 73 715 73 737 0 40 -271 136 -490 174 -134 23 -387 32
-534 19z"/>
<path d="M7018 6680 c-112 -20 -220 -94 -264 -182 -33 -66 -31 -113 7 -171 66
-100 164 -164 559 -367 308 -158 455 -246 617 -366 140 -104 194 -157 253
-247 l45 -68 3 337 c1 201 -2 361 -8 394 -14 73 -54 136 -115 177 l-49 35 -7
-24 c-3 -13 -9 -63 -13 -113 -13 -166 -41 -230 -114 -266 -51 -25 -94 -27
-145 -6 -72 30 -112 93 -167 262 -85 260 -182 472 -245 538 -20 21 -52 45 -72
53 -42 18 -218 27 -285 14z m247 -51 c67 -18 112 -77 187 -239 36 -80 92 -221
123 -313 40 -117 70 -185 97 -224 l39 -55 -33 20 c-71 43 -223 124 -360 192
-276 138 -376 199 -460 280 -42 42 -80 88 -83 103 -20 78 106 207 230 238 47
11 216 10 260 -2z m900 -569 c21 -43 23 -61 29 -343 l6 -299 -67 69 c-68 69
-175 155 -285 228 -32 21 -58 40 -58 42 0 2 16 1 35 -3 60 -11 133 14 181 61
48 49 68 103 79 211 3 38 8 80 11 93 5 23 5 23 26 5 11 -11 30 -39 43 -64z"/>
<path d="M16000 6450 c-107 -4 -270 -9 -362 -10 -92 -1 -166 -6 -163 -10 3 -4
45 -22 95 -40 132 -48 200 -104 229 -189 26 -78 32 -280 29 -936 -3 -660 -4
-671 -25 -727 -45 -120 -108 -183 -238 -242 -38 -18 -81 -37 -95 -43 -19 -9
179 -12 810 -12 l835 1 -110 29 c-153 40 -244 88 -331 174 -82 82 -111 138
-123 238 -10 83 -15 484 -12 1203 l1 501 158 -2 c122 -2 170 -6 217 -21 161
-51 209 -207 160 -512 -30 -188 -82 -302 -174 -384 -54 -48 -102 -71 -219
-105 -48 -13 -91 -28 -95 -33 -5 -4 8 -13 30 -20 59 -20 126 -56 149 -82 34
-37 77 -131 133 -293 96 -275 157 -371 295 -469 234 -166 517 -236 950 -236
l121 0 -107 53 c-252 127 -398 273 -529 529 -58 112 -73 133 -169 229 -96 97
-115 112 -215 162 -128 63 -158 74 -257 90 l-73 13 115 13 c260 29 475 105
562 198 116 125 163 318 124 504 -43 200 -194 333 -437 384 -206 44 -794 64
-1279 45z"/>
<path d="M10836 6429 c2 -4 48 -24 102 -45 216 -83 337 -168 362 -257 14 -51
33 -881 27 -1162 -5 -204 -18 -275 -65 -370 -58 -118 -141 -188 -339 -286
l-128 -64 427 -3 c234 -1 621 -1 860 0 l433 3 -143 73 c-173 89 -257 164 -313
277 l-34 70 -3 864 -2 864 110 -6 c149 -9 210 -40 293 -149 62 -83 82 -166 81
-343 0 -292 -78 -524 -246 -732 -43 -54 -78 -100 -78 -103 0 -3 19 -4 43 -2
206 15 513 88 652 156 251 123 398 357 398 631 -1 271 -145 453 -442 559 l-86
31 -957 1 c-527 0 -955 -3 -952 -7z"/>
<path d="M8070 6426 c0 -3 28 -21 63 -42 152 -91 217 -165 258 -293 21 -64 22
-86 24 -655 2 -323 7 -611 10 -639 20 -142 82 -265 190 -372 134 -135 289
-196 574 -224 57 -6 178 -11 270 -11 261 0 383 21 526 89 152 72 274 191 346
336 52 105 65 204 73 535 11 470 36 897 55 960 33 106 126 219 240 292 l45 28
-510 -1 -509 0 120 -58 c170 -83 235 -157 282 -322 16 -59 18 -113 18 -644 0
-693 -8 -796 -76 -941 -49 -104 -152 -180 -279 -204 -75 -14 -223 -12 -301 4
-179 38 -283 141 -326 321 -24 102 -32 1332 -9 1442 34 164 117 270 274 352
l97 50 -727 1 c-401 0 -728 -2 -728 -4z"/>
<path d="M13200 6413 c170 -78 200 -96 262 -152 129 -119 130 -129 126 -1002
l-3 -644 -33 -67 c-45 -91 -149 -189 -252 -235 -41 -19 -93 -42 -115 -53 -40
-19 -29 -19 1066 -19 l1106 -1 6 128 c4 70 7 260 6 422 l0 295 -104 -213
c-190 -388 -301 -520 -480 -567 -77 -20 -292 -21 -338 -1 -45 18 -100 85 -123
149 -16 47 -19 94 -22 491 l-3 439 168 -6 c188 -7 326 -27 391 -59 51 -24 97
-88 138 -191 14 -37 29 -65 33 -62 7 8 18 735 11 735 -3 0 -23 -35 -44 -77
-50 -102 -84 -143 -143 -175 -97 -53 -280 -88 -460 -88 l-93 0 0 460 0 460
183 0 c196 0 265 -8 365 -42 130 -45 270 -196 374 -405 56 -113 73 -141 83
-132 2 2 10 126 19 274 9 149 19 289 22 313 l5 42 -1093 -1 c-1011 0 -1090 -1
-1058 -16z"/>
<path d="M9535 6238 c-103 -55 -147 -95 -181 -161 -42 -81 -46 -162 -41 -768
5 -691 12 -747 91 -817 51 -44 120 -62 244 -62 124 0 168 11 221 57 87 74 96
157 96 913 l0 605 -23 50 c-35 77 -76 112 -203 173 l-116 57 -88 -47z m200
-62 c94 -44 118 -60 138 -92 52 -82 52 -78 52 -689 0 -713 -10 -815 -87 -880
-42 -36 -98 -47 -213 -43 -84 2 -109 7 -150 29 -72 36 -91 76 -104 219 -15
155 -15 1202 0 1270 18 85 62 138 159 192 47 27 86 48 88 48 2 0 55 -24 117
-54z"/>
<path d="M15506 6148 c-3 -40 -8 -131 -11 -203 -8 -176 -20 -227 -62 -268 -41
-42 -112 -61 -168 -46 -20 6 -38 9 -40 7 -2 -2 -5 -105 -7 -230 l-3 -226 32
31 c67 66 181 66 246 0 53 -52 58 -93 55 -435 -3 -274 -2 -295 14 -287 25 13
55 55 73 102 14 38 16 122 13 789 -3 739 -3 747 -24 775 -20 26 -76 61 -100
63 -7 0 -14 -28 -18 -72z m89 -40 c4 -18 8 -350 10 -738 1 -426 0 -622 -5
-495 -9 263 -19 313 -76 370 -53 53 -135 75 -208 56 -25 -6 -47 -11 -50 -11
-8 0 -7 153 0 228 6 55 9 61 28 60 12 -1 45 4 75 12 73 17 133 76 150 146 10
45 30 298 31 387 0 34 2 37 19 28 10 -6 22 -25 26 -43z"/>
<path d="M14480 5925 l0 -285 23 0 c56 0 198 30 243 51 45 22 53 32 96 114 50
97 108 165 140 165 19 0 18 1 -3 33 -49 69 -131 145 -179 166 -46 20 -185 40
-277 41 l-43 0 0 -285z m292 206 c25 -10 70 -45 101 -76 l55 -57 -32 -29 c-18
-16 -57 -74 -86 -129 -51 -97 -54 -100 -104 -118 -28 -11 -81 -23 -118 -27
l-68 -7 0 238 0 237 104 -6 c68 -4 119 -13 148 -26z"/>
<path d="M16718 5888 c-3 -178 -4 -324 -3 -326 2 -2 16 3 32 11 97 51 153 194
168 435 11 164 -14 200 -141 201 l-51 1 -5 -322z m140 260 c31 -31 2 -323 -42
-420 -51 -112 -55 -109 -56 42 0 74 3 192 7 263 l6 127 37 0 c20 0 41 -5 48
-12z"/>
<path d="M12200 5793 l1 -408 19 35 c76 139 114 318 108 513 -3 113 -6 126
-33 175 -25 46 -70 92 -89 92 -3 0 -6 -183 -6 -407z m81 187 c6 -81 -6 -276
-20 -325 -6 -20 -9 50 -10 205 0 187 2 231 12 215 6 -11 14 -54 18 -95z"/>
<path d="M14482 4859 c2 -257 6 -350 16 -366 12 -22 19 -23 130 -23 102 0 124
3 162 23 58 29 146 134 215 257 71 125 74 135 47 128 -37 -10 -111 15 -146 50
-18 18 -41 54 -51 80 -10 26 -31 72 -46 103 l-28 57 -63 11 c-35 6 -103 14
-151 17 l-88 7 3 -344z m243 273 c26 -7 35 -20 69 -103 46 -108 104 -174 162
-185 19 -3 34 -11 34 -16 0 -25 -77 -153 -130 -216 -73 -87 -108 -102 -229
-102 -75 0 -90 3 -97 18 -4 9 -9 154 -12 321 l-4 304 88 -7 c49 -3 102 -10
119 -14z"/>
<path d="M16723 4781 c3 -77 10 -128 20 -148 19 -35 93 -105 135 -127 l31 -16
-38 63 c-37 60 -90 185 -125 295 -10 28 -20 52 -23 52 -3 0 -3 -53 0 -119z"/>
<path d="M1375 3464 c-270 -22 -566 -99 -735 -192 -158 -86 -318 -226 -392
-342 -77 -122 -118 -281 -118 -465 0 -199 38 -336 131 -475 128 -191 358 -360
844 -620 322 -173 380 -207 448 -270 80 -73 107 -118 107 -175 0 -56 -20 -78
-91 -99 -74 -22 -261 -39 -349 -32 -60 6 -93 16 -165 50 -128 62 -174 115
-320 361 -197 334 -297 498 -327 537 -84 108 -272 107 -344 -2 -49 -74 -53
-119 -54 -601 0 -473 2 -502 49 -567 58 -82 367 -190 705 -247 399 -67 971
-58 1276 19 155 40 345 117 422 170 16 11 27 11 67 -1 40 -11 133 -13 522 -9
261 2 485 5 499 5 14 1 97 -2 185 -5 144 -5 167 -4 220 14 33 11 64 17 70 13
37 -29 127 -31 1332 -31 1280 0 1301 1 1349 41 13 10 21 10 47 -4 18 -9 50
-21 72 -26 56 -15 1283 -15 1356 0 48 9 66 8 159 -16 149 -38 287 -62 433 -76
161 -15 619 -6 732 14 100 18 255 60 346 94 63 23 71 24 92 10 55 -36 115 -38
767 -33 349 3 658 5 685 4 28 -1 338 -2 690 -2 594 -1 643 0 687 17 100 39
152 142 127 254 -16 69 -61 117 -157 168 -38 20 -80 48 -93 61 l-24 26 -3 706
c-2 389 0 735 3 770 8 80 33 109 134 164 42 23 92 58 112 78 88 91 65 261 -44
324 -80 46 -111 48 -777 42 -748 -6 -576 -6 -1340 0 -555 4 -643 3 -700 -11
l-65 -16 -123 41 c-67 22 -180 52 -250 67 -116 25 -146 27 -342 27 -230 0
-326 -11 -510 -59 -274 -72 -495 -209 -621 -385 -122 -169 -164 -431 -106
-651 35 -133 80 -219 161 -307 l31 -33 -30 8 c-49 13 -132 6 -173 -14 -48 -26
-98 -92 -107 -143 -4 -22 -11 -40 -16 -40 -5 0 -9 4 -9 10 0 10 -432 1253
-505 1455 -44 122 -66 158 -111 185 -43 27 -125 50 -180 50 -84 0 -142 -27
-223 -104 -88 -83 -130 -113 -261 -186 -157 -87 -189 -110 -215 -154 -37 -64
-42 -129 -15 -220 l23 -76 -65 -138 c-195 -407 -595 -1237 -630 -1304 -46 -90
-99 -148 -133 -148 -31 0 -91 52 -116 102 -47 92 -83 577 -84 1113 0 220 3
412 8 427 4 15 15 29 25 32 169 47 195 58 236 99 96 96 77 266 -37 331 -79 46
-114 48 -742 44 -542 -3 -593 -4 -630 -21 -22 -10 -49 -27 -61 -38 l-22 -20
-47 30 c-26 16 -69 35 -96 40 -32 7 -248 11 -596 11 -582 0 -621 -3 -700 -51
-33 -21 -69 -70 -84 -117 -6 -18 -7 -6 -3 39 13 149 -30 226 -161 288 -144 67
-375 136 -555 166 -92 16 -393 27 -495 19z m356 -44 c200 -20 446 -82 620
-156 185 -79 208 -120 185 -326 -8 -68 -17 -159 -21 -203 -22 -291 -48 -474
-76 -532 -37 -77 -143 -107 -231 -64 -70 34 -75 43 -206 462 -75 236 -137 340
-229 385 -56 28 -63 29 -203 29 -144 -1 -145 -1 -210 -34 -116 -58 -190 -149
-190 -231 0 -124 110 -212 545 -435 421 -217 668 -373 816 -517 137 -133 224
-342 239 -573 4 -60 8 -103 8 -95 1 8 11 76 21 150 33 226 119 936 132 1087
11 129 8 217 -7 279 -5 18 -25 30 -92 54 -125 45 -159 67 -183 117 -27 55 -27
101 0 156 24 50 69 79 149 96 76 16 1096 15 1160 -1 65 -16 109 -46 130 -90
l19 -37 16 34 c21 43 70 79 129 94 32 7 222 11 603 11 628 0 655 -2 717 -66
64 -65 65 -172 1 -237 -33 -34 -49 -41 -176 -78 -51 -14 -82 -29 -88 -41 -18
-34 -31 -345 -25 -583 9 -349 38 -752 66 -929 18 -110 79 -194 158 -216 98
-27 147 45 397 575 65 139 270 565 395 820 l112 230 -16 45 c-33 99 -38 130
-26 180 15 61 52 99 149 151 167 92 246 145 330 223 104 97 139 110 255 94 72
-10 117 -32 147 -72 15 -20 196 -530 496 -1401 l148 -430 6 120 c7 139 14 178
40 221 54 90 195 105 272 28 29 -30 92 -131 326 -528 92 -156 156 -223 257
-272 90 -43 158 -51 319 -35 126 13 196 35 214 69 33 61 -4 142 -101 225 -69
58 -94 73 -353 212 -269 145 -371 206 -495 298 -223 165 -300 272 -351 484
-39 162 -19 347 55 504 65 136 219 276 400 364 101 49 297 106 451 132 128 21
449 24 550 4 121 -23 258 -59 364 -96 l102 -36 47 18 c43 16 101 18 659 21
519 2 622 0 671 -12 51 -14 64 -14 112 -1 45 12 159 15 645 15 622 -1 678 -4
728 -47 81 -68 91 -182 23 -254 -16 -16 -59 -45 -95 -64 -36 -18 -81 -48 -100
-67 -68 -67 -66 -38 -69 -713 -2 -335 -1 -679 3 -764 l7 -153 34 -37 c18 -21
70 -57 114 -81 87 -47 111 -72 129 -134 22 -83 -31 -179 -116 -208 -29 -9
-188 -13 -640 -16 -521 -2 -610 -1 -663 13 -54 14 -66 14 -119 0 -50 -13 -152
-15 -647 -15 -624 0 -659 3 -721 48 -26 19 -26 19 -86 -5 -264 -107 -589 -148
-989 -124 -205 12 -338 33 -525 80 -119 30 -123 31 -185 16 -52 -12 -168 -15
-668 -15 -652 0 -676 2 -743 53 l-32 24 -24 -23 c-58 -54 -47 -54 -1348 -54
-1260 0 -1258 0 -1325 44 -23 15 -26 15 -49 -2 -13 -10 -45 -24 -71 -30 -64
-16 -230 -15 -301 2 -50 12 -66 12 -110 0 -40 -11 -147 -14 -472 -14 -405 0
-465 4 -522 32 -18 9 -31 4 -80 -26 -129 -80 -327 -148 -558 -193 -76 -15
-150 -18 -480 -18 -272 0 -417 4 -480 13 -266 39 -486 94 -661 163 -125 50
-168 87 -183 161 -14 65 -14 841 0 928 14 87 42 135 96 161 55 27 101 27 157
-1 50 -24 77 -60 213 -290 44 -74 129 -217 188 -318 89 -149 121 -195 176
-247 77 -73 184 -129 274 -146 71 -14 282 -5 370 15 128 28 164 59 173 145 6
65 -23 119 -108 201 -76 73 -133 109 -445 275 -563 300 -798 482 -906 701 -81
164 -102 386 -54 583 31 126 51 174 109 255 87 121 258 257 417 330 268 123
687 188 1010 156z m15 -474 c28 -13 63 -39 78 -58 45 -60 113 -220 165 -389
65 -213 87 -275 111 -316 l19 -33 -102 55 c-56 31 -169 90 -252 132 -372 187
-499 274 -541 371 -37 83 54 198 194 248 23 8 84 13 157 13 106 1 126 -2 171
-23z m899 -201 c30 -29 65 -49 134 -74 51 -19 96 -43 102 -52 13 -26 11 -223
-6 -389 -16 -166 -83 -712 -91 -750 -5 -21 -11 -12 -33 52 -66 185 -177 312
-416 480 l-77 53 53 8 c112 16 170 71 194 182 18 89 40 276 56 480 l13 160 15
-55 c11 -39 27 -66 56 -95z m5825 -1180 c52 -35 160 -99 240 -143 80 -43 210
-115 290 -158 198 -109 312 -215 296 -279 -11 -42 -73 -58 -249 -63 l-157 -4
-73 35 c-121 58 -154 101 -367 472 -57 99 -117 200 -134 225 l-30 45 44 -34
c25 -18 88 -62 140 -96z"/>
<path d="M1375 3243 c-392 -31 -682 -145 -871 -345 -123 -130 -158 -235 -152
-458 5 -170 20 -224 95 -333 106 -156 336 -315 847 -587 336 -178 436 -251
519 -378 57 -86 71 -130 70 -220 -2 -138 -81 -250 -207 -291 -153 -50 -374
-72 -511 -51 -155 23 -292 93 -409 207 -73 73 -106 121 -246 363 -148 256
-248 421 -266 440 -12 12 -14 -45 -14 -433 l0 -447 55 -25 c164 -72 414 -133
662 -160 193 -20 706 -21 853 0 275 39 535 146 651 267 99 103 139 218 139
399 0 239 -77 401 -259 547 -167 134 -302 216 -681 412 -451 234 -546 303
-627 460 -24 47 -28 67 -28 136 0 73 4 88 38 157 65 131 216 245 366 276 89
19 295 15 372 -7 206 -58 298 -188 419 -593 52 -174 90 -282 96 -276 9 9 24
121 38 283 9 99 23 244 32 322 10 91 13 147 7 153 -34 34 -283 122 -435 153
-152 32 -376 43 -553 29z"/>
<path d="M6970 3025 c-67 -68 -159 -132 -308 -215 -63 -34 -116 -69 -119 -76
-2 -7 7 -46 21 -88 14 -41 26 -85 26 -98 0 -13 -42 -111 -93 -218 -52 -107
-196 -409 -322 -670 -325 -678 -355 -737 -418 -803 -111 -115 -223 -138 -355
-72 -116 58 -185 151 -217 288 -40 175 -76 706 -76 1122 -1 552 20 611 236
670 48 14 90 27 93 30 3 3 -257 5 -577 5 l-583 0 7 -22 c4 -13 9 -55 12 -94 6
-82 -19 -192 -136 -611 -38 -136 -79 -291 -90 -343 -28 -121 -31 -130 -40
-130 -8 0 -55 244 -96 505 -14 88 -39 240 -55 338 -29 171 -38 297 -22 297 4
0 23 14 42 30 l35 29 -565 0 -565 0 65 -25 c206 -76 229 -108 237 -334 6 -162
-8 -313 -77 -860 -101 -802 -115 -836 -351 -921 -49 -17 -89 -33 -89 -35 0 -2
199 -4 443 -3 l442 0 -92 33 c-166 59 -203 98 -222 240 -15 107 -13 350 4 611
27 398 44 717 48 888 6 264 15 251 92 -132 31 -157 104 -511 161 -786 90 -428
174 -840 174 -852 0 -1 54 -3 119 -3 105 0 120 2 125 18 3 9 77 280 165 602
88 322 182 666 210 765 27 99 70 259 96 355 45 172 64 230 76 230 7 0 24
-1000 24 -1415 0 -279 -1 -292 -22 -331 -39 -73 -119 -131 -245 -179 -26 -9
-49 -23 -52 -31 -5 -12 179 -14 1221 -14 674 0 1224 2 1222 4 -3 3 -49 17
-104 31 -123 32 -275 103 -300 142 -23 34 -23 118 -1 199 9 33 58 164 109 291
l92 233 282 0 282 0 39 -102 c137 -360 213 -635 184 -670 -22 -27 -107 -66
-186 -88 -44 -12 -87 -25 -95 -30 -10 -6 229 -10 617 -10 347 0 632 2 632 5 0
2 -23 16 -51 31 -102 51 -202 171 -269 320 -18 38 -85 224 -150 414 -91 265
-401 1159 -537 1548 -14 40 -16 42 -57 42 -37 0 -47 -6 -96 -55z m-267 -714
c9 -16 42 -109 72 -208 30 -98 70 -225 90 -282 19 -58 35 -109 35 -113 0 -4
-110 -8 -245 -8 -135 0 -245 2 -245 5 0 2 42 105 93 227 52 123 111 265 132
316 21 50 41 92 44 92 4 0 14 -13 24 -29z"/>
<path d="M8995 2999 c-173 -21 -355 -76 -482 -146 -226 -125 -327 -285 -327
-518 0 -304 149 -459 754 -785 135 -73 277 -153 315 -178 156 -102 265 -249
265 -357 0 -217 -157 -314 -509 -316 -122 -1 -144 2 -216 26 -148 49 -255 133
-342 267 -26 40 -110 179 -187 309 -76 130 -149 249 -162 265 l-23 29 -1 -371
c0 -204 3 -385 6 -402 6 -29 10 -31 151 -72 163 -48 328 -83 471 -101 133 -17
623 -18 734 -1 132 19 292 68 398 119 215 107 303 264 287 518 -12 198 -91
324 -291 469 -142 103 -225 151 -511 299 -370 190 -489 276 -548 394 -34 67
-41 126 -22 198 38 147 175 268 343 304 67 14 221 14 297 0 74 -14 139 -46
188 -94 81 -78 128 -182 212 -461 31 -104 60 -192 64 -197 11 -11 29 116 51
363 11 118 23 232 26 252 6 37 5 38 -43 59 -88 39 -243 88 -341 110 -113 24
-422 34 -557 18z"/>
<path d="M10070 2889 c8 -5 40 -23 71 -39 108 -56 187 -162 209 -282 7 -37 10
-313 8 -800 -4 -839 1 -794 -83 -900 -34 -43 -61 -64 -131 -101 l-89 -46 620
-1 620 0 -79 43 c-43 24 -96 58 -117 75 -52 44 -96 138 -109 235 -12 94 -14
794 -1 801 4 3 181 6 392 6 l384 1 0 -433 0 -433 -33 -67 c-38 -78 -95 -132
-197 -189 l-70 -39 610 0 610 0 -52 29 c-82 45 -147 97 -177 140 -60 86 -59
75 -61 796 -2 690 4 876 32 960 21 64 121 166 213 218 l65 37 -620 0 -620 -1
60 -32 c89 -47 186 -148 215 -222 22 -57 23 -76 28 -362 l4 -303 -396 0 -396
0 1 108 c0 59 4 197 8 308 10 224 17 252 90 349 30 39 58 62 118 93 43 23 85
46 93 52 10 6 -187 10 -610 10 -430 0 -620 -4 -610 -11z"/>
<path d="M4097 2828 c-4 -14 -20 -39 -37 -55 -16 -15 -30 -36 -30 -46 0 -45
33 -227 40 -220 11 11 60 228 60 261 -1 15 -7 41 -14 57 l-13 30 -6 -27z"/>
<path d="M9095 2767 c-103 -42 -175 -121 -175 -192 0 -92 84 -155 485 -365
448 -235 644 -368 752 -515 l22 -30 1 445 0 445 -30 52 c-51 89 -50 91 -70
-132 -13 -141 -33 -275 -52 -338 -36 -120 -196 -161 -289 -73 -37 35 -37 34
-106 266 -70 238 -136 378 -195 417 -40 27 -48 28 -177 30 -88 1 -147 -2 -166
-10z m304 -51 c61 -32 119 -153 195 -407 24 -79 47 -152 51 -162 6 -14 -6 -11
-56 16 -35 19 -144 75 -242 126 -361 185 -432 260 -340 362 66 73 117 90 259
85 69 -3 111 -9 133 -20z m740 -620 l1 -308 -55 51 c-31 28 -83 69 -116 92
l-60 42 38 13 c54 19 109 81 127 146 16 56 45 241 47 299 l1 34 8 -30 c4 -16
8 -169 9 -339z"/>
<path d="M11309 2700 c-111 -56 -131 -89 -140 -233 -4 -62 -8 -158 -8 -214
l-1 -103 215 0 215 0 -1 178 c0 232 -6 262 -55 313 -21 23 -64 53 -94 69 l-55
28 -76 -38z m169 -67 c56 -42 63 -68 69 -259 l6 -174 -171 0 -172 0 0 143 c1
226 13 259 116 313 56 30 61 31 89 17 17 -9 45 -26 63 -40z"/>
<path d="M11154 1683 c-4 -14 -2 -162 4 -329 13 -380 7 -364 161 -444 l63 -34
52 29 c75 42 115 74 134 109 15 27 17 74 20 364 l3 332 -215 0 -216 0 -6 -27z
m394 -325 c-2 -248 -6 -307 -18 -326 -19 -29 -126 -102 -149 -101 -9 0 -43 17
-76 37 -95 59 -96 60 -102 402 l-6 290 177 0 178 0 -4 -302z"/>
<path d="M4197 1226 c-43 -158 -76 -290 -74 -293 8 -7 120 53 140 74 16 18 17
42 15 264 l-3 243 -78 -288z m17 -203 c-10 -7 -19 -11 -21 -9 -2 2 5 36 14 77
l18 74 3 -65 c2 -52 0 -67 -14 -77z"/>
<path d="M6479 1403 c-37 -85 -116 -287 -127 -323 -27 -90 -28 -85 41 -113 34
-14 111 -39 170 -56 101 -29 156 -55 157 -74 0 -4 20 7 45 26 24 19 66 40 92
46 123 31 123 31 123 55 0 13 -36 126 -80 252 -44 125 -80 229 -80 231 0 1
-72 3 -160 3 l-161 0 -20 -47z m349 -120 c23 -65 57 -161 76 -214 l34 -96 -54
-12 c-31 -7 -79 -25 -109 -41 -44 -23 -55 -26 -66 -15 -8 7 -54 25 -104 40
-49 15 -120 38 -157 51 -64 24 -66 26 -58 52 8 31 88 233 119 305 l20 47 129
0 129 0 41 -117z"/>
<path d="M3326 1280 c-4 -41 -2 -127 3 -190 6 -63 11 -119 11 -123 0 -9 70
-40 76 -34 4 4 -70 383 -80 412 -2 6 -6 -24 -10 -65z"/>
<path d="M21760 3460 c-226 -18 -491 -82 -657 -160 -160 -75 -329 -208 -420
-331 -80 -108 -121 -218 -146 -394 l-13 -88 -49 69 c-66 94 -202 226 -310 303
-177 124 -365 202 -625 258 -120 25 -410 25 -530 0 -353 -76 -576 -187 -795
-399 l-91 -87 -28 54 c-55 106 -193 234 -321 298 -248 124 -758 184 -1340 158
-137 -6 -349 -14 -470 -17 -266 -7 -346 -21 -399 -69 l-36 -33 -64 24 c-188
68 -480 98 -966 98 -455 1 -1014 -20 -1087 -40 -175 -48 -203 -298 -44 -396
20 -13 76 -36 125 -53 145 -49 130 40 134 -823 3 -527 1 -747 -7 -774 -13 -41
-35 -57 -129 -89 -164 -57 -240 -164 -211 -296 10 -43 22 -65 56 -98 79 -79
28 -76 1086 -73 l932 4 94 27 c93 27 93 27 125 8 67 -41 104 -42 981 -39 649
3 849 6 878 16 20 7 56 31 78 52 l41 39 89 -30 c153 -51 370 -79 614 -79 209
0 282 9 331 40 17 10 34 7 115 -23 215 -81 393 -111 613 -105 389 11 734 150
1008 407 l78 73 0 -97 c0 -53 5 -117 12 -142 26 -103 142 -172 426 -252 151
-43 320 -76 492 -97 211 -26 739 -26 900 -1 159 25 368 81 471 126 106 46 244
135 304 196 51 50 124 160 147 220 68 178 82 404 34 580 -70 260 -197 420
-483 610 -40 26 -73 50 -73 52 0 2 16 1 35 -3 60 -11 133 14 181 62 49 49 68
100 83 234 18 144 61 621 61 665 0 66 -27 141 -65 179 -61 61 -393 175 -635
217 -132 23 -371 32 -530 19z m465 -51 c103 -14 357 -79 460 -117 198 -74 226
-94 251 -179 13 -46 13 -68 0 -200 -8 -81 -17 -182 -21 -223 -17 -200 -38
-370 -52 -422 -35 -129 -156 -176 -271 -106 -44 27 -88 123 -151 328 -109 354
-155 440 -265 498 -49 26 -58 27 -196 27 -144 0 -145 0 -218 -34 -78 -37 -136
-91 -171 -160 -30 -58 -27 -105 10 -163 62 -96 168 -165 539 -355 368 -187
644 -362 773 -487 161 -158 245 -350 254 -586 5 -112 2 -137 -21 -235 -15 -60
-37 -133 -50 -162 -110 -238 -377 -393 -828 -479 -109 -21 -619 -30 -810 -15
-274 21 -531 73 -747 150 -133 48 -179 71 -218 111 -41 42 -44 57 -52 246 l-6
162 -67 -79 c-118 -136 -336 -290 -501 -353 -226 -87 -392 -120 -592 -120
-207 0 -411 41 -602 121 l-71 30 -31 -19 c-65 -42 -123 -49 -336 -43 -306 9
-489 38 -637 101 -68 28 -78 30 -78 15 0 -10 -16 -34 -36 -53 -69 -69 -63 -69
-962 -67 -859 1 -889 3 -943 53 -20 19 -29 21 -49 13 -14 -5 -65 -21 -115 -35
l-90 -26 -895 -4 c-949 -4 -970 -3 -1041 43 -67 43 -91 140 -55 217 25 51 74
86 191 133 95 38 101 43 123 85 l22 45 -2 760 c-3 732 -4 761 -22 792 -23 37
-72 64 -172 92 -126 36 -188 128 -160 237 17 66 63 109 134 123 31 6 287 18
567 27 539 18 830 12 1097 -21 177 -22 345 -61 412 -97 15 -8 25 -2 58 30 23
24 56 45 81 52 23 6 155 15 292 20 138 5 374 14 525 20 458 18 774 -8 1087
-90 218 -57 385 -170 478 -325 20 -33 41 -79 47 -102 6 -24 13 -43 17 -43 3 0
20 19 36 41 46 63 171 178 262 242 182 128 359 200 626 254 113 23 372 23 486
0 298 -61 497 -151 714 -326 115 -93 238 -245 320 -395 21 -39 36 -62 32 -51
-3 11 -9 65 -12 120 -9 165 41 366 123 486 195 289 592 474 1092 509 144 10
320 6 437 -11z m-75 -460 c24 -11 53 -28 64 -37 34 -30 116 -213 162 -362 66
-211 113 -336 145 -379 l27 -39 -101 58 c-56 31 -205 110 -331 174 -254 130
-343 184 -418 253 -68 64 -93 114 -78 156 27 79 92 140 186 177 73 28 281 28
344 -1z"/>
<path d="M21790 3244 c-375 -26 -672 -139 -867 -332 -118 -117 -173 -258 -173
-441 1 -362 155 -519 901 -921 303 -163 392 -222 495 -324 113 -113 139 -169
139 -297 0 -86 -3 -101 -30 -154 -69 -135 -238 -196 -555 -199 -126 -1 -155 2
-220 22 -192 60 -330 168 -436 338 -34 55 -134 224 -224 377 -89 152 -165 277
-169 277 -27 0 -31 -66 -31 -464 l0 -413 107 -43 c191 -74 428 -126 688 -150
171 -16 661 -12 784 5 274 39 505 129 639 250 58 52 115 155 137 246 20 85 20
276 0 354 -41 161 -143 295 -330 430 -146 106 -276 181 -590 343 -418 214
-556 315 -625 456 -43 86 -48 153 -20 235 56 167 189 285 380 337 99 27 313
24 400 -6 131 -44 214 -117 278 -247 46 -93 65 -146 132 -359 27 -89 59 -183
71 -210 l22 -49 8 35 c15 69 71 722 63 730 -34 31 -339 127 -493 156 -84 15
-368 26 -481 18z"/>
<path d="M14025 2920 c-104 -4 -270 -11 -369 -15 -108 -4 -173 -11 -165 -16 8
-5 57 -22 109 -38 83 -26 101 -36 141 -78 60 -61 86 -114 99 -200 7 -45 10
-322 8 -808 -3 -734 -3 -740 -25 -793 -42 -104 -96 -150 -230 -199 -155 -56
-193 -54 817 -51 l925 3 70 24 c111 37 185 81 261 156 81 79 124 156 148 259
43 185 -1 354 -126 478 -94 93 -328 196 -512 225 l-50 8 105 44 c150 63 246
118 308 175 63 60 85 101 112 203 36 141 20 276 -43 375 -121 191 -352 246
-1053 253 -187 2 -425 0 -530 -5z m756 -104 c166 -36 236 -120 254 -307 8 -80
-8 -225 -35 -313 -26 -83 -92 -181 -153 -227 -27 -20 -85 -49 -130 -64 l-82
-29 85 -17 c234 -47 388 -144 418 -264 31 -121 22 -315 -23 -491 -30 -117 -65
-184 -132 -251 -148 -146 -379 -112 -443 65 -11 30 -15 218 -17 975 l-4 937
98 0 c54 0 128 -7 164 -14z"/>
<path d="M14700 2370 c0 -173 4 -280 10 -280 21 0 78 62 103 114 49 100 62
331 22 392 -18 28 -71 54 -110 54 l-25 0 0 -280z m106 183 c3 -12 4 -76 2
-140 -3 -102 -7 -125 -30 -173 l-26 -55 -1 207 -1 208 25 -12 c14 -6 28 -22
31 -35z"/>
<path d="M14702 1332 c3 -398 2 -392 68 -392 73 0 138 73 174 195 24 80 39
232 33 329 -7 99 -19 121 -92 158 -33 17 -170 68 -182 68 -3 0 -3 -161 -1
-358z m120 268 c29 -11 65 -30 81 -42 27 -23 28 -23 28 -153 1 -201 -37 -336
-112 -399 -64 -54 -64 -56 -67 297 -1 201 1 317 7 317 6 0 34 -9 63 -20z"/>
<path d="M16380 2920 c-85 -4 -269 -11 -407 -15 -139 -5 -253 -11 -253 -15 0
-3 46 -17 102 -31 125 -29 183 -64 215 -129 34 -69 43 -270 43 -953 0 -771 -6
-815 -113 -914 -48 -44 -113 -81 -212 -119 l-60 -23 830 0 c472 0 824 3 815 8
-8 5 -79 27 -157 50 -209 59 -291 105 -339 187 -58 99 -57 84 -61 1013 -2 469
-2 859 0 865 3 8 50 9 163 5 186 -8 255 -27 316 -86 97 -95 105 -293 22 -548
-73 -222 -179 -342 -337 -380 -78 -19 -107 -31 -107 -44 0 -4 30 -21 67 -36
126 -54 147 -85 248 -372 110 -309 170 -389 390 -516 178 -103 328 -135 685
-143 l225 -6 -85 49 c-128 73 -177 109 -264 192 -95 92 -147 164 -215 298 -70
137 -117 208 -183 275 -101 104 -259 187 -444 235 l-69 18 75 7 c253 26 438
84 534 168 145 128 196 421 106 606 -42 85 -136 172 -243 223 -232 113 -681
158 -1287 131z"/>
<path d="M19055 2904 c-294 -52 -537 -180 -726 -382 -191 -204 -287 -430 -297
-702 -7 -208 21 -346 105 -516 162 -329 485 -567 883 -650 119 -25 383 -25
499 -1 198 43 340 101 495 204 340 226 526 590 502 983 -23 394 -264 747 -640
937 -112 57 -265 107 -385 127 -116 20 -326 20 -436 0z m62 -101 c20 -9 44
-30 54 -47 18 -29 19 -61 19 -613 l0 -583 528 0 c508 0 528 -1 560 -20 39 -24
40 -39 4 -110 -45 -89 -15 -85 -589 -88 l-503 -3 0 -257 c0 -289 -4 -308 -71
-344 -42 -22 -49 -22 -141 1 -171 44 -313 135 -356 230 -24 51 -27 69 -30 216
l-4 161 -123 0 c-149 0 -164 7 -207 102 -28 62 -29 66 -11 76 47 28 86 35 210
35 l132 1 3 473 c4 531 4 525 80 612 47 54 163 117 278 151 91 28 121 29 167
7z"/>
<path d="M15804 2674 c31 -82 41 -137 40 -239 -1 -96 -6 -125 -36 -222 -28
-89 -45 -125 -83 -176 -27 -35 -66 -76 -87 -92 l-37 -28 54 -33 c98 -59 164
-113 206 -169 23 -30 44 -55 47 -55 7 0 -8 798 -17 903 -5 49 -13 93 -18 98
-5 5 -24 14 -42 19 -27 8 -32 7 -27 -6z m56 -676 l0 -212 -32 30 c-26 24 -99
78 -137 101 -2 1 11 19 29 40 55 62 108 150 121 203 7 28 14 50 16 50 2 0 3
-95 3 -212z"/>
<path d="M16960 2347 l0 -331 40 39 c85 83 160 294 163 456 2 82 -1 100 -17
118 -22 24 -61 37 -133 45 l-53 5 0 -332z m112 273 c9 0 24 -7 32 -16 38 -38
5 -256 -59 -389 l-33 -70 -1 244 -1 243 23 -6 c12 -3 30 -6 39 -6z"/>
<path d="M20664 2050 c20 -88 25 -124 31 -202 6 -73 10 -88 24 -88 36 0 85
-70 262 -373 231 -394 258 -436 326 -497 65 -57 175 -114 253 -131 60 -13 277
-7 368 11 81 15 151 49 167 81 21 40 19 122 -4 167 -25 48 -119 138 -200 192
-35 23 -167 99 -295 167 -561 304 -771 454 -903 647 -24 37 -32 44 -29 26z
m312 -357 c145 -104 278 -183 564 -338 368 -199 465 -267 509 -358 65 -134
-11 -184 -299 -202 -131 -9 -202 4 -298 51 -143 70 -161 95 -524 719 -81 138
-115 187 -146 210 -35 26 -41 35 -41 68 l-1 38 68 -59 c38 -32 113 -91 168
-129z"/>
<path d="M17798 1746 l-37 -22 47 -40 47 -41 -3 64 c-2 34 -7 63 -10 62 -4 0
-24 -11 -44 -23z"/>
<path d="M16964 1258 c5 -188 14 -210 106 -255 36 -18 69 -33 73 -33 5 0 -4
19 -18 43 -38 60 -71 135 -121 272 l-45 120 5 -147z"/>
<path d="M23544 1361 c-73 -21 -123 -50 -188 -111 -69 -65 -102 -117 -126
-201 -38 -139 -19 -286 51 -392 39 -59 139 -150 194 -177 23 -11 76 -28 117
-37 69 -15 80 -15 151 1 103 23 185 66 250 131 68 69 111 149 133 251 17 80
17 84 -5 175 -12 52 -35 118 -52 147 -58 103 -158 178 -279 211 -89 25 -164
26 -246 2z m221 -40 c82 -21 103 -31 167 -80 123 -95 182 -272 143 -430 -38
-157 -156 -275 -315 -316 -206 -54 -428 82 -490 300 -25 86 -25 130 -1 220 24
95 44 130 110 196 64 64 100 85 186 110 77 23 114 23 200 0z"/>
<path d="M23572 1139 c-53 -27 -115 -96 -130 -147 -38 -127 26 -269 144 -318
102 -43 231 10 294 119 25 43 30 63 30 117 0 83 -23 133 -83 186 -75 66 -174
83 -255 43z"/>
</g>
</svg>
