<?xml version="1.0" standalone="no"?>
<!DOCTYPE svg PUBLIC "-//W3C//DTD SVG 20010904//EN"
 "http://www.w3.org/TR/2001/REC-SVG-20010904/DTD/svg10.dtd">
<svg version="1.0" xmlns="http://www.w3.org/2000/svg"
 width="3400.000000pt" height="2730.000000pt" viewBox="0 0 3400.000000 2730.000000"
 preserveAspectRatio="xMidYMid meet">

<g transform="translate(0.000000,2730.000000) scale(0.100000,-0.100000)"
fill="#000000" stroke="none">
<path d="M25120 26290 c-14 -4 -54 -15 -90 -25 -36 -9 -72 -20 -80 -23 -8 -3
-33 -11 -55 -18 -44 -13 -146 -50 -185 -66 -25 -10 -34 -15 -100 -50 -19 -11
-53 -41 -75 -67 -40 -48 -84 -74 -195 -114 -45 -17 -88 -21 -235 -24 -168 -4
-192 -2 -370 28 -186 32 -196 33 -509 33 -246 1 -320 4 -323 14 -3 8 -33 12
-101 12 -178 -1 -477 -57 -615 -115 -32 -14 -65 -25 -73 -25 -8 0 -14 -4 -14
-10 0 -5 -8 -10 -17 -10 -19 0 -136 -83 -142 -101 -4 -14 -50 -59 -59 -59 -10
0 -102 -93 -102 -102 0 -9 -49 -58 -57 -58 -3 0 -22 -14 -42 -31 -20 -17 -45
-38 -56 -47 -32 -27 -141 -77 -242 -111 -97 -33 -204 -112 -229 -169 -9 -20
-22 -49 -30 -64 -8 -14 -14 -33 -14 -41 0 -9 -11 -29 -25 -45 -37 -44 -33 -75
13 -103 20 -13 42 -25 47 -28 6 -2 43 -19 83 -38 l72 -34 0 -44 c0 -25 4 -45
9 -45 4 0 11 -19 14 -42 18 -123 66 -272 107 -326 l25 -34 105 5 c58 3 166 15
240 26 199 32 305 20 443 -50 57 -29 234 -151 274 -189 18 -16 36 -30 41 -30
5 0 33 -24 63 -52 55 -53 149 -136 220 -193 20 -16 43 -40 50 -52 7 -13 18
-23 25 -23 7 0 25 -12 41 -26 42 -39 181 -134 195 -134 7 0 19 -9 26 -20 7
-11 17 -20 23 -20 5 0 20 -9 32 -21 12 -12 49 -39 82 -61 85 -58 196 -152 314
-268 117 -115 231 -303 231 -382 0 -14 5 -28 12 -30 32 -11 62 -307 40 -413
-16 -79 -58 -232 -90 -330 -30 -91 -42 -121 -92 -230 -16 -33 -37 -78 -47
-101 -11 -23 -29 -54 -42 -70 -12 -16 -51 -68 -86 -116 -36 -47 -89 -112 -120
-143 -30 -31 -55 -61 -55 -67 0 -11 -93 -105 -132 -133 -16 -11 -28 -23 -28
-28 0 -4 -19 -29 -42 -53 -24 -25 -47 -52 -51 -60 -4 -8 -15 -14 -22 -14 -8 0
-15 -4 -15 -9 0 -9 -57 -76 -110 -130 -14 -15 -39 -44 -55 -66 -17 -22 -35
-46 -42 -52 -6 -7 -51 -71 -100 -143 -133 -198 -151 -224 -160 -235 -22 -27
-43 -66 -43 -78 0 -8 -7 -20 -15 -27 -8 -7 -15 -20 -15 -30 0 -10 -12 -39 -26
-65 -25 -44 -26 -52 -20 -128 4 -45 7 -96 6 -113 0 -26 -33 -120 -79 -229 -5
-11 -14 -40 -21 -65 -7 -25 -23 -76 -36 -115 -12 -38 -30 -101 -39 -140 -9
-38 -23 -97 -31 -130 -8 -33 -21 -125 -29 -204 -13 -128 -13 -168 0 -350 8
-113 20 -251 26 -306 13 -113 6 -367 -11 -435 -7 -25 -21 -64 -31 -87 -10 -24
-19 -48 -19 -55 0 -26 -99 -145 -156 -188 -32 -25 -60 -48 -62 -52 -2 -4 -38
-33 -80 -65 -42 -31 -82 -62 -88 -68 -105 -97 -189 -172 -207 -184 -12 -8 -24
-18 -27 -22 -3 -3 -75 -53 -160 -110 -85 -57 -156 -107 -158 -111 -2 -4 -9 -8
-15 -8 -7 0 -43 -16 -82 -34 -38 -19 -113 -50 -165 -68 -153 -52 -292 -42
-425 32 -16 9 -57 32 -90 50 -66 37 -174 108 -190 125 -5 7 -39 34 -75 62 -75
59 -199 186 -285 294 -33 42 -81 100 -107 130 -25 30 -67 79 -92 109 -55 66
-226 317 -226 331 0 21 -99 225 -131 270 -16 23 -47 37 -162 74 -174 57 -332
112 -372 130 -49 22 -150 38 -208 33 -29 -2 -75 -15 -103 -28 -101 -47 -149
-119 -166 -245 -20 -155 -30 -224 -49 -320 -18 -93 -23 -128 -49 -317 -23
-174 -75 -400 -110 -483 -42 -101 -58 -197 -47 -290 13 -120 56 -161 222 -210
33 -9 112 -38 175 -62 63 -25 144 -57 180 -70 36 -14 74 -29 85 -34 11 -4 61
-24 110 -44 229 -93 276 -118 633 -339 46 -28 92 -55 102 -61 11 -5 20 -13 20
-17 0 -5 4 -8 10 -8 37 0 330 -246 330 -277 0 -7 3 -13 8 -13 4 0 33 -24 65
-54 l57 -53 0 -91 c0 -222 -46 -403 -148 -579 -23 -39 -147 -201 -235 -307
-37 -44 -73 -93 -82 -110 -18 -35 -38 -69 -45 -76 -12 -12 -61 -121 -80 -180
-31 -93 -36 -182 -15 -266 9 -38 20 -73 24 -79 4 -5 13 -28 20 -50 7 -22 19
-53 26 -70 6 -16 17 -46 23 -66 14 -42 16 -202 3 -227 -5 -9 -17 -35 -27 -56
-51 -107 -219 -240 -444 -352 -90 -45 -250 -154 -311 -211 -65 -62 -109 -131
-125 -198 -3 -16 -9 -68 -11 -115 -5 -89 4 -136 39 -203 16 -32 18 -43 8 -72
-15 -45 -90 -111 -177 -155 -120 -61 -174 -102 -361 -269 -97 -87 -256 -264
-333 -371 -29 -41 -57 -76 -61 -78 -5 -2 -8 -7 -8 -11 0 -4 -29 -51 -65 -105
-115 -175 -225 -423 -225 -508 0 -21 21 -85 50 -153 41 -95 50 -128 50 -174 0
-86 -26 -164 -88 -259 -36 -57 -34 -55 -377 -392 -45 -43 -97 -103 -116 -132
-19 -29 -50 -76 -68 -104 -50 -75 -72 -84 -204 -84 -122 0 -207 -22 -280 -71
-71 -49 -155 -164 -170 -234 -4 -16 -18 -77 -33 -135 -14 -58 -29 -123 -34
-145 -4 -22 -17 -85 -28 -140 -48 -233 -54 -297 -49 -487 5 -197 12 -231 67
-340 29 -57 30 -62 15 -84 -25 -38 -85 -72 -160 -90 -186 -45 -245 -65 -329
-113 -48 -28 -90 -51 -92 -51 -3 0 -35 -22 -72 -50 -78 -58 -69 -51 -153 -118
-37 -28 -72 -52 -78 -52 -6 0 -11 -4 -11 -10 0 -5 -36 -37 -80 -71 -44 -34
-80 -66 -80 -71 0 -4 -5 -8 -11 -8 -6 0 -23 -10 -38 -23 -15 -12 -43 -33 -61
-47 -19 -14 -43 -36 -54 -48 -12 -13 -34 -38 -51 -56 -80 -85 -105 -116 -105
-131 0 -8 -4 -15 -9 -15 -5 0 -31 -35 -57 -77 -26 -43 -52 -79 -56 -81 -4 -2
-8 -9 -8 -15 0 -5 -30 -71 -66 -146 -117 -241 -124 -256 -124 -267 0 -10 -111
-286 -144 -359 -36 -79 -56 -125 -56 -130 0 -16 -95 -201 -106 -208 -8 -4 -14
-16 -14 -26 0 -24 -47 -114 -100 -190 -25 -35 -49 -71 -55 -80 -42 -68 -150
-184 -242 -259 l-52 -43 -3 -82 c-3 -77 -4 -82 -28 -89 -112 -31 -106 -27
-134 -87 -14 -31 -26 -64 -26 -72 0 -23 -63 -91 -114 -124 -25 -16 -46 -33
-46 -37 0 -4 -6 -8 -12 -8 -7 0 -38 -12 -68 -26 -30 -15 -68 -33 -85 -40 -71
-29 -81 -33 -105 -40 -14 -4 -272 -10 -575 -13 -497 -5 -553 -8 -584 -23 -19
-10 -42 -18 -52 -18 -10 0 -21 -5 -24 -10 -3 -6 -19 -10 -34 -10 -15 0 -31 -4
-36 -9 -19 -19 -221 -80 -300 -91 -104 -14 -280 0 -435 35 -87 20 -153 28
-270 32 -160 5 -223 -4 -425 -61 -48 -14 -194 -48 -280 -66 -82 -17 -386 -135
-393 -152 -2 -4 -9 -8 -16 -8 -7 0 -46 -16 -87 -36 -185 -90 -242 -106 -449
-123 -108 -9 -144 -17 -209 -48 -42 -20 -92 -81 -109 -133 -6 -19 -30 -93 -52
-164 -28 -91 -49 -138 -70 -162 -52 -60 -86 -146 -113 -292 -4 -18 -18 -57
-32 -87 -14 -31 -25 -58 -25 -61 0 -3 -15 -24 -34 -47 -18 -23 -50 -73 -72
-112 l-39 -70 0 -120 c0 -93 4 -130 18 -165 28 -68 61 -135 70 -138 4 -2 7 -8
7 -13 0 -12 122 -189 237 -344 5 -6 16 -26 26 -45 10 -19 37 -62 62 -95 24
-33 54 -76 67 -95 29 -44 179 -190 196 -190 6 0 12 -4 12 -10 0 -5 9 -10 19
-10 11 0 22 -4 25 -9 5 -8 66 -19 239 -42 76 -10 97 -17 165 -59 84 -51 110
-71 181 -140 131 -127 257 -229 284 -230 9 0 17 -4 17 -10 0 -5 21 -19 48 -32
39 -18 80 -24 242 -35 165 -11 397 -33 515 -48 258 -34 707 -54 820 -37 68 11
264 45 355 62 102 20 201 12 326 -25 65 -20 126 -40 136 -45 9 -5 39 -12 67
-16 28 -4 51 -11 51 -16 0 -7 66 -8 188 -5 177 6 275 15 557 51 303 38 371 41
950 38 548 -3 574 -2 685 19 109 21 148 22 786 25 470 2 680 7 700 15 81 31
347 48 954 59 468 9 599 16 685 39 22 6 80 11 128 11 49 0 141 5 205 10 64 6
257 17 427 24 293 13 314 15 380 40 39 15 104 38 145 53 84 28 382 173 477
230 234 142 239 146 370 258 137 117 237 259 269 380 22 84 25 360 5 465 -7
36 -14 83 -17 105 -5 37 -15 80 -46 190 -6 22 -15 44 -20 50 -4 5 -8 18 -8 30
0 11 -16 50 -34 87 -114 225 -253 355 -528 498 -155 80 -399 166 -613 216 -60
14 -146 34 -190 44 -44 10 -120 26 -170 35 -49 9 -121 23 -160 30 -38 8 -110
21 -160 29 -303 51 -494 86 -625 116 -47 10 -121 26 -165 35 -44 10 -98 23
-120 30 -22 7 -58 17 -80 23 -135 36 -171 46 -180 52 -5 4 -28 13 -50 20 -81
25 -242 94 -300 128 -110 64 -250 161 -283 196 -33 35 -42 78 -19 93 6 4 23
28 36 53 74 138 271 430 290 430 5 0 11 6 13 14 2 8 66 80 143 161 77 81 142
152 145 159 3 6 30 49 61 96 52 79 91 166 118 265 6 22 18 147 26 277 17 261
39 374 95 490 32 68 84 126 275 308 126 121 217 241 293 389 87 170 132 286
172 451 5 19 16 67 26 105 32 127 19 443 -26 625 -5 19 -16 78 -25 130 -9 52
-20 115 -25 140 -27 133 -33 198 -34 340 0 165 4 185 56 297 48 103 159 218
298 308 64 42 240 135 255 135 4 0 21 6 38 14 56 24 131 44 213 56 43 6 98 15
122 21 23 5 63 9 88 9 42 0 155 22 199 40 67 26 111 60 173 134 20 23 54 92
82 161 41 103 72 301 85 540 14 273 34 438 67 565 51 195 58 229 58 283 0 32
-7 74 -15 94 -9 20 -13 44 -10 53 3 9 31 34 62 56 63 43 103 77 103 89 0 4 8
19 19 33 17 25 56 94 104 184 57 105 154 194 248 226 51 17 60 16 99 -18 42
-37 244 -171 331 -220 34 -19 67 -40 73 -45 6 -6 52 -40 101 -75 50 -35 96
-70 104 -78 8 -7 46 -39 85 -70 39 -31 76 -61 82 -67 6 -5 34 -28 62 -50 28
-22 51 -44 52 -49 0 -4 12 -18 28 -30 100 -78 282 -275 375 -407 66 -93 138
-239 172 -344 15 -49 35 -110 43 -135 22 -70 43 -186 52 -295 8 -94 31 -258
52 -370 5 -27 13 -120 17 -205 13 -232 42 -369 99 -470 60 -106 69 -129 82
-194 8 -42 10 -101 7 -155 -3 -47 -11 -162 -17 -256 -11 -171 -6 -286 19 -383
20 -75 92 -224 154 -317 160 -240 299 -370 488 -458 41 -19 115 -54 164 -76
145 -67 186 -119 256 -320 69 -202 171 -363 296 -467 139 -116 192 -186 219
-289 34 -124 -1 -357 -65 -441 -9 -12 -23 -32 -31 -44 -8 -12 -45 -58 -81
-101 -36 -43 -74 -96 -84 -116 -10 -21 -22 -46 -26 -55 -32 -64 39 -288 140
-442 14 -23 29 -42 34 -44 4 -2 7 -8 7 -13 0 -5 23 -46 52 -92 138 -220 199
-425 169 -568 -18 -81 -81 -180 -153 -238 -128 -104 -353 -183 -608 -213 -134
-16 -606 -21 -712 -7 -87 11 -103 10 -155 -5 -66 -20 -99 -30 -163 -46 -178
-47 -321 -114 -402 -189 -103 -95 -139 -180 -205 -476 -16 -71 -51 -208 -84
-325 -25 -89 -25 -202 2 -260 20 -45 90 -130 206 -250 34 -36 79 -87 100 -115
21 -27 41 -51 46 -53 4 -2 7 -8 7 -14 0 -6 13 -27 29 -47 59 -75 100 -197 131
-386 25 -157 81 -321 130 -385 52 -67 120 -77 227 -31 109 45 142 54 222 54
106 0 195 -30 335 -114 64 -38 121 -69 126 -69 6 0 18 -4 28 -10 9 -5 51 -19
92 -31 41 -11 115 -39 164 -61 144 -66 185 -73 480 -88 250 -12 326 -6 486 40
99 28 337 136 368 166 7 8 18 14 24 14 5 0 49 24 96 53 79 48 223 122 343 177
307 138 816 200 1129 136 131 -26 175 -46 257 -114 53 -44 80 -79 162 -207 42
-65 127 -142 187 -169 109 -50 185 -63 439 -76 217 -10 483 0 795 31 550 53
646 60 835 57 187 -3 191 -3 248 -32 31 -16 57 -33 57 -38 0 -4 6 -8 13 -8 6
0 20 -17 29 -38 21 -45 68 -188 68 -205 0 -21 57 -69 97 -84 85 -29 345 -7
483 42 23 8 49 15 56 15 8 0 33 9 57 19 23 10 65 24 92 31 28 7 75 24 105 37
87 39 91 40 165 64 39 12 75 25 80 29 6 4 48 22 95 39 47 18 94 36 105 41 11
5 74 27 140 49 175 57 287 68 480 46 212 -24 398 -30 481 -16 38 7 73 16 79
20 5 5 24 11 40 15 85 20 325 172 325 206 0 6 5 10 11 10 16 0 91 81 114 123
11 20 23 37 27 37 5 0 8 9 8 19 0 11 4 21 9 23 17 6 240 446 307 605 21 49 41
92 46 98 4 5 8 17 8 27 0 10 15 57 33 106 63 164 81 276 80 499 -1 148 -4 188
-18 215 -9 18 -28 62 -42 98 -14 35 -30 69 -35 75 -41 49 -48 59 -48 67 0 24
-251 248 -279 248 -6 0 -11 5 -11 10 0 6 -8 10 -18 10 -10 0 -22 4 -28 9 -8 8
-129 75 -164 91 -8 4 -30 14 -48 23 -19 9 -41 17 -51 17 -9 0 -21 4 -27 8 -5
5 -22 14 -39 20 -126 46 -325 126 -357 143 -10 5 -23 9 -30 9 -6 0 -71 28
-142 61 -139 65 -139 65 -231 99 -33 12 -69 26 -80 30 -102 42 -294 94 -407
111 -89 13 -403 5 -422 -10 -6 -5 -26 -12 -44 -16 -35 -7 -224 -81 -293 -114
-23 -12 -49 -21 -56 -21 -7 0 -13 -6 -13 -14 0 -8 -4 -16 -9 -18 -5 -1 -25
-30 -43 -63 l-34 -60 -68 -3 c-54 -2 -75 -8 -106 -30 -21 -15 -48 -34 -60 -42
-32 -21 -160 -142 -160 -151 0 -20 -147 -150 -180 -159 -87 -25 -181 -32 -327
-26 -239 10 -445 70 -636 184 -44 26 -94 56 -113 67 -46 28 -184 137 -184 146
0 4 -9 10 -19 14 -28 9 -301 283 -301 303 0 4 -8 12 -18 19 -21 13 -127 138
-249 295 -45 58 -102 122 -125 142 -94 82 -194 185 -251 261 -81 107 -147 185
-232 273 -38 40 -74 80 -78 88 -4 8 -14 14 -22 14 -8 0 -20 9 -27 20 -7 11
-16 20 -21 20 -4 0 -18 9 -30 21 -27 26 -170 120 -214 142 -18 8 -47 18 -64
22 -65 15 -76 41 -106 258 -3 20 -9 40 -14 43 -5 3 -9 15 -9 27 0 23 -96 370
-109 397 -4 8 -13 40 -20 70 -7 30 -21 91 -31 135 -25 108 -75 358 -95 475
-22 132 -42 241 -61 340 -9 47 -20 108 -24 135 -5 28 -12 61 -18 75 -5 14 -12
48 -16 75 -8 53 -36 164 -66 255 -30 93 -58 191 -84 290 -49 187 -57 216 -70
255 -7 22 -21 74 -31 115 -10 41 -21 80 -25 85 -4 6 -18 39 -30 75 -38 109
-84 203 -143 286 -58 83 -197 227 -244 254 -15 8 -32 20 -38 26 -43 48 -385
236 -525 289 -25 10 -54 21 -65 26 -48 22 -223 59 -276 59 -84 0 -170 24 -298
84 -71 33 -177 165 -271 341 -24 44 -64 112 -89 150 -61 91 -181 266 -197 285
-6 8 -42 74 -78 145 -60 119 -67 140 -81 235 -8 58 -21 127 -29 153 -18 60
-77 162 -168 290 -39 53 -90 132 -114 174 -55 97 -134 337 -169 513 -14 74
-32 160 -39 190 -7 30 -19 82 -25 115 -15 72 -21 95 -62 250 -18 66 -38 149
-46 185 -35 163 -89 354 -128 445 -28 67 -133 273 -162 318 -66 104 -211 365
-278 502 -158 320 -182 473 -106 660 19 47 43 93 142 276 112 206 145 284 203
487 45 153 146 562 146 588 0 12 4 33 9 46 5 13 18 59 30 103 49 197 124 464
142 507 10 26 19 53 19 61 0 9 12 39 27 68 28 54 87 105 132 115 14 3 40 12
58 20 17 8 36 14 42 14 22 0 131 62 168 96 20 19 42 34 47 34 15 1 126 107
126 120 0 5 7 10 15 10 8 0 15 5 15 11 0 7 19 33 43 59 23 26 56 67 73 91 33
47 107 182 116 215 4 10 25 71 48 134 44 123 126 419 140 510 5 30 14 125 19
209 6 85 15 157 19 160 8 7 28 34 94 132 23 35 46 66 51 67 4 2 7 10 7 19 0 8
17 35 38 61 20 26 42 54 47 63 6 9 19 29 30 45 18 25 20 42 17 141 l-2 113 32
31 c18 18 56 47 84 65 29 18 58 39 66 46 7 7 36 29 63 48 28 19 52 38 53 42 2
4 8 8 13 8 13 0 146 91 179 122 50 46 225 190 240 196 8 3 44 34 80 68 120
113 165 153 173 154 4 0 7 4 7 8 0 5 21 31 48 58 125 132 267 326 293 403 11
31 26 117 34 191 20 184 22 194 66 287 22 45 39 89 39 97 0 9 7 16 15 16 8 0
15 5 15 10 0 6 24 43 53 82 57 80 70 101 122 200 70 134 91 212 136 493 5 33
13 71 18 85 5 14 12 39 16 55 23 105 135 368 223 523 23 41 42 80 42 87 0 8 8
16 19 20 10 3 21 18 24 33 4 15 15 38 27 52 11 14 40 53 66 88 51 69 237 260
329 337 69 58 180 135 195 135 5 0 19 9 30 20 21 21 273 150 294 150 6 0 23 6
38 14 41 22 130 51 258 86 63 17 129 35 146 40 17 6 40 10 52 10 11 0 31 4 44
9 109 41 167 48 469 60 134 5 244 13 256 19 14 8 183 12 534 13 473 2 650 10
685 32 5 3 45 10 89 17 44 6 121 18 170 26 50 8 108 17 130 20 176 20 303 45
422 83 92 30 345 149 380 180 29 25 81 61 90 61 13 0 213 183 213 195 0 3 11
18 25 32 35 39 94 160 105 218 14 78 -5 175 -48 247 -21 33 -42 69 -49 80 -6
12 -15 23 -20 27 -10 7 -153 298 -153 312 0 5 -4 9 -10 9 -5 0 -10 7 -10 16 0
20 -139 298 -151 302 -5 2 -9 8 -9 12 0 5 -31 53 -70 107 -70 99 -165 203
-186 203 -7 0 -14 6 -17 14 -6 15 -126 75 -202 100 -27 10 -88 22 -134 28 -84
10 -136 8 -606 -23 -158 -11 -299 -3 -395 21 -77 20 -124 21 -394 10 -248 -10
-293 -10 -386 4 -58 9 -141 21 -185 27 -44 5 -99 14 -123 19 -63 15 -571 12
-798 -4 -431 -31 -607 -38 -809 -33 -226 5 -444 25 -540 50 -74 19 -258 44
-425 57 -69 5 -168 16 -220 24 -102 16 -408 20 -450 6z m-4350 -11805 l5 -660
75 0 75 0 6 150 c4 83 7 154 8 158 0 4 27 7 59 5 l57 -3 3 -218 2 -218 -153 3
c-144 3 -156 5 -189 28 -76 51 -72 18 -78 745 -3 383 -1 655 4 663 6 9 28 12
65 10 l56 -3 5 -660z"/>
<path d="M10874 25901 c-127 -27 -294 -96 -294 -122 0 -5 -6 -9 -14 -9 -8 0
-16 -4 -18 -8 -1 -5 -29 -27 -60 -50 -32 -23 -97 -74 -144 -112 -48 -39 -94
-70 -101 -70 -7 0 -13 -4 -13 -10 0 -5 -9 -10 -19 -10 -11 0 -21 -3 -23 -7 -5
-12 -66 -53 -78 -53 -5 0 -10 -3 -10 -7 0 -5 -32 -28 -70 -53 -64 -41 -72 -50
-85 -94 -8 -27 -15 -61 -15 -74 0 -14 -16 -43 -37 -67 -109 -123 -157 -191
-201 -285 -55 -118 -66 -171 -65 -325 0 -130 2 -143 26 -190 14 -27 51 -75 81
-105 92 -91 192 -266 226 -399 17 -64 19 -84 9 -129 -14 -68 0 -104 76 -203
30 -39 55 -75 55 -80 0 -5 6 -9 14 -9 8 0 16 -6 19 -13 3 -7 31 -33 63 -57 33
-25 61 -48 62 -52 2 -5 8 -8 13 -8 4 0 32 -11 61 -24 57 -26 122 -42 343 -81
252 -45 376 -58 595 -63 451 -8 716 41 1225 229 435 160 526 184 753 200 137
10 224 10 414 0 274 -14 431 -37 514 -75 78 -36 154 -103 189 -167 25 -47 30
-67 33 -151 4 -92 3 -100 -29 -169 -45 -97 -46 -180 -3 -258 15 -29 37 -62 48
-75 12 -12 38 -45 60 -73 46 -60 35 -57 296 -88 243 -30 294 -38 348 -60 73
-30 88 -58 164 -315 12 -42 69 -140 80 -140 5 0 23 -16 41 -36 17 -20 86 -80
152 -132 220 -175 219 -172 310 -467 25 -82 50 -159 55 -170 5 -11 20 -58 35
-104 14 -46 37 -106 50 -134 14 -28 25 -55 25 -61 0 -6 13 -38 29 -71 16 -33
57 -123 91 -200 67 -150 139 -292 201 -392 22 -34 39 -65 39 -69 0 -9 131
-193 188 -264 63 -80 167 -184 247 -248 39 -31 103 -82 142 -114 186 -149 422
-281 561 -314 97 -23 180 -15 257 22 63 31 95 67 175 194 49 79 96 130 137
149 16 8 36 17 45 22 10 5 24 9 31 9 20 0 47 33 47 56 0 11 20 83 45 159 25
77 65 203 88 280 l42 140 0 190 c-1 161 -4 205 -23 290 -23 98 -62 231 -87
290 -7 17 -25 64 -40 105 -24 64 -136 305 -163 350 -5 8 -20 35 -32 60 -13 25
-37 65 -54 90 -17 25 -42 65 -55 90 -13 25 -58 95 -100 155 -42 61 -83 122
-91 137 -8 15 -31 48 -50 74 -80 107 -240 360 -240 379 0 8 -4 15 -10 15 -26
0 -125 193 -229 447 -49 120 -110 269 -135 331 -41 98 -48 127 -57 225 -5 61
-14 126 -19 142 -6 17 -14 53 -19 80 -9 45 -7 56 19 110 49 102 134 163 285
205 107 30 382 34 520 7 119 -24 292 -71 350 -97 22 -10 85 -32 250 -91 61
-22 121 -46 135 -53 14 -8 41 -17 60 -20 19 -4 44 -11 55 -15 32 -13 173 -51
270 -73 127 -28 363 -36 453 -15 37 9 86 19 110 22 23 4 42 10 42 13 0 4 29
21 65 37 80 37 217 172 268 263 24 42 84 210 104 287 15 60 33 428 36 745 2
156 -18 282 -52 330 -9 14 -27 46 -39 71 -27 56 -118 159 -177 199 -39 27 -51
30 -122 30 -43 0 -125 -9 -183 -20 -105 -21 -111 -21 -1875 -9 -973 6 -2143 8
-2600 4 -804 -6 -1174 0 -1535 26 -74 5 -214 13 -310 19 -96 5 -200 11 -230
14 -30 3 -120 11 -200 16 -305 23 -563 56 -855 111 -27 6 -70 14 -95 18 -25 5
-90 18 -146 29 -290 60 -561 76 -720 43z"/>
<path d="M10970 15608 c-41 -5 -100 -15 -130 -24 -163 -44 -144 -37 -262 -94
-192 -94 -408 -294 -496 -459 -82 -155 -106 -219 -144 -381 -18 -76 -17 -357
1 -435 59 -254 167 -454 335 -620 153 -151 315 -244 531 -305 56 -16 240 -40
303 -40 157 0 370 53 526 132 114 57 199 119 298 220 149 150 255 331 306 523
6 22 17 63 24 90 17 67 17 361 0 435 -35 149 -61 221 -119 331 -157 298 -430
513 -763 599 -61 16 -246 40 -295 38 -22 0 -74 -5 -115 -10z m48 -560 c7 -7
12 -26 12 -44 0 -17 4 -44 9 -60 5 -16 16 -72 25 -124 33 -186 40 -220 47
-220 11 0 27 61 34 130 3 30 10 73 15 95 5 22 16 84 26 138 l17 97 52 0 c30 0
57 -5 62 -12 7 -9 2 -61 -14 -153 -13 -77 -28 -171 -33 -210 -6 -38 -17 -108
-24 -155 -12 -73 -12 -96 0 -165 8 -44 19 -102 24 -130 20 -113 32 -175 50
-265 32 -163 32 -167 14 -174 -22 -8 -87 -7 -100 2 -16 10 -20 28 -65 277 -5
28 -13 80 -19 118 -9 67 -24 107 -38 107 -5 0 -20 -75 -35 -167 -14 -93 -29
-184 -32 -203 -4 -19 -9 -55 -12 -80 -3 -25 -10 -48 -17 -52 -17 -11 -104 -10
-111 2 -3 5 1 51 9 102 8 51 17 111 21 133 3 22 13 78 21 125 8 47 19 114 24
150 5 36 12 80 16 99 6 30 0 82 -26 221 -5 25 -16 90 -25 145 -10 55 -23 135
-31 177 -7 43 -11 84 -8 93 7 19 94 21 112 3z"/>
<path d="M817 15163 c-4 -3 -7 -30 -7 -58 0 -67 14 -80 79 -71 39 5 50 3 55
-10 3 -8 6 -310 6 -670 l0 -654 70 0 70 0 0 659 c0 515 3 661 13 669 6 5 35
10 62 9 28 0 56 3 63 7 16 9 16 98 0 114 -13 13 -399 18 -411 5z"/>
<path d="M3567 15155 c-16 -15 -17 -75 -15 -733 l3 -717 58 -5 c32 -3 63 -3
68 1 7 4 10 119 9 324 0 227 3 321 11 331 14 18 120 19 137 2 9 -9 12 -97 12
-335 l0 -323 70 0 70 0 0 729 c0 574 -3 730 -12 734 -7 2 -38 4 -68 3 l-55 -1
-3 -324 c-1 -219 -6 -329 -13 -338 -14 -17 -120 -18 -137 -1 -9 9 -12 97 -12
335 l0 323 -24 0 c-13 0 -37 3 -53 6 -21 4 -35 1 -46 -11z"/>
<path d="M6504 15151 c-22 -10 -55 -36 -72 -57 -62 -75 -63 -85 -60 -697 l3
-552 28 -53 c44 -84 64 -92 245 -92 l152 0 0 60 0 60 -140 0 -140 0 2 273 3
272 68 3 67 3 0 54 c0 61 -2 62 -90 67 l-45 3 0 270 0 270 138 -4 137 -3 0 65
c0 50 -4 66 -16 71 -9 3 -66 6 -127 6 -87 0 -121 -5 -153 -19z"/>
<path d="M15585 15158 c-28 -15 -82 -73 -103 -111 -16 -30 -17 -83 -17 -692
l0 -660 70 0 c69 0 70 0 76 30 4 17 7 166 8 332 l1 302 68 3 67 3 0 65 0 65
-67 3 -68 3 0 259 0 259 143 3 142 3 3 49 c6 100 13 96 -156 96 -87 0 -155 -5
-167 -12z"/>
<path d="M18135 15158 c-3 -7 -4 -339 -3 -738 l3 -725 68 -5 c44 -3 72 -1 78
6 5 7 8 307 7 740 l-3 729 -73 3 c-52 2 -74 -1 -77 -10z"/>
<path d="M23495 15146 c-57 -26 -98 -79 -115 -148 -7 -29 -10 -227 -8 -598 l3
-555 25 -50 c14 -27 40 -60 59 -72 33 -22 42 -23 185 -21 l151 3 3 58 3 57
-53 1 c-29 0 -93 1 -143 2 l-90 2 -3 259 c-2 182 1 263 9 272 7 9 33 14 71 14
l59 0 -3 58 -3 57 -55 3 c-30 2 -60 8 -67 14 -20 16 -19 511 1 527 10 8 55 11
143 9 l128 -3 3 53 c5 79 -1 82 -137 82 -100 0 -123 -3 -166 -24z"/>
<path d="M26233 15152 c-50 -20 -78 -45 -109 -94 -24 -37 -24 -42 -24 -288 0
-235 1 -253 21 -296 12 -25 38 -57 57 -72 31 -23 47 -27 119 -31 75 -3 84 -5
88 -25 3 -11 4 -133 3 -271 l-3 -250 -60 -3 c-109 -6 -105 -11 -105 133 l0
125 -60 0 -60 0 0 -191 0 -190 158 3 c151 3 159 4 189 28 66 53 68 66 68 349
l0 256 -31 55 c-39 69 -93 99 -176 100 -91 0 -88 -8 -88 281 l0 249 23 4 c12
3 44 7 70 9 74 7 77 0 77 -164 l0 -140 63 3 62 3 3 209 c2 161 -1 211 -10 218
-25 15 -230 8 -275 -10z"/>
</g>
</svg>
